<?xml version="1.0" encoding="utf-8"?>
<!-- Generator: Adobe Illustrator 24.0.2, SVG Export Plug-In . SVG Version: 6.00 Build 0)  -->
<svg version="1.1" id="レイヤー_1" xmlns="http://www.w3.org/2000/svg" xmlns:xlink="http://www.w3.org/1999/xlink" x="0px"
	 y="0px" viewBox="0 0 686.6 595.6" style="enable-background:new 0 0 686.6 595.6;" xml:space="preserve">
<style type="text/css">
	.st0{fill:#EEEEEE;}
</style>
<title>home</title>
<g>
	<path class="st0" d="M88.7,369.4c54.3-69,114.7-133.6,180.8-191.4c18.6-16.2,37.6-31.9,57.1-46.9l-7.2,5.6c6.5-5,13-10,19.6-14.9
		c7.7-5.7,13.8-11.7,16.4-21.4c2.4-8.6,1.3-19.9-3.6-27.5s-12.2-14.3-21.3-16.4c-8.7-2-20-2.1-27.5,3.6
		c-78,59-149.2,125.5-211,201.4c-18.4,22.6-35.8,46-52.3,70.1c-4.2,6.1-5.4,17.1-3.1,24.1c2,6.4,5.9,12.1,11.2,16.2s12.1,7,18.9,6.7
		C74.3,378.2,83.7,375.8,88.7,369.4L88.7,369.4z"/>
	<path class="st0" d="M302.3,113.2c4.7,8.5,12.5,13.1,21.3,16.2l-8.1-3.4c4.2,1.8,8.3,3.7,12.6,5.3l-8.2-3.5c7,3,13.1,7.8,19.3,12.1
		c8.2,5.6,16.6,11,24.8,16.6c16.7,11.3,33,23,49.4,34.9c31.7,23,64.2,45.3,95.2,69.2l-7.2-5.6c19.1,14.7,37.3,30.5,54.6,47.3
		c8.4,8.2,16.5,16.7,24.3,25.5c9.8,11,18.3,24.6,30.6,32.8l27.2-64.6c-0.9-0.2-1.9-0.4-2.7-0.9l8.2,3.5c-0.9-0.5-1.7-1-2.4-1.6
		l-8-3.4c-4.3-1.4-9-1.6-13.4-0.6c-7,1-14.3,3.8-19.3,9.2c-3.9,4.3-6.9,9.3-8.7,14.8c-2.9,9-0.2,17.7,3.4,25.9
		c2,4.5,5.5,8.3,8.6,12.1l7.1,5.5c3.9,2.5,8.5,4,13.1,4.2c7.5,1,15.9,0,22.5-4.2c5.1-3.3,9.4-7.6,12.6-12.7c4.5-7,6.4-19.3,3.6-27.2
		c-2.7-7.4-4.9-11.2-9.8-17.3c-1.1-1.4-2.2-2.7-3.2-4.1c-1.8-2.2-3.6-4.5-5.4-6.7c-4.3-5.2-8.8-10.4-13.4-15.5
		c-8.2-9.1-16.8-18-25.6-26.5c-19.9-19.3-41.4-36.8-63.5-53.5c-21.9-16.6-44.7-32.1-67-48.2c-23.3-16.9-46.6-33.8-70.4-50
		c-12.2-8.3-24.6-16.1-37-23.9c-7.2-4.5-15.1-8.7-23.3-10.9c-9.3-2.5-21.2-1.1-29.5,3.7C298.9,77.1,293.4,97.3,302.3,113.2z"/>
	<path class="st0" d="M110.7,372.2c-1.5,2.5-2.6,5.2-3.3,8c-0.4,1.2-0.3,1.2,0.2-0.1c-1.1,1.6-1.8,3.4-2,5.3
		c-1.1,5-1.5,10.3-2.1,15.3c-0.5,3.8-0.9,7.5-1.3,11.3c-0.2,1.6-0.8,5.6-0.2,1.8c-0.6,3.1-1,6.3-1.3,9.5c-0.5,8-1.1,16.5-0.4,24.5
		c-0.1,2.3,0,2.5,0.3,0.5c0.6-3.4,0.4-1.7-0.6,5.1c-0.2,1.9-0.3,3.7-0.3,5.6c0.1,4.1,0.3,8.1,0.5,12.2c0.9,17.5,2.7,34.9,5.4,52.1
		c3.2,19.8,6,44.5,24.8,55.7c11.1,6.7,29.3,3.3,35.2-9.2c3.1-6.6,5-12.8,4.9-20.2c-0.1-6.1-2.3-11.9-3.9-17.7
		c-2-7.3-4.1-14.5-6-21.8c-3.9-14.7-7.5-29.8-10.1-44.8c-0.7-3.7-1.3-7.3-1.8-11c-0.3-1.8-0.5-3.7-0.9-5.5l-0.8-2.7
		c-0.4-1.7-0.4-1.2,0,1.7c0.5-3.4-0.9-7.8-1.2-11.3c-0.3-3.8-0.6-7.5-0.9-11.3c-0.1-3.2-0.5-6.4-1-9.6c-1-4.9-0.1,3-0.4-1.7
		c-0.3-3.8-0.6-7.5-0.8-11.3c-0.2-4.1-0.3-8.2-0.6-12.2c-0.2-2.8-0.7-5.7-1.4-8.4c-0.2-1.1-0.2-1.2-0.1,0c0.1-2.1-0.3-4.1-1.3-6
		c-2.4-5.9-6.2-10.3-13-11.2C120,364,113.9,366.9,110.7,372.2z"/>
	<path class="st0" d="M137.7,582.6c15.5-1.5,31-1.4,46.5,0.1c1.5,0.2,4.1,0.1,5.6,0.6c-2.8-0.4-3.3-0.5-1.5-0.2l2.8,0.4
		c3.7,0.6,7.3,1.2,11,2s7.2,1.8,10.9,2.6c5.6,1.2,11.5,1.5,17.3,2.2c9.4,1.2,19.9-7.9,21.9-16.7c2.1-9-1.1-21.6-10.4-25.7
		c-5.1-2.2-10.5-5.1-15.9-6.4c-3.7-0.8-7.4-1.4-11.1-1.8c-9.8-1.5-19.6-2.4-29.4-2.8c-17.7-0.6-35.6,1.5-52.9,4.8
		c-10.1,2-16.2,13.3-14.9,22.8S127.4,583.6,137.7,582.6L137.7,582.6z"/>
	<path class="st0" d="M258.9,554.7c-0.8-25.1-1.6-50.1-2.4-75.2l-24.9,24.9c14.3-1.5,28.5-3.3,42.7-5.3c13.6-1.9,28.7-2.6,40.1-11.2
		l-26.7-3.5l1,0.8l-6-14.6c-0.5,17.8,1.4,35.6,5.7,52.9c1.9,8,4.5,15.8,7.5,23.5c2,5,3.8,10.4,6.7,15.1c3.9,6.8,10.1,12,17.5,14.7
		c9.9,3.8,23.5-4.3,25.5-14.5c2.5-12.6-3.1-21.8-8.2-32.7c-0.7-1.6-1.5-3.2-2.2-4.8c2.1,5.3-0.3-0.9-0.7-2
		c-1.3-3.6-2.6-7.2-3.7-10.9c-2.2-7.3-4-14.8-5.2-22.3c-0.2-1.2-1.5-6.2-0.3-1.3c-0.3-1.7-0.5-3.5-0.6-5.3
		c-0.4-4.1-0.6-8.2-0.7-12.3l-6.1,14.6l1-0.8c6-4.7,7.6-14.6,5.7-21.5c-2.2-7.9-8-12.7-15.4-15.4c-14.9-5.5-31.5-1-46.6,1.3
		c-12.5,2-25,4.2-37.5,6.5c-9.7,1.9-19.4,13.9-18.3,24c2.8,25.1,5.5,50.1,8.1,75.2c0.7,6,2,11.2,6.5,15.6c3.8,3.8,10.1,6.7,15.6,6.5
		C248.4,576.2,259.3,567,258.9,554.7L258.9,554.7z"/>
	<path class="st0" d="M334.4,592.9c2.6,0.2,5.3,0.6,7.9,0.7c2.9,0.2,2.7,0.1-0.9-0.4c2.9,0.5,5.9,1,8.8,1.3
		c5.3,0.4,10.6,0.4,15.9,0.5c9.9,0.2,19.8,0.7,29.7,0.7c19.8-0.1,39.7-0.1,59.4-1.2s39.6-2.4,59.3-3.9c9.9-0.7,19.8-1.7,29.6-2.7
		c7.5-0.8,14.9-1.9,22.3-3.2c7-1.2,13.2-4.8,19.7-7.6c3.9-1.7,8.1-6.6,10.2-10.2c3.1-5.5,4.3-11.9,3.4-18.1
		c-1.4-10.4-9.4-21.5-20.3-23.6c-7.2-1.4-14-3.2-21.4-3c-5.3,0.2-10.5,0.4-15.8,0.8c-9.9,0.9-19.8,1.8-29.6,2.8
		c-19.8,2-39.6,3.8-59.3,5.4c-19.8,1.6-39.6,4.1-59.4,6c-5.3,0.5-10.6,1-15.8,1.5c-3.2,0.3-6.4,0.7-9.5,1.2
		c-1.3,0.1-2.6,0.4-3.8,0.7c3.8-0.4,4.6-0.5,2.5-0.2l-3,0.3l-7.9,0.8c-4.2,0.4-9,0.2-12.9,1.7c-2.8,0.6-2.5,0.7,1,0.3
		c-2.9,0.3-5.8,0.7-8.6,1.1c-2.6,0.4-5.1,0.8-7.7,1.2c-5.3,0.8-11.9,6.4-14.4,11c-2.6,4.7-3.6,10-2.8,15.3
		C312.4,584.4,322.3,591.8,334.4,592.9L334.4,592.9z"/>
	<path class="st0" d="M537.8,417.1c1.3,7.7,2.5,15.4,3.6,23.2l-1.1-8.5c2.2,16.5,3.7,33,4.4,49.6c0.3,8.2,0.3,16.3,1,24.4
		c0.3,3.9,0.6,7.8,0.9,11.7c0.1,2,0.2,3.9,0.3,5.9c0.8,9.2,3.5,15.5,9.8,22.4c10.7,11.7,30,10.5,40.9,0c6.7-6.5,8.8-13.4,9.9-22.4
		c0.3-2.6,0.6-5.2,0.8-7.8c0.5-5.2,1.2-10.4,1.3-15.6c0.3-10.4-0.6-20.9-1.4-31.3c-1.7-23-4.6-45.9-8.8-68.6
		c-1.3-7.5-8.3-15.4-14.7-19.1c-6.8-4-16.9-5.7-24.6-3.2c-7.7,2.5-15.2,7.3-19.1,14.7C536.8,400.5,536.3,408.2,537.8,417.1
		L537.8,417.1z"/>
	<path class="st0" d="M364.4,385.2c0.5,10.8,1.5,21.6,2.8,32.3c1.5,12.1,2.3,25.4,7.3,36.7c2.8,6.4,12.5,9.8,18.9,7.7
		c7.2-2.2,12.1-8.7,12.3-16.1c0.2-5.8-1.6-11.9-2.6-17.7c-0.4-2.5-0.8-5-1.2-7.5c-0.3-2.1-0.3-2.5-0.2-1.1c-0.2-1.3-0.3-2.5-0.5-3.8
		c-1.2-10.1-2.1-20.3-2.6-30.4c-0.5-9-7.6-17.6-17.2-17.2C372.7,368.5,363.9,375.6,364.4,385.2L364.4,385.2z"/>
	<path class="st0" d="M376.7,380.7c16.4-1.5,32.9-2.3,49.3-3.1c8.1-0.4,16.2-0.5,24.3-1.4c5-0.5,9.9-1.2,14.8-2.2
		c1.9-0.3,3.7-0.7,5.5-1.2c3-0.8,5.7-2.4,7.9-4.6c1.2-1.1,1.2-1.4,0.2-0.8l-20.3-8.3c0.6,2.8,0.2,6.3,0.2,9.1
		c0.1,3.6,0.1,7.2,0.1,10.9c0,7.3-0.2,14.5-0.4,21.7s-0.4,14.5-0.8,21.7c-0.5,9.6-2.2,18.8,5.2,26.3c6,6.1,15,5.1,21.1,0
		c8.5-7.1,6.5-20.4,6.5-30.3c-0.1-7.9-0.2-15.8-0.8-23.7c-0.6-8.6-1.5-17.1-2.5-25.7c-0.5-4.5-1.3-9-1.8-13.5
		c-0.2-2.4-0.2-4.9-1.6-7.3c-1.2-2.1-2.9-3.8-5-5c0.9,0.5,1,0.5,0.3-0.2c-8.3-7.1-20-7.5-30.6-8c-8.1-0.4-16.2,0.6-24.3,1.4
		c-17.5,1.7-35,4.4-52.2,8c-8.9,1.8-14.2,11.7-13.1,20.1S367.6,381.5,376.7,380.7L376.7,380.7z"/>
	<path class="st0" d="M390.3,472.2c13.1-0.9,26.2-0.9,39.3,0.2c3.2,0.3,6.4,0.6,9.6,1c1.2,0.1,5.7,0.3,0.5,0
		c1.6,0.2,3.2,0.4,4.7,0.7c3.2,0.5,6.3,1.2,9.4,1.7c6.1,1.1,12.4,0.9,18.5-0.4c8.3-1.5,14.4-10.2,15.4-17.9c1.2-9-3-16.4-10.3-21.4
		c-7.6-5.3-15.9-6.2-24.8-7.3c-7.4-1-14.7-1.8-22.2-2.3c-13.4-0.8-26.9-0.5-40.3,0.7c-11.7,1.1-23.1,9.6-22.5,22.5
		C368.3,461.3,377.7,473.2,390.3,472.2L390.3,472.2z"/>
	<path class="st0" d="M142.7,403.1c27-25.2,51.5-52.9,78.2-78.5s53.4-51.2,81.8-75.1c7.8-6.5,16.1-12.7,23.5-19.7
		c6.5-6.1,12.6-12.2,15.2-21c3.1-10.6,1.2-21.3-6.3-29.7c-7.1-7.9-20.2-8.8-29-3.7c-1.8,1-6.7,4.4-5.7,4.3l4.2-2.4
		c4.5-2.2,5.7-2.9,3.6-2.3c-0.9-0.3-5.4,2-5.1,1.8c-1.7,0.6-3.4,1.3-5,2.1c-5.7,3.2-11.3,7.6-16.4,11.6
		c-7.1,5.6-13.9,11.5-20.8,17.4c-13.7,11.8-27,23.9-40.2,36.3c-26.2,24.9-50.9,51.3-74,79.1c-14.1,16.9-27.4,34.2-38.6,53.2
		c-5.6,9.4-2.9,21.7,5.6,28.3C122.8,411.6,134.7,410.6,142.7,403.1L142.7,403.1z"/>
	<path class="st0" d="M308.9,198c0.6,1.1,1.2,2.2,1.9,3.3c1.5,2.4-1.4-3.7-0.1,0.2c1.5,4.4,4.2,8.3,7.9,11.2
		c4.4,3.6,8.9,7.1,13,10.9c4.9,4.5,10.1,8.6,15.5,12.6c2.3,1.8,4.6,3.5,6.9,5.3c0.9,0.7,1.9,1.4,2.8,2.1c-5.2-4.2-0.9-0.7,0.3,0.3
		c8.6,6.7,16.7,14,25.2,20.8s17.2,13.6,25.2,21.1c15.9,15.1,32.8,29.1,48.5,44.4s31.3,30.8,46.4,46.8c8.3,8.9,16.4,17.9,24.7,26.7
		c4.3,4.6,8.4,9.6,13.1,13.9c7.3,6.7,15.2,14.6,25.2,16.3c9.1,1.6,16.9,0.8,24.4-5c6.9-5.2,11-13.3,11-22
		c0.1-17.5-13.1-31.9-23.8-44.6c-7.3-8.6-14.8-17-22.7-25.1c-15.3-15.8-31.1-31.1-47.6-45.6c-18.5-16.2-37.5-31.8-57-46.6
		c-8.7-6.6-17.8-12.7-26.7-19.1c-4.2-3-8.5-6-12.7-8.9c-4.8-3.3-9.8-6-14.7-9c-12.1-7.4-23.7-15.8-36.8-21.3c-1-0.4-2-1-3.1-1.3
		c5.5,1.7,0.6,0.1-0.7-0.5c-3.1-1.5-6.3-3-9.4-4.5c-4.8-2.3-9.6-5-15.1-5l-5.5,0.7c-1.5,0.2-1.6,0.2-0.1,0s1.5-0.3-0.4-0.3l-3-0.2
		C310.2,175.2,303.4,188.8,308.9,198L308.9,198z"/>
	<path class="st0" d="M69.5,338.7c0.7,5.4,0.8,5.7,0.1,0.8c0-2.3-0.6-4.6-1.8-6.6c-0.8-2-1.9-3.9-3.1-5.6c-1.4-2.2-2.6-4.5-3.7-6.8
		c-0.5-0.9-0.9-1.9-1.4-2.8c-0.4-0.7-2.5-5.6-0.5-0.9c2,4.6,0.2,0.1-0.2-1c-0.5-1.5-0.8-3-1.2-4.5L50.2,340
		c9.5-7.8,19.1-15.4,28-23.9c8.6-8.3,17.2-16.5,25.9-24.7c17.5-16.6,34.9-33.5,52.4-50.2c35-33.4,70.9-65.7,106.3-98.7
		c9.7-9,19.3-18,29.1-26.9c13.5-12.4,33.5-27.3,31.8-47.5c-1-12.1-8.2-25-21.2-27.8c-9.1-2-18.3-2.3-26.7,2.8
		c-2.2,1.3-4.1,3-6.2,4.5c-6.9,5.2-13.7,10.5-20.2,16.1c-9.3,8-18.5,16.1-27.7,24.2c-17.9,15.8-35.3,32-52.8,48.3
		c-35.5,33.2-71.1,66.5-105.1,101.3c-9.5,9.7-18.9,19.4-28.3,29.1c-9.7,10.1-18.4,20.7-27.1,31.6c-4.2,5.3-7.2,10.1-8.1,17
		s0.5,12.4,3.5,18.8c3.4,7.4,7.9,14.2,13.4,20.2c2.2,2.3,4.5,4.3,7,6.2c3.2,2.5,5.9,4.8,9.7,6.4c4,1.7,8.1,1.9,12.4,2.5
		c7.3,0.9,14.8-4.1,19-9.5C70.1,353.4,71,346.6,69.5,338.7L69.5,338.7z"/>
	<path class="st0" d="M295.5,77.4c1.4-1.3,1.1-1.2-0.9,0.4c2.9-1.7,1-1.3-5.5,1c2.5-0.2,4.9-0.7,7.3-1.4c1.2-0.3,2.3-0.4,3.5-0.7
		c2.3-0.4,1.6-0.3-2,0.3c2.4,0,1.7-0.3-2.2-0.7c2.8,0.7,5.6,1.1,8.5,1.1c4.6,0-5-1.1-0.9-0.1c3,0.7,5.9,1.5,8.8,2.5
		c4.4,1.5-5.5-2.7-0.4-0.1c1.7,0.9,3.5,1.7,5.3,2.5c3.3,1.5,6.6,3.1,9.8,5c3.5,2,6.7,4.2,10,6.4c1.8,1.3,1.8,1.3,0.1,0
		c-3.1-2.4-1.7-1.4,4,3.1c3.3,1.9,6.9,3.5,10.6,4.6c9.6,2.9,20.3-1.3,26.2-8.9c6.1-8,6.9-18.9,2-27.7c-6.2-10.9-18.1-17.6-29.2-22.7
		c-11.5-5.3-22.3-8.8-35-9.9c-10.3-0.9-20,1.2-29.5,5.4c-4.1,1.9-7.7,4.7-10.6,8.1l-3,3.9c-2.2,5.1-2.7,6.2-1.4,3.4
		c1.8-3.9-1,2.3-0.8,1.9c-1,2.1-1.7,4.3-2.2,6.6c-1.4,7,0.8,15.1,7.6,18.7c6.5,3.4,14.8,2.8,20.1-2.6L295.5,77.4z"/>
	<path class="st0" d="M341.3,86.1c3.4,3.3,6.8,6.6,10.1,9.9c0.9,0.7,1.8,1.6,2.5,2.5l-1.3-1.9l3.6,4.6c2.1,2.1,4.3,4.1,6.6,5.9
		c3.6,3.1,7.1,6.2,10.7,9.4c1.8,1.6,3.4,3.3,5.3,4.7c3.3,2.5,0-0.5-0.6-1.4c2.8,3.8,3.9,5.1,6.9,7.7c15.3,12.9,29.7,26.5,44.4,40
		c29.7,27.2,58.5,55.4,86,84.9c7.5,8.1,15.2,16.1,22.6,24.2c3.8,4.2,7.6,8.4,11.7,12.4c2.2,2.1,4.3,4.2,6.4,6.2
		c5.5,5.3,11.3,7.9,18.2,10.6l-7.3-3.1c2.3,1.6,4.7,3.3,7,4.9c9.8,6.9,26.4,4.2,34.4-4.4c8.8-9.6,10.5-22.8,4.4-34.4
		c-1.3-2.6-2.7-5.2-4.1-7.8l3.1,7.3c-3.4-13.4-14.6-25.3-23.9-35.3c-6.9-7.4-13.9-14.8-21-22c-14.2-14.5-29.1-28.3-44.2-42
		c-15-13.6-30.6-26.9-46.5-39.6c-17.1-13.7-34.7-26.4-52.4-39.2c-2.2-1.6-4.3-3.1-6.5-4.7c-1.9-1.4-3.9-2.5-6.1-3.4
		c-4.2-1.7-4.2-1.8-0.1-0.1l-1.5-1c-4.5-3.3-9.5-6.1-14.3-9.1c-2.3-1.4-4.5-2.8-6.8-4.3c-1-0.6-2-1.3-3-1.9
		c-2.3-1.1-4.7-2.2-7.1-3.1l2.1,1c-2.4-0.2-5.8-3-8-4l-8-4c-8.7-4.3-18.7-2.9-24.8,5C334,68.3,334.3,79.4,341.3,86.1L341.3,86.1z"/>
	<path class="st0" d="M427.2,145.6l9,8.3c1.2,1.3,2.5,2.5,3.8,3.5c-2.2-1.5-1.1-1.5,0-0.2c1.4,1.9,2.9,3.8,4.5,5.6
		c5.7,5.8,11.9,11.1,17.8,16.7c12.1,11.4,24.1,22.9,35.6,34.9c22.9,23.6,46,47,66.8,72.5c1.5,1.8,2.9,3.6,4.4,5.4
		c1.2,1.5,5.9,7.8,1,1.1c2.6,3.5,5.2,6.9,7.8,10.4s5,6.7,7.6,10c2.3,2.9-3.5-4.6-1.3-1.6l2.1,2.8c4.1,5.4,8.2,10.6,12.7,15.7
		c6.4,7.2,17.4,9.2,26.4,7c7.3-1.9,12-6.6,16.2-12.5c5.8-8,4.1-19.2,0-27.4c-8.2-16.4-20.4-30.6-32.2-44.5
		c-10.7-12.6-21.9-24.8-33.7-36.3c-24.1-23.6-50-44.8-76.5-65.6c-8.4-6.6-16.8-13.1-25.3-19.6c-3.7-2.8-7.8-4.9-11.5-7.7l-11.7-9
		c-7.7-5.9-19.8-1.9-25,5C420,127.4,420.1,139,427.2,145.6L427.2,145.6z"/>
	<path class="st0" d="M352.8,96.5c1.9,1.9,3.8,3.7,5.7,5.6c1.1,1,2.2,2,3.2,3.1c-1.6-1.6-5.1-4.3,2.1,3c3.9,4,8.8,7.1,13.1,10.8
		c8.2,6.9,16.9,13.4,24.7,20.7c15.9,14.9,33.2,28.5,49.5,43c32.8,29.2,65.5,58.5,96.7,89.4c8.5,8.5,17,17.1,25.3,25.8
		c4.2,4.4,8.3,8.7,12.7,12.8c4,3.6,7.9,7.8,12.6,10.4c6.6,3.7,12.9,5.2,20.5,5.9l-14.6-3.9c3.2,1.5,6.5,2.9,9.7,4.2
		c8.8,3.6,20.4-0.8,26.7-7c6.6-6.6,10.1-17.6,7-26.7c-0.3-1-0.7-2-1.1-3l1,7.7c-0.5-18.1-12.9-31.3-25.1-43.3
		c-7.9-7.8-16-15.6-24.1-23.2c-16-15.1-32.2-30-49.1-44.1c-18.3-15.4-37.1-30.3-56.1-44.8c-17.1-13.3-35.2-26.3-53.5-38
		c-5.3-3.4-10.9-6.3-16.1-9.8c-5-3.3-10-6.5-15.3-9.4s-10.3-6.2-15.5-9.1c-1.9-1-3.8-1.9-5.8-2.8c-1.3-0.8-2.7-1.2-4.3-1.4
		c1.8,0.9,2,1,0.7,0.4c-3.1-1.2-6.1-2.7-9.2-4c-8.3-3.6-17.2-3-23,4.6C346.1,79.9,346.5,90.2,352.8,96.5L352.8,96.5z"/>
	<path class="st0" d="M489.1,212.2c23.9,18.9,48,37.5,71.7,56.6c10.3,8.1,20.2,16.8,29.4,26.1c2.3,2.4,4.6,4.8,6.8,7.3
		c1.1,1.3,2.2,2.5,3.2,3.8c1.6,1.9,3.3,6.1-0.4-0.7c1.4,2.6,3.6,5,5.2,7.5c0.9,1.4,1.8,2.8,2.6,4.2c0.4,0.7,0.9,1.4,1.3,2.2
		c1.5,2.7,1.1,1.7-1.1-3.2c2.5,10.9,12.9,18.8,23.5,20.3c10.1,1.4,23.7-3.3,28.2-13.5c2.5-5.8,4.4-9.8,4.5-16.4
		c0-5.9-1.6-11.7-4.6-16.8c-1.7-2.9-3.5-5.7-5.4-8.4c-5.2-7.5-10.9-14.6-17-21.4c-9.6-10.5-20.5-19.8-31.6-28.6
		c-27-21.5-54.8-42.2-82.2-63.3c-5.2-4-15.7-4.8-21.7-2.8c-5.8,1.8-10.9,5.3-14.6,10.1C479.2,185.3,478.1,203.5,489.1,212.2
		L489.1,212.2z"/>
	<path class="st0" d="M587.7,291.2c6.2,9.3,11.1,19.6,16.2,29.5c2.5,4.9,5.2,9.7,7.7,14.5c4.6,9,10.1,18.9,21.4,20.6
		c9.7,1.5,22.3-0.8,27-11c3.3-7.2,5.2-14.2,2.5-22.1c-1.5-4.5-4-8.4-6.5-12.3c-3.6-5.5-7.2-10.9-11.2-16.1
		c-7.6-9.9-16.1-18.9-24.1-28.5c-6.7-8-19.9-7.5-27.5-1.6C585.3,270.2,581.9,282.5,587.7,291.2L587.7,291.2z"/>
	<path class="st0" d="M647.7,357c17.2-15.6,27-45.9,15.1-67.3c-4.7-8-13.3-13-22.6-13h-1.8c-10.9,0-22.3,7.9-24.8,18.9
		c-2.6,11.3,1.8,22.8,11.8,29l1.5,0.9L614,303c0.1,3.4,0.5,6.7,1.2,10c0.6,3.1-0.2,4.7,0.1-1.2c-0.1,1.4,0.1,3,0.1,4.4
		c0.1,5.1,1.5-6,0.2-1c-0.4,1.4-0.8,2.9-1.1,4.3c-1,4.5,2.8-4.9,0.3-0.6c-0.6,1.1-1.2,2.2-1.8,3.2c-3.2,5.1,3.1-3.4-0.2,0.2
		c-8.6,9.6-10.2,25.5,0,34.8C623.1,366.4,637.5,366.3,647.7,357L647.7,357z"/>
	<path class="st0" d="M600.1,293.4c1.2,1.9,2.3,3.9,3.3,5.9c0.7,1.3,1.2,2.6,1.9,3.8c1.2,2.3-0.4-3-0.3-0.5c0.2,2.2,0.8,4.4,1.6,6.5
		c0.3,1.3,0.3,1.1,0-0.7c-0.4-2.6-0.3-2,0.2,1.7c0.3,2.3,0.7,4.3,1.1,6.5c0.1,1.1,0.3,2.2,0.6,3.3c-0.4-1.1-0.6-5.3-0.3-1.8
		c0.2,2.2,0.4,4.4,0.4,6.6c0.1,2.5,0,5,0.1,7.5c0.1,3.9,0.9,7.8,2.4,11.5c1.7,4,1.8,4.4,0.6,1.3c-0.8-2.4-1-2.7-0.6-0.9
		c1.8,9.9,12.3,17.3,21.5,18.5c11.2,1.5,19.3-3.8,25.8-12.4c11.5-14.9,2.3-36.4-4.6-51.3c-0.5-1-0.9-2-1.5-3
		c-0.6-1.5-1.6-2.8-2.7-3.9c-2.5-3.2-2.5-3.3-0.1-0.2c0.1-0.4-1.5-2.5-1.8-2.9c-1.5-2.3-3.2-4.5-5-6.6c-1.7-1.9,2.3,3.2-0.1-0.2
		c-1.2-1.7-2.4-3.3-3.7-4.9c-2.3-2.9-4.5-5.8-7-8.5c-6.8-7.5-19.1-7.5-26.8-1.6C597.5,273.2,594.8,284.6,600.1,293.4L600.1,293.4z"
		/>
	<path class="st0" d="M651.5,355.5c13.7-8.1,19.4-23.5,17.4-38.8c-2.2-16.2-13-32.9-29.4-36.8c-13.8-3.3-23.6,8.4-21.4,21.4
		c0.3,1.9,0.8,3.8,1.4,5.7c0.9,3.4,2.8,6.6,5.3,9.1c1.5,1.8,1.4,1.7-0.2-0.3c0.8,1.2,1.7,2.3,2.6,3.4c2,2.6,2.2,2.8,0.3,0.5
		c1.1,0.7,2.9,4.3,3.2,5.6c-1-2.5-1.2-2.7-0.5-0.7c0.5,2.2,0.5,1.8,0.1-1.1c0.6,0.8,0.1,3.2,0.2,4.2c-0.1,2.1,0,1.8,0.2-1
		c-0.2,0.9-0.4,1.7-0.7,2.6c1-2.3,1.1-2.6,0.1-0.8c1.5-1.8,1.5-2,0.2-0.6C615.7,341.7,634.3,365.6,651.5,355.5L651.5,355.5z"/>
	<path class="st0" d="M308.6,118.7c10.4,8.1,21.3,15.9,31.2,24.7c0.2,0.2,4.9,3.7,2.1,1.6l-0.7-1c2.1,3.6,5.1,6.6,8.7,8.7
		c2.5,1.9,5.1,3.8,7.7,5.8c5.6,4.2,11.3,8.5,16.9,12.8l7.7,5.8l3,2.3c5.2,4-4.2-3.6,0.8,0.7c6.3,5.4,13,10.4,19.7,15.4
		c10.5,7.9,21,15.8,31.4,23.7c2.5,1.9,5.1,3.8,7.6,5.8c-6.4-5,1.7,1.6,3.2,2.8c3.9,3.2,7.8,6.3,11.8,9.4c1.3,1,6.7,5,0.2,0.1
		c1.5,1.1,3,2.3,4.5,3.5c10.6,8.2,21.1,16.4,31.6,24.7c20.5,16.2,40.9,32.6,61.1,49.1c11.3,9.3,22.5,18.8,34.1,27.8
		c7.5,5.8,15.1,13.1,23.2,17.8c4.8,2.8,10.4,5.8,15.6,7.4c5.2,1.6,10.1,1.7,15.4,1.3c7.8-0.5,14.2-3.3,19-9.5
		c5.1-6.6,5.5-13.1,4.3-21.1c-0.5-4.6-1.8-9.1-3.9-13.3c-2.3-4.4-6.2-8.1-9.3-12c-4.5-5.4-10.2-9.6-15.6-14
		c-12-9.9-24.3-19.2-36.7-28.6c-20.9-15.7-41.9-31.3-63-46.6c-42.7-31.1-86.2-61.1-130.5-90c-6.4-4.2-12.8-8.3-19.3-12.5
		c-7-4.5-14-9.9-21.9-12.8c-5.7-2.1,4.1,2.6-1.3-0.5c-1.7-0.9-3.4-1.8-5-2.7c-3.3-1.9-6.6-3.9-9.9-5.9c-6.6-3.9-13.2-7.8-19.8-11.6
		c-8.5-4.9-19.4-2.7-25.4,5.1C301.7,99.8,300.9,112.7,308.6,118.7L308.6,118.7z"/>
	<path class="st0" d="M599,353c1.9,4.2,4.5,8,7.8,11.2c1.9,2,4.1,3.8,6.4,5.2c-4.5-2.6-2-1.1-0.6,0.2c9.5,9,23.4,11.4,35.9,8.7
		c11.2-2.4,20.5-10.5,26.8-19.8c6.7-10,9.4-26.1,1.7-36.3c-4.5-6-9.1-9.9-16.7-10.9s-13.5,1.4-19.3,6.3c-3.7,3.1-5.8,7.2-8.3,11.1
		c-0.6,0.7-1.1,1.5-1.6,2.3c2.6-3.2,3.2-4,1.9-2.6c-4.5,3.9,4.8-2.2,0.5-0.2c-1.3,0.5-2.5,1.2-3.7,1.9c4.1-1.6,4.9-2,2.3-1.2
		c-0.9,0.2-1.8,0.4-2.7,0.6c-4.3,1.1,6-0.2,1.2-0.3c-1.8,0-3.4,0.2-5.2,0l11.1,3c-1.5-0.6-2.9-1.5-4.3-2.3c-1.4-0.8-0.8-0.5,1.6,1.2
		c-1.5-1.6-1.3-1.3,0.5,1c-6.4-8.5-17.9-13.8-27.9-7.3C596.1,331.7,594.5,342.5,599,353L599,353z"/>
	<path class="st0" d="M617,322.6c4.8,3.5-5.2-4.5-0.7-0.5c1.2,1.1,2.5,2.1,3.6,3.2c2.2,2,4.2,4.2,6.2,6.5c0.9,1,1.7,2.2,2.6,3.1
		c-5.4-5.4-2.3-2.8-0.8-0.7c3.1,4.2,6.6,7.9,10,12c7.7,9.2,24.6,10.8,34.5,4.4c4.1-2.6,7.6-6.1,10.2-10.2c3.4-5.4,5.4-15.8,2.9-21.9
		c-3.3-8.1-5.5-13.5-10.9-20.2c-2.2-2.8-4.5-5.5-6.9-8c-6.6-6.5-13.8-12.3-21.7-17.2c-12.7-8.1-32.2-3-39.3,10.3
		c-3.5,6.6-5.3,14.7-2.9,22.1S610.7,317.9,617,322.6L617,322.6z"/>
	<path class="st0" d="M474.8,415.2c1,7.6,2,15.1,3.1,22.6l-1-7.8c1.8,19.9,5.1,39.6,9.9,59c2.1,8.5,4.7,17,7.3,25.3
		c1.3,4.2,2.7,8.3,4.1,12.5s2.8,8.7,4.9,12.5c2.2,4.1,5.4,7.5,8.3,11.1c3.2,3.9,9.5,7,14.3,8.3c7,1.8,14.4,1.3,21-1.6
		c11.2-4.8,20.6-16.8,19.9-29.5c-0.3-7.3-1.9-14.5-4.6-21.2c-1.8-4.7-3.6-9.4-5.3-14.1c-3.3-9.2-6.3-18.5-9.3-27.7
		c-6.2-18.7-12-37.7-15.9-57c-2.8-14-18.4-22.4-31.6-20.6c-6,0.8-12.3,3.3-16.5,7.9C478.5,400,473.9,407.8,474.8,415.2L474.8,415.2z
		"/>
	<path class="st0" d="M471.1,387.5c0.8,1.6,1.5,3.3,2.3,4.9c0.4,0.8,0.8,1.6,1.1,2.5c0.7,1.4,0.4,1.1-0.7-0.9c0.2,1.5,0.7,3,1.5,4.4
		c0.6,1.5,1.2,2.9,1.9,4.4c0.8,1.6,1.5,3.3,2.3,4.9c0.9,1.6,1.7,3.3,2.3,5c-0.7-2.8-1.3-3.1-0.5,0c1.4,4.9,4.3,9.7,6.5,14.4
		c0.7,1.4,1.3,2.7,2,4.1c0.5,1.1,1,2.2,1.5,3.3l-1.4-3.3c0.8,3.3,2.5,6.7,3.7,9.9c3.2,8.7,7.2,17,10.8,25.5l-3.1-7.4
		c4.4,10.5,8.7,21,12.7,31.6c5.5,14.4,9.5,31.6,20.5,42.8c9.2,9.4,23.9,11.8,35.8,6.8c12.2-5.2,19.6-16.7,20.1-29.9
		c0.4-11.3-4.8-22.3-9.5-32.2c-2.7-5.7-5.5-11.4-8.3-17c-5.9-11.5-12.3-22.7-19.1-33.8c-3.9-6.1-8.1-12-12.7-17.7
		c0.4,0.5-4.1-5.7-4.4-5.6c2.3,3,2.9,3.6,1.7,2l-1.6-2.2c-1.7-2.5-3.5-4.9-5.3-7.4c-4.8-6.6-10.4-12.4-15.7-18.6
		c-2.7-3.2-5.5-6.7-9.4-8.6c3.7,1.8,0.5-0.2-0.7-1.5s-2.5-2.6-3.7-3.9c-6.8-7-18.2-7.3-25.7-1.5C468,368.6,466.9,378.6,471.1,387.5
		L471.1,387.5z"/>
	<path class="st0" d="M422.9,552.8c18.8-1.2,37.6-1.7,56.3-3.3l27.7-2.3c4.6-0.4,9.2-0.7,13.8-1.2c8.6-0.9,18.6-1.6,25.9-6.6
		l-40.8-10.7c-1.7-5.3-2.3-6.6-1.8-3.9l-1-7.5c0,3.1,0.4,6.2,1.2,9.1c3.4,11.5,13.6,18.8,25.4,19.4c10.9,0.5,23-7.2,27.7-17.2
		c4.2-8.9,5.4-17.3,1.5-26.5c-3.9-9.3-10.4-13.6-19.3-17.3c-9.9-4.1-23.3-0.8-33.6,0.5l-28.7,3.5c-20.7,2.6-41.2,6.1-61.8,9.2
		c-6.2,0.9-13.8,7.5-16.6,12.8c-3,5.4-4.1,11.6-3.3,17.7C397.3,541.6,409,553.7,422.9,552.8L422.9,552.8z"/>
	<path class="st0" d="M335.4,565.3c7.8,1.6,15.5,1.2,23.5,1.2c5.9,0,11.8,0.2,17.8,0c12.5-0.4,25-1,37.5-1.8l36.5-2.5
		c14.5-1,30.2-1.2,44.3-4.5c13.5-3.2,24.9-17.8,24.3-31.9c-0.3-5.8-1.8-11.5-4.5-16.6c-3.3-6.3-12.5-14.1-19.8-15.2l-1.5-0.2
		c-5.8-0.8-11.5-1.6-17.3,0c-6.7,1.9-12.7,6-16.9,11.6c-3.5,4.4-5.7,9.7-6.4,15.3c-0.9,6.5-0.3,15.3,3.8,20.7l0.8,1.1l28.6-49.8
		c-6.2-0.2-12.6,1.2-18.7,1.9c-8.2,1-16.3,2.1-24.5,3.3l-37.1,5.3c-12,1.7-24,3.7-36,5.8c-13.4,2.4-27.9,4.8-40.5,10.2
		c-9,3.9-13.2,16.3-12,25.1C318.6,553.7,325.7,563.4,335.4,565.3L335.4,565.3z"/>
	<path class="st0" d="M379.6,504.1c-1.5-1.3-1.3-0.7,0.6,1.9c1.3,3,1.7,3.5,1.2,1.4l-2,15.1c1.2-2.4,2.3-4.8,3.3-7.4L361,531.7
		c8,0.7,15.9,0.9,23.9,0.6c8.1-0.4,16.2-0.3,24.3-0.3c16.3,0,32.6,1.1,48.7,3.1l-8.7-1.2c7.7,1.1,15.4,2.4,23,4.1
		c11.8,2.6,24.9,7.4,36.8,3.3l-25.2-59.7l-2.9,1.6c-4.3,2.5,4.1-0.8,1.1-0.7c-2.3,0-5,1.2-7.3,1.7c-1.5,0.3-3.1,0.7-4.5,1.1
		c-2.1,0.8-1.7,0.8,0.3,0.5c-2.9,0.4-6,0.5-8.9,0.8c-2.6,0.2-5.3,0.4-7.9,0.7s-5.2,0.9-7.9,1.1c2-0.1-0.4-0.2-1.1-0.2
		c-2.6,0-5.3,0.2-7.9,0.2c-1.7,0-3.3-0.1-5-0.3l-2-0.3c-3-0.5-1.5,0.3,4.6,2.5l4.9,8.5l-0.2-0.6L408.3,522
		c7.8,4.5,16.3,7.7,25.1,9.5l-6.6-50.6c-2.5,1.2-5,2.5-7.5,3.9c-1.2,0.5-2.3,1-3.4,1.7c4.1-1.7,5.1-2.1,3.1-1.3
		c-0.7,0.3-1.4,0.5-2.2,0.8c-2.7,0.9-5.4,1.6-8.1,2.3c-2.4,0.6-5.9,0.5-8.1,1.7c1.5-0.8,6.1-0.5,1.5-0.3c-1.3,0.1-2.5,0-3.8,0
		c-4.5,0.3-9,0.9-13.4,1.9l-1.3,0.3c-1.7,0.3-1.7,0.3,0,0.1s1.8-0.2-0.1,0l-1.4,0.1c-3.5,0.2-7,0.3-10.4,1.4
		c-7.3,2.2-11,9.3-9.4,16.6s7.4,13.8,12.9,18.7c4.9,4.4,10.2,8,16.6,9.7c3.2,0.8,6.4,1.3,9.6,1.9c10.3,1.9,20.9,1.5,31-1.2
		c10.4-2.6,20-7.6,28.1-14.6c8.3-7.2,9.7-20.8,5.7-30.3s-14.5-18-25.3-17c-11.3,0.9-22.3,3.9-32.5,8.8c-12.3,6-13.2,23.9-4.2,32.9
		c9.3,9.3,26.3,7.6,32.9-4.2l0.4-0.8l-6.9,6.9c-1.5,0.9-5.7,0.5-1.7,0.8c0.5,0,3.9,0,3.7,0c1.5,0.1,5.2,0.8,7.5,1.2
		c5.7,1.1,11.4,2.9,17,4.3c2.5,0.6,5.1,1.3,7.6,1.8c6.1,1.3-5.7-2.5,2.7,1c1.8,0.8,3.7,1.6,5.5,2.3c2.7,1.1,5.5,2.1,8.2,3.3
		c4.7,2-2.9-2.2-0.9,0.1c1.1,1,2.3,1.9,3.6,2.7c6,4.6,18.2,5.5,25.2,3.3c6.7-2,12.7-6.1,17-11.7c10.1-13.1,8.5-30.7-2.6-42.8
		c-12.6-13.7-37.1-14.5-54.4-16.2c-12.4-1.3-24.9-1.7-37.4-1.4c-14.3,0.3-28.5,2-42.4,5.1c-14.1,3.3-27.1,7.6-39.6,15.1
		c-11.7,7.1-15.8,25.6-4.6,35.4c3,2.8,6.6,5,10.5,6.4c2.1,0.4,4.2,0.6,6.3,0.8c-4.2-0.6-4.5-0.7-0.9-0.2c5.7,0.8,10.2-0.3,15.4-2.6
		C385.2,525.5,387.3,510.2,379.6,504.1L379.6,504.1z"/>
	<path class="st0" d="M328.6,478.9c-1.5,6.3-0.5,12,0.3,18.3c1,7,2.6,13.9,4.8,20.5c4.1,12.3,8.8,24.3,14.2,36.1l49.9-38.5
		c-4.5-4-8.8-8.3-13-12.6c-2.3-2.3-4.5-4.7-6.7-7.1c-0.8-0.9-3.8-4.7-0.9-0.7c3.1,4.2-0.6-0.7-1.2-1.6c-7.2-10-13.3-20.8-18.1-32.1
		c-1.6-3.7-6.2-7.6-9.6-9.6c-5.2-2.9-11.2-4.1-17.1-3.2c-9.7,1.3-20.5,8.9-22.3,19.2c-0.4,2-1.3,3.8-1.8,5.8
		c-0.8,3.4-1.2,7-1.2,10.5c0,5.4,0.5,10.7,1.6,16c2,11.1,8,20.1,14.9,28.7c7.8,9.6,25.4,11,35.5,4.6c11.6-7.5,15.9-19.7,13.4-33
		c-4.3-23.8-10.9-47-18.5-69.9c-4.4-13.2-16.4-21.8-30.4-19.9c-13.3,1.8-24.3,13.4-24,27.2c0.3,15.5,0.8,31,5.9,45.8
		c6.4,18.7,17,34,33.7,44.9c10.8,7.1,28.2,4.8,36.9-4.8c3.6-3.9,6.2-8.5,7.8-13.4c2.6-8.1,0.3-16.2-3.1-23.5
		c-3.7-8-9-15.2-13.3-22.8c-2.1-3.7-4.3-7.3-6.3-11c-1-1.7-1.8-3.5-2.9-5.1c-0.6-0.8-1.2-1.7-1.7-2.6c1.8,3.3,2.2,7.3,1.1,10.9
		l-9.4,12.2l-3.1,1.3l-20.2-5.3c6.8,6.9,13.9,13.5,20.5,20.6c6.9,7.4,14.8,13.5,22.5,20c9,7.5,17.8,15.1,27.5,21.7
		c9,6.2,19,10.3,30.2,7.2c9.7-2.7,18-10.7,20.4-20.4c2-7.9,0.8-16.3-3.3-23.3c-3.3-5.5-7.7-9-12.8-12.8c-4.2-3.2-8.3-6.4-12.8-9.1
		c-8.4-5.1-16.7-10.2-25.1-15.3c-8.7-5.3-17.9-9.3-27.1-13.8c-4.1-2-8.2-4.2-12.3-6.2s-8.3-3.9-13.1-4.1c-6.5-0.3-13.3,3.7-17.1,8.7
		c-5.4,7,4.3-5.5-1.2,1.5c-2,2.3-3.4,5.1-4.2,8c-0.9,3-1.3,6-1.4,9.1c0.1,6.6,1.8,13.3,3.1,19.8l1.7,8.8c0.2,1,0.3,2,0.5,2.9
		c0.8,3.5-0.7-5.6,0-0.5c1,7.7,1.9,15.6,4,23l44.8-34.4c-1.2-0.7-2.3-1.4-3.5-2.1c-4.4-2.8,5.5,5.1,1.9,1.5
		c-1.6-1.6-3.1-3.1-4.6-4.7c-3.5-3.8,4.1,6,1.5,1.8c-0.7-1.1-1.5-2.2-2.1-3.4c-0.6-1-1.1-2-1.6-3s-2.7-6-0.5-0.8
		c2.1,5,0.4,0.8,0-0.3s-0.9-2.6-1.3-4c-0.8-2.5-1.4-5-2-7.5c-1.2-5.3-2.1-10.6-2.8-16l1,7.5c-0.3-2.3-0.6-4.6-0.8-7l-54.6,7.5
		c6.4,23.3,11.2,47,15.6,70.7l48.9-28.5c5.9,7.2,1.4,1.6,0.2-0.4c-0.7-1.3-1.2-3-2.1-4.1c1.7,4.4,2.2,5.5,1.4,3.4
		c-0.3-0.7-0.5-1.5-0.8-2.2c-0.6-2-1-4-1.3-6l1,7.5c-0.2-1.5-0.3-3.1-0.4-4.6l-1-7.4c0.8,2.8,0.7,5.7-0.2,8.4h-51.6
		c8.3,28.8,23.3,56.8,44.2,78.4c11,11.4,29.5,11.9,41.7,2.5c12.6-9.7,16.1-27.2,8.2-41c-5.4-9.5-11.5-18.7-18.1-27.4
		c-4-5.3-7.9-11.2-12.6-15.8c-2-1.9-4.1-3.8-6.1-5.6c-3.7-3.4-8-6-12.7-7.9C343.5,460.8,330.9,469.4,328.6,478.9L328.6,478.9z"/>
	<path class="st0" d="M442.3,517.2c13.4-1.6,26.8-1.7,40.2-2.2c6.4-0.2,12.8,0,19.3,0c8.2,0.1,17.4,0.7,25.2-2.1
		c8.6-3.1,14.8-9.3,16.1-18.6c1.2-8.9-3-17.7-10.7-22.3c-8.5-5.2-18.8-6-28.6-6.9c-7.1-0.5-14.1-0.5-21.2-0.2
		c-15.5,0.5-31.3,3.5-46.4,6.9c-11.2,2.5-18,14.5-16.5,25.3C421.1,507.4,430.9,518.5,442.3,517.2L442.3,517.2z"/>
	<path class="st0" d="M394.5,488.8c1,4.8,3.4,9.2,6.9,12.7c1.6,1.6,3.4,3,5.3,4.2l0.9,0.6c1.5,0.9,1.4,0.6-0.4-0.6
		c-2.2-1.8-1.9-1.6,1,0.7c2.2,2,5,3.5,7.9,4.2c0.8,0.3,1.5,0.5,2.4,0.7c3.9,0.8,7.9,1.2,12,1.2c1.3,0,2.6,0.1,3.9,0.2
		c5.8,0.2-2.9-1.1-0.1,0.1c2.5,1.1,5.6,1.2,8.3,1.8c10.5,2.3,19.6,5.5,30.6,2.8l-7.7,1c6.3-0.8,12.2-1,17.5-5.1
		c5.6-4.3,10.8-8.9,12.5-16.2c1.6-6.8,1.3-14.9-2.7-20.9c-7.2-10.5-18.1-17.2-31.1-17.1c-6.9,0.1-14.1,1.3-20.8,2.3
		c-5,0.7-9.8,2-14.8,2.9c-1.3,0.2-2.5,0.5-3.8,0.7c4.4-0.5,5.3-0.6,2.7-0.4c-3.3,0.2-6.7,0.2-9.7,1.5h12c-1.7-0.4-1.6-0.2,0.5,0.5
		c4.6,1.6,7.7,5.2,9.3,10.6c-3.7-10.8-15.2-19.1-27-15.3C397.7,465.7,392.3,476.6,394.5,488.8L394.5,488.8z"/>
	<path class="st0" d="M391.6,501.6c-1-0.5-2-1.1-3-1.7c-0.8-0.5-0.8-0.5,0,0.2l-1-0.9c-0.8-0.8-1.6-1.5-2.4-2.3s-2.2-1.5-0.7-0.8
		l-0.8-1.1c0.4,1.3,0.4,1.5,0,0.5c-0.5-1-0.8-2.1-1.1-3.2c-0.3-1.1-0.9-6-1.7-6.7c0.9,0.7,0.2,3.1,0.5,0.6c0.3-2.3-0.8-5.4-1.4-7.8
		c-0.5-2.1-1-4.2-1.4-6.3c-1.3-6.4-2.8-12.8-3.7-19.2v11.7c0.9-5.9,0.7-11.9-0.6-17.8l-2-8.8c-1.4-6.2-2.5-12.4-4-18.6
		c-3.1-12.6-6.6-25.1-10.2-37.6c-3.4-11.9-6.8-23.8-10.3-35.7c-1.5-5.1-3.1-10.2-5.1-15.1c-1.6-4.4-3.8-8.6-6.4-12.5L332,313
		l-5.6-4.4c4.1,3,4.2,3,0.5,0.2c-1.2-1.1-2.5-2.1-4-2.8c-16-9.3-40.5,2.3-39,22.4c0.2,2.9,0.5,5.7,1.1,8.5c-0.7-6.7-0.5-5.6,0.6,3.2
		c0.6,2.1,1.5,4.2,2.2,6.2c1.1,2.8,2.3,5.6,3.6,8.3c-1.7-4.2-2.1-5-0.9-2.1c0.6,1.6,1.2,3.1,1.8,4.7c3.2,8.9,6.2,17.9,9.2,26.9
		c6.5,19,12.7,38,20.2,56.6c1.1,2.6,2.2,5.2,3.3,7.8s1.2,2.3,0-0.5c0.9,1.8,1.6,3.7,2.3,5.6l3,7.5c1,2.5,2,4.9,3.1,7.3
		c4.2,5,4.9,6.1,2.2,3.2c3.2,7.6,6.3,15.5,10.3,22.7c1.2,2.2,2.7,4.2,4.5,6c-1.1-1.9-1.1-2.1,0-0.4l3.5,4.5c2.3,2.8,4.8,5.3,7.3,8
		c5.6,6,12.5,10.6,20.3,13.3c14.1,5,23.5-17.3,10.2-24.2L391.6,501.6z"/>
	<path class="st0" d="M297.3,392.7c-3.5,11.9,2.2,24,12.6,30.2c11.8,7.1,28,3.1,36.2-7.4s11.6-24.8,14.5-37.7
		c2.8-13.2,4.8-26.6,6-40c1.4-14.2,2.5-28.4,0.1-42.5c-1.2-7.1-8-14.8-14-18.2c-6.5-3.8-16.2-5.5-23.5-3.1
		c-16.3,5.3-25.2,20.9-21.3,37.5c1.5,6.5,5.1,11.8,8.8,17.1l-3.2-11.9c1.9,15.2,5.5,29.9,8.1,44.9c1.2,6.9,2.8,13.6,4.1,20.5
		c0.3,1.6,0.6,3.1,1,4.7c0.2,1,1,4.2,0.5,1.6c0.8,4.8,1.2,9.7,1.9,14.5l2-15.4l-1.3,2.3c-4.9,8.4-3.8,20.8,3.5,27.5
		c7,6.4,19.2,9.5,27.5,3.5c3.8-2.7,7.2-5.2,9.6-9.4c1.7-3,2.6-6.3,3.6-9.5s2-6.1,2.8-9.3c1.8-7.3,3.2-14.6,4.2-22l3.2-21.2
		c1.6-10.3,5-24.1,1.1-34.2c-4.2-11-11.8-19.1-24.1-20.7c-11.7-1.6-22.5,3.9-28.8,13.8c-5.7,8.9-6.1,21.7-6.7,32.2l-1.2,22.5
		c-0.4,7.2-0.5,14.3-0.4,21.5c0,3.4,0.3,6.7,1,10c-1.6-6.7-0.3-0.9-0.1,0.8c0.8,8.7,2.1,15.3,8.3,21.9l27.5-35.7
		c-0.8-0.4-1.6-0.9-2.4-1.3l7.2,7.2c1.3,3.1-0.3-0.9-0.6-1.4c-0.6-1.5-1.3-2.9-1.8-4.5c-1-3-1.5-6.2-2.2-9.3c-0.4-1.9-0.7-3.7-1-5.6
		c-0.2-1-0.4-2.8-0.1-0.7c-0.5-3.4-0.8-6.9-1.2-10.4c-1.2-12.8,0.6-26.2,2-38.9l-3.2,11.9c3.8-5.6,7.2-10.4,9.3-17.1l-60-8.1
		c-0.8,6.3-0.2,12.8-0.2,19.1c0,6.7-0.2,13.3-0.6,20c-0.7,13-2,26-3.7,38.8l1-7.5c-0.8,5.6-1.5,11.2-1.9,16.9
		c-0.1,1.9-0.3,3.7-0.4,5.6l-0.1,1.3c-0.1-2.9,0.7-5.8,2.1-8.3l8.8-8.9l-0.9,0.5l12.4-3.3l9.4,2.5l8.6,8.6l-0.5-0.8l3.3,12.1v-1
		c-0.1-13.1-10.9-23.7-24-23.6C309.5,375.5,300.3,382.5,297.3,392.7L297.3,392.7z"/>
	<path class="st0" d="M353.3,403.4l1.5,0.1c7.9,0.6,15-4.7,19.1-10.9c3.4-5.1,5.2-11.5,7.5-17.1c-1.3,2.9-1.3,3.1-0.2,0.7
		c1.3-2.5,2.4-5.1,3.4-7.8c0.8-2.4,1.5-4.9,2-7.4c1.6-6.7,2.7-13.5,3.3-20.4c0.3-2.5,0.4-5.1,0.3-7.7c0-4.8-1.3-9.5-3.7-13.7
		c1.4,3.7,1.6,4.1,0.5,1.4c-3.7-9.4-9.9-16.2-20.5-17.6c-8.8-1.2-20.6,2.9-24.5,11.8c-1.6,3.6-4,7.1-5.1,11c-1.1,4.1-1.2,8.7-1.5,13
		c-0.4,5.4-0.6,10.8-1.1,16.2c-0.4,5,0,10-0.5,15.1c-0.1,1.3-0.2,2.5-0.4,3.7c-0.1,0.6-0.1,1.2-0.2,1.9c-0.2,1.3-0.1,1.2,0-0.2
		c0.3-2.1,0.2-1.5-0.2,1.9c-0.2,1.2-0.3,2.4-0.5,3.6c0,2.6,0.4,5.3,1.1,7.8C336.6,397.7,344.1,402.8,353.3,403.4L353.3,403.4z"/>
	<path class="st0" d="M347.3,315.7c7.8,3.7,16,6.9,24.3,9.4c6.6,2,13.2,4,19.9,5.6c11.5,2.8,23.4,4.8,34.3,9.4l-7.9-3.3
		c3.1,1.3,6.1,2.8,9.1,4.5c6.5,4.2,14,6.6,21.7,6.9c7.2,0.4,16.5-3.6,21.4-8.9c5.7-6.3,7.9-13,8.8-21.4c2.2-20.1-16.6-34-32.8-40.5
		c-6.8-2.8-13.8-4.3-21-5.6c-20.9-3.8-42.4-8.5-63.7-8.1c-11.8,0.2-24.1,8.5-26.8,20.5C332,295.5,336,310.5,347.3,315.7L347.3,315.7
		z"/>
	<path class="st0" d="M342.2,331.5c4.7,8.2,12.2,13.5,21.3,16.1c3.1,0.9,6.3,1.5,9.4,2.3c7.3,1.8,14.5,3.4,21.9,4.6l21.2,3.6
		c5.9,1.1,11.8,1.9,17.8,2.4c11.4,0.7,20-3.1,28.6-10.5c10-8.6,12.6-28,5-39c-6.2-8.9-13.7-15.1-24.6-17.3
		c-5.6-1.1-11.2-1.8-16.8-2.2l-22.4-2c-7.2-0.6-14.2-0.9-21.4-1c-3.6-0.1-7.1-0.2-10.7-0.2c-9.6,0.1-18.2,3.3-25,10.2
		C337.9,307.5,336.2,320.8,342.2,331.5z"/>
	<path class="st0" d="M351.9,289c-0.9-1.5-1.6-2.9-2.4-4.4c-2.6-5,1.5,5.6,0.2,0.2c-0.9-3.2-1.7-6.4-2.3-9.7l1,7.4
		c-0.5-3.3-0.5-6.6-0.2-9.9l-1,7.7c0.2-1.6,0.5-3.2,0.8-4.8l-49.8,13.2c9,8.1,18.8,15.3,28.4,22.6c8.1,6.2,16,12.7,24.4,18.5
		c11.3,7.8,30,4.9,39.1-5c3.8-4.1,6.6-9,8.3-14.3c2.8-8.6,0.3-17.1-3.3-24.9c-7.9-17.7-25.2-26.3-36.6-40.9l4.9,6.4
		c-1.6-2.2-3-4.6-4.1-7l3.2,7.5c-0.6-1.5-1.1-3-1.3-4.5l1.1,8.3c-0.7-8.2-1.2-15.8-5.5-23.1c-6.5-11.1-18.4-17.8-31.2-17.6
		c-24,0.4-40.8,25.4-34.2,48c3.2,10.3,10.4,18.9,20,23.8c5.5,2.9,11.6,4.6,17.5,6.4c10.2,3.1,20.3,6.6,30.7,8.8l8.3-61.6l-1.8-0.2
		l8.3,1.1c-4.5-0.6-8.9-1.5-13.3-2.8c-4.3-1.2-8.4-3.3-12.7-4.1v54c-8.5,1.4-0.5,0.6,1.6,0.7c1.2,0,2.4,0.1,3.6,0.2
		c2.3,0.3,2.4,0.2,0.1-0.1s-2.2-0.3,0.2,0c-3.3-1.4-3.7-1.5-1.2-0.3c2.1,1.2,4.2,2.3,6.3,3.5l6.4-49.3c-10.5,2-20.9,5.1-29,12.3
		c5.4-4.7,0.9-1.1-0.4-0.1c-2.8,1.8-5.5,3.8-8,6c-6.3,6.3-9.2,17.3-6.4,26c1.6,5,4.5,7.8,8.5,11l-2.1-1.7c3,3.1,6.8,5.3,11,6.4
		c5,1.1,10.1,0.9,15-0.5c0.7-0.2,5.1-1.3,5.1-1.4l-3.6,0.4l9-1.2c1.4-0.4,2.8-1.1,4.2-1.6c3.7-1.4,7.4-2.5,11.1-3.6
		c11-3.3,20.3-14.1,19.8-26c-0.3-12-8.3-22.5-19.8-26c-2.6-0.8-5.2-1.6-7.9-2.1c-0.6-0.1-1.2-0.3-1.8-0.4c-1.3-0.4-1.2-0.2,0.4,0.6
		c2.3,1.2,1.7,1.1-1.8-0.5c-1.6-0.7-3.2-1.4-4.8-2c-5.1-1.9-10.4-2.9-15.7-4.4c-11.4-3.4-25.9,2.1-31.6,12.9
		c-6.1,11.1-4.3,24.8,4.4,34c9.5,10.3,25.5,16.5,38.4,20.8c14.8,5,31.3-4.5,37-18.2c2.6-6.2,3.7-13.8,1.6-20.4
		c-2.3-7.2-7.1-15.6-14.4-18.8c-15.1-6.5-30.8-10.8-46.1-16.6l7.7,3.3c-1.3-0.6-2.5-1.2-3.7-2l6.6,5.1c-0.7-0.5-1.4-1.2-1.9-1.9
		l5.1,6.6l-0.8-1.1l3.3,7.8l-0.4-1l1.2,8.6c-0.2-0.7-0.2-1.5,0-2.2l-1.2,8.7l0.3-1.1l-3.3,7.7c0.3-0.7,0.6-1.3,1.1-1.9l-5,6.5
		l0.8-0.7l-6.5,5l0.9-0.4l-7.7,3.2l1-0.1h-17.2l1,0.2l-7.7-3.2l1,0.5l-6.5-5l0.8,0.8l-5-6.5c0.5,0.6,0.8,1.3,1.1,2l-3.2-7.6
		c2.1,6.7,3.7,13,6.9,19.4c3.1,6,7.6,11.5,12.2,16.5c6.5,7.1,14.2,13,20.2,20.5l-5-6.5c2,2.6,3.6,5.4,5,8.3l-3.3-7.7l0.5,1.1
		l47.5-36.5c-7.8-5.8-16.3-11-24.4-16.4s-16.2-11-24.8-15.7c-9.3-5.3-20.8-5.3-30.1,0c-8.4,4.9-15.7,15.6-14.8,25.7
		c1.9,19.8,8.8,37.6,22.1,52.6c8.5,9.6,24.2,9.4,33.8,2C355.4,314.3,358.2,300.1,351.9,289L351.9,289z"/>
	<path class="st0" d="M168.4,419.1c4.1,0.2,8.1-0.8,11.7-2.7c2.2-1.3,2.2-1.4,0-0.5l5.2-2.2c3.5-1.8,6.5-4.4,9.8-6.5
		c8-5.1,15.3-11,22.7-16.9c4.4-3.4-3.8,2.9,1.1-0.4c3-2.1,5.9-4.4,8.6-6.8l8.4-7.1l18.4-15.5c12-10.1,24-20.2,35.7-30.6
		c13.3-11.8,28.3-23,39-37.2l-57.7-24.3c-3.6,8.5-7.3,20.7-3.9,29.5c4.3,10.8,12.1,17.6,24,18.3c12.2,0.6,24-9.4,32.7-17
		c11.8-10.4,11.5-29.7,2.5-41.4c-9.2-12-27.4-16.6-40.7-8.1c-8.4,5.4-15.3,13-22.5,19.9L246.2,286c-11.3,10.9-22.2,22-33.2,33.2
		l-16.1,16.4c-2.8,2.9-5.6,5.7-8.4,8.5c-2.5,2.7-4.8,5.5-7,8.4c-4,5.1,3.9-4.1-0.8,0.7c-2.8,2.8-5.4,5.9-8.1,8.8
		c-2.4,2.5-4.6,5.2-6.6,8l-1.2,1.5c-1.5,2.2-1.4,2.1,0.3-0.1c-1.4,1-2.7,3.4-3.8,4.7c-1.9,2.2-3.7,4.5-5.3,6.9
		c-1.3,1.8-2.2,3.8-2.8,6c3-5,3.3-5.8,0.8-2.4c-3.2,4.2-4.2,8.4-4.4,13.6C149.1,410.7,158.6,418.8,168.4,419.1L168.4,419.1z"/>
	<path class="st0" d="M171.5,429.7c2.8-4.5,6-8.8,9.7-12.6l-9.8,4.1c2.1,0.1,4.2,0,6.3-0.2c5.7-0.8,9.5-3.9,13.7-7.6l-34.2-14.3
		c-1.1,15.7-1.9,31.3-2.1,47.1c-0.1,7.9,0.1,15.7,0.4,23.5c0.3,9.7,0,19.5,2.6,28.9l50.3-21.2c-1.9-3.4-3.5-7.3-5.7-10.6
		c-0.8-1.6-0.6-1.1,0.5,1.6c-0.4-1.2-0.8-2.4-1.2-3.6c-0.6-1.8-1.2-3.6-1.8-5.4c-2.5-7.5-5-15-7-22.7s-3.9-15.3-5.6-23
		c-0.8-3.7-1.6-7.4-2.3-11.1c-0.4-1.8-0.8-3.7-1-5.6c0.5,4.5,0.3-3,0.4-3.9H142c0.4,17.4,3.4,34.9,5.3,52.2
		c0.9,8.4,1.8,16.8,2.6,25.2c1.1,10.7,1.5,21.6,4,32.1l47.4-20l-6.7-14.3l-3.4-7.1l-1.7-3.6c-0.2-0.5-2.7-5.2-1.4-2.7
		c0.7,1.8,0.4,1.2-0.8-1.8c-0.5-1.2-1-2.4-1.5-3.6s-1-2.4-1.6-3.6l-3.1-7.3l-3.1-7.3l-1.6-3.5c-0.3-0.6-1.8-4.6-0.6-1.5
		c-3.8-9.9-13.9-17.9-25.1-14.3s-16.3,13.8-14.3,25.1c3.6,19.9,7.1,39.9,10.7,59.8c3.6,20.1,4.6,42.8,23.3,55.4
		c10.9,7.3,25.9,6.9,36.6-0.5c12.1-8.3,17.1-21.2,18.4-35.3c0.9-9.7,0.6-19.6,0.6-29.4s0.2-19.6,0.1-29.5c-0.1-11.1-0.1-22.3,0-33.4
		c0-5.6,0.2-11.1,0.2-16.7c0-2.4,1.3-2.7-0.5,2.4c0.3-0.9,0.5-1.9,0.7-2.8c0.5-2.7,0.9-5.4,1-8.2c0-4.4-1.6,5.8,0,1.5
		c3.2-8.6-1.5-19.2-8.3-24.4c-7.9-6.1-17-5.8-25.8-1.8c-22.5,10.3-18.5,38.6-18.1,58.8c0.3,18,1,36,2.2,54
		c0.6,8.7,1.6,17.3,2.3,25.9c0.2,2,0.2,4,0.2,6c0,0.8-0.7,3.2,0,0.4c0.2-1.3,0.6-2.5,1.2-3.7c-1.8,3.2,0.6-0.4,1-0.9
		c-0.7,0.7-2.2,1.5,0.1,0.2c4.1-2.4,7.3-2.8,12-1.2c2.9,1,1.5,0.6,0.6,0.1c1.4,1,2.7,2.1,3.8,3.4c3.2,3.3-0.6-1.7-0.9-1.9
		c0.1,0.1,1.6,4.7,1.1,2.5c-0.2-0.7-0.4-1.3-0.6-1.9c-0.5-1.7-1-3.4-1.5-5.2c-2.4-8.6-4.4-17.3-6.5-25.9
		c-4.8-19.6-9.7-39.2-14.5-58.8l-39.4,10.9c7,21.5,12,43.6,17.4,65.5c3.1,12.5,16.1,20.2,28.4,18.6s22.9-12.5,22.5-25.5
		c-0.3-10.8-2.7-21.5-4.7-32c-1.5-8.3-3.1-16.6-4.7-24.9c-3.3-17.2-6-34.8-11.5-51.4c-3.5-10.6-14.9-18.6-26.3-14.9
		c-10.7,3.5-18.5,14.9-14.9,26.3c0.4,1.2,0.8,2.4,1.1,3.6c0-2.1,0-2.3,0.1-0.8c0.4,2.1,0.4,4.4,0.6,6.6c0.4,3.8,0.8,7.5,1.3,11.2
		c1.2,9.5,2.5,18.9,4.1,28.3c1.4,8.1,2.7,16.3,4.4,24.3c0.4,1.9,0.8,3.7,1.2,5.6c0.3,1.2,2.2,7.2,0.5,0.9c1.1,3.9,0.9,8.7,1.4,12.7
		c0.9,7.5,2.5,13.9,8,19.4c4.8,4.8,12.6,8.4,19.4,8c7.1-0.3,14.5-2.7,19.5-8c5.2-5.7,7.2-11.8,8-19.4s-1.1-15.8-2-23.5
		c-1.2-9.5-2.4-19-4.1-28.5c-2.7-15.3-5.9-30.4-9.5-45.5c-4-17.3-28-19-36.6-4.8c-5.2,8.5-5,16.5-0.5,25.1l-1.4-10.7
		c-2.2,7.9-2.7,16.1-1.3,24.2C157.8,435.1,168,435.1,171.5,429.7L171.5,429.7z"/>
	<path class="st0" d="M178.7,452.2c11,3.5,24.3,2.2,35.7,1.7c10.8-0.5,21.6-1.1,32.4-1.6c10.6-0.5,21.1-1,31.7-1.6
		c12.6-0.7,27-0.5,39-4.3L282,400.2l-0.6,1.3l4.8-6.2c-1.4,1.8-2.8,3.5-4.2,5.3c-2.8,3.6-3.1,4-0.9,1.1c1.8-2.2,1.9-2.5,0.5-1
		c-5.7,4.7-8.8,12.6-8.8,19.8l7.3-17.7c4-5.1,10.3-4.8,4.5-3.5c-15,3.4-21.2,25.2-9.4,35.5c1.9,1.7,3.9,3.3,6,4.7
		c1.9,1.3,3,3.1-1.1-1.3l-6.5-11.1c2.6,10.2,11.3,17.3,21.2,19.5c8,1.8,14.6,1,22.6-0.4c7-1.2,15.5-8.3,18.8-14.4
		c3.4-6.1,4.7-13.1,3.7-20c-0.9-6.6-3.6-13.4-8.6-18c-6.6-6-13.5-8.1-22.2-9.2c-10.2-1.3-21.5,1.2-31.7,2.5
		c-10.6,1.3-21.1,2.7-31.7,4.1s-20.9,2.8-31.4,4c-11.9,1.5-24,1.1-35.7,3c-5.8,1-11.2,5.6-14.5,10c-3.6,4.7-6.3,10.8-6,17
		C158.4,437.8,166.7,448.7,178.7,452.2L178.7,452.2z"/>
	<path class="st0" d="M231.4,471.3c9.2-7.8,17.4-16.2,25.8-24.9s16.7-17,24.6-25.9c19.3-21.4,34.1-50,22.3-78.8
		c-2-4.9-4-9.6-7.8-13.5c-4.8-4.7-10.9-7.6-17.5-8.4c-11.4-1.5-24.9,3.8-30.4,14.6c-4.5,8.7-8.8,17.4-13.8,25.8
		c-8,13.5-4.1,31,8.1,40.4c12.6,9.7,29.5,8.2,41.2-2.5c7.6-7,14.2-15.3,21-23c8.3-9.4,16.5-18.7,23.4-29.1l-53.5-31.3
		c-1.8,3.1-3.8,6.1-6,9l4.8-6.2c-3.5,4.5-7.2,8.7-11.3,12.6c-2.2,2.1-4.5,4.2-6.9,6.1c-1,0.8-2,1.6-3,2.4c-2.5,2,6.5-4.9,1.2-1
		c-9.7,6.8-19.7,13-30.2,18.5l7.2-3c-7.9,3.1-15.9,5.4-23.6,9.2l38.9,50.4l21.2-19.2c12-10.9,11.9-30.4,2.5-42.6
		c-9.7-12.6-27.8-16.7-41.8-8.4c-8.5,5-17.4,9.7-25.5,15.3l47.9,36.8c0.2-0.9,0.6-1.7,0.9-2.6l-3.2,7.6l0.8-1.2l-4.9,6.4
		c1-1.1,1.9-2.2,2.9-3.3c1.7-1.8,5.3-4.2-1.8,0.9c10.2-7.2,17.5-19.8,13.3-32.7c-4-12.2-14.8-21.3-27.9-21.3
		c-6.4,0-12.7,1.2-18.6,3.6c-6.1,2.6-10.9,6.6-16,10.8c-5.8,4.8-9.9,15.8-9.6,23.1c0.2,7.2,2.6,14.1,7,19.8
		c10.1,13.1,27.5,16,42.1,8.4c8.7-4.6,16.9-10.4,25.3-15.6l-39.3-51l-20.7,19.7c-11.6,11-12,29.9-2.5,42.2c10,13,27,15.8,41.4,8.3
		c3.7-2,7.2-4.3,10.5-6.9c3.7-2.6,7.5-4.8,11.6-6.8c7.6-4.1,15-8.6,22.2-13.5c8.6-5.8,16.7-12.3,24.2-19.4
		c7.8-7.6,14.3-16.3,20.5-25.3c4.2-6,5.3-17,3.1-23.9c-1.9-6.4-5.8-12-11.1-16.1c-12.3-9.4-29.6-8.4-40.7,2.4
		c-7.5,7.3-13.9,15.4-20.7,23.3c-8.2,9.4-16.6,18.5-24.3,28.4L292,384l3-7.1l-3.1,7.4c2.8-6.6,6.3-12.9,9.4-19.4h-52.8l0.6,1.5
		l-3.1-7.3c0.4,1,0.7,2,0.8,3l-1.1-8.2c0.3,3,0.3,6,0,9l1.1-8.4c-0.7,4.6-2,9.1-3.7,13.4l3.2-7.6c-6,14.1-16.2,26.1-25.5,38.1
		l-15.3,19.9c-1.4,1.8-2.7,3.6-4.1,5.4l2-2.6c-2,2.3-3.8,4.7-5.4,7.3c-2.5,3.7-4.8,7.5-7.1,11.3c-6.7,11-3.3,25.7,6.7,33.4
		C208.1,481.6,221.4,479.8,231.4,471.3L231.4,471.3z"/>
	<path class="st0" d="M482.2,11c-4.1,8.2-4.3,17.7-5.3,26.7c-0.2,1.6-0.3,3.3-0.6,5c1-4.9-0.2-0.4-0.5,0.6c-1.2,4.9-1.4,10.3-2,15.3
		c-0.3,3.1-1.4,6.9-1.1,9.9l0.3-3.1c-0.3,0.9-0.5,1.9-0.6,2.8c-0.6,3.4-1,6.8-1.3,10.2c-0.6,7.3-0.9,14.6-1.8,21.8l1-7.8
		c-3.8,21.7-3,43.9-6,65.7l1.2-8.8c-0.5,4.2-1.3,8.3-2.3,12.4c-0.5,1.7-1,3.4-1.5,5.2c-1.9,7.7-1.2,13.1,0.2,20.9l47.2-36.3l4.4,3.3
		c-11.1-11-30.4-11.5-41.4,0l4.5-3.3c-7,5.1-12.4,10.5-14.8,19.2c-2.1,7.7-1.2,18,3.2,24.8s11,12.9,19.2,14.8
		c7.8,1.8,18.1,1.9,24.8-3.2c5.2-4,9.4-7.3,13-12.7c2.2-3.5,3.9-7.2,5.1-11.2c1.7-5.6,2.3-12.1,2.9-17.8c0.6-6.9,0.7-13.9,0.2-20.9
		c-0.9-17.3-1.2-34.9-3.9-52.1l1,7.8c-0.8-6.9-1-13.9-1.4-20.8c-0.2-3.4-0.7-6.8-1.2-10.2c-0.1-0.8-0.2-6-0.5-2.2
		c-0.3,4-0.1-1.4-0.2-2.4l-0.6-5.9c-0.5-4.8-0.6-9.7-1.6-14.3c-0.9-4.5,0.1,2.4-0.5-0.5c-0.3-1.6-0.3-3.3-0.5-5
		c-1-9.4-1.1-19.1-5.2-27.7c-6.2-12.9-27.4-12.6-33.8,0L482.2,11z"/>
	<path class="st0" d="M503.7,47.5c3.6,0.3,7.2,0.6,10.7,1c2.4,0.3,3.9,0.5,0.6,0c3.4,0.5,6.7,0.9,10.2,1.2c1.6,0.2,3.3,0.4,4.9,0.5
		l2.9,0.4l-2.8-0.4c2.7-0.7,8.7,1.3,11.4,1.9l-18.5-32.6c-4.3,11.3-3.3,25-4,37c-0.7,10.6-1.5,21.3-2,31.9l1.1-8.3
		c-2.4,12-2.5,24.1-3,36.2l-1.2,29.9c-0.4,10-0.9,19.9-1.1,29.9l-0.4,14c-0.1,2.7-0.2,5.3-0.2,8c0,8.2,1.9,14.1,5.5,21.4
		c11.4,22.7,48,22.3,59.6,0c3.8-7.2,5.5-13.2,5.6-21.4c0-2.7-0.1-5.3-0.1-8l-0.2-14c-0.2-10-0.5-20-0.8-29.9l-0.9-29.9
		c-0.4-12.2-0.4-24.2-2.6-36.2l1.1,8.3c-0.4-10.6-1.1-21.3-1.6-31.9c-0.6-12,0.5-25.6-3.7-37c-3.7-10-13.5-20.7-25.5-19.4
		c-7.8,0.8-15.7,1-23.5,1.8c-9.1,1-18.1,2.5-27.1,4.4c-10.2,2.1-16.3,13.3-15,23C484.6,40.1,493.2,46.7,503.7,47.5L503.7,47.5z"/>
	<path class="st0" d="M504.5,94.8c-0.1,13.1-0.1,26.1-0.8,39.2l-1,18.6c-0.2,3.3-0.5,6.5-0.4,9.8c0,5.4,1.5,10.7,2.7,15.9
		c2.5,11,14.6,20.2,25.9,19.7c11.6-0.5,23-7.9,25.8-19.7c2-8.1,2.9-16.4,2.6-24.8l-0.6-19.6c-0.4-13.1-0.1-26.1,0-39.2
		c0.1-14.2-12.6-27.8-27.2-27.1C516.8,68.3,504.6,79.6,504.5,94.8L504.5,94.8z"/>
</g>
</svg>
