<svg id="レイヤー_1" data-name="レイヤー 1" xmlns="http://www.w3.org/2000/svg" viewBox="0 0 576 492.4"><defs><style>.cls-1{isolation:isolate;font-size:36px;fill:#fff;font-family:RiiTegakiFude-90ms-RKSJ-H, RiiTegakiFude;}.cls-2{fill:#fefefe;}.cls-3{fill:#feba00;}.cls-4{fill:#070706;}.cls-5{fill:#090606;}.cls-6{fill:#080707;}.cls-7{fill:#febb01;}.cls-8{fill:#080808;}.cls-9{fill:#feba01;}.cls-10{fill:#febb02;}.cls-11{fill:#fefaee;}.cls-12{fill:#fdfdfd;}.cls-13{fill:#fefefd;}.cls-14{fill:#fcfcfc;}.cls-15{fill:#a3a3a3;}.cls-16{fill:#fefdfb;}.cls-17{fill:#e83629;}.cls-18{fill:#e5372a;}.cls-19{fill:#e5e5e5;}.cls-20{fill:#eb3529;}.cls-21{fill:#e8372b;}.cls-22{fill:#db382b;}.cls-23{fill:#e3382b;}.cls-24{fill:#f5f5f5;}.cls-25{fill:#e63529;}.cls-26{fill:#df382b;}.cls-27{fill:#14110f;}.cls-28{fill:#d7d7d7;}</style></defs><title>logo_hikari_white2</title><text class="cls-1" transform="translate(10.8 31.68)">出来立てあつあつを持って帰ろう!</text><path class="cls-2" d="M287.9,492.3H1.3c-1,0-1.3-.2-1.3-1.3V70.8c0-1,.2-1.3,1.3-1.3H574.7c1,0,1.3.2,1.3,1.3V491.1c0,1-.2,1.3-1.3,1.3Q431.3,492.25,287.9,492.3Z" transform="translate(0)"/><path class="cls-3" d="M359.4,416c-1,3.9-1.3,7.9-2.1,11.8-1,4.6-2.3,9.2-4.9,13.2-.8,1.3-2.3,2.1-3.5,3.1-.8.7-1.1-.1-1.4-.6a19.22,19.22,0,0,1-1.6-4.2c-.6-1.9.3-3.5.7-5.2,1.1-4.6,2.5-9.1,3.7-13.6.3-1.2.4-2.6.6-3.8.2-.5,0-1,.2-1.5a4.79,4.79,0,0,0-1.1-3.8,5.58,5.58,0,0,1-.5-.8,1.69,1.69,0,0,1-.1-1.8c.2-.5,1-.3,1.6-.1a6.94,6.94,0,0,0,4.7-.3c3.1-1.1,6.3-1.2,9.5-2a4.19,4.19,0,0,0,2.6-5.2,11.11,11.11,0,0,0-.7-1.6c-1.2-2.1-.5-3.3,2-3.5a1.27,1.27,0,0,0,.6-.1c.6-.2,1.2.1,1.8-.2,1.7-.1,3,1,4.3,1.7a1.63,1.63,0,0,1,.3,2c-.5,1.3-1,2.6-1.6,3.8-.5.9-.1,1.2.7,1.3a18.73,18.73,0,0,0,4.1,0c.9-.2,1.7.1,2.6-.2,1.2.2,2.4-.3,3.5.4a1.82,1.82,0,0,1,1.1,1.9c0,.8-.7,1.2-1.4,1.3-2.4.5-4.8.9-7.2,1.4-1,.2-2,.4-3,.7-.4.1-.9.5-.3.8,1.9,1.1,1.4,2.7,1.2,4.3s-.3,1.7,1.4,1.8h1c.5.2,1,0,1.5.2a5.7,5.7,0,0,1,1.3.1c.5.2,1,0,1.5.2a14.62,14.62,0,0,1,3.6.9c1.2.7,1.3,1.3.2,2.2a4.37,4.37,0,0,1-3.3,1.2c-.8.2-1.6-.1-2.3.2H376a1,1,0,0,0-1.1.9,12.7,12.7,0,0,0-.5,3.4c-.1.8.8.8,1.2.7,1.1-.2,2.2-.1,3.3-.3a21.64,21.64,0,0,1,3.6,0c1.4.2,3,0,4.3.8A2.69,2.69,0,0,1,388,431c-1,2.2-1.1,4.6-1.6,6.9a13.79,13.79,0,0,1-1.9,4.3c-.6,1-1.9,1.1-2.9,1.4a23.38,23.38,0,0,1-4.5.7c-.5.2-1,0-1.5.2a3.4,3.4,0,0,0-1,.1c-.5.2-1-.1-1.4.2a6.6,6.6,0,0,0-1.4.1c-1.2.2-2.5-.1-3.7.2-.5,0-1.1.1-1.6.1-.6.2-1.2-.1-1.8.2a8.45,8.45,0,0,1-3.8-1.5c-1.4-.9-1.9-1.5-1.3-3.8a72.15,72.15,0,0,0,0-9.3v-1.9c0-1.6.1-1.8,1.7-1.5a6.16,6.16,0,0,0,2.7-.1c1.7-.3,3.3.1,5-.2a22.56,22.56,0,0,0,0-4.5,18.19,18.19,0,0,1,0-3.3c0-.3.1-.7.1-1,.3-.5-.2-1.1.2-1.5,0-1.2.5-2.4,0-3.6-.3-.7.6-1.6,0-1.9a3.86,3.86,0,0,0-2.8,0h-.1l-.1.1c-.3.4-.8.1-1.2.2-1,.4-2.2.4-3,1.2-.5.2-.5,1-1.2,1.1a2.26,2.26,0,0,0-.8,1.1C360,415.1,360,415.7,359.4,416Z" transform="translate(0)"/><path class="cls-3" d="M484.5,143.2a9.15,9.15,0,0,0-1.6.1c-.6.2-1.2-.1-1.8.2-2-.1-3.8.9-5.8,1-.5,0-1.5.5-.4,1.2a2.2,2.2,0,0,0,1.6,0c2.3-.3,4.5-.6,6.8-.8,1.1.3,2.3-.1,3.4.2,1.1,0,2.2,0,3.3.1,1.1.3,2.3-.1,3.4.2a5.92,5.92,0,0,1,2.9.7c1.2.6,1.2,1.4.1,2.2a5.84,5.84,0,0,1-2.2.8c-4.1.2-8.2,0-12.4.1a4.33,4.33,0,0,0-1.6.1h-1.5c-.5-.3-1,0-1.5-.2-.9-.4-1.8.1-2.7-.3-.5-.2-.8.4-.9.8a1.13,1.13,0,0,0,.6,1.4c1,.4,1.9,0,2.8-.1,1.3-.1,2.5-.4,3.8-.6.8-.2,1.6.1,2.3-.2h5.1c.5.3,1,0,1.5.2a45.51,45.51,0,0,0,6.3.9c.5.3,1,0,1.5.2a15.4,15.4,0,0,1,3.7.9,4.45,4.45,0,0,1,3,3.1,4.29,4.29,0,0,1,0,1.6c-.6,2.7-.7,5.5-1.4,8.1a20.5,20.5,0,0,1-1.6,4.1,1.58,1.58,0,0,1-2,.8c-2.5-.7-5.1-.7-7.6-1.6a28.8,28.8,0,0,1-3.1-1.3c-.3-.2-.9-.3-.8-.8s.6-.3.9-.4a18.8,18.8,0,0,0,8.2-3.2,3.68,3.68,0,0,0,1.5-2.2c.2-.9.3-1.8.5-2.8s-.2-2.1-1.9-2.5a42,42,0,0,0-4.7-.8c-1.1-.3-2.3.1-3.4-.2h-1.1c-.8.3-1.7-.1-2.6.2a17,17,0,0,0-2.2.1c-.8.3-1.7-.1-2.6.2a17,17,0,0,0-2.2.1,29.44,29.44,0,0,1-4.2,0,2.27,2.27,0,0,0-2.3.7c-.5.4-.7.3-1.2-.1a4.83,4.83,0,0,1-1.9-4c.1-4.1,0-8.1.8-12.2.3-1.6.4-3.3.6-5a3.75,3.75,0,0,0,0-2.1c-.1-.1-.2-.2-.2-.3-.9-1.9-1-3.4,1.2-4.7,2.7-1.7,4.5-4.6,6.9-6.8.9-.8,1.5-1.9,2.7-2.2a4.18,4.18,0,0,1,4.1,1.4,3.51,3.51,0,0,1,.5.8c1.8,3,1.7,3.7-1.1,5.9a1.63,1.63,0,0,1-.6.3,1.14,1.14,0,0,0,1.2.2c.7-.2,1.4.1,2-.2,2.3.2,4.5-.6,6.8-.3.7.3,1.4,0,2.1.2,2.4,1.2,2.9,2.7,2,5-1,2.7-.9,5.7-1.7,8.5a21.36,21.36,0,0,1-.9,2.7c-.7,1.7-1.6,2-3.5,1.3s-3.5-2-5.7-1.4C485.7,143.3,485.1,143,484.5,143.2Z" transform="translate(0)"/><path class="cls-3" d="M98,131.5c1.6.4,3.5.4,4.3,2.5.5,1.3.3,2.2-1.2,2.7a11.7,11.7,0,0,1-2,.5,21.56,21.56,0,0,1-4.4,0c-2.2-.3-2.8.2-2.8,2.4-.3.5,0,1-.2,1.5.1.4-.5,1.1.4,1.2.5.2,1,0,1.5.2,3.4.6,6.9.7,10.1,2,4,1.7,7.5,4,8.7,8.6a6.94,6.94,0,0,0,.5,1.3,5.43,5.43,0,0,1-.8,7.4c-1.8,1.8-3.8,3.1-6.5,3a4.78,4.78,0,0,1-2.8-1c-1.4-.9-1.4-1.6-.1-3.3s2.3-3.7,1.2-5.8a10,10,0,0,0-6.8-5.7,23.2,23.2,0,0,0-3.8-.5c-1-.1-1.6.3-1.7,1.5a34.64,34.64,0,0,0-.2,4.6c-.3.9,0,1.7-.2,2.6a48.08,48.08,0,0,0-.7,5.3,2.13,2.13,0,0,1-1.5,2,11.45,11.45,0,0,1-5.1,1.1,3.3,3.3,0,0,1-1.4,0,16.56,16.56,0,0,1-5.4-1.4c-2.7-1.1-3.6-3.3-4-5.9s1-4.5,2.4-6.5c1.9-2.8,4.8-4.4,7.6-6.1.8-.5,1.8-.7,2.2-1.6a22.61,22.61,0,0,0,0-5.2c-.6-1.6-1-1.9-3.1-1.9a27,27,0,0,0-4.8.9,3.08,3.08,0,0,1-1.9,0,7.69,7.69,0,0,1-3.8-3.3c-.7-1.4-.2-2,1.4-2h1.5a2,2,0,0,0,1.5,0,23.16,23.16,0,0,0,5.9-.5c2.7-.6,2.9-.9,2.7-3.7-.2-.8.1-1.7-.2-2.6a7,7,0,0,0-.8-2c.5-.4,1.1-.2,1.6-.4a4.85,4.85,0,0,1,1.7,0c3,.6,3.5,2.8,3.3,5.1-.2,2.5.3,3.1,2.8,3C94.7,131.6,96.4,131.3,98,131.5Z" transform="translate(0)"/><path class="cls-3" d="M380.5,132.1a3,3,0,0,0-.4-.8,4.48,4.48,0,0,0-2.3,0c-1.7-.1-3.4.2-4.9-.6-.8-.4-1.5-.8-1.6-1.8-.2-1.6.1-1.9,1.7-2.1,1.4-.3,2.8.1,4.2-.2a5.85,5.85,0,0,1,1.3-.2c1.1-.2,1.4-.8,1.1-1.9-.7-2.4,0-3.3,2.6-3.1a2.82,2.82,0,0,1,2.3,1.9,4.29,4.29,0,0,1,0,1.6c0,1.3,1.1,1,1.9,1.1,1.1.4,2.3-.1,3.4.2.6.4,1.5.5,2.1,1.1.9.8.8,1.2-.2,1.7-1.6.8-3.3.7-4.9,1.3-.8.3-1.2.6-1.3,1.5a9.37,9.37,0,0,1-.6,2.8c-.3.6-.1,1,.6,1.1s1.2,0,1.3-.6a7.72,7.72,0,0,0,.3-2.6c-.2-.7.2-.9.8-1s.9-.3,1.4.1,1.2.7,1.9,1.1a1.78,1.78,0,0,1,1.1,2.1c-.2.8.1,1,.7,1.2a8.75,8.75,0,0,1,2.6,1.2,1.14,1.14,0,0,1,.6,1.2c-.1.6-.7.4-1,.5a3.18,3.18,0,0,1-1.4.2c-2.7-.1-3.9,1.9-5.2,3.8-.7,1.1-.3,1.5.7,1.7s2.2.8,3.3,1a1.18,1.18,0,0,1,1,1.3c0,.7-.7.5-1.1.6-2.2.4-4.5.7-6.8,1.1-1.7.3-2.4,1.4-2.1,3.2.1.5.1,1.1.2,1.6-.2.5,0,1-.2,1.5a20.54,20.54,0,0,1-.7,3.4,1.79,1.79,0,0,0,1.5,2.5c1.9.4,3.9,1.1,5.9.3.5-.2,1-.4,1.2-1,1.4-2.9,2.9-5.8,4.3-8.7.2-.3.1-.7.6-.7s.7.5.7.8a27.38,27.38,0,0,1,.7,5c.2.9-.1,1.9.2,2.9,0,.6.1,1.2.1,1.9.2.7-.1,1.4.2,2-.1,1.6-.4,1.9-2.8,2.5a6.05,6.05,0,0,1-1.9,0,50.48,50.48,0,0,0-5.5-.1c-.5-.2-1,0-1.5-.2a13.67,13.67,0,0,1-7.7-3.5,4.6,4.6,0,0,1-1.4-3.4,17,17,0,0,1,.2-4.5.4.4,0,0,0-.2-.6.8.8,0,0,0-1,.6c-.9,1.9-2,3.7-3,5.6a41.17,41.17,0,0,1-4.9,6.9c-.8.9-1.7,1.4-2.9.8a2.54,2.54,0,0,1-.9-3.5c1.9-2.9,3.3-6.1,5.1-9.1a4.87,4.87,0,0,0,.4-1.1c1-2.1,1-2.1-.9-3.2a1.33,1.33,0,0,1-.5-.3c-.7-.7-1.7-1.4-1.5-2.5.2-.9,1.4-.9,2.2-1.1a24.75,24.75,0,0,1,2.9-.6c.7-.1,1-.4.6-1.1a9.83,9.83,0,0,1-.5-1.6,2,2,0,0,0-2.4-1.8c-.9.1-1.9-.1-2.2-1a2,2,0,0,1,1-2.7,1,1,0,0,0,.7-1.3c-.6-2.3-.4-2.5,1.9-3.3a3.33,3.33,0,0,1,2.2.1,5,5,0,0,1,2.2,2.9.45.45,0,0,0,.3.4,6.88,6.88,0,0,0,2.5-.3c.9-.1,1.5-.4,1.5-1.5,0-.4.3-.7.2-1.2A2,2,0,0,0,380.5,132.1Z" transform="translate(0)"/><path class="cls-3" d="M201.8,417.2c.4,0,.9-.1,1.3-.1.5-.2,1,0,1.5-.2.4,0,.9-.1,1.3-.1.5-.2,1,.1,1.5-.2.4,0,.9-.1,1.3-.1.5-.2,1,0,1.5-.2.9,0,1.8-.1,2.7-.1a7,7,0,0,1,2.5,0c.8.4,1.7.6,2.1,1.7.3.8.3,1.3-.4,1.7a7.74,7.74,0,0,1-3,1.1c-1.8.2-3.6.6-5.3.9-.5.2-1,0-1.5.2-2.7,0-2.7,0-2.7,2.6a20.16,20.16,0,0,1-1,7.3,12.31,12.31,0,0,0-.2,3.8,1.61,1.61,0,0,0,1,1.4,6.86,6.86,0,0,0,3.7,1c.7.3,1.4,0,2,.2,1.4.1,2.8.1,4.3.2a2.38,2.38,0,0,0,2.4-1.7,29.08,29.08,0,0,0,1.7-7.2c.2-1.4.3-2.9.6-4.3.2-1,1.2-1.2,2-.5,2,1.6,2.5,3.9,2.9,6.2a23,23,0,0,1,.3,2.6c.2.6-.1,1.2.2,1.7v1.2a4.2,4.2,0,0,1-3.7,4.7c-3,.6-6.1,1-9.1,1.5-.5.2-1,0-1.5.2a16.49,16.49,0,0,1-11-3.9c-1.3-1.2-1.5-2.7-2-4.2-.9-3,.5-5.7,1.2-8.6.2-.9.5-1.8.7-2.7-.2-.1-.2-.1-.3-.1-2.3,0-3.1,1.4-3.5,3.4a7.07,7.07,0,0,1-1.3,2.6c-2.3,3.1-3.7,6.8-6.3,9.7a11.17,11.17,0,0,1-4.9,3.4c-.9.3-1.8.6-2.6-.2s-.3-1.7.1-2.5c1.8-3.5,3.6-6.9,5.5-10.4a32.51,32.51,0,0,0,1.8-4.3,8.88,8.88,0,0,0-4.6.3,6.41,6.41,0,0,1-6-1.1c-1.2-.8-1.4-2.2-2-3.4-.2-.5,1-1.2,1.6-1,.4.1.8.5,1.3.4a2.21,2.21,0,0,0,1.6,0c3.9-.3,7.8-1.1,11.8-1.6,1.1-.1,2.3-.3,3.4-.4.6-.1,1.4-.4,1-1.1-1-1.7-.4-3.3-.1-4.9.3-1.8.5-3.5.8-5.3a20.08,20.08,0,0,0,0-4.9c-.5-1.5-.2-3.2-1.1-4.6-.1-.2.1-.3.3-.4,2.4-1.7,5-.8,5.8,2a4.33,4.33,0,0,0,.1.5c.1,2.1.1,4.3,0,6.4.3,3.8-1.3,7.1-2.6,10.5-.2.4.1.5.4.5A3.89,3.89,0,0,0,201.8,417.2Z" transform="translate(0)"/><path class="cls-3" d="M252.7,404.4a8.6,8.6,0,0,0,1.6-.1c.9-.3,1.9.1,2.8-.2a26.48,26.48,0,0,1,15.1,6.3,13.35,13.35,0,0,1,4,8,12.86,12.86,0,0,0,.4,1.9,32.29,32.29,0,0,1,0,4.4,40.26,40.26,0,0,1-1.9,7.6c-1,2.7-3.2,3.7-5.7,4.4-1.5.4-3.2.1-4.7.8-.1.1-.4,0-.5,0-.8-.1-1.8,0-2.2-.9s.8-1,1.2-1.4c1.5-1.3,3.2-2.4,4.3-4.2a16.74,16.74,0,0,0,2.2-7.9,10.28,10.28,0,0,0,0-3.5c-.4-6-2.7-7.4-7.8-9.6-.8-.3-1,.2-1.1.8-.7,4.8-3.8,8.8-4.9,13.5a9.36,9.36,0,0,1-3.4,5.6c-2,1.5-3.5,3.7-6.1,4.4-.6.2-1.2,0-1.8.2a4.3,4.3,0,0,1-1.6,0c-1.8,0-3.4-.9-5.1-1.4a3.57,3.57,0,0,1-2.1-1.9c-1.2-2.2-2.9-4.2-2-7,.7-2.2,1.3-4.5,1.9-6.7a16.63,16.63,0,0,1,5.3-8,21.75,21.75,0,0,1,10.6-5C251.7,404.3,252.2,404.6,252.7,404.4Z" transform="translate(0)"/><path class="cls-3" d="M207.8,126.6c-.4,1-1.4,1.4-2.1,2.1-.5.5-1.3,1.1-1,1.9s1.3.8,2.2.7c.7-.2,1.5.1,2.3-.2a15,15,0,0,1,6.9,1.4c2.5,1.2,2.6,2.8.3,4.5-.2.2-.4.3-.6.5-.4.4-1,0-1.4.3a4.1,4.1,0,0,0-1.1.1,6.05,6.05,0,0,1-1.9,0,8.77,8.77,0,0,0-2.8,0c-1.1.3-2.3-.1-3.4.2-1.5.1-2.6.5-2.9,2.2a20.32,20.32,0,0,0-.7,4.3c0,1.4.6,2,2,1.8,2.5-.3,5-.8,7.5-1.2a6.05,6.05,0,0,1,1.9,0c1.9.5,4,.5,5.9,1.2,2.4.9,4.4,2.2,5.3,4.7a8.76,8.76,0,0,1,0,2.8c-.7,1.1-1.5,2.2-2.2,3.4a33,33,0,0,1-10.1,10.6,1.71,1.71,0,0,1-1.4,0c-2.1-2.2-3.7-5.9-1-8.9,1.2-1.3,2.3-2.8,3.5-4a6.14,6.14,0,0,0,1.3-3c.1-.4-.2-.6-.6-.8a5.54,5.54,0,0,0-3.8-.4c-2.3.6-4.6,1.1-6.9,1.6a10.45,10.45,0,0,1-2.5,0c-2.8,0-3.9-2.1-4.6-4.2-.5-1.3-1.4-2.5-1.3-4-.3-.6.1-1.4-.2-2-.1-.7-.2-1.3-.3-2a2.44,2.44,0,0,0-2.1-2.1,15.83,15.83,0,0,1-3.1-.9c-1.8-.6-2.1-1.8-.9-3.2s2.5-1.6,4.1-1.7c3.8-.3,4.6-1,4.9-4.6.1-2.1,1.2-3.9,1.4-6,.1-.7.9-.6,1.4-.5a7.35,7.35,0,0,0,3.3,0c1.7-.3,4,1.5,4.8,3.5A4.15,4.15,0,0,1,207.8,126.6Z" transform="translate(0)"/><path class="cls-3" d="M164.9,170c-2.3-.9-4.1-2.7-5.9-4.2a27,27,0,0,0-4-2.5c-.3-.2-.6-.2-.6-.6s.4-.4.7-.5l4.4-.6c1-.1,1.4-.4,1.5-1.5.1-.9.4-1.7.5-2.6.3-1.1-.1-2.3.2-3.4a24.25,24.25,0,0,0-.7-7.6c-.1-.6-.4-.5-.7-.6-2.8-.2-5.5-.6-8.3-.6a4.69,4.69,0,0,1-3.8-1.7c-.5-.6-.4-1.1.5-1.2l6.4-.9c.5-.2,1,0,1.5-.2a15.53,15.53,0,0,0,3.1-.3c2-.2,2.4-1,1.2-2.8-.4-.3-.9,0-1.4-.2a22.08,22.08,0,0,0-6.8.4c-1,.2-4.2-1.4-4.7-2.2-.6-1-.3-1.6.8-1.9a39.47,39.47,0,0,1,5.8-1.1c1-.2,1.9-.3,2.8-.5,1.7-.4,2-.9,1.4-2.5a3.37,3.37,0,0,0-.8-1.7c-1.3-.4-2.7,0-4.1-.2-.4,0-.7-.1-1.1-.1-1,0-1.3-.5-1.4-1.5s.4-1.3,1.3-1.5c1.7-.3,3.3-.7,5-1,.6-.1,1-.3,1-1-.1-1.1.5-2.2.3-3.3s.6-1.3,1.2-1c1.9.9,4.4,1,4.9,3.7.1.5.4.6.8.6,1,.2,2,.4,3,.5.4.1.9-.1,1.1.4a1.46,1.46,0,0,1-.5,1.2,9.7,9.7,0,0,1-2.8,1.6,4.57,4.57,0,0,0-2.1,3.6c0,.5.5.5.8.7,1.7.8,3.6.8,5.3,1.2a10,10,0,0,1,2.9,1c1.1.6,1.1,1.3,0,2a8.15,8.15,0,0,1-3.4,1.2c-2.3.4-3.2,1.6-3.1,3.8,0,.5.4.7.7.9a18.83,18.83,0,0,0,3.8,1.8c2,.8,2.1,1.3.4,2.7-.8.3-1.7-.1-2.6.2a1.15,1.15,0,0,0-1,.1,25.67,25.67,0,0,0-.1,4.8,3.81,3.81,0,0,1-.1,1.5v4.2a19.66,19.66,0,0,1,0,4.2,17.86,17.86,0,0,0-.6,6.1,3.67,3.67,0,0,1-1.3,3C165.8,170.3,165.4,170.1,164.9,170Z" transform="translate(0)"/><path class="cls-3" d="M266.8,144.9c.3-2.2,0-2.6-1.8-2.5a10.28,10.28,0,0,0-3.5,0c-1.5-.1-1.4,1.1-1.6,2.1-.2,1.3-.4,2.5-.5,3.8a2.34,2.34,0,0,1-2.1,2.1c-1,.2-1.6-.6-1.9-1.6-.2-.5,0-1-.2-1.5,0-.8-.1-1.6-.1-2.4-.2-.8.1-1.7-.2-2.6,0-.8-.1-1.6-.1-2.4a1.72,1.72,0,0,1,.1-1.4c1.8-.4,3.6-.8,5.5-.1a2.68,2.68,0,0,0,2.3-.2c.3-.4.8-.1,1.2-.3,1-.1,2-.2,3-.4.5-.5,1.2.1,1.7-.2,1,0,2,0,3-.1a10.45,10.45,0,0,1,2.5,0h1.7a32.29,32.29,0,0,1,4.4,0c1.5.3,3,.2,4.3,1.1a4.5,4.5,0,0,1,2.1,2.6,3.27,3.27,0,0,1,0,1.7,8,8,0,0,0-1.1,3.5,6.65,6.65,0,0,1-1.2,2.9c-1.1,1.4-2.4,1.2-3-.5-.3-.7.1-1.6-.2-2.3a5.28,5.28,0,0,0-.4-2.5c-.2-1.3-1.3-1.7-2.6-1.4a43.41,43.41,0,0,0-5.1-.1c-.5,0-.8.2-.7.7.1,1.3-.1,2.7.1,4,.3.3.7.2,1.1.2.5.2,1,0,1.5.2h.3a13.09,13.09,0,0,1,2.8,0c2.4.5,3,2.2,3.1,4.3a9,9,0,0,0,.3,1.6c.2.5-.1,1,.2,1.5-.2,1.6.3,3.1-.2,4.7-.7,2.1-2,2.6-3.6,1.2-1.4-1.3-3-2.5-3.9-4.4-.4-.7-.2-1.4-.4-2.1s.4-.8.8-.9,1,.2,1.1-.5c0-.3-.2-.4-.5-.4-.5,0-1.2-.1-1.4.5a6.72,6.72,0,0,0-.4,2.4.75.75,0,0,1-.1.5l-.3,6.3c-.3.5,0,1-.2,1.4-.3,1.9-.4,3.8-1.9,5.3-.5.5-1.1,1-1.8.7a2,2,0,0,1-1.4-1.9c0-.5-.1-1.1-.1-1.7a18.19,18.19,0,0,1,0-3.3c0-1.6,0-3.1.1-4.7a19.28,19.28,0,0,0,0-4.8c-.3-.6-.3-1.5-1.3-1.4-.7,0-1,.4-.9,1a15.48,15.48,0,0,0,0,4.3c-.3.9.5,2.1-.7,2.9a2.38,2.38,0,0,1-3.8-1c-.3-1.9.1-3.8-.2-5.6a5.7,5.7,0,0,0-.1-1.3,1.45,1.45,0,0,1-.2-.7c.2-.7-.1-1.4.1-2.1,0-.3.1-.7.1-1,.1-.7.8-.4,1.2-.6,1.7.1,3.2-.5,4.9-.6.9-.1.6-.8.6-1.4C266.9,145.5,266.7,145.3,266.8,144.9Z" transform="translate(0)"/><path class="cls-3" d="M416.7,146.7a12.66,12.66,0,0,1-1.8-.6c-1.9-.9-1.4-2.2-.3-3.1a14,14,0,0,1,4.6-1.9c1.6-.5,3.2-1,4.9-1.4.9-.2,1.8-.5,1.5-1.7a2.36,2.36,0,0,0-2.6-1.9c-2.5.5-5,1-7.5,1.4a8.1,8.1,0,0,1-2.2,0c-1-.2-1.4-1.1-2.1-1.6-1.1-.8-.7-1.9.8-2.5a25.94,25.94,0,0,1,3.7-1.1,45,45,0,0,0,5.8-2.1c1.3-.4,1.4-1.1.7-2.4-.6-1.1-1.5-2-1.4-3.4a1.71,1.71,0,0,1,1.3-1.7,12.09,12.09,0,0,1,3.8-.6c1.1,0,1.6.9,2.1,1.8a5.31,5.31,0,0,1,.8,1.7c.4,1.5,1.5,1.5,2.6,1.3,2.3-.4,4.5-.9,6.8-1.4,1.3-.3,2.4.4,3.2,2a1.79,1.79,0,0,1-.9,2.5,4.37,4.37,0,0,1-1.8.9c-1.9.4-3.4,1.7-5.2,2.4a1.15,1.15,0,0,0-.6,1.6c.5.8.8,2,2.2,1.8s2.6-.5,3.8-.8c2-.6,3.7.1,5.3,1.1a2.22,2.22,0,0,1,.1,1.6c-.9,1.3-2.6,1.4-3.9,2.2a7.94,7.94,0,0,1-2.7,1c-1.4.4-1.6,1.4-1.2,2.6.6,1.7.9,3.5,1.4,5.3.4,1.3.4,2.2-.7,3.1a2.46,2.46,0,0,1-1.7.1,10.36,10.36,0,0,1-3.8-4.5,10.51,10.51,0,0,0-2.3-2.9,2.64,2.64,0,0,0-2.7-.3c-2.1.6-4.3.9-6.5,1.3A10.19,10.19,0,0,1,416.7,146.7Z" transform="translate(0)"/><path class="cls-3" d="M142.4,148c0,1.8,0,3.7-.1,5.5-.3,2.2,0,4.3-.1,6.5a4.88,4.88,0,0,1-.1,1.7c0,1.8-.1,3.6-.1,5.4a2.3,2.3,0,0,1-.4,1.4c-.5.7-.9,1.2-2,.4a40.87,40.87,0,0,1-5.6-4.5c-1-1-2.3-1.5-2.9-3a15.23,15.23,0,0,0-2.2-3.4,1,1,0,0,1,1.3.2,11.17,11.17,0,0,0,4.4.9c.8.1,1-.8,1-1.5.3-.6,0-1.2.2-1.7,0-1,.1-2,.1-3,.3-1.1-.1-2.3.2-3.4.2-2.2.2-2.2-1.9-1.8-.9.2-1.9.5-2.8.7a4.3,4.3,0,0,1-1.6,0c-1.9-.5-3.5-1.4-3.9-3.4,3-1.1,6.3-1.7,9.3-3a1.1,1.1,0,0,0,.8-1.2c0-1.1,0-2.1.1-3.2s-.5-1.7-1.5-2-1.9-.6-2.8-.8c-1.6-.3-2.7-.8-2.8-2.8,1.6-.2,3.3-.5,5-.7a2.12,2.12,0,0,0,1.9-2.5,29.79,29.79,0,0,0-.9-4.3c-.2-.7-.5-1.6.3-2s1.9-.9,2.9-.3,1.8,1.1,2.7,1.7c.4.6,0,1.4.3,2a8.68,8.68,0,0,0,.1,2.3c.3,2.5.6,2.7,4,3.1.6.1,1.1.2,1.6.3s1,.4,1,1,.5,1.4-.4,1.9a12.6,12.6,0,0,1-3.3,1c-.8.2-1.1.5-1,1.3a10.82,10.82,0,0,1,0,1.8c-.1,2-.1,2,2,2.5.7.2,1.7.1,1.8.9s-.8,1.1-1.4,1.6a12,12,0,0,0-2.7,1.9C142.3,146.3,142.6,147.2,142.4,148Z" transform="translate(0)"/><path class="cls-3" d="M312.5,394.3a13.41,13.41,0,0,1,1.4,3.8,1.2,1.2,0,0,0,1.1,1.2c.6.3,1.2,0,1.7.2a8.6,8.6,0,0,1,1.6.1c.6.3,1.2,0,1.8.2,1.1.3,2.5.6,2.8,1.9.7,3.3.2,2.7-2.6,3.3-1.1.2-2.2.3-3.3.5-.3.1-.7,0-.9.5a.94.94,0,0,0,.5,1c1.7,1.3,3.3,2.6,5,3.9a3.61,3.61,0,0,1,1.8,2.5,4.12,4.12,0,0,1-.1,2.2c-1.5,1-2.2,1-3.8-.3a3.13,3.13,0,0,1-1-.5c-.1-.1-.3-.2-.4-.3a2.62,2.62,0,0,1-.9-.5c-.2-.1-.3-.2-.5-.3-.9-.4-1.6-.3-2,.6-.1.1-.1.1-.1.2-.2.4.2.8-.2,1.2v.8c-.3.6.1,1.4-.2,2-.6.9-1.4,1.7-2.6,1.3a2.35,2.35,0,0,1-1.9-2.2c-.1-1-.3-1.9-.4-2.9-.1-.4.2-.9-.4-1.2a1.47,1.47,0,0,1-1.1.2c-.6.3-1.3.7-1.9,1a2.13,2.13,0,0,1-1.2.7c-1.1.3-1.7,1.3-2.7,1.8a3.3,3.3,0,0,1-1.4,0c-1.1-.2-1.3-.7-.9-2.1a16.08,16.08,0,0,1,5.4-7.9,3,3,0,0,0,.8-.8c.3-.4,1.2-.7.9-1.3s-1.1-.3-1.7-.3c-1.2-.3-2.5,0-3.7-.2-.8,0-1.7-.1-2.5-.1-1.2.1-1.2-.5-.9-1.4.6-1.9,2.3-2.3,3.9-2.7a46.44,46.44,0,0,1,5.1-1.1c1.4-.2,1.5-.9,1.4-2,0-.2-.1-.3-.2-.5-.5-1.9-.3-2.3,1.7-2.5.3,0,.5-.2.8-.2C311.3,394.4,312,394,312.5,394.3Z" transform="translate(0)"/><path class="cls-3" d="M313.3,428c-.9-.5-2.2-2.8-1.9-3.6a1,1,0,0,1,1.5-.5,1.72,1.72,0,0,0,1.2.2,16.21,16.21,0,0,0,4.4,0c.1.1.1,0,.2,0,.3-.4.7-.2,1-.3.5-1.2-.4-2.1-.6-3.2-.1-.6,0-.8.4-.9a15.54,15.54,0,0,1,2.3-.5c1.8-.4,2.4.9,3,2.2.2.5-.1,1,.2,1.4,0,1.5,1.1,1.5,2.1,1.6a8.46,8.46,0,0,1,4.1.9,1.38,1.38,0,0,1,.3,2.4,6.81,6.81,0,0,1-2.6,1.5c-.3.1-.9,0-.9.8a1.21,1.21,0,0,0,.7,1.2,57.21,57.21,0,0,1,5.3,4.5,4.15,4.15,0,0,1,1.2,2,2.28,2.28,0,0,1-.9,2.5,1.69,1.69,0,0,1-2.3-.1c-1.4-.8-2.7-1.7-4.1-2.6-1.2-.8-1.6-.6-1.8.7-.3,1.5-.4,3.1-.6,4.7a6.57,6.57,0,0,1-.6,2.5c-.7,1.3-1.8,1.3-2.8.1a7,7,0,0,1-1.4-4.4c-.2-.6.1-1.2-.2-1.7a3,3,0,0,0-.4-2.1c-.4-.8-1.2-.3-1.9,0-2.1,1-4,2.5-6.3,3.3-1.1.4-1.5.1-1.8-.9a3.08,3.08,0,0,1,0-1.9c.9-2.7,1.9-5.4,4.5-7.1,1.5-1,1.5-1.2-.2-2.1C314,428.6,313.7,428.2,313.3,428Z" transform="translate(0)"/><path class="cls-3" d="M295.6,423.8c1.5-.1,1.9-.6,2-2.1.1-1.1-.3-2.5,1.3-2.9.9-.6,1.8-.8,2.5.2.9.5.8,1.5,1.1,2.3.3.5,0,1,.2,1.5.4,1.5,1.8,1.2,2.7,1.2a6.82,6.82,0,0,1,2.9.5c1.3.4,1.3,1.6,1.3,2.6s-.9,1.1-1.7,1.3-1.4.3-2,.4c-1,.1-1.3.8-1.6,1.5s.5,1,.9,1.3a8.08,8.08,0,0,1,2.8,3c.2.5.6,1.2.1,1.7a2.76,2.76,0,0,1-2.3,1c-2.2-.5-2.3-.4-2.3,1.9a18,18,0,0,1-1,4.6,1.83,1.83,0,0,1-2.1,1.1c-.7-.2-1.7-.6-1.8-1.7-.3-2-.8-4-.9-6,0-.3-.1-.7-.5-.7a1.44,1.44,0,0,0-1.5.4c-1.5,1.5-3,2.9-4.6,4.3-.5.4-.9,1.1-1.6.8s-.6-1-.7-1.7a8.57,8.57,0,0,1,2.6-7.3,5.79,5.79,0,0,0,1.5-2.5c-.8-.2-1.5-.3-2.3-.5-1.4-.4-3-3.4-2.6-4.8.1-.5.5-.3.8-.4a26.26,26.26,0,0,1,4.8-.6C294.2,423.8,294.9,424.1,295.6,423.8Z" transform="translate(0)"/><path class="cls-3" d="M329.3,134.1v2.2c.2.6-.1,1.2.2,1.8v2c-.3.6,0,1.2-.2,1.8-.4,1.9-.6,3.8-.9,5.7a36.81,36.81,0,0,1-1.6,5.4c-1.1,3.5-2,6.9-2.8,10.5a9.79,9.79,0,0,1-2.8,4.4.94.94,0,0,1-1.5,0,4.86,4.86,0,0,1-1.3-2.8,22.11,22.11,0,0,1,.1-6.8c.4-2.6.9-5.1,1.4-7.7.3-1.4.6-2.8.8-4.2-.1-.5-.2-1,.3-1.4a65.28,65.28,0,0,0,1.4-7.7c.3-.7-.4-1.4.2-2v-.7c.3-.6,0-1.2.2-1.8a5.43,5.43,0,0,0,0-2.2c-.2-.5,0-1-.2-1.5.1-1.5-.8-2.6-1.5-3.8-.5-.2-.5-.7-.8-1.1-.8-.9-.2-1,.6-1.2a8.76,8.76,0,0,1,2.8,0c4.1.8,5.1,3.9,5.5,7.5,0,.3.1.6.1,1A11.27,11.27,0,0,1,329.3,134.1Z" transform="translate(0)"/><path class="cls-3" d="M260.7,124.4a19.3,19.3,0,0,1-3.4-1.1,2.72,2.72,0,0,1-1.4-2.6c0-.7,1.4-1,2.3-1.3a12.5,12.5,0,0,1,1.9-.3,16.21,16.21,0,0,0,4.4,0H272a8.68,8.68,0,0,1,2.8.5c2.4.7,2.9,2.8,3.5,4.7a13.2,13.2,0,0,1,.6,3.9,36.85,36.85,0,0,1,0,4.7c-.3,1.9-1.6,2.5-3.3,2.8a63.21,63.21,0,0,1-7.6,1.1c-.9.4-2-.2-2.9.2-1-.3-2,0-3.1-.2-1.9-.4-2.7-1.6-3.7-2.9-.5-.7.1-.8.6-.9l3.8-.6c.5-.2,1,0,1.5-.2.4,0,.9-.1,1.3-.1.6-.2,1.2.1,1.7-.2a12.75,12.75,0,0,0,1.9-.1c1.3-.3,2.7.1,4.1-.2.2-.8-.4-.6-.7-.6h-7.7c-.5-.2-1,0-1.5-.2a4,4,0,0,1-4-3.3c1.3-.2,2.7-.5,4-.7.7-.2,1.4.1,2-.2a19.27,19.27,0,0,0,2.4-.1c.6-.2,1.2.1,1.7-.2a5.7,5.7,0,0,0,1.3-.1c.4-.2.9.1,1.3-.2.4-1-.5-1.2-1-1.7a2,2,0,0,0-1.5,0c-1.2,0-2.4,0-3.6.1A30.09,30.09,0,0,1,260.7,124.4Z" transform="translate(0)"/><path class="cls-3" d="M348.5,139.3l-.1-.1c-.5-.5-.9-1.3-.7-1.8a2,2,0,0,1,1.9-.3c1.1.3,2.3.4,3.3.7,1.3.4,2,.3,2-1.2,0-.3.4-.6.2-1,.3-.9,0-1.9.2-2.8a4.1,4.1,0,0,1,.1-1.1,13.41,13.41,0,0,0,0-4c.3-.5-.6-1.1,0-1.4a3,3,0,0,1,2.1,0,2.68,2.68,0,0,1,2,2.7,5.85,5.85,0,0,0,.4,1.9c.3.9-.1,1.8.2,2.6a3.4,3.4,0,0,0,.1,1,6.05,6.05,0,0,1,0,1.9,4.1,4.1,0,0,1-.1,1.1c-.3.5,0,1-.2,1.4a5.7,5.7,0,0,1-.1,1.3c-.3.5,0,1-.2,1.4,0,.7-.1,1.4-.1,2.1-.3.7,0,1.4-.2,2-.3,1.3-.6,2.7-.8,4-.1.4-.3,1,.3,1.3,1.5.8,2.2,2.2,3.1,3.5a23,23,0,0,1,2.3,4.4c.1.3.5.9.2,1.1-.5.2-1.1.6-1.7.1a20.94,20.94,0,0,1-2.8-2.4,6.89,6.89,0,0,0-1.3-1.1c-1.4-.9-1.5-1-2.1.5s-1.2,3.2-1.8,4.8a13,13,0,0,1-2.4,4.1,2.48,2.48,0,0,1-4,.1,1.17,1.17,0,0,1-.3-1.4c1.9-5.4,3.3-11.1,5-16.6.3-1.1.5-2.3.7-3.4a1,1,0,0,0-.6-1.3c-.5-.2-.7-.6-1.1-.9a2.12,2.12,0,0,1-1.5-1.4l-.6-.6A1.5,1.5,0,0,1,348.5,139.3Z" transform="translate(0)"/><path class="cls-3" d="M252.1,144.9a7,7,0,0,0,0,2.5,3.3,3.3,0,0,1,0,1.4,6.26,6.26,0,0,0-.3,2.7c-.2.5,0,1-.2,1.5a30.73,30.73,0,0,1-4,11.7c-.4.7-.9,1.4-1.9,1.3s-1.1-.8-1.5-1.4a5.92,5.92,0,0,1-.5-1.9c-.3-.7.1-1.6-.2-2.3a12.1,12.1,0,0,0-.1-1.9,3.3,3.3,0,0,1,0-1.4c.6-3.5,1.2-7.1,2-10.5.3-1.4.4-2.7.6-4.1.2-.5,0-1,.2-1.5a12.75,12.75,0,0,1,.1-1.9c.3-.9-.1-1.9.2-2.9,0-1.3,0-2.5.1-3.8a4.1,4.1,0,0,0,0-2.2c-.2-.7-.3-1.5-.5-2.2s-.4-1.4-1.3-1.6-.8-.9-.1-1.5a4.77,4.77,0,0,1,6.8,1.8c1.1,2.4,1.2,5,1.5,7.5a4.88,4.88,0,0,0,0,2.4c.1,2.2-.5,4.3-.6,6.5C252.1,143.8,252.3,144.4,252.1,144.9Z" transform="translate(0)"/><path class="cls-3" d="M308.9,143.8c-.3,1.2-.5,2.5-.9,3.7a1.23,1.23,0,0,1-2.3.4,7.24,7.24,0,0,1-1.2-2.3c-1.1-3.6-2.3-7.2-2.5-11.1-.2-2.8.7-5.3,1.2-7.8.3-1.2.7-2.3,1-3.5.1-.6.4-1.1,1-.8,1.1.6,2.3.5,3.5.8a4.77,4.77,0,0,1,3.3,3.7c.1.6-.3.9-.5,1.4-1.2,2.3-2.5,4.6-1.9,7.3-.3.8,0,1.7-.2,2.6a5.7,5.7,0,0,1-.1,1.3C308.8,141,309.2,142.4,308.9,143.8Z" transform="translate(0)"/><path class="cls-3" d="M428.4,166.4c-4.6-1.2-9.1-2.7-12.8-6a30.13,30.13,0,0,1-4.2-4.6c-1.1-1.4-.7-2.3,1-2.9a5.38,5.38,0,0,1,6.5,2,9.48,9.48,0,0,0,4.2,3.2c2.1.9,4.1,1.9,6.3,2.7,1.6.6,3.3,1.4,4.1,3.2.5,1.2,0,1.7-1,2-.8.2-1.6.3-2.4.5A3.22,3.22,0,0,1,428.4,166.4Z" transform="translate(0)"/><path class="cls-3" d="M238.2,139.6c0-.8-.1-1.6-.1-2.4a18.19,18.19,0,0,1,0-3.3,4.59,4.59,0,0,0-1.3-4c-.7-.7-.7-1.2.4-1.5a8.86,8.86,0,0,0,1.7-.8c1.6-.6,2.6-.2,3.1,1.5s.8,3.4,1.2,5.1a24.6,24.6,0,0,1,0,4.7c-.6.9-.3,2-.6,2.9-.3,1.1-.8,2.1-2,2a2.36,2.36,0,0,1-2.2-2.2C238.1,140.9,238.5,140.2,238.2,139.6Z" transform="translate(0)"/><path class="cls-3" d="M116.1,144.2c-.7,2.3-2.5,3.3-4,2.1a3.82,3.82,0,0,1-1.9-2.9c-.3-2.9-1.8-5.4-3-7.9a5.94,5.94,0,0,0-.4-.8c-.4-.7,0-.9.6-.8.3,0,.5.2.8.2,4.9-.8,6,2.8,7.3,6.2.2.6.3,1.2.5,1.9S115.8,143.5,116.1,144.2Z" transform="translate(0)"/><path class="cls-3" d="M192.2,414.1a2.85,2.85,0,0,1-1.4-.8l-7.1-6.8a2.43,2.43,0,0,1-.5-3.3,1.15,1.15,0,0,1,1.4-.5c1.3.4,2.6.7,3.8,1a3.6,3.6,0,0,1,2,1.1c1.4,2.2,3.1,4.2,3.8,6.8.2.8.8,2-.7,2.4A1.47,1.47,0,0,1,192.2,414.1Z" transform="translate(0)"/><path class="cls-3" d="M201.5,415.2a40.76,40.76,0,0,0,7.5-11.8c.4-1,.9-1.2,1.7-.6,2.6,1.9,3.3,4.2,1.1,6.8a31.7,31.7,0,0,1-6.6,6.1c-1,.2-2,0-3,.1C201.8,415.9,201.5,415.8,201.5,415.2Z" transform="translate(0)"/><path class="cls-3" d="M460.4,162.2c-.2-1.4.6-2.9,1-4.4.2-.8,1.8-1,2.9-.9a9.26,9.26,0,0,1,2.3.4c2.3.7,3.2,2.5,1.8,4.9a6,6,0,0,1-5,3.3C461,165.6,460.3,164.8,460.4,162.2Z" transform="translate(0)"/><path class="cls-4" d="M556.8,344.5a2,2,0,0,1,1.5-1.6c1.4-.4,1.2-.9.3-1.6.5-.6,1.3-.3,1.9-.7a2.48,2.48,0,0,1,1.7,0c1,.5,2.1.7,2.8,1.8a1.12,1.12,0,0,1-.1,1.6c-.4.3-.8.1-1.2.2a6.28,6.28,0,0,0-3.3.6c1.1-.2,2.2-.8,3.4-.5.5.1,1-.1,1.5.1,2.2.8,2.9,1.7,2.8,3.4a4,4,0,0,1-3.4,3.4c-.5.1-.9.1-1.4.2a1.71,1.71,0,0,1-1.4,0c-.9-.3-1.8.2-2.7-.4-.4-.3-.9-.5-1.1-1s-.6-.8-.3-1.3.7-.1,1.1,0c.2.1.5,0,.7.1a7.08,7.08,0,0,0,2.9,0,5,5,0,0,0,2-.8c.4-.3.7-.6.4-1a.83.83,0,0,0-1-.5,16,16,0,0,0-3.1,1,3.41,3.41,0,0,1-2.8.2,1.85,1.85,0,0,1-1.1-1.7A1.62,1.62,0,0,1,556.8,344.5Z" transform="translate(0)"/><path class="cls-5" d="M558.4,339.5a1.93,1.93,0,0,1-1.7-1.4,2.48,2.48,0,0,1,0-1.7c.7-1.6,2.1-2.1,3.5-2.8l1.8-.9c.1-.7-.3-.3-.6-.3-.7-.3-1,.6-1.6.6a4.11,4.11,0,0,1-2.2,0c-.5-.2-1.3-.1-1.3-1s.6-1,1.2-1.2a21,21,0,0,1,2.4-.6c.7-.3,1.4,0,2.1-.2a27.15,27.15,0,0,1,2.8.1c.6.1,1.3.3,1.5,1a1.91,1.91,0,0,1-.7,2,17.61,17.61,0,0,1-2.3,1.4c-1.1.6-2.2,1.1-3.3,1.6-.4.2-.8.5-.5,1a11.48,11.48,0,0,0,3.7,0h.4c.4-.3,1,0,1.5-.3.3-.1.6-.3.9-.4a1.21,1.21,0,0,1,1,.3c.3.3.1.6,0,.9-.4,1.4-1.7,1.6-2.8,2a10.88,10.88,0,0,1-3.6,0h-.5C559.4,339.5,558.9,339.8,558.4,339.5Z" transform="translate(0)"/><path class="cls-6" d="M549,346.6c-.5.2-.8-.2-1-.5a1.76,1.76,0,0,0-1.3-.6c-2.1-.1-2.6-.7-2.6-2.8v-1.2c.7,0,1,.7,1.6.9,1,.4,1.8,0,1.8-1a1.4,1.4,0,0,1,0-1.4c.1-.7.1-1.4.9-1.7.3-.3,1,.3,1.1-.5-.2-.1-.4-.1-.5-.2-.4-.5-1.6-.4-1.4-.8.3-.6,1.2-.6,1.9-.6a3.22,3.22,0,0,1,3.4,1.9c.7,1.4.4,1.8-1.1,1.9-.6,0-1.2-.2-1.7.4.6.4,1.3-.1,1.9.3,1.5.5,3.2.8,4.2,2.3.1.6.3,1.1-.1,1.6-.3.3-.7.6-1,.9-.5.3-1,0-1.5.3-.7-.3-1.1.2-1.5.6a.37.37,0,0,1-.5-.2c-.3-1,.2-1.4,1.1-1.5a4.87,4.87,0,0,0,1.2-.1c.5,0,1.1-.1,1.2-.7s-.3-.9-.8-1.2a8.34,8.34,0,0,0-3.4-1c-1.6-.2-1.7-.3-1.8-1.9-.8,1.3-.6,1.8.8,2.2a2,2,0,0,1,1.5,2.2c0,.9-.1,1.7-1.2,1.8h.6c.4.1,1,.1.8.6s-.6.1-.9.1A5.34,5.34,0,0,0,549,346.6Z" transform="translate(0)"/><path class="cls-7" d="M151.6,150.5a2.49,2.49,0,0,1,2.4.9,4,4,0,0,0,1.9,1.1c1.7.9,1.8,1.4.6,2.9-.5.5-1.2,0-1.7.3a9.91,9.91,0,0,1-5.5-1.7c-1-.6-1.3-1.6-1.9-2.4-.4-.4,0-.5.3-.6.8-.1,1.6-.3,2.4-.4C150.6,150.5,151.2,150.8,151.6,150.5Z" transform="translate(0)"/><path class="cls-8" d="M549,346.6c.6-.4,1.3-.1,2.2-.1-.7-.7-1.6,0-2.2-.6.8-.5,1.6-.2,2.5-.1l.3.3c-.3.4-.4.5.3.6a3.09,3.09,0,0,1,2.2,1.5,1.24,1.24,0,0,1-.6,2,22.58,22.58,0,0,1-4.9,1.9,1.33,1.33,0,0,0-.6.5c1.9.6,3.9.7,5.8,1.4a8.43,8.43,0,0,1,1.4.6c1.3.7,1.3,1.1,0,1.9a3.4,3.4,0,0,1-2,0c-2.2-.8-4.3-1.7-6.5-2.5-.9-.4-2-.9-2-1.8s1.1-1.5,1.9-2c1.1-.5,2.2-.9,3.3-1.3.6-.2,1.4-.5,1.1-1.3s-.5-1.5-1.5-1.3A.62.62,0,0,1,549,346.6Z" transform="translate(0)"/><path class="cls-7" d="M363.7,134.8c1.2,0,3,1.8,3.1,3.1a3.42,3.42,0,0,1-2.5,3.3c-.7.2-.9-.3-1.3-.5a4.25,4.25,0,0,1-2.2-5c.1-.6.5-.6.9-.7C362.3,134.9,363,134.9,363.7,134.8Z" transform="translate(0)"/><path class="cls-9" d="M491,162c-3.1-.3-4.8-2.3-5.7-5-.1-.3-.1-.4.2-.6,1.7-.9,5,.2,5.8,1.9.4.8.9,1.6,1.2,2.4.2.4.6.8.1,1.2A2.15,2.15,0,0,1,491,162Z" transform="translate(0)"/><path class="cls-7" d="M476.3,160.8c-.1.7.1,1.8-.7,2.3s-1.8-.1-2.6-.7a16.68,16.68,0,0,1-3.4-3.6c-.2-.3-.3-.8,0-.8,1.6-.1,3.2-.9,4.9-.3A3.24,3.24,0,0,1,476.3,160.8Z" transform="translate(0)"/><path class="cls-10" d="M478.5,158.2c-.2-.9.6-1.2,1.1-1.6s1-.1,1.5.2c1.2.7,2.7,1.1,2.9,2.8a2.36,2.36,0,0,1-.9,2.3c-.7.5-1.4.2-2.1-.2A4.55,4.55,0,0,1,478.5,158.2Z" transform="translate(0)"/><path class="cls-11" d="M273,155.8v-1.9c.1-2.1.1-2.1,2.1-2,.6,0,1,0,.9.8-.1.6-.2,1.1-1.1,1-.4-.1-1.3-.6-1.4.5C273,154.6,273.5,155.3,273,155.8Z" transform="translate(0)"/><path class="cls-12" d="M480.4,149.4a5.23,5.23,0,0,1,2.5-.2h11.5c-.3.3-.6.2-.9.2Z" transform="translate(0)"/><path class="cls-13" d="M272.4,147c-.5-1.4,0-2.9-.2-4.4-.1-.4.3-.5.7-.5a45.2,45.2,0,0,1,5.2.2c-1.5,0-3.1.1-4.6,0-.9,0-1.1.3-1.1,1.1Z" transform="translate(0)"/><path class="cls-14" d="M359.6,430.7a41.32,41.32,0,0,1,0,9.3Z" transform="translate(0)"/><path class="cls-14" d="M142.1,161.6a73,73,0,0,1,.2-8.1v7.1C142.3,160.9,142.4,161.3,142.1,161.6Z" transform="translate(0)"/><path class="cls-2" d="M366.5,411a1.45,1.45,0,0,1,.7-.2c.8,0,1.9-.3,2.4.1.8.5-.6,1.2-.3,2C369.4,410.8,368,410.8,366.5,411Z" transform="translate(0)"/><path class="cls-14" d="M201.7,406.3v-6.4A17.21,17.21,0,0,1,201.7,406.3Z" transform="translate(0)"/><path class="cls-14" d="M168.3,152.4a33.2,33.2,0,0,1,.2-6.3C168.4,148.2,168.8,150.4,168.3,152.4Z" transform="translate(0)"/><path class="cls-14" d="M260.5,153.5a26.49,26.49,0,0,1,.2,5.6C260.2,157.3,260.5,155.4,260.5,153.5Z" transform="translate(0)"/><path class="cls-2" d="M260.7,124.4H266A11.85,11.85,0,0,1,260.7,124.4Z" transform="translate(0)"/><path class="cls-2" d="M265.1,137.1a9.25,9.25,0,0,1,2.9-.2c0,.4.3.5.6.5a3.21,3.21,0,0,1-1.7.2c.1-.3.1-.5-.3-.5A7.44,7.44,0,0,1,265.1,137.1Z" transform="translate(0)"/><path class="cls-14" d="M98,131.5a43.49,43.49,0,0,1-5.1-.2C94.7,131.4,96.4,131,98,131.5Z" transform="translate(0)"/><path class="cls-14" d="M85.3,138.7a15.13,15.13,0,0,1,0,5.2Z" transform="translate(0)"/><path class="cls-2" d="M314.8,414.3c.6-1.7.6-1.7,2-.6A6.64,6.64,0,0,0,314.8,414.3Z" transform="translate(0)"/><path class="cls-2" d="M369,426.9c-1.6.6-3.3,0-5,.2C365.7,426.6,367.4,427,369,426.9Z" transform="translate(0)"/><path class="cls-2" d="M301.4,419a2.78,2.78,0,0,0-2.5-.2C300.1,417.6,301,417.7,301.4,419Z" transform="translate(0)"/><path class="cls-14" d="M196.7,402.3a13.45,13.45,0,0,1,0,4.9Z" transform="translate(0)"/><path class="cls-14" d="M267.4,153.3a11.1,11.1,0,0,1,0,4.8Z" transform="translate(0)"/><path class="cls-2" d="M278.9,133v-4.7A12.38,12.38,0,0,1,278.9,133Z" transform="translate(0)"/><path class="cls-14" d="M243.2,138.8v-4.7A9.35,9.35,0,0,1,243.2,138.8Z" transform="translate(0)"/><path class="cls-14" d="M201.5,415.2c0,.6.5.5.9.5h2.8c-1.1.5-2.2.2-3.4.2C201.4,416,201.3,415.6,201.5,415.2Z" transform="translate(0)"/><path class="cls-14" d="M94.7,137.2h4.4A8.21,8.21,0,0,1,94.7,137.2Z" transform="translate(0)"/><path class="cls-2" d="M280.2,137.4h-4.4A8.21,8.21,0,0,1,280.2,137.4Z" transform="translate(0)"/><path class="cls-14" d="M276.6,424.6v-4.4A8.21,8.21,0,0,1,276.6,424.6Z" transform="translate(0)"/><path class="cls-12" d="M474.3,155h4.2A7.5,7.5,0,0,1,474.3,155Z" transform="translate(0)"/><path class="cls-2" d="M322.5,135.2a4.42,4.42,0,0,1-.2,2C322.5,136.6,320.7,135.7,322.5,135.2Z" transform="translate(0)"/><path class="cls-2" d="M264.4,119.1a10.87,10.87,0,0,1-4.4,0Z" transform="translate(0)"/><path class="cls-2" d="M273.1,131.6c-1.3.4-2.7.1-4.1.2C270.4,131.3,271.8,131.7,273.1,131.6Z" transform="translate(0)"/><path class="cls-14" d="M154,128.3c1.4.1,2.7-.3,4.1.2C156.8,128.4,155.4,128.8,154,128.3Z" transform="translate(0)"/><path class="cls-14" d="M308.9,143.8a14.82,14.82,0,0,1,.2-4.2C309.1,141,309.4,142.4,308.9,143.8Z" transform="translate(0)"/><path class="cls-14" d="M168.3,160.8v-4.2A7.5,7.5,0,0,1,168.3,160.8Z" transform="translate(0)"/><path class="cls-12" d="M377.2,126.6a14.82,14.82,0,0,1-4.2.2C374.3,126.3,375.8,126.7,377.2,126.6Z" transform="translate(0)"/><path class="cls-2" d="M318.5,424.1a9.35,9.35,0,0,1-4.4,0Z" transform="translate(0)"/><path class="cls-14" d="M265.1,157.3a10.38,10.38,0,0,1,0-4.3Z" transform="translate(0)"/><path class="cls-12" d="M355.4,127.6a9,9,0,0,1,0,4Z" transform="translate(0)"/><path class="cls-12" d="M382.4,426.5h-3.6A7.31,7.31,0,0,1,382.4,426.5Z" transform="translate(0)"/><path class="cls-12" d="M560.4,339.8H564A5.55,5.55,0,0,1,560.4,339.8Z" transform="translate(0)"/><path class="cls-12" d="M563,337.3c-1.2.2-2.5.6-3.7,0Z" transform="translate(0)"/><path class="cls-14" d="M368.1,444.9a11.53,11.53,0,0,1,3.7-.2C370.6,445.2,369.3,444.9,368.1,444.9Z" transform="translate(0)"/><path class="cls-2" d="M320.9,144.9a2.23,2.23,0,0,1-.3,1.4C319.7,145.7,319.8,145.2,320.9,144.9Z" transform="translate(0)"/><path class="cls-12" d="M416.7,146.7h3.6A7.31,7.31,0,0,1,416.7,146.7Z" transform="translate(0)"/><path class="cls-14" d="M301.4,404.7a15.33,15.33,0,0,1,3.7.2C303.8,404.8,302.6,405.1,301.4,404.7Z" transform="translate(0)"/><path class="cls-2" d="M350.4,141.3a2.92,2.92,0,0,1,1.5,1.4C350.9,142.8,350.4,142.3,350.4,141.3Z" transform="translate(0)"/><path class="cls-12" d="M389.6,126.3c-1.1-.2-2.3.2-3.4-.2C387.4,126.1,388.6,125.7,389.6,126.3Z" transform="translate(0)"/><path class="cls-14" d="M269.4,419.6a6,6,0,0,1,0,3.5Z" transform="translate(0)"/><path class="cls-12" d="M486.8,145.2a13,13,0,0,1-3.4-.2C484.6,145,485.7,144.7,486.8,145.2Z" transform="translate(0)"/><path class="cls-2" d="M369,419.1v3.3A4.69,4.69,0,0,1,369,419.1Z" transform="translate(0)"/><path class="cls-12" d="M493.5,145.4a13,13,0,0,1-3.4-.2C491.2,145.3,492.4,145,493.5,145.4Z" transform="translate(0)"/><path class="cls-14" d="M205.2,138a9.76,9.76,0,0,1,3.4-.2C207.5,138.2,206.3,137.9,205.2,138Z" transform="translate(0)"/><path class="cls-14" d="M261.4,142.4a6.92,6.92,0,0,1,3.5,0Z" transform="translate(0)"/><path class="cls-14" d="M267.3,162.8v3.3A6.16,6.16,0,0,1,267.3,162.8Z" transform="translate(0)"/><path class="cls-2" d="M348.5,139.3c.5.5,1.1.8,1.4,1.5C348.8,140.8,348.4,140.3,348.5,139.3Z" transform="translate(0)"/><path class="cls-14" d="M161.8,154.1a9.62,9.62,0,0,1-.2,3.4A7.93,7.93,0,0,1,161.8,154.1Z" transform="translate(0)"/><path class="cls-14" d="M238.1,133.8v3.3A4.69,4.69,0,0,1,238.1,133.8Z" transform="translate(0)"/><path class="cls-12" d="M489.1,154.5a19.4,19.4,0,0,1,3.4.2C491.4,154.6,490.2,154.9,489.1,154.5Z" transform="translate(0)"/><path class="cls-14" d="M136.2,149.4a13,13,0,0,1-.2,3.4C136,151.7,135.7,150.5,136.2,149.4Z" transform="translate(0)"/><path class="cls-14" d="M201.8,417.2c-.8.4-1.6.1-2.4.2-.4,0-.5-.2-.2-.5C199.9,417.5,200.9,417,201.8,417.2Z" transform="translate(0)"/><path class="cls-2" d="M323.6,122.9h-2.8A3.41,3.41,0,0,1,323.6,122.9Z" transform="translate(0)"/><path class="cls-12" d="M398,159.5a9.25,9.25,0,0,1-.2-2.9C398.3,157.6,397.9,158.6,398,159.5Z" transform="translate(0)"/><path class="cls-14" d="M224.3,153.8V151A3.86,3.86,0,0,1,224.3,153.8Z" transform="translate(0)"/><path class="cls-14" d="M329.3,134.1v-2.8A4.47,4.47,0,0,1,329.3,134.1Z" transform="translate(0)"/><path class="cls-12" d="M355.3,132.7a6.66,6.66,0,0,1-.2,2.8C355.2,134.6,354.9,133.6,355.3,132.7Z" transform="translate(0)"/><path class="cls-13" d="M278,147.4h-2.8A3.41,3.41,0,0,1,278,147.4Z" transform="translate(0)"/><path class="cls-14" d="M246.5,136.3a9.47,9.47,0,0,1-.2,2.9C246.3,138.2,246,137.2,246.5,136.3Z" transform="translate(0)"/><path class="cls-14" d="M257.2,404.1a8.83,8.83,0,0,1-2.8.2C255.2,403.8,256.2,404.1,257.2,404.1Z" transform="translate(0)"/><path class="cls-12" d="M562.4,348.7a3.28,3.28,0,0,1-2.9,0Z" transform="translate(0)"/><path class="cls-14" d="M91.2,156.9a7.44,7.44,0,0,1,.2-2.6C91.3,155.2,91.6,156.1,91.2,156.9Z" transform="translate(0)"/><path class="cls-12" d="M485.4,154.7a7.44,7.44,0,0,1,2.6-.2A7.82,7.82,0,0,1,485.4,154.7Z" transform="translate(0)"/><path class="cls-2" d="M274.1,137.4h-2.5A2.75,2.75,0,0,1,274.1,137.4Z" transform="translate(0)"/><path class="cls-14" d="M309.2,138.3a7.63,7.63,0,0,1,.2-2.6A4.7,4.7,0,0,1,309.2,138.3Z" transform="translate(0)"/><path class="cls-14" d="M142.4,148c0-.9-.3-1.7.2-2.5C142.5,146.3,142.9,147.2,142.4,148Z" transform="translate(0)"/><path class="cls-14" d="M169.6,146a22.75,22.75,0,0,1,2.6-.2A4.7,4.7,0,0,1,169.6,146Z" transform="translate(0)"/><path class="cls-14" d="M84.4,125.6a5.65,5.65,0,0,1,.2,2.6C84.2,127.4,84.5,126.5,84.4,125.6Z" transform="translate(0)"/><path class="cls-12" d="M381.7,404.4a7.44,7.44,0,0,1-2.6.2C379.9,404.1,380.8,404.4,381.7,404.4Z" transform="translate(0)"/><path class="cls-14" d="M200.6,152.2h2.5A2.75,2.75,0,0,1,200.6,152.2Z" transform="translate(0)"/><path class="cls-14" d="M254.9,142.4a7.44,7.44,0,0,1,.2,2.6A4.7,4.7,0,0,1,254.9,142.4Z" transform="translate(0)"/><path class="cls-12" d="M360.1,133.4a5.65,5.65,0,0,1-.2-2.6C360.4,131.6,360,132.5,360.1,133.4Z" transform="translate(0)"/><path class="cls-12" d="M480.7,154.9a7.44,7.44,0,0,1,2.6-.2A4.7,4.7,0,0,1,480.7,154.9Z" transform="translate(0)"/><path class="cls-2" d="M359.4,416a3.69,3.69,0,0,1,.7-1.4C360.6,415.4,360.2,415.8,359.4,416Z" transform="translate(0)"/><path class="cls-14" d="M215.3,416.3h-2.5A2.75,2.75,0,0,1,215.3,416.3Z" transform="translate(0)"/><path class="cls-13" d="M281.1,146.3a8.58,8.58,0,0,1,.2,2.3C280.8,147.8,281.1,147,281.1,146.3Z" transform="translate(0)"/><path class="cls-2" d="M252.9,136.7a3.93,3.93,0,0,1,0-2.4Z" transform="translate(0)"/><path class="cls-14" d="M323.3,415.7a16.2,16.2,0,0,1,.1-2.2A2,2,0,0,1,323.3,415.7Z" transform="translate(0)"/><path class="cls-14" d="M243.5,160.4a5.83,5.83,0,0,1,.2,2.3C243.2,162,243.5,161.2,243.5,160.4Z" transform="translate(0)"/><path class="cls-12" d="M377.9,131.3a3.05,3.05,0,0,1,2.3,0Z" transform="translate(0)"/><path class="cls-2" d="M304.6,415.4a2.13,2.13,0,0,1,1.2-.7C305.9,415.7,305.2,415.4,304.6,415.4Z" transform="translate(0)"/><path class="cls-12" d="M557.6,333.1h2.2A2.17,2.17,0,0,1,557.6,333.1Z" transform="translate(0)"/><path class="cls-12" d="M413.3,137.5h2.2A2.8,2.8,0,0,1,413.3,137.5Z" transform="translate(0)"/><path class="cls-14" d="M209.3,131a5.83,5.83,0,0,1-2.3.2C207.7,130.8,208.5,131.1,209.3,131Z" transform="translate(0)"/><path class="cls-2" d="M360.9,413.5c.3-.4.5-1,1.2-1.1C361.8,412.9,361.8,413.7,360.9,413.5Z" transform="translate(0)"/><path class="cls-14" d="M260.4,149.4v2.2c-.2,0-.4,0-.2-.3C260.2,150.7,259.9,150,260.4,149.4Z" transform="translate(0)"/><path class="cls-2" d="M369.3,416.6a2.62,2.62,0,0,1-.2,1.5C369.2,417.6,368.2,416.9,369.3,416.6Z" transform="translate(0)"/><path class="cls-12" d="M380.7,421.8a5.83,5.83,0,0,1,2.3-.2C382.2,422.1,381.4,421.8,380.7,421.8Z" transform="translate(0)"/><path class="cls-12" d="M483.3,150.3a5.83,5.83,0,0,1-2.3.2C481.7,150,482.5,150.3,483.3,150.3Z" transform="translate(0)"/><path class="cls-12" d="M373.8,133.3a8.13,8.13,0,0,0-2.2-.1A2,2,0,0,1,373.8,133.3Z" transform="translate(0)"/><path class="cls-2" d="M320.3,124.1a1.55,1.55,0,0,1,.8,1.1C320.3,125.3,320.3,124.7,320.3,124.1Z" transform="translate(0)"/><path class="cls-2" d="M313.3,428a2.22,2.22,0,0,1,1.1.5C313.7,429.2,313.6,428.3,313.3,428Z" transform="translate(0)"/><path class="cls-12" d="M359.3,145.8a4.42,4.42,0,0,1,.2-2C359.5,144.4,359.8,145.1,359.3,145.8Z" transform="translate(0)"/><path class="cls-2" d="M365.1,411.3a1.28,1.28,0,0,1,1.2-.2C366.1,412,365.5,411.4,365.1,411.3Z" transform="translate(0)"/><path class="cls-12" d="M470.4,132.4a2.23,2.23,0,0,1,0,2.1Z" transform="translate(0)"/><path class="cls-2" d="M307.7,413.7c.4-.3.7-.2,1.1-.2C308.6,414,308.2,414.4,307.7,413.7Z" transform="translate(0)"/><path class="cls-2" d="M314.5,415.7a1.72,1.72,0,0,1,.2-1.2C314.8,415,315.4,415.5,314.5,415.7Z" transform="translate(0)"/><path class="cls-12" d="M360.2,136.3v-1.9A2.12,2.12,0,0,1,360.2,136.3Z" transform="translate(0)"/><path class="cls-12" d="M549.2,337.9c.2.1.4.2.4.3.1.4-.3.2-.4.2h-1.1C548.4,337.9,549,338.2,549.2,337.9Z" transform="translate(0)"/><path class="cls-2" d="M265.3,126.6a4.71,4.71,0,0,1-2,.2C263.9,126.4,264.6,126.7,265.3,126.6Z" transform="translate(0)"/><path class="cls-12" d="M561.4,332.5a2.2,2.2,0,0,1,1.4-.2c-.1.4-.4.5-.8.5Z" transform="translate(0)"/><path class="cls-14" d="M213.1,145.2h-1.9A1.65,1.65,0,0,1,213.1,145.2Z" transform="translate(0)"/><path class="cls-14" d="M75.5,137.7h1.9A1.65,1.65,0,0,1,75.5,137.7Z" transform="translate(0)"/><path class="cls-14" d="M246.5,130.3a2.8,2.8,0,0,1,0,2.2Z" transform="translate(0)"/><path class="cls-12" d="M487.2,126.9a4.57,4.57,0,0,1-2,.2C485.8,126.6,486.5,126.9,487.2,126.9Z" transform="translate(0)"/><path class="cls-14" d="M211.4,137.8h1.9A2.12,2.12,0,0,1,211.4,137.8Z" transform="translate(0)"/><path class="cls-2" d="M263.8,138a1.68,1.68,0,0,1-1.2.3C262.8,137.3,263.4,137.9,263.8,138Z" transform="translate(0)"/><path class="cls-12" d="M496,126.8a4.42,4.42,0,0,1-2-.2C494.7,126.7,495.4,126.3,496,126.8Z" transform="translate(0)"/><path class="cls-14" d="M194.4,142.1a4.42,4.42,0,0,1,.2,2C194.2,143.5,194.5,142.8,194.4,142.1Z" transform="translate(0)"/><path class="cls-2" d="M319.7,423.8c-.3.4-.7.3-1,.3C318.8,423.3,319.2,423.6,319.7,423.8Z" transform="translate(0)"/><path class="cls-14" d="M295.6,423.8a4.42,4.42,0,0,1-2,.2C294.2,423.6,294.9,423.9,295.6,423.8Z" transform="translate(0)"/><path class="cls-12" d="M398.3,163.4a4.57,4.57,0,0,1-.2-2C398.5,162,398.2,162.7,398.3,163.4Z" transform="translate(0)"/><path class="cls-14" d="M238.2,139.6a4.71,4.71,0,0,1,.2,2C237.9,141,238.2,140.2,238.2,139.6Z" transform="translate(0)"/><path class="cls-14" d="M207.8,126.6v-1.9A1.65,1.65,0,0,1,207.8,126.6Z" transform="translate(0)"/><path class="cls-14" d="M116.1,144.2a6.8,6.8,0,0,1-.2-2C116.4,142.8,116.1,143.5,116.1,144.2Z" transform="translate(0)"/><path class="cls-14" d="M393.6,165.9h1.9A2.12,2.12,0,0,1,393.6,165.9Z" transform="translate(0)"/><path class="cls-12" d="M551.7,340.6c-.6-.1-1.3.2-1.9-.3C550.5,340.4,551.2,340.1,551.7,340.6Z" transform="translate(0)"/><path class="cls-12" d="M561.9,330a5,5,0,0,1-2.1.2C560.5,329.8,561.2,330.1,561.9,330Z" transform="translate(0)"/><path class="cls-14" d="M140.9,125.8c-.1-.7-.2-1.4-.3-2C141.2,124.4,140.8,125.2,140.9,125.8Z" transform="translate(0)"/><path class="cls-12" d="M553.4,356.7h2A1.52,1.52,0,0,1,553.4,356.7Z" transform="translate(0)"/><path class="cls-14" d="M310.3,437.7v1.9A1.65,1.65,0,0,1,310.3,437.7Z" transform="translate(0)"/><path class="cls-14" d="M210,438.2a4.42,4.42,0,0,1-2-.2C208.7,438.1,209.4,437.8,210,438.2Z" transform="translate(0)"/><path class="cls-2" d="M314.2,418.5a4.42,4.42,0,0,1,.2-2C314.4,417.2,314.7,417.9,314.2,418.5Z" transform="translate(0)"/><path class="cls-12" d="M484.5,143.2a3.72,3.72,0,0,1,1.8-.2C485.7,143.5,485.1,143.2,484.5,143.2Z" transform="translate(0)"/><path class="cls-14" d="M252.1,144.9a3.21,3.21,0,0,1,.2-1.7C252.3,143.8,252.5,144.4,252.1,144.9Z" transform="translate(0)"/><path class="cls-12" d="M481.2,143.5a3.72,3.72,0,0,1,1.8-.2C482.4,143.7,481.8,143.5,481.2,143.5Z" transform="translate(0)"/><path class="cls-14" d="M129.8,148.3h1.6A1.21,1.21,0,0,1,129.8,148.3Z" transform="translate(0)"/><path class="cls-12" d="M435.6,153.1c.6,0,1.1-.1,1.7-.1A1.36,1.36,0,0,1,435.6,153.1Z" transform="translate(0)"/><path class="cls-12" d="M556.7,336.4v1.7A1.51,1.51,0,0,1,556.7,336.4Z" transform="translate(0)"/><path class="cls-14" d="M312.5,394.3l-1.8-.3C311.3,394.1,312,393.8,312.5,394.3Z" transform="translate(0)"/><path class="cls-14" d="M364.8,445.2a3.72,3.72,0,0,1,1.8-.2C366,445.4,365.4,445.2,364.8,445.2Z" transform="translate(0)"/><path class="cls-12" d="M371.4,395.7a3.72,3.72,0,0,1-1.8.2C370.2,395.5,370.8,395.8,371.4,395.7Z" transform="translate(0)"/><path class="cls-14" d="M316.7,399.6c-.6,0-1.2.2-1.7-.2C315.5,399.4,316.1,399.1,316.7,399.6Z" transform="translate(0)"/><path class="cls-14" d="M320,399.8a3.72,3.72,0,0,1-1.8-.2C318.8,399.7,319.5,399.4,320,399.8Z" transform="translate(0)"/><path class="cls-14" d="M154.8,155.8l1.7-.3C156.1,156.1,155.4,155.7,154.8,155.8Z" transform="translate(0)"/><path class="cls-12" d="M504.4,157.2v-1.6A1.21,1.21,0,0,1,504.4,157.2Z" transform="translate(0)"/><path class="cls-2" d="M302.7,422.8a2.62,2.62,0,0,1-.2-1.5C303.3,421.7,302.6,422.3,302.7,422.8Z" transform="translate(0)"/><path class="cls-14" d="M135.9,155.8a3.21,3.21,0,0,1-.2,1.7C135.7,157,135.5,156.3,135.9,155.8Z" transform="translate(0)"/><path class="cls-12" d="M491,162c.6,0,1.1-.1,1.7-.1A1.35,1.35,0,0,1,491,162Z" transform="translate(0)"/><path class="cls-12" d="M428.4,166.4h1.7A1.35,1.35,0,0,1,428.4,166.4Z" transform="translate(0)"/><path class="cls-12" d="M562,340.6h-1.7A1.35,1.35,0,0,1,562,340.6Z" transform="translate(0)"/><path class="cls-14" d="M86.9,123.2H85.2A1.35,1.35,0,0,1,86.9,123.2Z" transform="translate(0)"/><path class="cls-12" d="M384.4,124.9v-1.6A1.21,1.21,0,0,1,384.4,124.9Z" transform="translate(0)"/><path class="cls-2" d="M269.4,126.3a3.33,3.33,0,0,1-1.7.2C268.2,126.1,268.8,126.4,269.4,126.3Z" transform="translate(0)"/><path class="cls-2" d="M267.2,131.9a3.45,3.45,0,0,1-1.7.2C266,131.7,266.6,131.9,267.2,131.9Z" transform="translate(0)"/><path class="cls-2" d="M322.8,132.7a3.72,3.72,0,0,1-.2,1.8C322.6,133.9,322.3,133.3,322.8,132.7Z" transform="translate(0)"/><path class="cls-14" d="M329.5,138.1a5.54,5.54,0,0,1-.2-1.8C329.7,136.9,329.4,137.5,329.5,138.1Z" transform="translate(0)"/><path class="cls-12" d="M555.8,344.5a2.92,2.92,0,0,0,.1-1.6A1,1,0,0,1,555.8,344.5Z" transform="translate(0)"/><path class="cls-12" d="M444.3,138.8a2.86,2.86,0,0,0-.1-1.6C444.7,137.7,444.6,138.2,444.3,138.8Z" transform="translate(0)"/><path class="cls-14" d="M224.5,435.3a3.45,3.45,0,0,1-.2-1.7C224.7,434.1,224.4,434.7,224.5,435.3Z" transform="translate(0)"/><path class="cls-14" d="M242.6,434.4h1.6A1.21,1.21,0,0,1,242.6,434.4Z" transform="translate(0)"/><path class="cls-15" d="M565.1,344.2h-1.7c-.1-.1-.1-.1-.1-.2l.1-.1h1.3A1.38,1.38,0,0,1,565.1,344.2Z" transform="translate(0)"/><path class="cls-14" d="M329.3,141.9a5.54,5.54,0,0,1,.2-1.8C329.4,140.7,329.7,141.3,329.3,141.9Z" transform="translate(0)"/><path class="cls-14" d="M320.6,439.3a3.33,3.33,0,0,1,.2,1.7C320.4,440.5,320.6,439.9,320.6,439.3Z" transform="translate(0)"/><path class="cls-14" d="M286.6,142.7V141A1.35,1.35,0,0,1,286.6,142.7Z" transform="translate(0)"/><path class="cls-14" d="M252.7,404.4a3.89,3.89,0,0,1-1.5.2C251.7,404.2,252.2,404.4,252.7,404.4Z" transform="translate(0)"/><path class="cls-14" d="M281.6,154.8a2.62,2.62,0,0,1-.2-1.5C281.8,153.7,281.5,154.3,281.6,154.8Z" transform="translate(0)"/><path class="cls-14" d="M76.1,132.4a1.2,1.2,0,0,1-1.5,0Z" transform="translate(0)"/><path class="cls-12" d="M380.5,132.1a1.8,1.8,0,0,1,0,1.6Z" transform="translate(0)"/><path class="cls-12" d="M564.9,337a2.54,2.54,0,0,1-1.5.3C563.9,336.8,564.4,337,564.9,337Z" transform="translate(0)"/><path class="cls-2" d="M264.1,132.2a2.62,2.62,0,0,1-1.5.2C263.1,132,263.6,132.2,264.1,132.2Z" transform="translate(0)"/><path class="cls-12" d="M389.1,131.6a6.6,6.6,0,0,1-1.4-.1A1,1,0,0,1,389.1,131.6Z" transform="translate(0)"/><path class="cls-2" d="M263.2,130.8a2.62,2.62,0,0,1,1.5.2C264.2,131,263.7,131.2,263.2,130.8Z" transform="translate(0)"/><path class="cls-2" d="M322.6,129a2.62,2.62,0,0,1,.2,1.5C322.4,130,322.6,129.5,322.6,129Z" transform="translate(0)"/><path class="cls-12" d="M558.4,339.5a2.7,2.7,0,0,1,1.5.3C559.4,339.7,558.8,339.9,558.4,339.5Z" transform="translate(0)"/><path class="cls-2" d="M272,126c-.4.4-.8.2-1.3.2C271.1,125.9,271.6,126.1,272,126Z" transform="translate(0)"/><path class="cls-14" d="M192.2,414.1h1.4A1,1,0,0,1,192.2,414.1Z" transform="translate(0)"/><path class="cls-2" d="M317.2,414.1a.87.87,0,0,1,.9.5C317.8,414.6,317.3,414.7,317.2,414.1Z" transform="translate(0)"/><path class="cls-12" d="M547.3,340v1.4A1,1,0,0,1,547.3,340Z" transform="translate(0)"/><path class="cls-2" d="M269.5,124.3a1.36,1.36,0,0,1,1.5,0Z" transform="translate(0)"/><path class="cls-12" d="M489.9,150.5a2.62,2.62,0,0,1-1.5-.2C488.9,150.3,489.5,150.1,489.9,150.5Z" transform="translate(0)"/><path class="cls-2" d="M318.6,414.9a.87.87,0,0,1,.9.5C319.2,415.4,318.7,415.6,318.6,414.9Z" transform="translate(0)"/><path class="cls-12" d="M477.4,149.2a2.62,2.62,0,0,1,1.5.2C478.4,149.3,477.8,149.6,477.4,149.2Z" transform="translate(0)"/><path class="cls-14" d="M351.2,415.2a2.62,2.62,0,0,1-.2,1.5C351,416.2,350.8,415.6,351.2,415.2Z" transform="translate(0)"/><path class="cls-14" d="M261.6,147.7c-.4.3-.9.2-1.2.6C260.5,147.5,261.1,147.8,261.6,147.7Z" transform="translate(0)"/><path class="cls-14" d="M210.1,416.3a3.89,3.89,0,0,1-1.5.2C209.1,416.1,209.6,416.3,210.1,416.3Z" transform="translate(0)"/><path class="cls-14" d="M207.3,416.6a2.62,2.62,0,0,1-1.5.2C206.3,416.4,206.8,416.6,207.3,416.6Z" transform="translate(0)"/><path class="cls-14" d="M255.2,147.4a2.62,2.62,0,0,1,.2,1.5C255,148.4,255.2,147.8,255.2,147.4Z" transform="translate(0)"/><path class="cls-14" d="M251.6,153a2.62,2.62,0,0,1,.2-1.5C251.7,152,252,152.6,251.6,153Z" transform="translate(0)"/><path class="cls-12" d="M497.7,151.6a2.62,2.62,0,0,1-1.5-.2C496.7,151.4,497.3,151.2,497.7,151.6Z" transform="translate(0)"/><path class="cls-12" d="M383.6,154.9a2.62,2.62,0,0,1,.2-1.5C383.8,154,384,154.5,383.6,154.9Z" transform="translate(0)"/><path class="cls-12" d="M379.6,417.1a2.62,2.62,0,0,1-1.5-.2C378.6,416.9,379.2,416.7,379.6,417.1Z" transform="translate(0)"/><path class="cls-2" d="M300.5,417.2h1.4A1.2,1.2,0,0,1,300.5,417.2Z" transform="translate(0)"/><path class="cls-12" d="M382.4,417.4a2.62,2.62,0,0,1-1.5-.2C381.4,417.2,382,417,382.4,417.4Z" transform="translate(0)"/><path class="cls-14" d="M252.1,148.8v-1.4A1,1,0,0,1,252.1,148.8Z" transform="translate(0)"/><path class="cls-13" d="M274.9,147.4a2.62,2.62,0,0,1-1.5-.2C273.9,147.2,274.5,147,274.9,147.4Z" transform="translate(0)"/><path class="cls-12" d="M476.6,145.8a1.35,1.35,0,0,1-1.6,0Z" transform="translate(0)"/><path class="cls-12" d="M556.8,344.5v1.4A.84.84,0,0,1,556.8,344.5Z" transform="translate(0)"/><path class="cls-2" d="M266.8,144.9c.1.3.4.5.3.8C266.5,145.7,266.4,145.4,266.8,144.9Z" transform="translate(0)"/><path class="cls-14" d="M179.8,420.5a1.53,1.53,0,0,1-1.6,0Z" transform="translate(0)"/><path class="cls-12" d="M553.3,345.6l1.5-.3C554.4,345.8,553.8,345.5,553.3,345.6Z" transform="translate(0)"/><path class="cls-14" d="M325,422.7a2.2,2.2,0,0,1-.2-1.4C325.2,421.7,325,422.3,325,422.7Z" transform="translate(0)"/><path class="cls-14" d="M207.1,421.8a2.62,2.62,0,0,1,1.5-.2C208.2,422,207.6,421.8,207.1,421.8Z" transform="translate(0)"/><path class="cls-14" d="M93.6,142.4a3.89,3.89,0,0,1-1.5-.2C92.6,142.2,93.1,142,93.6,142.4Z" transform="translate(0)"/><path class="cls-14" d="M243.4,157.2v1.4A1,1,0,0,1,243.4,157.2Z" transform="translate(0)"/><path class="cls-14" d="M156.7,141.4a2.62,2.62,0,0,1-1.5.2C155.6,141.2,156.2,141.4,156.7,141.4Z" transform="translate(0)"/><path class="cls-14" d="M246.2,141.1a2.62,2.62,0,0,1-.2,1.5C246,142,245.8,141.5,246.2,141.1Z" transform="translate(0)"/><path class="cls-12" d="M561.8,351.2h1.4A1,1,0,0,1,561.8,351.2Z" transform="translate(0)"/><path class="cls-12" d="M359.6,141.6a2.2,2.2,0,0,1,.2-1.4C359.8,140.6,360,141.2,359.6,141.6Z" transform="translate(0)"/><path class="cls-2" d="M260.1,151.3c.1.1.2.2.2.3v.6C259.8,152,259.7,151.8,260.1,151.3Z" transform="translate(0)"/><path class="cls-14" d="M272.5,163.6a2.2,2.2,0,0,1,.2-1.4C272.6,162.6,272.8,163.1,272.5,163.6Z" transform="translate(0)"/><path class="cls-14" d="M91.7,141a2.62,2.62,0,0,1,.2-1.5C91.9,140.1,92.1,140.6,91.7,141Z" transform="translate(0)"/><path class="cls-14" d="M82.5,165.3h1.4A1,1,0,0,1,82.5,165.3Z" transform="translate(0)"/><path class="cls-14" d="M386.6,165.6a3.89,3.89,0,0,1,1.5.2C387.6,165.8,387.1,166,386.6,165.6Z" transform="translate(0)"/><path class="cls-2" d="M254.9,138.5a6.6,6.6,0,0,1-.1,1.4A1,1,0,0,1,254.9,138.5Z" transform="translate(0)"/><path class="cls-14" d="M151.6,150.5a2.62,2.62,0,0,1-1.5.2C150.6,150.3,151.1,150.6,151.6,150.5Z" transform="translate(0)"/><path class="cls-14" d="M210.6,167.8H212A1,1,0,0,1,210.6,167.8Z" transform="translate(0)"/><path class="cls-14" d="M164.9,170c.5,0,.9-.1,1.4-.1A.9.9,0,0,1,164.9,170Z" transform="translate(0)"/><path class="cls-14" d="M159.6,138c.5,0,1-.3,1.4.2C160.5,138.2,160,138.4,159.6,138Z" transform="translate(0)"/><path class="cls-12" d="M359.9,138.8a2.2,2.2,0,0,1,.2-1.4C360.1,137.9,360.3,138.4,359.9,138.8Z" transform="translate(0)"/><path class="cls-14" d="M210.2,443a2.62,2.62,0,0,1,1.5-.2C211.2,443.2,210.7,443,210.2,443Z" transform="translate(0)"/><path class="cls-14" d="M375.7,444.4a2.62,2.62,0,0,1,1.5-.2C376.7,444.6,376.1,444.4,375.7,444.4Z" transform="translate(0)"/><path class="cls-14" d="M373.2,444.7a2.3,2.3,0,0,1,1.4-.2C374.2,444.8,373.7,444.6,373.2,444.7Z" transform="translate(0)"/><path class="cls-14" d="M214.4,137.7c.5-.1,1-.2,1.4-.3C215.5,137.9,214.9,137.6,214.4,137.7Z" transform="translate(0)"/><path class="cls-14" d="M204.5,416.9a2.62,2.62,0,0,1-1.5.2C203.5,416.7,204,416.9,204.5,416.9Z" transform="translate(0)"/><path class="cls-2" d="M376.2,439.2c-2.7-.2-5.4-.4-8.2-.5-.9,0-1.3-.3-1.2-1.2.1-1.6-.3-3.2,0-4.8a1.59,1.59,0,0,1,1.2-1.5c3.2-.8,6.5-.3,9.7-.1,1.1.1,1.6,1.4,1.9,2.4a16.65,16.65,0,0,1,.3,5c0,.6-.4.7-.8.7Z" transform="translate(0)"/><path class="cls-16" d="M490.6,133.2a55.13,55.13,0,0,0-13.5.3c-.1,0-.3.1-.4,0-.4-.1-1,.2-1-.4,0-.4.5-.4.9-.5a61.54,61.54,0,0,1,8.5-1c1.5-.2,3-.3,4.6-.5h1.4c.7,0,1.2.4,1.1,1.1a1,1,0,0,1-1.3.9C490.7,133.2,490.5,133.2,490.6,133.2Z" transform="translate(0)"/><path class="cls-16" d="M478.9,138.9a16.15,16.15,0,0,1-2.2,0c-.4,0-1.2.1-1.2-.6s.5-.8,1.2-.8c1.7,0,3.3-.1,5-.2,2.8-.1,5.6,0,8.3-.3.4,0,1.1-.4,1.2.4s-.5.9-1.1.9l-11.2.6Z" transform="translate(0)"/><path class="cls-2" d="M85.5,155.6a4.1,4.1,0,0,1-3.9,4.6,3.88,3.88,0,0,1-3.1-2.8,4.47,4.47,0,0,1,1.1-3.7c1.1-1.1,2-2.6,3.6-3.1,1-.3,1.7-.2,1.8,1.1A32.07,32.07,0,0,1,85.5,155.6Z" transform="translate(0)"/><path class="cls-13" d="M377.7,142.7a1.51,1.51,0,0,1,1.1-1.6,15.5,15.5,0,0,1,4.8-.7c.8,0,1,.3.7,1-.5,1.6-1.1,3.1-3.1,3.2-.3,0-.5.2-.8.2C378.4,145.4,377.7,144.8,377.7,142.7Z" transform="translate(0)"/><path class="cls-2" d="M238.7,424.8a7.94,7.94,0,0,1,.6-3.2c.6-1.5,1.2-3,1.9-4.4a12.12,12.12,0,0,1,7.2-6.3,23.69,23.69,0,0,1,3.6-.9c1.7-.3,2.3.4,1.7,2-1,3-1.6,6.2-3.4,8.9-1.4,2-2.5,4.2-4.2,6a10.18,10.18,0,0,1-4.3,2.4,1.57,1.57,0,0,1-2.1-.8A8.94,8.94,0,0,1,238.7,424.8Z" transform="translate(0)"/><path class="cls-17" d="M558.8,349.5a8.3,8.3,0,0,0,5.8-.9c.7-.4,1.4-.8,1-1.8s-1-1.2-2-1.1a13.13,13.13,0,0,0-3.2,1c-.9.3-1.8.8-2.6,0a2,2,0,0,1-.3-2.2,2.16,2.16,0,0,1,2.5-1.2c-.1.5-.7.5-.9.7a1.29,1.29,0,0,0-.5,1.6c.4.7,1,.6,1.6.3a8.2,8.2,0,0,1,3.7-1c1.8,0,3,.8,3.3,2.2a3,3,0,0,1-2.2,3.1C563,350.6,560.8,350.8,558.8,349.5Z" transform="translate(0)"/><path class="cls-18" d="M564.6,343.4c-1.8-.3-3.6.1-4.4-1.8C562,340.9,563.5,341.5,564.6,343.4Z" transform="translate(0)"/><path class="cls-19" d="M563.4,343.9v.2a9.7,9.7,0,0,0-3.3,1c-.3.2-.7.3-.8,0s.1-.6.4-.8A5.88,5.88,0,0,1,563.4,343.9Z" transform="translate(0)"/><path class="cls-20" d="M566.3,337.2a2.4,2.4,0,0,1-2.2,1.7,15.46,15.46,0,0,1-4.8-.1c-.8-.1-1.7-.3-1.9-1.3a2,2,0,0,1,1.1-2.1c1.3-.8,2.7-1.4,4.1-2.1.6-.3,1.3-.5,1-1.4s-1-.5-1.5-.4c-1.4.2-2.8,1.2-4.3.7a1.09,1.09,0,0,0-.5-.1c.1-.6.6-.7,1-.8a22.42,22.42,0,0,1,5.8-.6c.6,0,1.3,0,1.5.8s-.3,1.1-.9,1.4c-1.6.9-3.2,1.8-4.9,2.6-.8.4-1.3.9-1.2,1.8s1,.9,1.7.9C562.2,338.1,564.2,338.2,566.3,337.2Z" transform="translate(0)"/><path class="cls-21" d="M551.4,345.8c-.8,0-1.7.1-2.5.1-.4-.9.5-.7.8-.6.9.4.9-.1,1-.8.2-1.5-.1-2.7-2-2.3-.3.1-.5.1-.6-.3a4.11,4.11,0,0,1,0-2.2c.1-.5.4-.8.9-.7.7.1.2.6.1.9-.2,1,.1,1.3,1.2,1.3a7.77,7.77,0,0,1,4.2,1.1,1.48,1.48,0,0,1,.8,1.5c-.1.8-.8.9-1.4.9a5.46,5.46,0,0,1-1.8.1C551.4,344.8,551.4,345.3,551.4,345.8Z" transform="translate(0)"/><path class="cls-22" d="M544.7,342.7a2.94,2.94,0,0,0,3,.1c-.1.9.5,1.8-.9,2C545.6,344.9,545,344.4,544.7,342.7Z" transform="translate(0)"/><path class="cls-23" d="M549.2,336.8c1.5,0,2.5.3,3,1.5.1.2.3.6,0,.7-.5.3-1.1.1-1.6.1s-.2-.3-.1-.5C550.7,337.7,549.7,337.5,549.2,336.8Z" transform="translate(0)"/><path class="cls-24" d="M548.3,344.9c.3-.9-.4-1.9.8-2.1.5-.1.9.1,1,.8C550.3,345,549.2,344.5,548.3,344.9Z" transform="translate(0)"/><path class="cls-25" d="M547.3,353.4c-.6-.1-1.3-.3-1.4-1s.7-1,1.3-1.3c1.1-.5,2.2-1,3.3-1.4s1.8-.9,1.6-2.2a1.34,1.34,0,0,1,1.4.8c.5.6.5,1.1-.3,1.5a33.36,33.36,0,0,1-4.4,1.7c-.7.2-1.3.5-1.2,1.4C547.7,353.3,547.6,353.5,547.3,353.4Z" transform="translate(0)"/><path class="cls-26" d="M547.3,353.4a1.38,1.38,0,0,0,.3-.4c.8.8,1.9.6,2.8.9,1.7.5,3.5.7,5,1.9C552.4,356.1,549.9,354.4,547.3,353.4Z" transform="translate(0)"/><path class="cls-27" d="M552.7,344.3c-.7,0-1.2-.6-1.3-1.6,0-.3-.1-.6.4-.7.7,0,2.3.9,2.4,1.4S553.8,344.3,552.7,344.3Z" transform="translate(0)"/><path class="cls-28" d="M552,342.8c.7.1,1.1.2,1.4.7C552.7,343.8,552.3,343.7,552,342.8Z" transform="translate(0)"/></svg>