<?xml version="1.0" encoding="utf-8"?>
<!-- Generator: Adobe Illustrator 24.0.2, SVG Export Plug-In . SVG Version: 6.00 Build 0)  -->
<svg version="1.1" id="レイヤー_1" xmlns="http://www.w3.org/2000/svg" xmlns:xlink="http://www.w3.org/1999/xlink" x="0px"
	 y="0px" viewBox="0 0 704.5 711.7" style="enable-background:new 0 0 704.5 711.7;" xml:space="preserve">
<style type="text/css">
	.st0{fill:#393E46;}
</style>
<title>menu</title>
<g>
	<path class="st0" d="M85.9,132.5C72,164.3,63.5,198.3,64.2,233.3c0.4,17.7,3.4,35.2,7,52.5c1.8,8.3,3.7,16.7,5.4,25
		c0.8,4,1.6,8,2.3,12.1c0.3,1.9,0.6,3.7,0.9,5.6c0.1,0.9,0.3,1.8,0.4,2.7c0.4,2.4-0.3-2.9,0.1,1c1.8,15.8,2.3,31.7,1.5,47.6
		c-0.4,8.1-1.1,16.1-2.1,24.1c0,0.6-0.1,1.2-0.3,1.8c-0.3,2.1-0.6,4.2-1,6.2c-0.7,4.1-1.4,8.3-2.2,12.4
		C70,456,59.8,486.9,47.8,516.8c-1.7,4.3-3.5,8.6-5.3,12.9c0.3-0.8,1.4-3.3-0.1,0.3l-1.5,3.4c-0.9,2-1.7,4-2.6,6
		c-3.7,8.5-7.6,16.9-11.5,25.3c-7.9,17-16.2,33.8-24.5,50.6c-5.3,10.6-1.6,26.9,12,29.4c128,23.6,256.8,42.4,386.3,56.4
		c36,3.9,72,7.4,108.1,10.5c7.1,0.6,13.6-4.3,17.3-9.9c45.5-69.3,92.5-142.3,109.1-224.8c4.4-21.1,6.6-42.5,6.5-64.1
		c-0.2-23.8-3.7-47.4-7.1-70.9c-0.7-5-1.5-10-2.2-15c-0.4-2.8-0.8-5.6-1.2-8.4c-0.1-0.5-0.6-4.5-0.3-2c0.3,2.2-0.4-3.2-0.5-3.9
		c-1.4-10.8-2.5-21.7-3-32.6c-0.6-11.1-0.3-22.3,0.7-33.4c0.1-0.9,1.1-8,0.4-3.9c0.4-2.6,0.8-5.2,1.3-7.8c1-5.1,2.2-10.2,3.7-15.3
		c1.5-5.3,3.3-10.5,5.2-15.6l1.2-3.1c0.4-0.9,2.4-5.5,0.5-1.3c1.1-2.5,2.2-5,3.4-7.5c4.8-10,10.2-19.7,16.3-29
		c2.9-4.5,5.8-8.9,8.9-13.2c1.6-2.3,3.3-4.5,4.9-6.8c0.8-1.1,1.7-2.2,2.5-3.4c2.3-3-1,1.2,0.5-0.6c7.1-9,14.5-17.7,22-26.3
		c10.5-11.9,5.5-28-8.8-33.4C625.1,54.8,556.2,44,487.7,34.3C415.1,23.9,342.4,15.5,269.3,9c-40.7-3.6-81.4-6.6-122.2-9
		c-7.1-0.4-13.7,4.1-17.3,9.9C104,51.6,90.6,99.6,91,148.6c0.1,10.5,9.1,20.5,20,20s20.1-8.8,20-20c-0.1-10.8,0.5-21.7,1.8-32.4
		c0.3-2.4-0.5,3.1,0.1-0.8c0.3-1.4,0.5-2.9,0.7-4.3c0.5-2.6,0.9-5.2,1.5-7.8c1.1-5.5,2.4-10.9,3.9-16.2c1.4-5.1,3-10.1,4.8-15.1
		c0.9-2.5,1.8-5,2.8-7.4c0.5-1.4,1.1-2.7,1.6-4.1c0.9-2.2-1.2,2.6,0.4-0.9c4.6-10.1,9.8-20,15.7-29.5L147.1,40
		c71.7,4.1,143.3,10.2,214.7,18.2c17.7,2,35.3,4.1,53,6.3c8.8,1.1,17.6,2.2,26.5,3.4l6.9,0.9l2.5,0.3l13.7,1.9
		c34.5,4.8,69,9.8,103.1,16.4c38,7.3,75.7,16.9,111.9,30.6l-8.8-33.5c-28.2,31.8-53.5,66-69.4,105.7c-16.6,41.5-16,85.3-10.2,128.9
		c1.7,12.4,3.5,24.7,5.3,37.1c0.4,2.8,0.8,5.6,1.2,8.4c0.1,0.5,0.6,4.5,0.3,2c-0.4-2.9,0.4,3.2,0.4,3c0.7,5.6,1.3,11.2,1.9,16.8
		c2,21.3,1.7,42.8-0.9,64c0.5-4.3-0.3,1.6-0.5,3.1c-0.4,2.5-0.8,5-1.3,7.6c-1,5.3-2.1,10.6-3.3,15.8c-2.3,9.7-5.1,19.3-8.2,28.8
		c-3.2,9.8-6.8,19.5-10.8,29c-0.2,0.5-1.6,3.9-0.7,1.6c1.2-2.7-1.1,2.5-1,2.4c-0.9,2.1-1.9,4.2-2.8,6.3c-2.3,5-4.6,10-7,15
		c-20.7,42.3-46.3,82-72.2,121.3l17.2-9.9c-63.6-5.5-127.1-12.2-190.5-20.1c-33.9-4.2-58.9-7.6-92.5-12.4
		c-31.3-4.5-62.5-9.3-93.7-14.4c-35.7-5.8-71.4-12-107-18.6l12,29.4C66.4,575.9,96.1,515,111.6,450c7.7-32.2,11.9-65.7,10.3-98.9
		c-1-17.4-3.3-34.8-6.9-51.9c-1.7-8.4-3.6-16.7-5.4-25c-0.8-4-1.6-8-2.4-12.1c-0.3-1.9-0.7-3.7-1-5.6c-0.2-0.9-0.3-1.9-0.4-2.8
		c0-0.4-0.6-4.2-0.3-2c0.3,2.4-0.2-1.5-0.2-2c-0.1-1.2-0.3-2.5-0.4-3.7c-0.2-2.1-0.3-4.2-0.5-6.3c-0.2-4.5-0.3-9-0.3-13.6
		c0.1-4.5,0.3-9.1,0.7-13.6c0.2-2.4,0.5-4.8,0.8-7.2c-0.4,3.8,0.2-1.5,0.4-2.8c1.4-9,3.4-17.8,6-26.5c1.3-4.4,2.7-8.7,4.2-12.9
		c0.8-2.3,1.7-4.5,2.6-6.8c0.3-0.9,0.7-1.7,1-2.5c1.2-3.1-1.8,4.2,0.5-1.1c4.2-9.6,3.1-21.9-7.2-27.4
		C104.5,120.8,90.3,122.3,85.9,132.5L85.9,132.5z"/>
	<path class="st0" d="M193,151.3c4.4-3.1,9-5.8,13.9-8.1c2.8-1.4-4.5,1.5,0.2,0c1.2-0.4,2.4-0.9,3.7-1.3c2.7-0.9,5.5-1.6,8.3-2.3
		c2.4-0.6,5.3-1.5,7.8-1.5c-5.1-0.1-0.1,0,1-0.1c1.3-0.1,2.7-0.2,4-0.3c5.7-0.4,11.3-0.4,17-0.1c2.7,0.1,5.4,0.4,8.1,0.6
		c0.9,0.1,6.3,0.5,1.1,0.1c1.3,0.1,2.7,0.4,4,0.6c6.2,1,12.3,2.4,18.3,3.9c12.7,3.2,25.1,7.3,37.6,11.2
		c25.9,8.2,51.6,14.4,78.7,17.3c25.6,2.8,51.3,3.2,77,4.7c6.9,0.4,13.8,0.9,20.7,1.5c3.6,0.3,7.2,0.7,10.7,1.1
		c1.8,0.2,3.6,0.4,5.3,0.7c-3.6-0.5,0.4,0.1,1.8,0.3c14.1,2.1,28,5.4,41.5,9.9c9.9,3.4,22.3-3.9,24.6-14c2.5-11.1-3.3-21-14-24.6
		c-51-17.4-105.7-14-158.7-18.7c-3-0.3-6-0.6-9-0.9c-1.5-0.2-3-0.3-4.5-0.5c-1-0.1-5-0.6-1-0.1c-6.5-0.9-13-2-19.5-3.3
		c-13.3-2.9-26.5-6.6-39.5-10.8c-25.8-8.1-51.3-16.4-78.4-18.7c-27.6-2.3-58,2.2-80.8,18.8c-8.4,6.1-13.4,17.6-7.2,27.4
		C171,152.4,183.9,157.8,193,151.3L193,151.3z"/>
	<path class="st0" d="M176,260.1c0.8-0.5,1.5-0.9,2.4-1.4c2-0.9,1.7-0.8-0.8,0.3c1.2-1.1,4.4-1.4,5.9-1.8c2.1-0.5,4.3-0.9,6.5-1.3
		c-5,0.8,2.3-0.1,3.3-0.1c4.8-0.2,9.6-0.2,14.3,0.2c1.9,0.1,3.7,0.3,5.6,0.5c1.2,0.1,2.5,0.3,3.7,0.4c-2.3-0.3-2.2-0.3,0.2,0.1
		c20.3,3.4,40.6,6.8,61,9.4c39.8,4.9,80,7,120.1,6.3c10.5-0.2,20.5-9.1,20-20c-0.5-10.7-8.8-20.2-20-20
		c-41.4,0.7-82.8-1.6-123.9-6.8c-2.4-0.3-2.5-0.3-0.4,0l-3.8-0.5c-2.5-0.4-5-0.7-7.5-1.1c-5-0.8-10-1.6-15-2.4
		c-10.8-1.9-21.7-3.8-32.6-5.1c-19.5-2.3-41.9-1.7-59.1,8.8c-9,5.4-13.1,18.2-7.2,27.4C154.3,261.9,166.3,265.9,176,260.1L176,260.1
		z"/>
	<path class="st0" d="M156.9,362.3c-1.8-4,0.2,0.6,0.6,1.5c0.6,1.6,1.2,3.2,1.7,4.8c1,3.3,1.9,6.5,2.6,9.9c0.3,1.7,0.6,3.3,0.9,5
		c0.9,5.5-0.3-4.2,0.1,1.4c0.3,3.4,0.5,6.8,0.5,10.2c0,3.4-0.2,6.8-0.5,10.2c-0.1,1.1-1,6.1-0.1,1.4c-0.3,1.7-0.6,3.3-0.9,5
		c-0.6,3-1.4,6.1-2.3,9c-0.5,1.6-1,3.2-1.6,4.8c-0.3,0.9-2.7,6.5-0.8,2.3c-4.2,9.6-3.1,21.9,7.2,27.4c8.7,4.6,22.9,3.1,27.4-7.2
		c15.1-34.5,15.1-71.5-0.1-106.1c-4.2-9.6-19-12.6-27.4-7.2C154.1,341.3,152.4,352,156.9,362.3L156.9,362.3z"/>
	<path class="st0" d="M191.5,365.6c15.6-0.7,31.2-1.1,46.8-1c4,0,8,0,12,0.1c1.2,0,9.3-0.6,9.8,0.3c-2.9-0.5-3.3-0.5-1.1-0.1
		l1.3,0.4c-1.2-0.3-2.4-0.8-3.4-1.7c-2-1.3-3.4-3.3-4-5.5c-1-4.2-0.2-0.1-0.3,1.3c0,2-0.1,3.9-0.2,5.9c-0.5,15-1.5,30-2.8,45
		c-0.7,7.8-1.5,15.6-2.5,23.4c-0.2,2-0.5,3.9-0.7,5.8c-0.5,4.4,0.3-2.3-0.3,2.5c-0.5,3.9-1.1,7.8-1.7,11.6c-1.6,10.3,2.6,22,14,24.6
		c9.5,2.2,22.9-2.9,24.6-14c2.8-18.6,5.2-37.2,6.9-55.9c1.5-17.1,3.6-35,2.9-52.3c-0.6-13.5-7.8-24-20.5-28.8
		c-8.3-3.1-18.2-2.4-26.9-2.5c-17.9-0.2-35.9,0.1-53.8,1c-10.4,0.5-20.5,8.8-20,20C171.9,356.1,180.3,366.2,191.5,365.6L191.5,365.6
		z"/>
	<path class="st0" d="M177.3,474l37.9-0.2l17.9-0.1c0.4,0,8.6,0.1,8.6,0c-0.1,0.7-4.4-1.5-1.3-0.1c-2.3-1-4.8-2.6-6.2-5
		c5.2,9.1,18.3,13,27.4,7.2c9.1-5.8,12.7-17.7,7.2-27.4c-9.5-16.7-29.1-14.8-45.6-14.7l-45.8,0.2c-10.5,0-20.5,9.2-20,20
		C157.8,464.9,166.1,474,177.3,474L177.3,474z"/>
	<path class="st0" d="M117.5,522.2c-5.6,22.2-12.8,43.9-21.7,64.9c-4.1,9.7,4.4,22.4,14,24.6c11.7,2.7,20.3-3.6,24.6-14
		c8.8-21.1,16.1-42.8,21.7-64.9c2.6-10.1-3.3-22.2-14-24.6C131.8,505.8,120.3,511.3,117.5,522.2L117.5,522.2z"/>
	<path class="st0" d="M146.5,536.2c14.9-0.3,29.7-0.6,44.6-0.7c7.6-0.1,15.2-0.1,22.8,0c3.3,0,6.6,0,9.9,0c1.4,0,3.2-0.2,4.5,0.2
		c-2.6-0.4-3.1-0.4-1.7,0c2.6,0.8,1.1-0.1-4.4-2.7c-0.7-0.7-2.8-5.5-2.3-3.8s-0.6-4.7-0.3,0c0.2,2.4,0.9-4.1,0.1-0.5
		c-0.3,1.5-0.7,3.1-1,4.6c-1.7,7-3.3,14-5,21l-10.5,43.8c-2.4,10.2,3.2,22.2,14,24.6c10.3,2.3,22-3.1,24.6-14l11.9-49.5
		c4.1-17.2,12-38.7-2.1-53.5c-7.5-7.8-17.3-10-27.7-10.1c-8.6-0.1-17.2-0.1-25.8,0c-17.2,0.1-34.3,0.3-51.5,0.7
		c-10.5,0.2-20.5,9-20,20C127,526.9,135.3,536.5,146.5,536.2L146.5,536.2z"/>
	<path class="st0" d="M115.6,617c16.3-1.7,32.8-2.2,49.2-1.4c8,0.4,16.1,1.1,24.1,2c6.3,0.7-3.9-0.6,2.3,0.3
		c1.9,0.3,3.8,0.6,5.7,0.9c4.5,0.7,8.9,1.6,13.3,2.5c10.2,2.1,22.1-2.9,24.6-14c2.3-10-3-22.4-14-24.6c-34.6-7.2-70.1-9.1-105.3-5.6
		c-10.4,1.1-20.5,8.4-20,20C96.1,606.8,104.5,618.1,115.6,617L115.6,617z"/>
	<path class="st0" d="M300.9,527l-17.3,77.4c-1.9,8.4,1.2,18.3,9.2,22.6c7.5,4,18.3,3.7,24.2-3.1l5.2-6c6.8-7.9,8.3-20.6,0-28.3
		c-7.5-6.9-21-8.4-28.3,0l-5.2,6l33.4,19.5l17.3-77.4c2.3-10.2-3.1-22.1-14-24.6C315.3,510.8,303.3,516.1,300.9,527L300.9,527z"/>
	<path class="st0" d="M317.3,550.5c29.9,1.8,59.7,4.4,89.4,7.9c7.2,0.8,14.4,1.7,21.5,2.7l2.9,0.4c-1.7-0.2-1.9-0.3-0.4-0.1
		c1.6,0.2,3.3,0.5,4.9,0.7c3.9,0.6,7.8,1.1,11.7,1.7c15,2.2,29.9,4.6,44.8,7.3l-14.7-19.3c0.2,2.2,0.3,4.4,0.5,6.6
		c0.7,10.4,8.7,20.5,20,20c10.2-0.5,20.8-8.8,20-20c-0.1-2.2-0.3-4.4-0.5-6.6c-0.6-8.1-5.8-17.7-14.7-19.3
		c-61.3-10.9-123.3-18.2-185.5-22c-10.5-0.6-20.5,9.7-20,20C297.8,541.9,306.1,549.9,317.3,550.5L317.3,550.5z"/>
	<path class="st0" d="M312.5,629.1c11.5-0.6,23.1-0.6,34.6-0.1c5.6,0.3,11.2,0.6,16.8,1.2c2.8,0.3,5.6,0.5,8.4,0.9
		c1.5,0.2,3.1,0.4,4.6,0.6c3.4,0.4-4.7-0.7,1.2,0.2c22.8,3.5,45.2,9,67,16.6c9.9,3.5,22.3-3.9,24.6-14c2.5-11.2-3.4-20.9-14-24.6
		c-46-16.1-94.6-23.1-143.2-20.7c-10.4,0.5-20.5,8.8-20,20C292.9,619.5,301.2,629.7,312.5,629.1L312.5,629.1z"/>
	<path class="st0" d="M477.5,562.3c-10.1,22.6-20.6,45-31.7,67.2c-4.6,9.4-2.8,22.1,7.2,27.4c9,4.8,22.4,2.8,27.4-7.2
		c11-22.2,21.5-44.6,31.6-67.2c4.3-9.5,3.1-21.9-7.2-27.4C496.1,550.5,482,552.1,477.5,562.3L477.5,562.3z"/>
	<path class="st0" d="M318.5,363.8c0.9,12.8,1.1,25.6,0.4,38.4c-0.3,6.1-0.8,12.1-1.4,18.2c-0.2,1.6-0.3,3.2-0.5,4.8
		c-0.7,6.1,0.4-2.1-0.2,1.3c-0.6,3.5-1.1,7-1.7,10.4c-1.8,10.3,2.8,22,14,24.6c9.7,2.2,22.7-3,24.6-14c5-27.6,6.7-55.7,4.8-83.7
		c-0.7-10.4-8.7-20.5-20-20C328.3,344.2,317.8,352.5,318.5,363.8L318.5,363.8z"/>
	<path class="st0" d="M350.5,384.1c11.2-0.3,22.4-0.1,33.5,0.6c5.4,0.4,10.8,0.8,16.2,1.4c2.5,0.3,5.1,0.6,7.6,0.9
		c-3.7-0.5,0.6,0.1,1.3,0.2c1.6,0.2,3.2,0.5,4.7,0.7l-14-24.6c-4.2,30.8-8.4,61.7-12.6,92.5c-0.8,5.6-1,10.3,2,15.4
		c2.4,4.1,7.2,8.1,12,9.2c9.4,2.1,23.1-2.9,24.6-14c4.2-30.8,8.4-61.7,12.6-92.5c0.7-5.3,1.1-10.6-2-15.4c-2.7-4.1-6.9-8.4-12-9.2
		c-24.5-4-49.2-5.8-74-5.4c-10.5,0.3-20.5,9-20,20C330.9,374.7,339.2,384.3,350.5,384.1L350.5,384.1z"/>
	<path class="st0" d="M333.4,473.3c18,4.7,36.6,6.5,55.2,5.3c10.4-0.7,20.5-8.7,20-20c-0.5-10.3-8.8-20.8-20-20
		c-8.1,0.6-16.1,0.5-24.2-0.2c-1.9-0.2-3.7-0.4-5.6-0.6c4.2,0.5-1.2-0.2-2-0.4c-4.3-0.8-8.5-1.7-12.7-2.8
		c-10.1-2.6-22.2,3.3-24.6,14C317,459.1,322.5,470.5,333.4,473.3L333.4,473.3z"/>
	<path class="st0" d="M455.6,389.8l-8.2,64.3c-1.3,10.4,10.2,20.4,20,20c12-0.5,18.6-8.8,20-20l8.2-64.3c1.3-10.4-10.2-20.4-20-20
		C463.6,370.3,457,378.6,455.6,389.8z"/>
	<path class="st0" d="M484,394.2c-4.2,0.6,1.9-0.2,2.2-0.2c1.6-0.2,3.1-0.3,4.7-0.4c3.5-0.3,6.9-0.5,10.4-0.6
		c6.9-0.2,13.9-0.1,20.8,0.4c3.5,0.2,6.9,0.7,10.4,1c1.5,0.2,1.3,0.2-0.6-0.1l1.9,0.3c1.9,0.3,3.8,0.6,5.6,0.9
		c1.1,0.2,2.1,0.4,3.2,0.7c0.6,0.2,1.3,0.3,1.9,0.5c1.6,0.6,1.6,0.6,0-0.1s-1.6-0.7-0.1,0.1l-2-1.7c1.2,1.2,1.2,1.1,0-0.2
		c-1.7-1.8-2.6-4.1-2.4-6.6v1.8c0.3-2.1,0.3-2.4,0-0.9c-0.5,1.5-0.8,3.1-1.1,4.7c-0.9,3.8-1.8,7.6-2.8,11.4c-1.7,7-3.5,14-5.4,20.9
		c-3.7,13.9-7.7,27.7-12,41.5c-3.1,10,3.7,22.3,14,24.6c10.8,2.5,21.3-3.3,24.6-14c5-16.2,9.7-32.6,14-49c2.2-8.2,4.2-16.5,6.2-24.8
		c2.6-11,4.2-21.6-2-31.9c-9.8-16.3-32.7-17.4-49.5-18.9c-17.7-1.5-35.1-0.4-52.6,2c-10.4,1.5-17,15.3-14,24.6
		C463.1,391.6,472.8,395.7,484,394.2L484,394.2z"/>
	<path class="st0" d="M468.8,487.1l52.3,11.6c10.2,2.3,22.1-3.1,24.6-14c2.3-10.1-3-22.2-14-24.6l-52.3-11.6
		c-10.2-2.3-22.1,3.1-24.6,14C452.5,472.6,457.8,484.7,468.8,487.1L468.8,487.1z"/>
	<path class="st0" d="M473.9,286.8c19.2,6.2,39.4,9,59.5,8.2c10.4-0.4,20.5-8.9,20-20c-0.5-10.5-8.8-20.5-20-20
		c-4.3,0.2-8.6,0.2-12.8,0c-2.5-0.1-4.9-0.3-7.3-0.5c-1.2-0.1-2.4-0.2-3.7-0.4c-2.1-0.3-2.4-0.3-1-0.1s1.1,0.1-1-0.2
		c-1.2-0.2-2.4-0.4-3.6-0.6c-2.1-0.4-4.2-0.8-6.3-1.3c-4.5-1-8.9-2.3-13.2-3.7c-10-3.2-22.3,3.8-24.6,14
		C457.2,272.8,463.3,283.6,473.9,286.8L473.9,286.8z"/>
</g>
</svg>
