<svg xmlns="http://www.w3.org/2000/svg" viewBox="0 0 1128.6 742.1"><defs><style>.cls-1{fill:#70ab8f;}.cls-2{fill:#fd7013;}.cls-3{fill:#393e46;}</style></defs><title>set</title><g id="レイヤー_2" data-name="レイヤー 2"><path class="cls-1" d="M910.32,520.32c-3.91-2.92,1.32,1.39,2,2.07,1.13,1.14,2.2,2.32,3.25,3.53.69.81,1.37,1.64,2,2.48q-2-2.58-.69-.85c1.07,1.56,2.22,3.06,3.3,4.61,5,7.13,10,14.18,15.55,20.92,10.85,13.23,23.59,24.43,37.38,34.5,8.48,6.19,22.67,1.71,27.37-7.17,5.49-10.41,1.87-20.76-7.18-27.37-.93-.68-1.86-1.36-2.79-2.06q2.64,2.07,0-.06c-1.35-1.09-2.69-2.18-4-3.3-3.08-2.62-6.08-5.34-9-8.16a191.91,191.91,0,0,1-15.64-17.36c-.88-1.12-.71-.91.49.61-.7-.92-1.38-1.85-2-2.79-1-1.31-1.87-2.63-2.79-4-2.16-3.1-4.29-6.22-6.55-9.25a97.44,97.44,0,0,0-20.47-20.93c-8.42-6.28-22.71-1.64-27.37,7.18-5.54,10.48-1.81,20.66,7.18,27.36Z" transform="translate(-139.58 -12.94)"/><path class="cls-1" d="M1035.21,346.52q9.72,6.14,19,12.85c1.43,1,2.85,2.08,4.27,3.14q1.41,1,2.82,2.13c-1.48-1.15-1.67-1.3-.56-.43,3,2.39,6,4.77,8.93,7.22a360.19,360.19,0,0,1,33.23,31.67c7.13,7.7,21.17,7.75,28.29,0a20.43,20.43,0,0,0,0-28.28A380.06,380.06,0,0,0,1055.4,312c-8.86-5.6-22.44-2.15-27.36,7.18a20.43,20.43,0,0,0,7.17,27.36Z" transform="translate(-139.58 -12.94)"/><path class="cls-2" d="M877.35,587.53c-1.25.1-2.49,0-3.72.1-2,.09,3.9,1.4.24-.17-2.5-1.07-.46.5.63.4-.92.08-2.48-1.49-3.25-1.87-2.12-1,3,3-.14-.15L869,583.66c-2.57-2.55.84,1.79-.16-.16-.6-1.16-1.4-2.33-2-3.45-.93-1.6-.9-1.76-.16,0-.55-1.33-1-2.71-1.45-4.09-.78-2.5-1.42-5-2-7.6-.61-2.87-1.08-5.76-1.52-8.66-.17-1.15-.39-2.31-.5-3.47.28,2.52.37,3.07.3,1.65,0-1.61-.08-.86-.12,2.27L856.19,569c-.52.62-3.43,1.32-3.84,2,.2-.33,2.49-.82,3-1a12,12,0,0,1,3.09-.68c-3.65-.49-2,.2-.59.21,2,0,4.5-.42,6.37.2-4-1.3-1.63-.24-.55,0,1.58.41,3.15.75,4.71,1.23,1,.33,2.05.73,3.08,1.07-.72-.24-3.59-1.78-.29-.08,1.94,1,3.85,2,5.69,3.15,1.1.68,5.86,4.37,2.67,1.69,1.92,1.61,3.81,3.22,5.62,5a127.48,127.48,0,0,1,9.11,9.77c1.63,1.92,3.22,3.87,4.79,5.84l2.07,2.65c-1.73-2.2-.61-.81.46.59,1.3,1.72,2.58,3.45,3.72,5.29.57.93,1,1.92,1.59,2.85,1.5,2.51-1.19-3-.3-.39.77,2.31-.08-2.11,0-2.87a9,9,0,0,1,1.71-4.22c.39-.53,3.86-3.27,1.84-2s3.64-1.06.07,0a272.36,272.36,0,0,1-30.88,7.24c.85-.14,3.66-.37-.38,0-1.26.12-2.53.25-3.8.34q-3.79.28-7.61.29c-2.56,0-5.09-.21-7.63-.34-1.47-.08-3.07.51.86.17a14.34,14.34,0,0,1-3.7-.67c-2-.42-3.91-.91-5.83-1.49-1-.29-1.92-.6-2.86-.93-.64-.23-3.7-1.38-1.11-.35s-.41-.23-1-.53q-1.34-.66-2.64-1.38c-1.59-.88-4.53-2.11-5.63-3.58,2,2.7,1.7,1.42.59.38-.72-.67-1.46-1.3-2.16-2s-1.34-1.43-2-2.12c-3-3,.6.53.35.62a21.79,21.79,0,0,1-1.66-2.45l-.77-1.27q2.61,4.65-.86,9.61c-2.16,8.2-.52,5.68-5,9-2.13,1.6.38,0,1.44-.26,3.66-1,1-.2,0-.1,1.78-.19,3.56-.32,5.35-.38a74,74,0,0,1,8,.19c.59,0,4.34.41,1.78.11s2.15.38,2.66.48c3,.56,5.9,1.26,8.81,2.07a159.21,159.21,0,0,1,15.59,5.35c3.64,1.43,1.08.44.32.11q2.54,1.09,5,2.24c2.77,1.27,5.51,2.59,8.25,3.92,9.39,4.57,22.06,2.87,27.36-7.18,4.89-9.24,2.7-22.14-7.17-27.36a188.36,188.36,0,0,1-16.55-9.8c-2.43-1.62-4.8-3.32-7.16-5-4.67-3.37,3,2.48-1.5-1.14q-2-1.65-4-3.34c-8-6.72-20.55-8.43-28.29,0-6.8,7.42-8.55,21.1,0,28.29a213.21,213.21,0,0,0,37.36,25.55L904,589.06c-16.21-7.88-33.16-15.55-51.11-18.33-19-2.94-48-4.13-57,17.19-8.24,19.54,11.42,39,27,47.89C838,644.51,856,648,873.32,647a177.33,177.33,0,0,0,29-4.29c9.05-2.05,18.42-4.14,26.82-8.21A31,31,0,0,0,946.43,606c-.37-9.84-4.92-18.56-10.77-26.22-10.95-14.33-22-28.21-37.2-38.31s-35-14.57-52.93-10.23c-13.55,3.28-25.49,13.45-23.9,28.57,1,10,2.47,20.6,6.07,30.07,7.8,20.48,25.83,39.54,49.65,37.61,10.4-.84,20.51-8.59,20-20-.46-10.11-8.84-20.9-20-20Z" transform="translate(-139.58 -12.94)"/><path class="cls-2" d="M860.85,635.21c-.06,1.53-.19,3-.37,4.57l.71-5.32a51.56,51.56,0,0,1-1.79,8c-3.08,10,3.66,22.25,14,24.6,10.84,2.47,21.31-3.26,24.6-14a71,71,0,0,0,2.88-17.92c.42-10.46-9.51-20.47-20-20a20.42,20.42,0,0,0-20,20Z" transform="translate(-139.58 -12.94)"/><path class="cls-2" d="M900.84,620.45l-.14.36,2-4.78a11.48,11.48,0,0,1-1.38,2.31l3.12-4.05a12,12,0,0,1-1.63,1.64l4-3.13a11.5,11.5,0,0,1-2.3,1.4l4.78-2c-.36.15-.72.28-1.09.4a21.06,21.06,0,0,0-12,9.19,14.93,14.93,0,0,0-2.38,7.44,15.22,15.22,0,0,0,.36,8c1.57,4.84,4.57,9.51,9.19,12s10.27,3.68,15.41,2a32.13,32.13,0,0,0,12.8-7.44c4-3.7,5.74-7.74,7.72-12.62a15.16,15.16,0,0,0,.36-8,14.92,14.92,0,0,0-2.37-7.44,22.45,22.45,0,0,0-12-9.19c-5.12-1.16-10.86-.91-15.41,2l-4,3.13a20,20,0,0,0-5.14,8.82Z" transform="translate(-139.58 -12.94)"/><path class="cls-2" d="M1166.31,293.87l-29-30.5-14.16-14.89-6.74-7.09c-1.34-1.41-2.66-2.89-4-4.26-4.2-4.15,3.26,5.55.38.65l3,7.17-.54-1.48,1.07,8-.13-1.49-1.08,8,.38-1.48-3,7.17-8.08,8.28-7.17,3c5.91-2.3,12-3.66,17.65-6.77,4.2-2.29,8-5.36,12-8a168.75,168.75,0,0,1,25.74-13.77l-7.16,3a169.76,169.76,0,0,1,43-11.73l-8,1.07a28.71,28.71,0,0,1,6.21-.28l-8-1.07,1.43.41-7.17-3a22,22,0,0,1-6.77-7,20.06,20.06,0,0,1,1,1.87c.93,1.77,1.72,3.62,2.52,5.46l-3-7.17a106.5,106.5,0,0,1,7,25.5l-1.07-8a99,99,0,0,1,.27,24.27l1.07-8a8.47,8.47,0,0,1-.76,2.57l3-7.16,7.65-8.21,7.17-3c-4.6,1.28-9.5,1.74-14.23,2.39l8-1.07c-18.82,2.49-38.37,4.25-57.36,3l8,1.07a20.35,20.35,0,0,1-5.1-1.31l7.17,3,3.72,3.11c-1.53-1.6-1.37-1.31.5.88,3.14,4,.75.5.19-.73l3,7.17a30.28,30.28,0,0,1-1.68-6.48l1.08,8a34,34,0,0,1,0-6.38l-1.07,8a33.86,33.86,0,0,1,1.92-7.4l-3,7.16c.51-1.15,1.17-2.23,1.68-3.38q1.74-2.66-1,1c-1.9,2.34-2.16,2.71-.81,1.12l.86-.87q3.31-3-3.25,2.4c1.08-.41,2.12-1.22,3.2-1.7l-7.17,3a23.37,23.37,0,0,1,5-1.23l-8,1.07a27.27,27.27,0,0,1,4.24.06l-8-1.07a27.7,27.7,0,0,1,5.43,1.44l-7.17-3c.87.38,1.74.77,2.58,1.22s4.79,3.33.63.06c-4-3.11-1-.75-.19,0s1.75,1.78,2.62,2.69c3,3.13-2.13-2.19-1.91-2.53a24.89,24.89,0,0,0,1.63,2.49,63.72,63.72,0,0,1,3.67,7.29l-3-7.16a85.75,85.75,0,0,1,5.41,21l-1.07-8a182.73,182.73,0,0,1,.65,30.5c-.58,12.3,9.66,26.45,22,28.93,16.5,3.3,33.27-.23,45.19-12.79,10.81-11.39,12.15-31.27,0-42.42-11.72-10.76-30.88-12.16-42.43,0q-3.23,3.22,2.76-1.81a16.91,16.91,0,0,1-2.6,1.36l7.17-3a25.16,25.16,0,0,1-4.25,1.14l8-1.07a23,23,0,0,1-4.39,0l8,1.07-1.44-.29,22,28.93c.79-16.91.37-34.37-4.15-50.79-5.17-18.76-16.36-37.83-34-47.36-20.16-10.92-47-8.67-62.06,9.94-14.63,18.15-18,41.54-7.71,62.75,7,14.36,21.66,21.91,37.05,23a217.41,217.41,0,0,0,24.75-.14q13-.56,25.92-2.07c10.61-1.23,22.53-1.6,32.47-5.8a35.64,35.64,0,0,0,20.48-22c1.87-5.35,2.12-11.51,2.37-17.19.43-10-.8-20.13-2.57-30a116.4,116.4,0,0,0-7.78-24.72c-5.53-13.1-13.43-25.27-28.41-28.84-12.13-2.88-25.45.27-37.4,3a164.89,164.89,0,0,0-23.79,7.37,216.7,216.7,0,0,0-28.84,13.48c-7.56,4.36-14.37,10.28-22.23,14.06l7.17-3c-5.59,2.24-11.17,3-16.52,6.27a34.69,34.69,0,0,0-16.69,30.74c.49,17,13.62,28.1,24.43,39.47l43.15,45.39c10.83,11.39,31.65,11.73,42.42,0,11.23-12.23,11.56-30.27,0-42.43Z" transform="translate(-139.58 -12.94)"/><path class="cls-2" d="M1098.77,310.74c15.69,0,30.72-13.8,30-30s-13.18-30-30-30c-15.69,0-30.73,13.79-30,30s13.18,30,30,30Z" transform="translate(-139.58 -12.94)"/><path class="cls-2" d="M796.64,230.75l1.88-.3-8,1.07c12.06-1.56,24,0,36.1.65s24.7,0,36.23-3.76c11.8-3.85,23.77-10.08,31.87-19.75A62.28,62.28,0,0,0,907,186.9c1.62-5.05,1.81-10.39,3.74-15.36l-3,7.17a16.1,16.1,0,0,1,1.31-2.46q-5.43,6.54-2.41,3.32c-6.78,6.23-4.07,2.84-1.17,1.42l-7.17,3a25.5,25.5,0,0,1,5.81-1.64l-8,1.07a28.74,28.74,0,0,1,6.15,0l-8-1.07a27.77,27.77,0,0,1,5.94,1.61l-7.16-3c1.06.49,2.15,1.37,3.23,1.75q-6.14-5-2.73-2c.52.49,1,1,1.48,1.53,2.13,2-4.48-6.76-1.34-1.5a39,39,0,0,1,2.24,4.48L893,178a45.67,45.67,0,0,1,2.57,9.82l-1.07-8a47.1,47.1,0,0,1,.13,10.21l1.07-8a30.08,30.08,0,0,1-1.38,5.69l3-7.17a16.25,16.25,0,0,1-1.27,2.58q4.88-5.72,2.46-3.29-2.57,2.45,3.45-2.65a15.33,15.33,0,0,1-2.33,1.16l7.17-3a31.63,31.63,0,0,1-6.51,1.54l8-1.08c-10.23,1-20.46.14-30.52,3-10.75,3-20.2,9.11-30.32,13.59l7.17-3a62.64,62.64,0,0,1-15.08,4.11l8-1.07a77.19,77.19,0,0,1-19.33-.22l8,1.07A98.76,98.76,0,0,1,814,187l7.17,3c-16.35-7-30.75-17.31-45-27.73-3.83-2.8-10.5-4.1-15.14-4.1a29.73,29.73,0,0,0-18.18,6.44c-8.78,6.79-14.94,20.4-10.75,31.54,15.78,41.93,47.16,77.76,88.58,95.94,22.78,10,50.75,19,75.57,11.42,16.15-4.95,30.25-16.64,34.79-33.38a48.93,48.93,0,0,0-10.48-44.63,39.91,39.91,0,0,0-20.21-12.16c-11.75-3.15-23.43.6-33.72,6.27-12.17,6.7-24.52,12.91-37.3,18.37l7.17-3a379.55,379.55,0,0,1-46.08,16.06q-11.77,3.24-23.74,5.71c-7.09,1.46-14.66,2-21.48,4.51-16.56,6.11-27.63,18.59-29.17,36.62-1.15,13.44,5.64,25.9,14.12,35.77C741,346.33,757.33,353.83,773.61,356c9.21,1.24,18.77,1.1,27.65-2.07,12.56-4.47,21.38-11.8,29.22-22.49l-54.84-7.16a24.26,24.26,0,0,1,.93,3.78l-1.07-8a24.06,24.06,0,0,1,0,3.7l1.07-8a23.46,23.46,0,0,1-1.17,4.74l3-7.17c-.16.39-2.17,4.56-2.38,4.43-.39-.24,5.31-5.83,2.24-3-.82.75-1.67,1.56-2.43,2.37-2.18,2.34,5.58-3.81,2.81-2.1-.8.49-1.56,1.06-2.37,1.55a48.71,48.71,0,0,1-5.7,2.94l7.17-3a50.88,50.88,0,0,1-12.49,3.21l8-1.07c-14.27,1.71-29.43,1.05-43.13,5.86a74,74,0,0,0-25.9,15.27c-2.42,2.14-4.79,4.41-7.07,6.69-3.54,3.52,4.69-2.89,1.67-1.2a54.12,54.12,0,0,1-5,2.64l7.17-3a40.51,40.51,0,0,1-7.81,1.92l8-1.07c-8.46,1-17-.15-25.42.74C662,348,649.73,352,639,361.16c-9.91,8.44-15,21-15.28,33.89-.3,16.45,9.81,30.79,22.7,39.91,10.51,7.42,24.19,10,36.86,9.76,10.32-.21,21.8-1,31.55-4.22A59.11,59.11,0,0,0,742,421.32c2.08-2.53,4.07-5.15,6.31-7.55,1-1.1,2.18-2,3.25-3.11-6.17,6.12-4.89,3.43-1.71,2.06l-7.16,3a15.53,15.53,0,0,1,2.85-.67l-8,1.07a10.59,10.59,0,0,1,2,0l-8-1.07a12,12,0,0,1,2.15.42l-7.17-54.83c-30.23,13.89-55.29,36.35-74.89,63C642,436.83,633.22,452.25,628.47,468a62.4,62.4,0,0,0,.13,35.59c2.26,7.66,5.9,14.79,7.18,22.73l-1.07-8a35.75,35.75,0,0,1,.1,7.24l1.07-8a36.69,36.69,0,0,1-2,8l3-7.17a66.2,66.2,0,0,1-3.22,6.2c-2.3,4.13,4.07-4.62,1.72-2.1-.81.87-1.57,1.78-2.42,2.62-.68.68-1.4,1.3-2.1,2-3.82,3.58,4.73-3.12,2.07-1.62-2.33,1.31-4.46,2.71-6.91,3.83l7.17-3a50.58,50.58,0,0,1-12.26,3.32l8-1.07a65.62,65.62,0,0,1-15.72-.15l8,1.07a90.25,90.25,0,0,1-20.51-5.74l7.17,3a87.27,87.27,0,0,1-13.12-6.64,25.21,25.21,0,0,0-2.5-1.72c.71-.43,5.3,5.06,2.62,1.79-.77-.94-3.87-4.49-.57-.35,3.14,3.94.68.51.13-.58l3,7.16a24.32,24.32,0,0,1-1.44-4.87l1.07,8a23.78,23.78,0,0,1-.06-5.06l-1.07,8a23.73,23.73,0,0,1,.91-3.6l-3,7.17c1.49-3.4,2.6-2.23-2.14,2l-4.2,3.09a12.49,12.49,0,0,1,2.63-1.39l-7.17,3a13.72,13.72,0,0,1,2.81-.75l-8,1.07a27.8,27.8,0,0,1,6,0l-8-1.07c5,.76,9.74,2.62,14.7,3.61,8.91,1.78,17.83,2.41,26.73.09a41.51,41.51,0,0,0,22.77-15.14c7-9,7.79-19.06,8.4-30l-1.08,8a16.81,16.81,0,0,1,1.09-4.15l-3,7.17c2.08-3.86-3.25,3.39-4.46,4.27-4.27,3.13-.83.77.33.24L634,519l1.27-.41c14.89-4.86,26.1-21,21-36.91-4.81-14.87-20.93-26.16-36.9-20.95-10.41,3.4-19.53,9.69-25.19,19.28-5,8.52-5.53,17.46-6,27.06l1.08-8a12.35,12.35,0,0,1-.67,3.18l3-7.17c-1.79,4,4.87-4.9,2.52-2.7-1.95,1.81,6.9-4.54,2.81-2.49l7.16-3a21.86,21.86,0,0,1-4.65,1.24l8-1.08a32.79,32.79,0,0,1-6.42,0l8,1.07c-9.82-1.36-18.81-5.64-29-5.28-15.74.57-30.11,8.28-37.71,22.34s-6.57,30.46.35,44.38c5.08,10.21,14.7,18.41,24.46,24,21.3,12.11,45.57,17.76,69.85,14,20.42-3.18,40.07-16.73,50-35,7.38-13.53,9.32-27.91,6.61-43-1.71-9.49-6.63-18-8.35-27.47l1.07,8a35.2,35.2,0,0,1-.14-8.27l-1.07,8a51.53,51.53,0,0,1,3.38-11.51l-3,7.17a159.38,159.38,0,0,1,14.15-25.86c1.28-1.9,2.61-3.78,4-5.64,2.89-3.91-.53.36-1.44,1.81a31.51,31.51,0,0,1,2.41-3q4.65-5.61,9.76-10.81,4.86-4.92,10.09-9.42a72.2,72.2,0,0,1,5.93-4.86c-.58.4-5.67,4.25-2.4,1.91,1-.75,2.06-1.5,3.11-2.24a164.6,164.6,0,0,1,25.92-14.83c4.18-1.93,8.48-6.86,10.76-10.76a29.71,29.71,0,0,0,3.56-19.13c-1.53-11.41-9.92-22.11-21.49-24.94-16.44-4-32.41,1.45-43.84,13.69-2.67,2.85-5,6-7.51,9-1.34,1.58-2.82,3-4.2,4.55-3.59,4,2.78-2.46,2.9-2s-3.58,2.06-3.83,2.18l7.17-3a41.44,41.44,0,0,1-9.5,2.43l8-1.07c-8.06,1-16.28,1.89-24.38.85l8,1.07a37.2,37.2,0,0,1-8.08-2.27l7.17,3c-1.06-.52-2-1.19-3.1-1.7-2.55-1.24,5.73,5.14,2.2,1.58-2.88-2.89,2.06,2.37,2,2.84a39.34,39.34,0,0,0-1.93-3.63l3,7.17a23,23,0,0,1-1-3.92l1.07,8a20.6,20.6,0,0,1,.1-4.08l-1.07,8a21.53,21.53,0,0,1,1.07-3.51l-3,7.17c.63-1.27,2.84-4.27-.48,0-1.81,2.19-2.22,2.75-1.21,1.66a12.89,12.89,0,0,1,1.3-1.26c.16.59-6.6,4.21-3.08,2.52,1.15-.55,2.23-1.21,3.39-1.75l-7.17,3a42.28,42.28,0,0,1,10.12-2.7l-8,1.07c13.79-1.56,27.77,1.22,41.21-3.73,9.71-3.58,17.5-8.92,25-16.06,1.74-1.66,4.63-3.55,5.92-5.54-3.78,2.8-4.74,3.55-2.87,2.28.64-.44,1.3-.86,2-1.24a41.46,41.46,0,0,1,4.13-2l-7.16,3a61,61,0,0,1,13.45-3.41l-8,1.07c19.55-2.55,38.93-1.69,56.57-12.06,20.6-12.11,35.39-36.22,27.48-60.49-3.75-11.49-12.77-19.85-24.94-21.48-12.71-1.71-22.57,4.32-29.89,14.32.47-.65,5.24-6.29,2-2.87-2,2.15-3.54,1.22,3-2.09-1.69.86-3.22,1.94-5,2.7l7.17-3a33.32,33.32,0,0,1-6.68,1.74l8-1.07a39.63,39.63,0,0,1-9.55,0l8,1.08a47.51,47.51,0,0,1-10.75-2.92l7.16,3a49.51,49.51,0,0,1-5.06-2.5c-.91-.53-1.77-1.12-2.66-1.66-3.86-2.36,5,4.42,2.6,2-.43-.43-4.12-3.75-4-3.89s4.35,6.62,2.06,2.6a43.11,43.11,0,0,1-2.19-4.21l3,7.16a21.67,21.67,0,0,1-1.06-4.43l1.07,8a10.51,10.51,0,0,1,.16-2.91l-1.07,8,.4-1.41-3,7.17c2-4.22-3.14,3.14-4.43,4.14-4.11,3.17-.86.91.42.34l-7.17,3c4.91-1.78,10.16-2.32,15.27-3.28q8.88-1.68,17.69-3.78a366.45,366.45,0,0,0,35.56-10.43c13.26-4.62,26.28-10,39-15.82,11.12-5.08,21.55-11.58,32.64-16.65l-7.17,3a14,14,0,0,1,3.17-.92l-8,1.07a13.68,13.68,0,0,1,3,0l-8-1.08a13.61,13.61,0,0,1,2.68.81l-7.16-3c3.73,2-6.51-6.3-2.4-1.82-6.3-6.88-3.48-4.85-2.13-1.8l-3-7.16a24,24,0,0,1,1.29,5.08l-1.07-8a25.25,25.25,0,0,1,0,4.26l1.07-8a19.25,19.25,0,0,1-1.37,5.06l3-7.16c-.19.36-1,1.45-1,1.82,0-.59,5.73-7.19,1.87-2.92-1.88,2.07,5.25-3.22,2.69-2.22-1,.4-2.08,1.1-3.1,1.56l7.17-3a37.72,37.72,0,0,1-8.23,2.12l8-1.07a60.77,60.77,0,0,1-14.7-.29l8,1.07a130.74,130.74,0,0,1-30.82-8.71l7.17,3a143.42,143.42,0,0,1-22.51-12q-2.75-1.81-5.41-3.75c-.78-.57-1.55-1.17-2.34-1.74,7.31,5.24,3.69,2.87,2,1.53q-5.1-4.17-9.79-8.79c-3-2.9-5.77-5.94-8.45-9.09-.79-.93-1.54-1.89-2.33-2.81-2.32-2.71,4.09,5.5,2,2.62-1.29-1.77-2.6-3.53-3.83-5.34a136.15,136.15,0,0,1-12.59-23l3,7.16c-.75-1.8-1.46-3.61-2.15-5.43l-44.07,33.88c20.33,14.83,41.65,29.46,66.51,35.46a108.35,108.35,0,0,0,46.59,1.19c13.18-2.51,24.45-10,36.57-15.24l-7.17,3a44.41,44.41,0,0,1,10.73-3l-8,1.07c8.93-.9,17.6-.45,26.53-2.07,12.21-2.22,24.1-10.25,30.25-21.13,10.72-19,9-46.12-3.05-64.26-13-19.65-36.2-30.72-59.6-24.06C873.69,128.41,862.93,136,857,146.49A53.24,53.24,0,0,0,851,162.4a58.7,58.7,0,0,1-2.77,11l3-7.16c-.18.38-2.33,4.62-2.51,4.51-.38-.24,5.29-5.86,2.3-3.07a21.37,21.37,0,0,0-2.3,2.26c-1.73,2.16,5.48-3.61,3-2.27-.76.41-1.47,1-2.21,1.44a48.48,48.48,0,0,1-5.36,2.77l7.17-3a61.59,61.59,0,0,1-14.52,4l8-1.07c-9.23,1.2-18.51.39-27.74-.29a153.62,153.62,0,0,0-36.41,1.38c-7,1.12-14.53,8-17.93,13.79-3.76,6.43-5.36,15.91-3,23.12s6.84,14.26,13.78,17.93c7.57,4,14.71,4.36,23.12,3Z" transform="translate(-139.58 -12.94)"/><path class="cls-2" d="M297,545.26l-41.91-19.4c-5.76-2.67-11.66-5.18-17.14-8.41-.18-.1-3.81-2.47-3.83-2.45.56-.42,6.33,5.63,1.44.92-.92-.88-3.82-4.44-.62-.29,3.43,4.45-.29-1-.85-2.16l3,7.16a34,34,0,0,1-2.14-7.47l1.07,8a38.76,38.76,0,0,1-.09-7.84l-1.07,8a39.12,39.12,0,0,1,2.37-9.15l-3,7.17c.76-1.7,2.17-5.88,3.8-6.84-1.2.71-4.73,5.61-1.24,1.82.89-1,1.86-1.84,2.78-2.76,3.08-3.08-2.37,1.49-2.42,1.68.15-.56,2.66-1.86,3.26-2.24a61.31,61.31,0,0,1,8-4.23l-7.17,3a48.43,48.43,0,0,1,10.22-3l-8,1.07a38.68,38.68,0,0,1,8.33-.13l-8-1.07a44.81,44.81,0,0,1,10.78,2.92l-7.17-3a61.17,61.17,0,0,1,9.95,5.52c.67.46,1.34.93,2,1.42,1.84,1.37.89.63-2.86-2.19a51.78,51.78,0,0,0,4.06,3.57c1.31,1.25,2.59,2.54,3.81,3.89l1,1.17q2.94,3.57-1.81-2.42c1.46,3.2,3.81,6,5.24,9.3l-3-7.17a41.42,41.42,0,0,1,2.34,8.75l-1.07-8a32.49,32.49,0,0,1,0,6.83l1.07-8A32.78,32.78,0,0,1,266,527l3-7.16c-.57,1.22-1.28,2.33-1.88,3.53q-1.83,2.68.81-.89c1.86-2.29,2.08-2.64.66-1l-.92.91q-3.37,3,3.05-2.3c-1.13.39-2.26,1.29-3.37,1.79l7.17-3a23.62,23.62,0,0,1-5,1.27l8-1.07a28.31,28.31,0,0,1-4.22,0l8,1.08a27.17,27.17,0,0,1-5.47-1.42l7.16,3c-1.69-.75-3.31-2.12-5-2.75q5.82,4.69,3.18,2.42c-.57-.49-1.12-1-1.65-1.52-.82-.81-5.09-6-1.69-1.52s-.63-1-1.22-1.94a139.11,139.11,0,0,1-11-21.54l3,7.17a165.34,165.34,0,0,1-10.32-35.82l1.07,8a26.17,26.17,0,0,1-.17-6.19l-1.07,8A10.32,10.32,0,0,1,259,473l-3,7.17a20.78,20.78,0,0,1-7.46,7,12,12,0,0,1,2.25-1.18l-7.17,3a19.65,19.65,0,0,1,3.78-.91l-8,1.07a21,21,0,0,1,3.89.14l-8-1.08a30.35,30.35,0,0,1,4.85,1.53l-7.16-3a58.4,58.4,0,0,1,5.9,3.51c4.65,3-5.13-4.35-.55-.38,3.14,2.72,6.3,5.38,9.3,8.26q3.84,3.71,7.44,7.64c1.4,1.53,2.76,3.1,4.1,4.68s5.49,7.43.31.17c10.19,14.29,20.47,32.05,36.63,40.2,14.58,7.36,33.94,7.08,45.53-5.88,8-8.93,10.06-19.54,11.95-30.88,2.54-15.29.86-29.92-10.8-41.4-6.42-6.34-16.44-10.64-25.52-10.5-10.06.15-17.57,4-25.25,10.23-5.61,4.56-8.79,14.32-8.79,21.22,0,7.36,3.27,16.14,8.79,21.21,5.71,5.25,13.22,9.15,21.21,8.79,8.4-.38,14.71-3.51,21.21-8.79l-4.2,3.51-7.17,3,1.07-.24-8,1.07,1.11,0-8-1.07a7.24,7.24,0,0,1,2.24.52l-7.17-3q2.73,1.46-1-1.09a17,17,0,0,1-5.42-5.75l-3-7.17a11,11,0,0,1,.94,3l-1.07-8a27.28,27.28,0,0,1-.12,6.45l1.07-8c-.9,5.39-1.51,11.44-3.54,16.53l3-7.17q14.08-10.8,7.31-7.72l7.17-3-1.08.23,8-1.07a8.13,8.13,0,0,1-2.31-.06l8,1.07a12.65,12.65,0,0,1-2.41-.66l7.17,3c-.79-.34-1.59-.82-2.39-1.13-3.71-1.41,2.63,1.55,2.82,2.4-.29-1.26-3.53-3.54-4.43-4.56-.75-.85-1.45-1.74-2.2-2.58-3.23-3.68,1.28,1.79,1.54,2.07a62.4,62.4,0,0,1-4.53-6.18c-6.75-9.4-13.62-18.78-21.52-27.25-17.3-18.55-41.43-39.51-68.67-30.89-17.88,5.66-30.35,23.21-28.39,42.16A155.92,155.92,0,0,0,207,507.92c6.82,19.93,16.6,43.63,33.48,57.28,13.34,10.77,28.47,16.11,45.71,12.67,13.49-2.7,24.51-11.93,32-23.1,13.95-20.69,10.8-49.29-3.71-68.76-15.38-20.66-37.81-37-64.27-38.42-25.71-1.41-52.87,15.42-65.71,37.22a63.88,63.88,0,0,0-7.15,45.84c3.38,15.74,14.15,27.78,27.08,36.59,8.68,5.91,18.88,9.75,28.37,14.14l33.89,15.69c7.49,3.47,14.87,5.3,23.11,3,7-1.92,14.5-7.3,17.93-13.79,7-13.24,4.44-34-10.76-41Z" transform="translate(-139.58 -12.94)"/><path class="cls-2" d="M374.11,410.16c-1.1-1.22-2.19-2.46-3.24-3.72-.71-.84-1.4-1.69-2.08-2.55l2.67,3.47a64.26,64.26,0,0,1-6.07-8.8,134.58,134.58,0,0,1-9.55-18.19l3,7.17a132.36,132.36,0,0,1-9-31.7l1.07,8a33.69,33.69,0,0,1-.15-7.1l-1.07,8a14.06,14.06,0,0,1,.9-3.38l-3,7.16c2-4-2.16,2.09-2.17,2-.08-.36,1.94-2,2.22-2.32,1.7-1.64,3.52-3.16,5.29-4.71l12.33-10.84,11.59-10.19c1.7-1.49,3.45-2.93,5.13-4.44,2.5-2.26-5.35,3.38-2.35,1.89,1.13-.56,2.19-1.32,3.32-1.9l-7.16,3a23.08,23.08,0,0,1,6-1.66l-8,1.07a28.61,28.61,0,0,1,4.72.13l-8-1.07a32,32,0,0,1,6.14,1.78l-7.17-3c.85.4,5.57,2.24,5.66,3.2,0-.07-5.46-4.89-2.25-1.54.79.83,1.63,1.6,2.42,2.43s1.5,1.72,2.26,2.58c2.66,3-.76-1.22-1.48-2,1.7,1.91,3.11,4.19,4.65,6.22q3.82,5.06,7.76,10c.68.86,1.35,1.72,2,2.57,2.33,2.89-3.78-5.2-1.66-2.12a66.69,66.69,0,0,1,7,11.79l-3-7.17a31.88,31.88,0,0,1,1.57,5.84l-1.07-8a26.92,26.92,0,0,1,.08,4.49l1.08-8a23.89,23.89,0,0,1-1.56,5.75l3-7.16c-.54,1.08-1.17,2.05-1.77,3.1-1.62,2.84,5.09-5.21,1.47-2.18-.94.78-1.83,1.66-2.73,2.48-2.6,2.4,6-4.21,1.94-1.53-4.83,3.18-9.63,6.36-14.61,9.3a271.77,271.77,0,0,1-32.09,16.11l7.16-3a35.63,35.63,0,0,1-5.91,2.13l8-1.07-1.31-.09,15.14,4.1c7.48,3.54,9.62,12.11,6.36,5.16-.78-1.66-1.5-3.33-2.22-5l3,7.17a161.8,161.8,0,0,1-10.62-38.61l1.07,8c-.88-6.51-2-13.49-1.21-20.06l-1.07,8a21.26,21.26,0,0,1,1-3.58l-3,7.17q3.58-6.84-8,7.42l-7.17,3a4.79,4.79,0,0,1,2.09-.59l-8,1.07,1.41.12-8-1.07,1.36.43-7.16-3c.17.08,3.92,2.12,3.85,2.17.09-.06-6.8-4.85-2.1-1.3,2,1.53-3.66-6.27-1.44-2,.68,1.33,1.46,2.59,2.08,4l-3-7.17c3.27,8.46,3.34,16.62,8.25,24.77a42.18,42.18,0,0,0,15.13,14.69c9.13,5.23,17.91,5.08,27.94,3.61,6.91-1,14.57-8.05,17.93-13.78,3.76-6.43,5.35-15.91,3-23.12S395.9,349.67,389,346c-7.61-4-14.66-4.25-23.11-3l-1.42.2,8-1.07L371,342l8,1.07-1.35-.38,7.16,3q-4-2.09,2.47,2.23,4.38,6.33,2.18,2.35l3,7.17c-1.41-3.66-1.82-7.45-2.73-11.24a51.51,51.51,0,0,0-7.36-16.78c-8.56-12.6-22.84-24.19-38.91-23.84-19.08.42-32.79,15.36-35.23,33.53-1.55,11.56.33,23.29,2.15,34.74A154.28,154.28,0,0,0,317,400.4c3.9,11.29,8.11,24,16.7,32.65s22.3,11.55,33.66,7.85c6-2,11.92-4.88,17.72-7.5a266.6,266.6,0,0,0,23.95-12.33c18.16-10.55,39.72-24,43.35-46.53a56.58,56.58,0,0,0-7.93-39.8,166.41,166.41,0,0,0-11-14.81q-1.51-1.94-3-3.85c-2.92-3.67,1.39,1.83,1.61,2.07-1-1-1.73-2.32-2.58-3.46-7.59-10.17-15-19.71-26.08-26.36-12-7.2-27.11-10-40.69-6.23-12.1,3.4-21.26,11.76-30.46,19.85l-21.74,19.11c-11.86,10.42-20.81,23.47-19.84,40.08a127.51,127.51,0,0,0,6.78,33.14,167.32,167.32,0,0,0,34.22,58.31c10.5,11.72,31.87,11.49,42.42,0,11.49-12.52,11.2-29.92,0-42.43Z" transform="translate(-139.58 -12.94)"/><path class="cls-2" d="M511.46,271.45c-5.33-8.54-12-16.2-18.57-23.8-1.27-1.47-2.54-3-3.78-4.45-3.94-4.76,3.86,5.38.29.42a57.7,57.7,0,0,1-5.95-10.23l3,7.17a40.27,40.27,0,0,1-2.57-9.38l1.07,8a37.09,37.09,0,0,1,.1-8.49l-1.08,8a41.15,41.15,0,0,1,2.24-8l-3,7.16c1.34-3.08,3.37-5.67,4.87-8.62q-4.92,6.18-2,2.66c.64-.74,1.3-1.47,2-2.17,1.21-1.25,2.47-2.44,3.77-3.59,5.11-4.47-5.36,3.54-.77.5,1.47-1,2.9-2,4.41-2.89a79.83,79.83,0,0,1,9.93-5.05l-7.17,3a73,73,0,0,1,15.1-4.42l-8,1.07a46.59,46.59,0,0,1,10.29-.3l-8-1.08a36.67,36.67,0,0,1,8.26,2.09l-7.17-3a60.09,60.09,0,0,1,6.17,3.46c2.92,1.74-4.73-4.2-2.35-1.75.92.94,2,1.77,2.92,2.69A152.29,152.29,0,0,1,526,232c2.57,3.09-.55-1-1.39-1.84a21.51,21.51,0,0,1,2.11,2.88q2.34,3.27,4.49,6.67a109.06,109.06,0,0,1,8,14.64l-3-7.17a51.77,51.77,0,0,1,3.3,11.58l-1.07-8a37.85,37.85,0,0,1,.1,7.45l1.07-8a33.67,33.67,0,0,1-1.7,6.94l3-7.16a31,31,0,0,1-1.54,3.18c-1.3,2.23-3.67,3.68,1.76-2.13-2.88,3.08,2.58-2,2.62-1.84.08.39-4.13,2.12-4.41,2.24l7.17-3c-12.06,4.36-25.73,5.45-38.31,7.73-13.33,2.42-26.64,5.2-40,7.22l8-1.07h-1.54l8,1.08-1.44-.44,7.17,3q11.4,14,8.11,7.12l3,7.17a102.8,102.8,0,0,1-6.51-24.13l1.07,8a93.37,93.37,0,0,1-.21-22.66l-1.07,8a65.8,65.8,0,0,1,3.82-14.79l-3,7.17a53,53,0,0,1,3.46-6.8c.6-1,2.93-4.07-.16-.12-3.35,4.28-.11.28.55-.4s1.44-1.39,2.15-2.1c3-2.94-2.41,1.58-2.56,1.88.77-1.5,4.95-3,6.47-3.66l-7.16,3a36.22,36.22,0,0,1,8.5-2.35l-8,1.07a34.35,34.35,0,0,1,7.38.06l-8-1.08a37.39,37.39,0,0,1,7.06,1.91l-7.17-3a38,38,0,0,1,5.86,3.07c4.47,2.91-1-1.46-1.91-1.57.79.09,2.2,2.06,2.71,2.58.69.72,1.32,1.5,2,2.24,2.36,2.58-4-6.06-1.59-1.86a72.75,72.75,0,0,1,3.72,7.11l-3-7.17a71.12,71.12,0,0,1,4.3,16.22l-1.07-8c.82,6.37,1.44,13.16.59,19.56l1.07-8a10.9,10.9,0,0,1-.86,2.72l3-7.16c-2.14,3.91,2.94-3.15,4.17-4.06,4.25-3.16.46-.55-.57,0l7.17-3a24,24,0,0,1-5.25,1.49l8-1.08a27.37,27.37,0,0,1-5.43,0l8,1.07a30.73,30.73,0,0,1-6.65-1.87l7.17,3c-1.28-.6-2.47-1.32-3.71-2-4.56-2.38,5.63,5.29,1.19.7-4.12-4.27,2.36,4.07,1,1.26-.82-1.67-1.8-3.24-2.56-4.95l3,7.17a51.58,51.58,0,0,1-2.93-10.86l1.07,8c-1.09-8.35-.37-16.6.74-24.91l-1.07,8c1.71-12.28,4.93-24.92,1.92-37.26a36.75,36.75,0,0,0-13.67-20.39c-7.59-5.86-15.49-7.06-24.81-7.94-16.34-1.55-33.95-1.43-49.68,3.72-19.4,6.36-36.52,19.48-45.2,38.31-8,17.34-10.82,36-11.77,55-1,20.68,13.37,39.43,34.81,40.24,13.12.5,27.78-6.34,38.32-13.57,6.52-4.47,11.64-10.12,13.79-17.93,2-7.18,1.08-16.74-3-23.12-8.29-12.84-27.21-20.26-41.05-10.76a70.62,70.62,0,0,1-10.68,6l7.16-3a45.5,45.5,0,0,1-11.09,3.47l8-1.07-1.41,0,8,1.08-1.35-.37,7.16,3,8.28,8.37,3,7.17a14.06,14.06,0,0,1-1-3.61l1.07,8c-.42-6.74.69-13.87,1.57-20.55l-1.07,8a92.36,92.36,0,0,1,5.5-21.8l-3,7.16a57.74,57.74,0,0,1,3.64-7.14c.63-1,1.48-2,2-3-3.17,6.14-3.25,4-.91,1.58.86-.89,1.81-1.68,2.7-2.54,2.54-2.43-6.11,4.15-2,1.61a60.37,60.37,0,0,1,7.61-4.07l-7.17,3a67.3,67.3,0,0,1,15.53-4.12l-8,1.07c11-1.44,22.1-1,33.07.24l-8-1.07a11.13,11.13,0,0,1,2.61.61l-7.16-3a29.52,29.52,0,0,1-7.21-7.24l-3-7.17a10.26,10.26,0,0,1,.68,2.54l-1.07-8c.37,3.77-.21,7.45-.71,11.18l1.07-8c-2.45,17.69-5.2,34.22-1.82,52,3.23,16.9,13.7,33.08,28.83,41.65,16.33,9.25,38,10.43,53.78-.61,11.59-8.08,17.79-19.06,19.22-33a86.2,86.2,0,0,0-.48-18.72c-2.2-18.44-7.57-34.56-19.54-49-11-13.35-27.77-21.38-44.94-22.45-34.9-2.19-63.06,28.65-67.83,61.23a125.34,125.34,0,0,0,2.23,49.16,97.19,97.19,0,0,0,8.56,22.83c4,7.21,11.74,13,19.54,15.34s14.72,1.2,22.41-.16c14.12-2.49,28.22-5.12,42.33-7.68,14.7-2.67,31.15-3.84,44.12-11.95,16-10,25.67-29,24.61-47.84-1-16.84-7.85-32.13-17-46-7.93-12-17.23-24.23-28.41-33.43-7.78-6.41-16.15-11.91-26.2-14.14-10.73-2.37-20.61-2.06-31.32.06-30.61,6.06-63.78,30.88-69.53,63a66.52,66.52,0,0,0,11,50.62c4.54,6.43,9.59,12.47,14.73,18.41,1.92,2.22,3.79,4.47,5.69,6.7,3.67,4.33-4.33-6.13-1.14-1.47,1.09,1.58,2.18,3.14,3.2,4.77C468,315,486.81,321.45,500.7,312.5c13.33-8.6,19.64-26.8,10.76-41.05Z" transform="translate(-139.58 -12.94)"/><path class="cls-2" d="M555.69,134.32l.6,1-3-7.16a7,7,0,0,1,.62,2.24l-1.08-8a8,8,0,0,1-.1,2.35l1.07-8a9.7,9.7,0,0,1-.73,2.29l3-7.17q-2.19,3.87,2.58-3.11,7.08-4.77,2.79-2.71l7.16-3a11.48,11.48,0,0,1-2.78.59l8-1.08a13.22,13.22,0,0,1-2.88-.08l8,1.07a21.84,21.84,0,0,1-4.21-1.22l7.16,3a17.64,17.64,0,0,1-2.55-1.42q5.79,4.73,2.43,1.55c-4-3.78,4,6.12.3.26a82.7,82.7,0,0,1-6-11.19l3,7.17a50.16,50.16,0,0,1-3.25-11.38l1.07,8a36.91,36.91,0,0,1-.09-7.65l-1.07,8a32.93,32.93,0,0,1,1.77-6.91l-3,7.16A30,30,0,0,1,576,95.78c1.33-2.27,3.63-3.53-1.79,2.14,2.81-2.94-2.42,2.08-2.9,2,.16,0,3.54-1.86,3.83-2l-7.17,3a27.49,27.49,0,0,1,4.18-1l-8,1.07a28.63,28.63,0,0,1,5.78,0l-8-1.07a33.12,33.12,0,0,1,7.12,1.9l-7.16-3c.9.4,1.81.81,2.69,1.29s4.88,3.38.67.1c-4.84-3.76,2.65,2,2.68,3.2,0-.28-4-5.92-1.82-2.15.55.94,1.16,1.84,1.7,2.79a75.05,75.05,0,0,1,3.62,7.37l-3-7.16a173.91,173.91,0,0,1,11.62,43.62l-1.07-8a38.4,38.4,0,0,1,.14,8.09l1.07-8a21.41,21.41,0,0,1-1.32,4.51l3-7.16q-2.48,4.14,2.13-2.55c4.34-3.12,5.26-3.84,2.73-2.15-1.48.77-2.9,1.6-4.41,2.31-4.12,2-8.3,3.76-12.49,5.54l7.17-3c-9.17,3.86-19.18,9-29.08,10.42l8-1.07-1.69,0,8,1.07a9.9,9.9,0,0,1-3-.62l7.17,3c-4.65-2.11,5.09,5.16,1.67,1.69-3.63-3.69,4.25,6.61,1,1a91.81,91.81,0,0,1-4.85-10.1l3,7.17a125.67,125.67,0,0,1-8.06-28.78l1.07,8A63.07,63.07,0,0,1,560.1,113l-1.07,8a41.43,41.43,0,0,1,2.2-8.24l-3,7.17c.57-1.3,1.21-2.48,1.88-3.73,2.23-4.1-4.24,4.4-1.72,2.18,3-2.6,1.35.22-2.28,1.42a33.85,33.85,0,0,0,3.7-2.08l-7.16,3a33,33,0,0,1,8.23-2.23l-8,1.07a41.76,41.76,0,0,1,8.73.06l-8-1.08a49,49,0,0,1,11.76,3.31l-7.16-3c10.49,4.73,19.35,12.08,28.72,18.63A313.81,313.81,0,0,0,617,156c13.78,7.49,33.31,3.86,41-10.76,7.4-14,4-33.05-10.76-41.05C638.54,99.4,630,94.27,621.72,88.7c-8.09-5.45-15.69-11.65-24-16.8C577,59,548.2,53.56,526.4,67.55A56.74,56.74,0,0,0,502,100.76c-3.27,12.23-2.49,24.12-.65,36.42a124.07,124.07,0,0,0,7.72,27.93c5.37,13.35,11.6,28.12,24.72,35.72A40.62,40.62,0,0,0,560,206.22a78.35,78.35,0,0,0,17.61-4.79q17.05-6.41,33.63-14c13-6,24.15-17,26.91-31.51,2.55-13.44,0-27-3.08-40.23a187.17,187.17,0,0,0-10.2-31c-4.62-11-10.72-21.67-20.08-29.31-11.06-9-24.49-15.23-39.11-14.52-17.14.83-31.21,9.37-40.67,23.51-17.24,25.77-5.59,61.07,13.23,82.46a45.19,45.19,0,0,0,53.5,11.17c19.81-9.26,26.48-35.56,15.79-53.9-7.91-13.56-27.44-19.53-41-10.76s-19.22,26.54-10.76,41.05Z" transform="translate(-139.58 -12.94)"/><path class="cls-2" d="M993.82,497.52l.65.89-3-7.17.25,1-1.07-8-.08,1.05,1.07-8-.38,1,3-7.17,8.31-8.27,7.17-3-1.1.42,8-1.07-1.17.12,8,1.07a7.25,7.25,0,0,1-2.85-.74l7.17,3c5.81,3.39,3.81,3.27,1.41.77-3.83-4,3.84,6,.89,1.07a88,88,0,0,1-4.75-8.41l3,7.17a37.31,37.31,0,0,1-2.56-8.9l1.07,8a27.53,27.53,0,0,1,.1-5.88l-1.07,8a25.35,25.35,0,0,1,1.28-4.25l-3,7.16a17.6,17.6,0,0,1,1.55-2.78q-4.63,5.7-1.45,2.29c1.32-1,2.55-2.22,3.81-3.3,4.54-3.87-5.93,3.68-.7.62a53.85,53.85,0,0,1,5.87-3.22l-7.16,3a16.52,16.52,0,0,1,3.09-.88l-8,1.07a12.54,12.54,0,0,1,3.18-.16l-8-1.08a16.52,16.52,0,0,1,4.2,1.13l-7.17-3c4.57,2.49-5.24-4.93-1.71-1.44,3.7,3.66-4.25-6.56-.9-.94a80.93,80.93,0,0,1,4.67,9.54l-3-7.17A113.79,113.79,0,0,1,1020,488l-1.07-8a26.09,26.09,0,0,1,.09,4.59l1.07-8a9.22,9.22,0,0,1-.81,2.82l3-7.16q13-10.49,6.24-6.8l7.17-3a31.68,31.68,0,0,1-7.28,1.87l8-1.07a37,37,0,0,1-7.37-.12l8,1.07a43.41,43.41,0,0,1-8.69-2.34l7.16,3a50.48,50.48,0,0,1-6.84-3.47c-1-.64-4.88-3.51-.77-.29s.36.23-.53-.58a70.77,70.77,0,0,1-5.6-5.89c-3.41-3.87,3.09,4.41,1.06,1.4-.79-1.16-1.63-2.29-2.42-3.47-3-4.48-5.69-9.15-8.39-13.82-3-5.11-6.48-10.08-8.9-15.47l3,7.17a13.4,13.4,0,0,1-.86-3.23l1.07,8a11.27,11.27,0,0,1,0-3.07l-1.07,8a13.65,13.65,0,0,1,.78-2.95l-3,7.17a12.74,12.74,0,0,1,1-2.1q1.74-3-2.41,2.83c.77-.37,4.84-4.24.46-.93s.18,0,.93-.43a44.64,44.64,0,0,1,4.3-2.2l-7.17,3a65.54,65.54,0,0,1,15.74-4.22l-8,1.07c6-.79,12.26-1.54,18.26-.81l-8-1.07a13.22,13.22,0,0,1,3.2.94l-7.17-3c4,2.09-2.27-1.95-2.15-2s4.61,5.45.79.63c-3-3.84-.55-.55.05.36.78,1.17,1.54,2.36,2.27,3.57a108.35,108.35,0,0,1,6.9,13.59l-3-7.17a110.33,110.33,0,0,1,7.1,26.09l-1.07-8a63.4,63.4,0,0,1,.61,14.43l1.07-8a23.18,23.18,0,0,1-1.13,4.23l3-7.17q-3.7,6.64,7.18-6.45a13.58,13.58,0,0,1-2.46,1.26l7.17-3a80.42,80.42,0,0,1-17,4l8-1.07a95.36,95.36,0,0,1-22.08,0l8,1.07a82,82,0,0,1-20.32-5.27l7.17,3a58.18,58.18,0,0,1-6-3c-1-.57-1.91-1.17-2.83-1.82q5.65,4.56,2.2,1.62c-.78-.71-1.53-1.45-2.26-2.23q-3-3.5,1.69,2.38c-.56-1.79-2.29-3.73-3.13-5.48l3,7.17a34.63,34.63,0,0,1-2.18-7.52l1.07,8-.17-1.57c-.9-8.19-2.75-15.18-8.79-21.21-5.2-5.21-13.74-9.13-21.21-8.79-7.76.35-15.81,2.9-21.22,8.79-5,5.49-9.63,13.46-8.78,21.21,1.75,16.09,7.56,31.31,20.14,42.21a85.65,85.65,0,0,0,38.37,19.17,125.72,125.72,0,0,0,45.3,1.2c15.69-2.26,31.82-7.62,40.36-22.12s6.32-31.62,3.55-47.23c-2.18-12.27-6.76-24.11-12.29-35.24-6.07-12.22-14.4-24.73-26.56-31.49-14.38-8-33.19-5.49-48.64-2.47-13.42,2.63-27.36,9.32-36.67,19.51-6.64,7.28-11,15.74-12.33,25.52-1.45,10.76,1.21,20.64,6.76,29.94,12.34,20.7,23.92,42.79,45.37,55.54a66.48,66.48,0,0,0,45.36,8.56c20-3.22,35.51-19.86,34.7-40.64-.48-12.35-4.17-25-8.84-36.41-6.31-15.39-14-30.5-30.19-37.36-12.52-5.28-24.92-4.23-37.16,1.44-6.87,3.18-12.87,8.17-18.62,13-15.11,12.82-20.67,32.88-15.66,51.86,4.09,15.48,14.89,32.21,28.83,40.42s30.83,5.32,42.45-5.15c11-9.88,14.68-29.81,5.71-42.16-4.72-6.5-9.91-11.58-17.93-13.78-7.18-2-16.74-1.09-23.11,3-12.55,8.09-20.63,27.46-10.77,41Z" transform="translate(-139.58 -12.94)"/></g><g id="レイヤー_1" data-name="レイヤー 1"><path class="cls-3" d="M177.05,700.81a804.12,804.12,0,0,0,61-97.9c4.9-9.3,2.7-22.2-7.2-27.4-9.2-4.9-22.2-2.7-27.4,7.2a796.51,796.51,0,0,1-61,97.9c-6.2,8.5-1.7,22.7,7.2,27.4,10.4,5.4,20.8,1.9,27.4-7.2Z" transform="translate(-139.58 -12.94)"/><path class="cls-3" d="M152.45,552.91l124.4,79c8.8,5.6,22.4,2.1,27.4-7.2a20.44,20.44,0,0,0-7.2-27.4l-124.4-79c-8.9-5.6-22.5-2.1-27.4,7.2a20.54,20.54,0,0,0,7.2,27.4Z" transform="translate(-139.58 -12.94)"/><path class="cls-3" d="M287.15,638.51c19.8,1.4,32.2-15.6,40.8-30.8q12.15-21.45,23.1-43.7t20.6-45c2-4.6,4.5-9.5,5.8-14.4a23.94,23.94,0,0,0-5.5-22c-11.1-12.5-33.3-6.8-37.2,9.3-2.5,10.2,3.2,22.2,14,24.6,10.3,2.3,21.9-3.1,24.6-14l.2-.8-5.1,8.8.6-.5-8.8,5.1-8.2.2-8.9-5,.6.6-5.1-8.8c-.5-1.6,1.3-10-.8-4.7-.2.6-1.9,4.5-.6,1.4-1.1,2.6-2.2,5.3-3.4,7.9-2.4,5.5-4.9,11-7.4,16.5-5,10.9-10.3,21.8-15.8,32.5-5.3,10.4-10.9,20.8-16.7,31-1.4,2.5-2.9,5.1-4.4,7.6-.6,1-1.3,2-2,3-1.5,2.3.3.3.5-.6-.2.9-1.9,1.9-2.4,2.6-1.7,2.2,3.3-3.5.3-.2l-1.2.7,2.4-1c-3.5,1.4,4,0,.1-.3-10.5-.7-20.5,9.7-20,20,.3,11.5,8.6,19.3,19.9,20Z" transform="translate(-139.58 -12.94)"/><path class="cls-3" d="M194.75,541.41a103.79,103.79,0,0,1,2.7-11c.6-1.9,1.3-3.8,2-5.7.1-.3,1.2-3,.3-.8s.6-1.3.7-1.6a195.7,195.7,0,0,1,11.9-21.5c4.4-7,9-13.9,13.8-20.6,2.3-3.3,4.7-6.5,7.1-9.7l1.7-2.2c.1-.1,1.9-2.5.7-.9-1.4,1.8,1-1.2,1.3-1.6l2.3-2.9c4.9-6.1,9.7-12.5,15.4-17.9a15.07,15.07,0,0,1,2.3-2.1c-.1,0-3,1.7-.9.9.2-.1,1.8-1.3,2-1.1s-3.5,1.3-1.2.7c2.7-.8-3.3,0-.4.1,2.5,0-1.1-.4-1.2-.3,1.1-.4,7.1,2.6,3.3.7,13.9,6.9,27.1,16.1,39.9,24.8,3.6,2.4,7.1,4.9,10.6,7.5l2.1,1.5c-.1,0,4.1,3.1,2.1,1.6-1.8-1.4.5.4.7.6l2.7,2.2a200,200,0,0,1,20.2,18.9c7.2,7.7,21.2,7.8,28.3,0a20.41,20.41,0,0,0,0-28.3c-12.8-13.7-27.6-25.4-42.9-36.1-7.1-5-14.4-9.7-21.8-14.3-7.6-4.8-15.1-10.1-23.3-13.7-12.6-5.6-25.1-6.9-38-1.1-8.4,3.8-14.8,10.9-20.6,17.8a502.84,502.84,0,0,0-35.8,47.7c-11.6,17.7-22.7,36.8-26.6,57.9-1.9,10.3,2.8,22.1,14,24.6,9.9,2.1,22.6-3.1,24.6-14.1Z" transform="translate(-139.58 -12.94)"/><path class="cls-3" d="M415.35,399.21,396.05,422c-2.6,3-5.1,6.1-7.8,9a23.91,23.91,0,0,1-2.3,2.2c-.3.3-2.4,1.8-.4.4,2.2-1.5-.7.2-1.2.6-1.8,1.5,3.9-1.2-.5.2-.4.1-3.1.8-.6.3s-.2,0-.7,0c-1.1,0-2.3-.1-3.4-.1s-3.3-.9.2,0c-4.2-1.1-8.4-2.1-12.5-3.5-1.9-.7-3.9-1.4-5.8-2.1-1.1-.4-2.2-.9-3.3-1.3-.2-.1-3-1.2-.9-.3,2.3.9-1.2-.5-1.7-.7l-2.4-1.1c-2.4-1.1-4.8-2.2-7.2-3.4a233.07,233.07,0,0,1-22.3-12.7c-3.4-2.2-6.7-4.5-10-6.9-3-2.2-.4-.4.1.1-.8-.7-1.7-1.4-2.5-2.1-1.6-1.4-3.2-3-4.7-4.5a25.25,25.25,0,0,1-2.1-2.5c.3.3,1.7,2.7.7.8-.8-1.7-2-3.3-2.8-5,1.7,3.5,0-.4-.3-1.9-.2-.7-1-4-.4-1.2s-.1-1.6-.1-2c0-1.8.2-3.6.2-5.5,0-2.5-.2,1.5-.2,1.4-.2-.4.5-2.6.6-3.1a80.73,80.73,0,0,1,3.7-11.8c1-2.8-1.4,2.8,0,.1.4-.8.7-1.5,1.1-2.3,1-2,2-4,3.2-6,2-3.7,4.3-7.3,6.6-10.8,4.9-7.4,10.1-14.5,15.4-21.6l2.2-2.9c-.5.7-2.1,2.7.3-.3,1.3-1.7,2.7-3.4,4-5.1,2.9-3.6,5.8-7.2,8.8-10.7,5.8-6.8,11.6-13.7,18-19.9.6-.5,1.1-1.1,1.7-1.6s3.2-2.2,1-.9.2,0,.5-.2c3.2-1.7,0-.1-.6.1,1.9-.8,1.8.5-.5-.2.5.1,3.1-.2.7-.2s.7.2,1.5.4c.4.1,3.8,1.2,1.7.4-2.3-.9,1,.5,1.6.8.8.4,1.5.8,2.3,1.3,2,1.1,3.9,2.3,5.8,3.5,3.5,2.2,7,4.6,10.4,7,1.6,1.1,3.2,2.3,4.7,3.5-3.1-2.3.9.7,1.9,1.5q5.25,4.2,10.2,8.7a213.65,213.65,0,0,1,17,17.3c1.5,1.7,2.9,3.3,4.4,5.1l2.1,2.6c.3.4,3.2,4,1.5,1.9-1.4-1.8.3.4.5.6.8,1.1,1.7,2.2,2.5,3.4,1.5,2,2.9,4.1,4.3,6.2,2.5,3.7,4.8,7.6,7,11.5.5,1,1,3.3,0-.2.3,1.1.7,2.1,1,3.2a16.54,16.54,0,0,1,.7,3.2c.1-2.4-.3-2.7-.3,0a16.2,16.2,0,0,0-.1,2.2c-.4-.2.9-4.6,0-.2-.2.7-.3,1.4-.5,2.2,0,.1-1.3,4.8-.5,1.9.7-2.6-.2.4-.5,1.1-.6,1.1-1.2,2.3-1.8,3.4-1.1,1.8-2.3,3.5-3.4,5.3-.2.3-1.8,2.4-.4.5,1.7-2.2-1.2,1.3-1.5,1.7-1.4,1.7-2.9,3.3-4.4,4.8-3.3,3.5-6.8,6.8-10.4,10.1-7.8,7.1-7.7,21.2,0,28.3a20.41,20.41,0,0,0,28.3,0c14.5-13.3,30.4-29.9,34-50,2.4-13.1.5-24.8-5.2-36.8-4.2-8.8-10.3-16.8-16.2-24.4a244.76,244.76,0,0,0-41.9-43.2c-17.8-14.1-40.3-32.6-64.6-27.3-11.4,2.5-20.1,10.5-27.7,18.8-7.3,7.9-14.4,16.1-21.1,24.5-13.3,16.5-27.2,33.6-37,52.5-10,19.1-16.8,42.4-8.7,63.5,8.4,21.8,28.6,35.4,48.1,46.7a255,255,0,0,0,34.2,16.3c11.1,4.5,23.2,8.8,35.4,8.4,14.4-.5,26.6-7.1,36.1-17.7,8.6-9.6,16.7-19.6,25-29.4,6.8-8,8.4-20.6,0-28.3-7.7-7.2-21.4-8.9-28.5-.4Z" transform="translate(-139.58 -12.94)"/><path class="cls-3" d="M520,317.11a452,452,0,0,1-46.3-28c-3.4-2.4-6.8-4.8-10.1-7.2-1.7-1.2-3.3-2.5-5-3.7l-2.8-2.1c2.3,1.7.3.2-.9-.7q-10.5-8.25-20.4-17.1c-3.2-2.9-6.5-5.8-9.5-8.8-1.4-1.3-2.7-2.7-4-4.1a13.72,13.72,0,0,0-1.6-1.8c2.8,2.8.4.5-.3-.4s-1-1.9-1.6-2.7c-1.5-1.9.5,1.4.4,1.3-.7-.5-1.8-7.9-.9-2.3v-.9c0-1.5-.1-1.1-.3,1.1a9.38,9.38,0,0,1,.6-2.4c.2-.6,1.5-3.9.5-1.6s1.3-2.2,1.3-2.2c4.5-8,10.3-15.4,15.6-22.9l16.6-23.7c2-2.8,3.9-6.4,6.4-8.8-3.5,3.3.9-1,1.7-1.9,1.3-1.6,2.7-3.1,4.1-4.6,1.2-1.3,2.5-2.6,3.7-3.8.7-.7,1.5-1.4,2.2-2,.5-.4,2.9-2.6.8-.8-1.8,1.7,1.8-1.3,2.7-1.8s4.6-1.9,4.9-2.8c-.5,1.2-3.6,1.2-.9.4a25.82,25.82,0,0,1,2.6-.8c.7-.2,1.4-.3,2-.5,2.6-.8-3.9.1-1.2.1,1.1,0,4.2-.7,5,0,0,0-5-1.2-.8,0,1,.3,2,.6,3,.8,4.2,1.2-.5-.3-.5-.3.3-.1,2.3,1.2,2.8,1.4,1.6.9,3.1,2,4.7,3,2.5,1.5-2.4-2.1-.2-.2.6.5,1.3,1,1.9,1.6,1.8,1.6,3.6,3.2,5.4,4.9,14.1,13.5,27.8,27.5,41.7,41.2,3,2.9,6,5.9,8.8,8.9,1.3,1.3,2.6,2.7,3.8,4.1.5.6,1,1.2,1.6,1.8,3.5,3.9-2.2-3.3.8,1,1.5,2.1,5.6,6.6,5.6,9.3,0-.4-1.5-4.3-.2-.5.2.7.5,1.5.7,2.2.3,1,.4,2,.8,3,.8,2.4-.1-4.5,0,.2,0,1.8.6,4.7-.1,6.3.2-.4,1-4.5,0-.6-.3,1-.5,2-.8,3.1s-.7,2-1,3c-1,3.6,1-1.6-.1.4s-2.2,4.4-3.4,6.5a66.49,66.49,0,0,1-3.6,5.6c-.6.9-1.3,1.8-1.9,2.7-1.2,1.6-1.1,1.3.1-.1-3.1,3.7-6.2,7.4-9.4,10.9a377.7,377.7,0,0,1-45.5,42.1c-8.3,6.5-7.3,21.6,0,28.3,8.8,8,19.5,6.9,28.3,0a375.54,375.54,0,0,0,44.9-41.5c13.9-15.1,28.2-32.7,31.6-53.7a62.51,62.51,0,0,0-5-36.9c-4.2-9.2-10.8-17.2-17.6-24.6-14.8-15.9-30.8-30.7-46.2-46-15-14.9-33-30.1-55.7-28.2-20.9,1.7-37.7,14.7-50.5,30.5-13.4,16.6-25,34.6-37.2,52-6.7,9.6-12.7,19.3-14.3,31.2-1.8,13.2,3.1,25,11,35.2,7,9,15.8,16.5,24.4,23.8,9.4,8,19.1,15.7,29.1,23a456.73,456.73,0,0,0,57.9,36.3c9.3,4.9,22.2,2.7,27.4-7.2,4.4-8.9,2.2-21.8-7.6-27Z" transform="translate(-139.58 -12.94)"/><path class="cls-3" d="M589,202.21c-26.9-21.3-54.2-42.1-80.6-63.9-1.2-1-2.3-2-3.4-3-2.6-2.3,1,2.4-.5-.6a10.14,10.14,0,0,1,1.2,6.4c-.1.7-2,3.6,0,.1.6-1,1.1-2,1.7-3,3.5-6,7.1-12,10.8-17.9s7.5-11.8,11.4-17.6c1.8-2.7,3.7-5.3,5.6-7.9.9-1.3,1.9-2.6,2.9-3.9-2.3,3.2.4-.5,1.3-1.6A182.08,182.08,0,0,1,553.1,74c2.4-2.4,4.9-4.8,7.5-7,1.2-1,2.4-2,3.6-3.1.3-.2,2.3-1.9.5-.4s.7-.6,1.1-.8c2.8-2,5.6-4,8.5-5.8,1.4-.9,2.8-1.7,4.3-2.5a25.32,25.32,0,0,0,2.3-1.2c2.3-1.3-2.6.5-.1.1.3-.1,2.3-.9,2.4-.7s-3.8,0-1.2.1c5.3.2-1.9-.7,1.7,0s-2.1-1.5,1,.3c1.6.9,3.2,1.9,4.7,2.9a9.81,9.81,0,1,0-.8-.6c.6.6,1.2,1.1,1.8,1.6,1.4,1.3,2.8,2.6,4.1,4,2.6,2.7,5.2,5.6,7.7,8.4s5.2,6,7.6,9c1.2,1.4,2.3,2.8,3.4,4.3.1.1,2,2.5.7.8s1,1.3,1.2,1.6c9.5,12.6,17.3,25.8,25.4,39.3,1.1,1.9-.1-.5-.3-.8.4,1.1.8,2.1,1.1,3.2a9.51,9.51,0,0,0,.7,2.4c.9,2.3.2-2.8,0-.3v2.6c-.2,2-.2,2.3,0,.7.2-1.3.1-1.3-.1-.2a21.72,21.72,0,0,0-.7,2.4c-.6,1.9-.8,1.6.1,0a97,97,0,0,1-6.2,10.3c-1.3,1.9-2.6,3.6-3.9,5.5,2.2-3.1-.7.9-1.5,1.9a200.88,200.88,0,0,1-16.7,17.8c-2.9,2.7-5.9,5.2-8.9,7.7s-.5.4.1,0c-.9.7-1.8,1.4-2.7,2-1.8,1.3-3.7,2.6-5.5,3.9-8.6,5.9-13.3,17.8-7.2,27.4,5.5,8.6,18.1,13.5,27.4,7.2a201,201,0,0,0,40.3-35.6c12.4-14.7,26.9-32.9,25.7-53.4-1.2-19.8-13.4-37.1-24.3-52.9-10.7-15.4-22.3-30.5-35.4-43.9-7.3-7.4-15.7-13.8-25.7-17.2-11.3-3.9-22.9-1.9-33.5,2.8-15.8,6.8-29.8,18.7-41.3,30.8a281.09,281.09,0,0,0-31,40c-4.4,6.7-8.7,13.6-12.8,20.5-5.4,8.9-11.1,17.6-12.1,28.3-1.2,13.2,7,23.7,16.8,31.4,8.6,6.8,17.1,13.6,25.7,20.4l52.2,41.4c8.2,6.5,20.4,8.6,28.3,0,6.5-7.3,8.6-21.4-.1-28.4Z" transform="translate(-139.58 -12.94)"/><path class="cls-3" d="M651.45,76.21c1-2.7.1.6-.5,1.1a9,9,0,0,0,1.2-2.4q1.35-2.55,3-5.1c.3-.5,2.2-3,.4-.6s.1-.1.5-.5a54.39,54.39,0,0,1,4.1-4.2c7.6-7.2,7.8-21.1,0-28.3-8.2-7.5-20.1-7.7-28.3,0-8.8,8.3-14.7,18.2-19,29.3-3.8,9.8,4.2,22.4,14,24.6,11.5,2.7,20.5-3.4,24.6-13.9Z" transform="translate(-139.58 -12.94)"/><path class="cls-3" d="M536,736.91l70.7-119c5.3-9,2.3-22.3-7.2-27.4a20.49,20.49,0,0,0-27.4,7.2l-70.7,119c-5.3,9-2.3,22.3,7.2,27.4s21.6,2.4,27.4-7.2Z" transform="translate(-139.58 -12.94)"/><path class="cls-3" d="M632.85,594.31a476.17,476.17,0,0,1-46-27.8c-3.7-2.5-7.3-5.1-10.9-7.8-1.7-1.2-3.4-2.5-5-3.8-.5-.4-3-2.3-.2-.1l-2.8-2.2c-6.9-5.5-13.9-11-20.3-17.1-.8-.7-4.9-5.7-2.4-2.1-.5-.7-.9-1.4-1.4-2.1s-1.5-3.7-.8-1.3,0-.4,0-.7c-.6-4-.3.2,0,.6-.3-.4,0-3,0-3.2,0-3-.5-.3-.1.4-.5-1,1.4-5.5,1.7-6.5l.9-2.4c1-2.8-1.5,2.6,0,.1,2.2-3.7,4.1-7.6,6.4-11.3,1.3-2,2.6-4,4-6l1.6-2.2c.3-.4,2.6-3.4,1.1-1.6-1.3,1.7.6-.7.7-.8.8-.9,1.5-1.9,2.3-2.8,1.6-1.8,3.1-3.6,4.8-5.4.7-.8,1.5-1.5,2.2-2.3,1.1-1.2,2.4-1.1-.4.1,1.2-.5,1.9-.4.4-.4s-3.1.6-4.7.5c-2.7-.2-.8-.1,0,.1,3.8,1-1-.5-.9-.5.8-.3,4.1,2.3,5,2.8,9.7,5.6,20.3,8.7,31.5,5.8,10.9-2.9,19.3-10.5,25.8-19.3,5.3-7.1,8.1-15.8,11.3-24,.4-1,.7-1.9,1.1-2.9-.3.6-1.8,3.8-.2.6.8-1.6,1.6-3.2,2.5-4.7a12.23,12.23,0,0,1,1.2-1.9l-1.3,1.6,1-1.1.5-.5c1-1,.7-.8-1,.5l1.4-.9-1.8.9c.1,0-6,1-7.4-.7a16.41,16.41,0,0,0,2.9,1.6c.7.4,1.3.9,2,1.3,2.5,1.3-2.4-2.2-.3-.3a81.31,81.31,0,0,1,8.2,8.4c2.4,2.8.2.3-.2-.3.6.9,1.3,1.7,1.9,2.6,1.1,1.5,2.1,3.1,3.1,4.7,2.2,3.5,4.3,7.2,6.4,10.8,4.7,8.3,9.2,16.7,13.4,25.3,2.1,4.3,4.2,8.6,6.1,12.9.4.9,2.7,6.2,1.3,2.9.9,2.3,1.8,4.6,2.6,7a73.16,73.16,0,0,1,2.3,8l.6,2.7c1,5.1.3-1.9.1,1-.1,1.2.1,2.4.1,3.6,0,.9-.4,5,.2,1a58.45,58.45,0,0,1-1.5,6c-.6,2.7-1-.3.4-.8-.4.1-1.1,2.2-1.3,2.6-.5.8-.9,1.7-1.5,2.5-.3.5-2.6,4-.9,1.5,1.4-2.1.1-.2-.3.3-.8.9-1.6,1.8-2.5,2.7-.3.3-4.6,4.7-4.9,4.5-.1-.1,3.1-2.2,1.1-.9l-3,2.1c-1.7,1-3.4,2-5.1,2.9-1,.5-2,1-2.9,1.4-3.3,1.6,1.1-.2-1,.4-2.3.7-4.5,1.6-6.8,2.3-10.1,3-20.5,4.7-30.9,6.3s-17,15.1-14,24.6c3.6,11.3,13.5,15.7,24.6,14,20.2-3.2,41.6-7.1,58.7-19.1,18.6-13.1,32-32.7,31.4-56.2s-12.7-45.5-23.3-65.8c-9.1-17.4-18.8-37.3-34.2-50.1-12.1-10-26.9-17.4-42.4-9.6-10,5-17,14.7-21.4,24.8-2.1,4.9-4.1,9.9-6,14.9-.8,2,.3,1.7.3-.5a8.45,8.45,0,0,1-1.3,2.7,22,22,0,0,1-1.5,2.6c-.6.8-2.3,5-.4.9-.2.4-4,4.5-4.2,4.3-.5-.4,4.4-2.3.5-.6-1.1.5-3.2,1.2,1-.3-3.2,1.1.5.1,1.3.1-3.8,0,.8.1,1.1.5-.3-.4-2.4-.2-2.7-.8q3.6,1.5,1.5.6c-.6-.3-1.3-.7-1.9-1-10.5-5.8-21.6-11-33.8-6.7-11.5,4.1-19.5,13.6-26.8,22.9-14.7,18.9-28.8,40.9-25,65.9,2,13.1,10.9,23.2,20.6,31.5,9.4,8.1,19.2,15.9,29.2,23.3a451.68,451.68,0,0,0,59.1,37.2c9.3,4.9,22.2,2.7,27.4-7.2,4.8-9.4,2.6-22.3-7.2-27.5Z" transform="translate(-139.58 -12.94)"/><path class="cls-3" d="M701.4,468.91c4.7,2-.2-.1-.9-.5-1.4-.7-2.8-1.3-4.2-2l-6.9-3.6a183.25,183.25,0,0,1-15.8-10c-1.3-.9-2.5-1.8-3.8-2.8,3.9,3-.2-.2-.9-.8-2-1.6-4-3.3-5.9-5.1a184.11,184.11,0,0,1-13.2-13.3c-2.1-2.3-4.1-4.8-6-7.2,3.1,3.9-1.7-2.4-2.5-3.5a162.38,162.38,0,0,1-9.9-15.9c-.8-1.4-1.5-2.9-2.3-4.4-2.6-4.7,1.1,3.7-.7-1.5q-1.35-4.05-2.4-8.1c-1.1-4.8-.5,3.6,0-1.2v-1.6c.2-2.3.1-2.1-.1.6l.4-1.5c.7-2.1.7-2-.1.3l.8-1.3c-1.6,1.9-1.7,2-.2.4,2.3-2.3,4.6-4.4,7.1-6.5,1.1-.9,2.3-1.8,3.4-2.7,2.6-2.2-3.7,2.7.8-.6,5.6-4.1,11.3-8.1,17.3-11.7,5.4-3.3,11-6.4,16.8-9.2,3.1-1.5,6.3-3,9.5-4.4-3.7,1.6-.1,0,.8-.3,1.9-.8,3.8-1.5,5.8-2.2,3.4-1.2,6.9-2,10.3-2.9-3.5.9-1.2,0-.1.1.8,0,6.4.4,1.6-.4a21.88,21.88,0,0,1,5,1.4c-4.4-1.6.5.6,1.1,1,1,.6,1.9,1.3,2.8,1.9-3.8-2.6,1.9,1.6,2.6,2.1,10.4,8.6,21.5,16.5,30.9,26.3,1.2,1.3,2.3,2.6,3.5,3.9,1.4,1.7,1.4,1.7,0-.2a24.26,24.26,0,0,1,1.4,2,86.45,86.45,0,0,1,5.4,9.3c-2.1-4.2.1.5.4,1.3.5,1.6.9,3.1,1.3,4.7,1.4,4.9.2-4,.2,1.1,0,1.9.6,4.6-.1,6.5,1.7-4.7-.2-.8-.4.5-.7,3.8,2-3-.1.5-.4.6-1.5,3.5-2.2,3.7,1.7-2.1,1.9-2.3.5-.6a18.88,18.88,0,0,1-2,2c-2.6,2.9.7-.3.8-.4a19.4,19.4,0,0,1-2.4,1.5c-2,1-1.6.9,1-.2a14.19,14.19,0,0,1-4,1.2q4.5-.45,1.2-.3a26.2,26.2,0,0,1-2.8-.1l20,20-.3-6.4c-.5-10.4-8.8-20.5-20-20-10.4.5-20.6,8.8-20,20l.3,6.4c.6,11.5,8.7,19.1,20,20,18,1.4,35.7-10.4,44-26,9.5-17.9,7.5-37.8-1-55.6-7.3-15.4-20-27.3-33.1-37.8-13.5-10.9-27.4-25.9-45.3-28.5-19.9-2.9-38.8,5.4-56.3,14a236.59,236.59,0,0,0-43,27.6c-6.6,5.3-13.1,10.8-17.6,18.2-6,10-6.7,21.3-5,32.5,2.4,15.5,11.5,30.5,20.5,43.1,21.4,29.8,49.6,51.8,83.2,65.9,9.7,4.1,22.4-4.4,24.6-14,2.8-11.8-3.4-20.3-13.8-24.7Z" transform="translate(-139.58 -12.94)"/><path class="cls-3" d="M755.1,418.71c-5.7-1.8-11.3-3.8-16.9-5.9-2.6-1-5.3-2.1-7.9-3.1,2,.8.9.4-.4-.2-1.7-.8-3.5-1.5-5.2-2.3-8.8-4-22.8-3.5-27.4,7.2-5.8,13.6-7.7,26.8-5.3,41.5,2.1,12.7,8.4,24.3,17,33.9v-28.4a13,13,0,0,1,11.5-3.4c-10.1-2.5-22.2,3.3-24.6,14-2.4,10.3,3.1,21.9,14,24.6,10.5,2.6,19.3-.3,27.5-6.9,8.7-7.1,6.6-20.9,0-28.3-.7-.7-1.3-1.5-1.9-2.2,1.6,2.1,1.8,2.3.5.5-1-1.7-2-3.4-2.9-5.1-.9-2-.9-1.8.3.7-.3-.9-.7-1.9-1-2.8a54.5,54.5,0,0,1-1.4-5.8c-.4-2.2-.3-1.9.1.9-.1-1-.1-2-.2-3,0-1.2-.6-4.9.2-5.9-.4,2.9-.5,3.2-.1.9.2-1,.4-1.9.6-2.9s2.5-7.2.4-2.2l-27.4,7.2a359.93,359.93,0,0,0,40,15.6c10,3.2,22.3-3.7,24.6-14a20.57,20.57,0,0,0-14.1-24.6Z" transform="translate(-139.58 -12.94)"/><path class="cls-3" d="M793.65,382.81a469.59,469.59,0,0,1-52.7-51.9c-3.9-4.5-7.7-9.1-11.4-13.7l-2.8-3.5c-3.5-4.5,1.4,1.9-.7-.9-1.9-2.6-4-5.2-5.8-7.8-.3-.4-2.5-4.4-2.7-4.4.7,0,1.2,3.9,1.2,3.7.1,1.7-2.5,5.7-.4,2.8.6-.8,2.3-2.6-.3.1a79.34,79.34,0,0,1,5.8-5.8l3.1-2.8c.7-.6,5.4-4.4,1.8-1.6a115.27,115.27,0,0,1,13.9-9.2c2.4-1.4,4.9-2.7,7.4-3.9,1-.5,2-1,3-1.4,2.1-.9,2-.9-.2,0,.8-.3,1.5-.6,2.3-.9,2.3-.9,4.7-1.8,7.1-2.5,1.6-.5,3.3-1,5-1.5,4.2-1.3.7.1.1-.2-1-.4-5.1-2.6-1.9-.2.9.7,1.9,1.3,2.8,2,4.9,3.4-2.9-2.4,1.7,1.3l4.3,3.4a266.85,266.85,0,0,1,27.7,26.5c1.9,2.1,3.8,4.3,5.6,6.5.7.9,1.4,1.8,2.1,2.6-2.5-3.1-.2-.2.4.7,1.6,2.3,3.2,4.6,4.6,7.1.7,1.2,1.3,2.5,2,3.7,2.3,3.9-.6-2.6.6,1.4.3.8,1.8,8.7,2.4,9-1-.4-.4-4.1-.2-.1.1,1.8,0,3.5,0,5.3-.1,4.2.2-.8.1-.9.3.5-1,5.3-1.5,5.7,0,0,2.3-4.3.3-.7-.6,1.1-1.3,3-2.3,3.8,5-3.8-1.3-.2-.6.2,2.2-1.6,2.6-1.9,1.4-1.1a9.91,9.91,0,0,1-1.7,1.1l-1.2.6c-2,.9-1.6.8,1.1-.4,0,.4-3.9.9-3.9,1-.1-1,5,.1.7-.2-5.1-.4,3.3,1.4-.5.1-.8-.2-1.7-.5-2.5-.7,2.8,1.2,3.2,1.4,1.3.3s-1.5-.9.9.8c-7.9-6.9-20.6-8.3-28.3,0-6.9,7.5-8.4,21,0,28.3,14.3,12.5,32.5,14,49.6,6.3,15-6.8,24.3-22.5,26.4-38.4,4.6-34.1-19-61.7-42-83.7-5.5-5.3-11.2-10.3-17.2-15.1-7.3-5.9-14.9-13-24.4-15-16.9-3.7-37,6.1-51.4,14.1-13.5,7.5-27.2,17.4-36.7,29.8-6.7,8.7-10.3,19.6-7.4,30.6,2.2,8.3,7.7,14.9,12.8,21.6a488.84,488.84,0,0,0,72.7,76.7c8,6.7,20.5,8.4,28.3,0,7-7.8,8.8-21.4.2-28.6Z" transform="translate(-139.58 -12.94)"/><path class="cls-3" d="M836.15,279.71c-6.2-3.7-12.2-7.6-18.1-11.8-1.6-1.1-3.1-2.3-4.7-3.5-1.8-1.3.5.4.8.6l-2-1.6c-2.8-2.2-5.6-4.5-8.3-6.9a240.61,240.61,0,0,1-30.5-31.7l-1.6-1.9c-.2-.3-1.9-2.5-.5-.6s-.3-.4-.5-.6c-.7-.9-1.3-1.8-2-2.7-2.1-2.9-4.2-5.9-6.2-8.9s-3.6-6.1-5.5-9.2c.2.3,1,3.2.4,1-.2-.8-.5-1.6-.7-2.3s-.1-2.8-.2-.5c-.1,3.6,0-3.1,0,.6,0,2.4-.1.3.2-.4.3-1,.6-2,1-3-1.1,3.3,0,.5.9-1s3-3.7.7-1.3c1.5-1.6,2.8-3.2,4.4-4.7,1.1-1.1,2.3-2,3.4-3.1,2.8-2.5-2.4,1.5.8-.6a92.28,92.28,0,0,1,9.1-5.6c1.4-.7,2.7-1.4,4.1-2,3.5-1.6-2.8.9.9-.3a98.26,98.26,0,0,1,10.2-3l4.5-.9c3.7-.7-3.7.3,1.5-.1a81.8,81.8,0,0,1,9.9-.2c.8,0,6.4.4,3.4.2-2.8-.2,1.8.3,2.6.5,1.5.3,9,1.3,9.7,2.7-.3-.7-3-1.6-.5-.1.7.4,1.4.7,2,1.1s1.3.8,2,1.3c-.5-.4-2.1-2.2-1-.6a9.76,9.76,0,0,0,1.7,1.8c-.2-.2-1.9-2.6-.6-.8,1.6,2.3,3.3,4.5,5,6.7,5.7,7.3,12.7,12.8,20.2,18.2l4.2,3,2,1.5c-.2-.1-2.5-2.1-.8-.6,3,2.4,5.9,4.9,8.8,7.4a164.3,164.3,0,0,1,14.8,15.3c1.3,1.5,2.5,3,3.7,4.4,2.4,3-1.4-1.9.9,1.2s4.4,6.2,6.5,9.5,4,6.5,5.8,9.9c1,1.9,2,3.9,3,5.8l1.2,2.4c1.2,2.5-.5-2.5,0,.2a25.82,25.82,0,0,0,.8,2.6c.6,2,.2,1.8.1-.1,0,.5-.3,3.1.1.7.2-1.5.1-1.4-.3.5l.8-1.9c.2.5-3.4,5.4-1.8,3.3,1.5-1.9-.2.1-.5.4a23.91,23.91,0,0,1-2.2,2.3,51.1,51.1,0,0,1-4.8,4.5,14.62,14.62,0,0,1-1.9,1.6c-.3.3-3.1,2.5-1.2,1s-.3.2-.6.4c-.9.6-1.8,1.3-2.7,1.9-1.8,1.2-3.7,2.4-5.6,3.5a90.23,90.23,0,0,1-10.3,5.2c4-1.7-1.2-.4-1.7.2,0,0,4.4-.6,2.3-.5-1.1,0-.8,0,1,.1,5.6.3,9.6,3.8,12.1,10.7-3.5-9.8-13.8-17.5-24.6-14-9.7,3.1-17.7,14.1-14,24.6,5.3,14.9,18.9,20.6,33.8,17.6,8.6-1.7,17.6-6.8,25-11.6,17.4-11.1,37.2-28.2,36.8-50.7-.2-11.7-5.7-22.5-11.3-32.5a189.16,189.16,0,0,0-15.1-22.6,200.49,200.49,0,0,0-40.8-39.4c-1.9-1.3-3.7-2.7-5.6-4-.7-.5-2.8-2.4,0,0-.7-.6-1.3-1.1-2-1.6-1.7-1.5-3.2-3.3-4.8-4.8s.3.5.5.8c-1-1.3-2-2.7-3-4.1-7.5-10.1-15.9-16.5-27.8-20.7-17.4-6.1-37.4-5.9-55.1-1.2s-35.1,14.5-47,28.3c-8,9.3-13.5,19.6-14.6,32-1,11.2,3.8,22,9.7,31.2a273.26,273.26,0,0,0,89.1,86c9,5.4,22.4,2.3,27.4-7.2,5.1-9.7,2.4-21.6-7.2-27.4Z" transform="translate(-139.58 -12.94)"/><path class="cls-3" d="M889.45,199.11c-1.8-.4-3.5-1-5.2-1.5-3.7-1.1,3.5,2-.1-.1-1.2-.6-2.3-1.2-3.5-1.9-.5-.3-5.2-2.9-2.4-1.4s-1.4-1.3-2.1-1.9a38.33,38.33,0,0,1-2.8-2.9c-.8-.8-2.2-2-2.6-3.1,1.7,2.3,2,2.5.7.8-.5-.8-1-1.5-1.5-2.3-1.4-2.2-2.2-5.2-3.8-7.2,1.1,2.7,1.3,3,.5,1-.2-.6-.5-1.3-.7-1.9a34.71,34.71,0,0,1-1.3-4.6c-.3-1.3-.6-2.7-.8-4-.9-4.3.1,3.9,0-.1-.1-3.2-.2-6.3,0-9.5.3-4.6-1,4.4.1-.3.4-1.6.7-3.3,1.2-4.9s1-3.2,1.5-4.8c1.5-4.6-2,3.7.2-.5a94.16,94.16,0,0,1,4.9-8.8,17.83,17.83,0,0,1,2.5-3.6c-3.4,2.9-.4.6.5-.5a81.56,81.56,0,0,1,7.1-7.3c1.1-1,2.2-1.9,3.3-2.9,3.4-2.9-2.8,1.8.6-.4,2.9-1.9,5.7-3.8,8.7-5.4,1.3-.7,2.6-1.4,3.9-2l2.7-1.2c-2.5,1.1-2.8,1.2-.7.4l-19.4-5.2c10.8,12.9,26.7,17.9,40.8,26.3,1.4.9,4,2,5,3.3-1.8-1.5-2.2-1.8-1.1-.9.6.5,1.2,1,1.7,1.4,2.5,2.2,7,5.4,8.3,8.6-1.8-4.1-.3-.4.5.7,1.1,1.6,2.2,3.3,3.2,5.1s1.8,3.5,2.8,5.3c1.9,3.6-1.2-3.4.6,1.4a66.42,66.42,0,0,1,3,10.8c.2,1,.3,2,.5,2.9-.3-2.6-.4-3.1-.3-1.6,0,1.7.3,3.5.3,5.2,0,2,0,4-.2,6l-.3,3c.4-2.9.4-3.1,0-.9a88.45,88.45,0,0,1-2.7,10.1c-.3.9-.7,1.9-1,2.8,1.1-2.5,1.2-2.7.2-.6-.7,1.3-1.3,2.7-2,4-1,1.8-2,3.5-3.1,5.1-.7,1-3.5,6.5-1.3,2-1.3,2.7-5,5.6-7.2,7.6-.7.7-1.5,1.3-2.3,2-1.7,1.4-1.5,1.3.5-.4-1.1,1.4-3.5,2.4-5,3.3l27.4,7.2-5.6-7.7c-6.1-8.4-17.7-13.4-27.4-7.2-8.4,5.4-13.8,18.3-7.2,27.4l5.6,7.7c6.2,8.6,17.4,13.3,27.4,7.2,26.5-16.3,43.8-45.7,44.1-77,.3-30.9-16.5-60.6-42.4-77.2-6.2-4-13-6.9-19.6-10.3a103.6,103.6,0,0,1-9.2-5.2,14.65,14.65,0,0,1-2.4-1.7c1,1,2.3,2,.6.3-1.4-1.4-2.8-2.8-4.1-4.3-4.1-4.9-13.4-7.5-19.5-5.1-34.8,13.5-62.4,42.6-65.9,80.9-3.2,34.5,20.8,71.1,55,79.2,10.2,2.4,22.1-3.2,24.6-14,2.5-10.3-2.9-22-13.8-24.7Z" transform="translate(-139.58 -12.94)"/><path class="cls-3" d="M962.35,69.21l-21.5,26c-6.7,8.1-8.5,20.5,0,28.3,7.4,6.8,21.2,8.6,28.3,0l21.5-26c6.7-8.1,8.5-20.5,0-28.3-7.4-6.8-21.2-8.6-28.3,0Z" transform="translate(-139.58 -12.94)"/><path class="cls-3" d="M777.45,749.41a319.79,319.79,0,0,0,63.9-71.9c5.7-8.8,2-22.5-7.2-27.4-10-5.3-21.2-2.2-27.4,7.2q-6.15,9.45-12.9,18.3c2.6-3.4-.6.7-1.1,1.4l-3.8,4.7c-2.4,2.9-4.8,5.7-7.3,8.5a305.09,305.09,0,0,1-32.4,30.9c-8.1,6.7-7.4,21.5,0,28.3,8.5,7.9,19.6,7.1,28.2,0Z" transform="translate(-139.58 -12.94)"/><path class="cls-3" d="M889.15,655.81l-4.8-1.8c-.8-.3-1.6-.6-2.3-.9-2.8-1,2.9,1.3.1.1-3.3-1.5-6.7-3-9.9-4.6a199.44,199.44,0,0,1-19-11q-4.65-3-9-6.3l-2-1.5c.2.2,2.5,2,.7.5-1.5-1.3-3.1-2.5-4.6-3.8a173.12,173.12,0,0,1-15.8-15.1c-1.1-1.2-2.2-2.5-3.3-3.7-.6-.7-2.2-3,0,.1a24.26,24.26,0,0,1-1.4-2c-.9-1.4-1.8-2.8-2.6-4.2-.4-.7-.8-1.4-1.2-2.2-1-2-.3-1.3.1.3-.4-1.6-.9-3.2-1.4-4.7-.8-3.2-.2.4,0,.5a9.66,9.66,0,0,1-.1-2.4c0-.8.1-5.5,0-2.8-.1,2.5,0,.1.1-.5.2-1,.4-2,.7-3.1a39.56,39.56,0,0,1,1.5-4.5c.3-1,1.7-3.1-.1.3.4-.7.7-1.5,1.1-2.2,1.7-3.2,3.5-6.3,5.5-9.3.9-1.4,1.9-2.8,2.9-4.2,2.2-3.1.4-.6,0,0,.5-.7,1.1-1.3,1.6-2,2.3-2.8,4.6-5.6,7-8.3a167.68,167.68,0,0,1,14.4-14.8c1.3-1.1,3.7-2.8.8-.8,1.5-1,2.9-2.1,4.5-3,1.3-.8,2.7-1.4,4-2.2,2-1.3-1.3.8-1.4.5a23.07,23.07,0,0,1,2.8-1c.7-.2,1.4-.4,2.2-.6s3.8-.2,1-.3,1.8.2,2.6.1c2.4-.2-1.3-.2-1.2-.3.5-.2,1.9.4,2.4.5,1.5.4,5.6,2.2,2.2.5a111.81,111.81,0,0,1,18.4,12l19.4,14.9,2.2,1.7,1.6,1.2c-1.8-1.4.5.4.7.5l2,1.6c2.9,2.3,5.8,4.7,8.7,7.1s5.6,5,8.2,7.6c1.2,1.2,2.4,2.5,3.5,3.8.9,1,3.7,5,1.7,2a103,103,0,0,1,5.5,9,21.4,21.4,0,0,1,1,2.2c-.1-.3-1.1-3.2-.5-1,.5,1.8,1.2,3.5,1.7,5.4.3,1,.5,2.1.7,3.1.3-.2-.3-4-.1-.6.1,1.8.1,3.7.1,5.5,0,.4.1,2.1-.2,2.3.5-.5.8-3.6-.1-.7-.2.8-.4,1.5-.6,2.3-1.3,4.3,0,.1.1.1s-2.3,4.1-2.5,4.5c-.1.1-1.2,1.9-1.2,1.8s2.6-3,.4-.6c-1.2,1.3-2.4,2.6-3.6,3.8-.7.7-1.5,1.4-2.2,2-.4.3-3,2.4-.9.8s-.1,0-.4.3c-.8.6-1.7,1.2-2.5,1.7-1.5,1-3,1.9-4.5,2.8-3.4,2-7,3.8-10.5,5.6,3.3-1.7-1.1.4-2.4.8-1,.3-4.8,2-5.7,1.5,0,0,5-.1.4-.1-.4,0-3.1.3-3.2,0s3.8,1.2,1.4.1c-.9-.4-4.3-1.9-.5,0-9.3-4.7-22.1-2.8-27.4,7.2-4.8,9.1-2.8,22.4,7.2,27.4,20.9,10.5,42.8,3.3,61.7-8.2,16.2-9.8,31.3-24.1,35.9-43.1,4.8-19.8-1-41.4-13.1-57.5-12.4-16.5-28.7-28.3-44.9-40.8-14.4-11.2-29.5-25.8-48-29.6-21.8-4.5-41,4.7-56.8,19.2-13,12-25.7,26.8-34.3,42.2-10.8,19.3-13.5,40.5-4,60.9,8.9,19.4,27.8,34.6,44.5,47.1s35.5,21.9,55.1,29c9.9,3.6,22.3-4,24.6-14,2-10.8-4-20.3-14.7-24.1Z" transform="translate(-139.58 -12.94)"/><path class="cls-3" d="M979.25,584.91Q958,559.26,937.45,533c-1.6-2-3.2-4-4.8-6.1-2-2.6,1.6,2.1-.4-.5-1-1.3-2-2.5-2.9-3.8-3.3-4.3-6.7-8.7-10-13.1s-6.6-8.8-9.8-13.1-7.4-8.9-9.7-13.9l2.7,10.1c-5.5,9.1-6.7,12-3.5,8.6.8-.8,1.6-1.5,2.4-2.2,1.7-1.5,3.4-3,5.1-4.4-3.6,2.8,2.2-1.3,2.8-1.8,1.4-.9,2.9-1.6,4.3-2.4,2.1-1,2-1-.3.1,1-.4,2-.7,3-1,2.3-.5,2-.5-.8-.1,1-.1,2-.1,3-.1,2.3.2,2,.1-.8-.1q2.7.9.6,0c-1.4-.6-1.2-.5.5.3,1.9,1.2,1.8,1.1-.1-.4,6.9,5.4,12.3,13.3,18,20l19.3,22.9,19.3,22.8c2.9,3.5,5.9,6.9,8.8,10.4.7.8,1.4,1.7,2.1,2.5-1.5-1.9-1.5-2-.2-.1,1.1,1.8,2.6,3.5,3.2,5.5-1.5-5,0,.5-.1,1.2-.3-2.8-.5-3.1-.4-.9-.2,2.3-.1,1.8.2-1.3a25.82,25.82,0,0,1-.8,2.6c1.2-2.7,1.3-3,.3-1.1a17.61,17.61,0,0,1-1.4,2.3c-1.2,1.8-1.1,1.5.6-.7-.8-.2-6.2,6.5-7.4,7.1,4.5-2.2-.9.6-2,1.3-1.6,1.1-3.2,2.2-4.9,3.2-8.8,5.6-13.2,18-7.2,27.4,5.7,8.8,17.9,13.2,27.4,7.2,11-7,21.8-15.2,28.8-26.5,8.5-13.9,8-30.9-.1-44.9-7.2-12.4-18.4-23.3-27.6-34.2l-28.1-33.4c-8.8-10.5-17.3-22.9-30.1-28.8-15.7-7.2-32.8-4.3-47.1,4.6-14.9,9.3-34.2,24.7-24,44.4,2.8,5.5,7.2,10.4,10.9,15.4,4.4,6,8.9,11.9,13.4,17.8q29.85,39.3,61.5,77.4c6.7,8.1,21.4,7.5,28.3,0,7.7-8.6,7-19.7-.2-28.3Z" transform="translate(-139.58 -12.94)"/><path class="cls-3" d="M1021.75,573.11c6.9-5,11.3-11.1,11.5-19.8.2-7.7-3.6-14.1-8.1-19.9-5.2-6.7-10.7-13.1-16.4-19.3a314.8,314.8,0,0,0-41-36.4c-3.1-2.3-6.2-4.5-9.4-6.8l-2.3-1.7c-2.5-1.8.6.4.6.5s-4.1-3.6-4.4-3.8c-1.2-1.1-2.3-2.4-3.5-3.6-1.5-1.5,1,1.1,1,1.3a10.71,10.71,0,0,0-1.5-2.2,9,9,0,0,1-1.2-2.4c-.2.2,1.9,3.5.9,1.7-.3-.5-1-3.8-.2-.6,1,4.1-.1-2.5,0,1.1.1,2.8.3-.4.5-1.2.4-2.1-.2.6-.4,1,1.2-1.9,2.2-3.9,3.5-5.7,2.7-3.9,5.5-7.8,8.3-11.6,5.6-7.8,11.2-15.6,16.8-23.5,2.8-3.8,5.5-7.7,8.3-11.5,1.2-1.6,2.3-3.2,3.5-4.7-2.4,3.1,1.3-1.4,2.2-2.5a107,107,0,0,1,8.2-8.3c.8-.7,3-1.9-.1,0a14.29,14.29,0,0,0,2-1.4,54.9,54.9,0,0,1,6.3-3.4c-3.5,1.7.4,0,2-.5.8-.2,4.9-1.7,5.5-1.3,0,0-3.8.3-1.3.2,1.1-.1,2.1-.2,3.2-.2,2.2-.1,4.3.1,6.4.1,2.5,0-1.4-.2-1.3-.2.4-.2,2.5.5,3.2.6,1.8.4,3.6,1.1,5.4,1.6,2.8.6-2.9-1.5-.5-.3a12.44,12.44,0,0,1,2,1,53.86,53.86,0,0,1,5.2,3,13.79,13.79,0,0,1,2.5,1.7c-.3-.4-3.4-2.9-.5-.4,1.3,1.1,2.6,2.3,3.9,3.5,2.8,2.6,5.2,5.5,7.7,8.3.7.8,2.6,2.4-.3-.4a22,22,0,0,1,1.4,1.8c1.1,1.5,2.1,2.9,3.1,4.4,2.3,3.4,4.5,6.8,6.7,10.3a248.72,248.72,0,0,1,12.6,21.9c.5,1,2.6,6,1.3,2.6.7,1.9,1.5,3.9,2.1,5.9s1.2,4,1.6,6a18.57,18.57,0,0,1,.6,3.4c-.2-2.7-.3-2.1-.2.3.1,2.1.1,4.3,0,6.4a19.42,19.42,0,0,1-.2,2.4c-.4,5,.7-2.5,0,.2-1.2,4.5-2.2,8.8-3.8,13.1,1.4-3.9-.6,1.1-1.4,2.5a63.17,63.17,0,0,1-3.3,5.6c-.7,1.1-4.4,5.6-1.6,2.5-1.6,1.8-3.1,3.6-4.8,5.4-1.5,1.5-3.1,3-4.7,4.4-.8.7-1.6,1.4-2.5,2.1-2.2,1.9,2.7-1.7.2-.2-3.9,2.4-7.5,5-11.6,7.1-1.9,1-3.9,1.9-5.8,2.8,3.9-1.8-1.3.5-2.7,1a132,132,0,0,1-14,4c-10.2,2.3-17.2,14.7-14,24.6a20.44,20.44,0,0,0,24.6,14c38.2-8.6,74-35.4,83.1-75,5.1-21.9.8-42.8-9.3-62.6-8.4-16.4-18.8-32.8-30.9-46.8-13.3-15.4-31-25.7-51.3-27.9-21.1-2.3-42,5.7-57.2,20.1-7.3,6.9-13.3,15.3-19.1,23.4-6.1,8.5-12.2,16.9-18.3,25.5-5.9,8.2-13,16.3-17.4,25.4-5.9,12.2-6.4,24.7-.6,37,4.7,10.1,13.3,17.3,21.9,23.9,3.7,2.8,7.6,5.5,11.3,8.3.9.7,1.9,1.4,2.8,2.1,1.8,1.4-2.1-1.7.8.6,2,1.7,4.1,3.3,6.1,5a273.45,273.45,0,0,1,22.9,21.5q5.4,5.7,10.5,11.7c1.7,2,3.4,4,5,6a28.77,28.77,0,0,0,2.2,2.7c-3.7-4-3.4-10.3-.5-15.2l7.2-7.2-.9.7c-8.4,6.2-13.4,17.7-7.2,27.4,5,8.1,18,13.5,27.1,6.9Z" transform="translate(-139.58 -12.94)"/><path class="cls-3" d="M1104.9,407.51a269.66,269.66,0,0,0-36.8-45.1,255.38,255.38,0,0,0-19.9-17.6c-4.6-3.6-9.2-7.2-14-10.6-1.8-1.3-3.6-2.5-5.5-3.8l-2.8-1.8c-5.4-3.5,1.7-.7,4.1,7.1v10.7c-3.8,5.3-4.4,6.4-1.8,3.6l2.6-2.8,5.3-5.6,10.6-11.1c1.8-1.9,3.5-3.7,5.3-5.5.7-.8,1.5-1.5,2.2-2.3,1.7-1.5,1.6-1.4-.3.2-.8.4-8.2,2.4-8.3.3a16.65,16.65,0,0,1,2.8,1.8c-2-1.5-1.9-1.5,0,0,14.9,11.9,30.2,23.4,44.7,35.9a170.91,170.91,0,0,1,18.2,17.9c.7.8,1.4,1.7,2.1,2.5-1.5-1.9-1.5-1.9-.2-.1a64.89,64.89,0,0,1,3.6,5.5c1.1,1.9,2.1,3.8,3.2,5.7s.9,2-.1-.3a28.11,28.11,0,0,1,1,3.1c.5,2.3.5,2.1.1-.6a16.05,16.05,0,0,1,0,3.1,6.29,6.29,0,0,1,1-4.2c-1.2,1.9-1,1.7.6-.5-1.6,1.5-1.4,1.4.7-.3a13.5,13.5,0,0,1-2.6,1.5c-2,1-1.8.9.6-.1-.9.4-1.9.7-2.8,1-2.4.8-4.8,1.4-7.3,2-.8.2-8.3,1.3-4,.8a84.51,84.51,0,0,1-15.1.2c-10.5-.7-20.5,9.7-20,20,.5,11.4,8.8,19.3,20,20,15.9,1,33-1.5,47.4-8.7,16.7-8.3,24.1-25.5,20.3-43.4-3-14.3-12.9-27.4-22.4-38-8.1-9-17.5-16.8-26.9-24.4q-16.8-13.5-33.8-26.9c-7-5.5-13.7-10.9-22.8-12.2-10.9-1.5-20,2.5-27.9,9.9-5,4.6-9.4,9.9-14.1,14.8-5.7,6-13.1,12-17.3,19.1-6.5,10.8-3.7,23.7,6.1,31.3,5.4,4.1,11.3,7.6,16.7,11.7.5.4,4.9,3.8,1.3.9l4.5,3.6c2.8,2.3,5.5,4.6,8.2,7,4.9,4.4,9.7,9.1,14.3,13.9,5,5.2,9.6,10.7,14.2,16.3,3.5,4.3-2.3-3.2,1,1.2,1,1.3,2,2.7,3,4q3.45,4.65,6.6,9.6c5.8,8.7,18,13.2,27.4,7.2,8.6-5.7,13.2-18.1,7-27.5Z" transform="translate(-139.58 -12.94)"/><path class="cls-3" d="M1152,350.64a242.14,242.14,0,0,1-21.34-13.09c-1.51-1.11-3.12-2.11-4.63-3.22-.71-.5-6-4.63-2.42-1.71-3.42-2.62-6.74-5.44-10-8.26-6-5.33-11.88-11-17.42-16.91-2.71-2.92-5.43-5.94-8-9.06-1.21-1.41-2.42-2.92-3.52-4.43-.51-.7-2.32-3,.2.31-.81-1.11-1.61-2.12-2.42-3.23a237.51,237.51,0,0,1-13.18-20.23c-.91-1.61-1.92-3.22-2.82-4.93-.51-.91-1-1.91-1.51-2.92,1.71,3.62.6,1.31.4.3a8.72,8.72,0,0,1,.2,4.53c-.1.3-1.81,3-.5,1.31,1.41-1.91,2.61-4,4-6,2.42-3.42,4.94-6.74,7.55-10.07-2.21,2.82-.3.31.21-.2.7-.9,1.51-1.91,2.21-2.82,1.51-1.91,3-3.72,4.53-5.53,5.94-7.15,12.08-14.1,18.42-20.94s13-13.29,19.73-19.63c3-2.82,5.94-5.44,9.06-8.05-3.32,2.72,2-1.11,2.82-1.61.3-.2,2.82-1.41.6-.41-2.41,1.11,1.92-.5,2.42-.7,1.11-.3,2.21-.5,3.42-.71-.8.11-4.13.31-.2.11l6.14-.31c4.53-.1,9.16-.2,13.69-.1a57.61,57.61,0,0,1,5.94.3,19.77,19.77,0,0,1,3.42.31c-.6-.2-4.23-.81-.3,0a57.14,57.14,0,0,1,5.74,1.41,22.66,22.66,0,0,1,2.41.8c4.73,1.61-2.92-1.91,1.31.71a24.19,24.19,0,0,1,2.12,1.3c.5.31,3.22,2.52,1.3.81s.31.3.51.5c.8.81,1.61,1.51,2.41,2.32,1.51,1.61,3,3.32,4.43,4.93.2.3,1.92,2.42.51.61-1.61-2.12,1.1,1.61,1.41,2,5.93,8.15,11.67,16.31,17.61,24.46,5.44,7.55,11.38,15,16.11,22.95.6,1,1.1,2,1.71,3,.3.5,1.61,3.83.8,1.51s.1.5.21.81,1,2.71.8,3.22c.1-.2-.2-4.94-.1-.71v2.32c0,.8-.2,4.12.1,1.21s-.3,1.2-.5,1.91c-.3,1-.61,2-.91,3-.7,2.31.2,1,.3-.41-.2,1.92-2.51,4.94-3.42,6.45l-1.81,2.72c-.5.7-2.92,3.72-.3.6-1.41,1.71-2.82,3.42-4.43,5a117.41,117.41,0,0,1-10.27,9.67c-.91.7-1.81,1.51-2.72,2.21-1.31,1-3,2.32-.8.6-1.92,1.41-3.73,2.82-5.64,4.13a203,203,0,0,1-26.27,15.6l-6.34,3-3.23,1.41c-2.11,1,2.72-1-.8.31-4.93,1.81-9.87,3.62-14.8,5.23-10.06,3.12-17.51,14.19-14.09,24.76,3.22,10.07,14,17.52,24.76,14.1A227.14,227.14,0,0,0,1215,339.56c17.62-11.87,35.84-26.27,45.6-45.7,5.24-10.37,8.66-21.94,7.25-33.62-1.51-12.38-6.64-22.85-13.79-32.92-6.64-9.36-13.39-18.62-20.13-28s-13-19.13-20.94-27.28c-17.41-17.72-40.67-20.63-64.32-20-12.28.3-24.46,1.51-35.33,7.55-9.77,5.33-18,13.89-26,21.54a441.63,441.63,0,0,0-41.37,46.2c-7.25,9.27-16.41,19-19.43,30.71-3.62,13.38,3.23,25.67,10,36.74a252.68,252.68,0,0,0,95.13,90.8c9.26,5,22.34,2.61,27.58-7.25,4.93-9.36,2.61-22.15-7.25-27.58Z" transform="translate(-139.58 -12.94)"/><path class="cls-3" d="M1239.65,205.31l17.1-25.8c5.8-8.7,2-22.5-7.2-27.4-10-5.3-21.2-2.1-27.4,7.2l-17.1,25.8c-5.8,8.7-2,22.5,7.2,27.4C1222.25,217.81,1233.45,214.71,1239.65,205.31Z" transform="translate(-139.58 -12.94)"/></g></svg>