<svg id="レイヤー_1" data-name="レイヤー 1" xmlns="http://www.w3.org/2000/svg" viewBox="0 0 859.64 697.2"><defs><style>.cls-1{fill:#eee;}</style></defs><title>sinsen</title><path class="cls-1" d="M716.1,309.21a242,242,0,0,1,10.71-31.11l-3,7.16A251,251,0,0,1,742,250.54q5.16-8.16,10.88-15.92c.84-1.13,1.83-2.23,2.58-3.42,0,.07-4.92,6.25-2.06,2.69l1.34-1.68q3.15-3.9,6.43-7.67a270.9,270.9,0,0,1,27.91-27.76c2.35-2,4.75-4,7.17-6,1-.78,5.19-4.06.91-.75s.91-.65,2.12-1.55q7.8-5.73,16-10.91A275.23,275.23,0,0,1,854.6,157l-7.17,3a259.9,259.9,0,0,1,64.5-17.87l-8,1.07a233.12,233.12,0,0,1,60.58-.38l-8-1.07A156.13,156.13,0,0,1,996,152.08l-7.16-3a112.05,112.05,0,0,1,17.1,9.11c1.36.89,2.67,1.84,4,2.77,4.91,3.47-5.48-4.66-1-.67,2.32,2,4.61,4.1,6.77,6.32,2,2,4.68,4.42,6.09,6.92l-2.81-3.65q.93,1.23,1.8,2.49c.89,1.25,1.74,2.53,2.57,3.83a115,115,0,0,1,8.61,16.37l-3-7.17a134.59,134.59,0,0,1,9,32.95l-1.08-8a159.59,159.59,0,0,1-.15,41.14l1.07-8c-3.06,22.62-10,44.37-18.81,65.38l3-7.16a497.56,497.56,0,0,1-45.51,83.46q-6.6,9.85-13.6,19.44-3.51,4.81-7.09,9.54c-.72,1-5,6.54-1.78,2.37,3.08-4-1.06,1.33-1.84,2.33q-15,19.09-31.25,37.23c-21.24,23.91-43.69,46.72-66.64,69-22.75,22.09-45.7,44.13-69.84,64.71q-5.16,4.41-10.42,8.7c-1.75,1.42-3.51,2.84-5.28,4.24l-2,1.57c-4.07,3.23,4.32-3.28,1.4-1.06-7,5.25-14,10.37-21.21,15.2a288.65,288.65,0,0,1-46.73,25.67l7.16-3q-10.83,4.51-22,8l29.14,7.67q4.77,7.17,2.79,3.25l3,7.16a9,9,0,0,1-.51-2.23l1.07,8a9.91,9.91,0,0,1,.08-2.31l-1.07,8a9.39,9.39,0,0,1,.66-2.21l-3,7.16q3.71-6.63-7.81,7.35c10.52-7.56,18.12-20.48,13.78-33.88a35.55,35.55,0,0,0-7.71-13.29c-5.61-6.11-13.39-7.93-21.21-8.78q-5.61-.62-11.23-1.36l8,1.07a426.79,426.79,0,0,1-107.14-29.46l7.16,3a437.8,437.8,0,0,1-56-28.7q-13.11-8-25.62-16.89c-4-2.81-7.75-5.84-11.7-8.64,8.21,5.82.13.07-1.55-1.29-2.1-1.68-4.18-3.39-6.25-5.11A411.49,411.49,0,0,1,445,503.52q-4.89-5.55-9.56-11.28c-1.73-2.12-3.42-4.26-5.13-6.41-1.15-1.45-3.25-4.47,1.68,2.18l-3-3.93q-9.34-12.49-17.72-25.67a433.2,433.2,0,0,1-33.48-64l3,7.17a431,431,0,0,1-29.39-107.41l1.07,8c-3.84-28.78-5.12-58.07-1.29-86.92l-1.07,8a189.1,189.1,0,0,1,12.51-47.1l-3,7.16a140.8,140.8,0,0,1,11.71-21.9c1.15-1.74,2.36-3.43,3.57-5.12,2.51-3.53-1.88,2.07-1.84,2.34,0-.42,1.68-2.07,2-2.43a119.14,119.14,0,0,1,8.24-8.86c2.61-2.53,5.39-4.85,8.17-7.19s-5.7,4.22-2.87,2.21c.74-.52,1.45-1.07,2.18-1.59q2.21-1.56,4.47-3a129.22,129.22,0,0,1,19.62-10.32l-7.17,3a150.84,150.84,0,0,1,36.71-9.88l-8,1.07a179.4,179.4,0,0,1,47.27.14l-8-1.08a192.82,192.82,0,0,1,47.4,12.92l-7.16-3a204.59,204.59,0,0,1,35.93,19.93c3.07,2.11,6,4.33,9.06,6.53,2.58,1.88-3.31-2.46-2.92-2.27a11.24,11.24,0,0,1,1.88,1.48c1.66,1.33,3.31,2.67,4.94,4q8.58,7.17,16.53,15a347.89,347.89,0,0,1,29.43,32.92l1.5,1.9c2,2.52-2.49-3.19-2.21-2.87,1.24,1.38,2.3,3,3.42,4.51q3.64,4.88,7.16,9.84,6.36,9,12.34,18.15c9.3,14.27,18,28.91,26.44,43.71,7.77,13.64,27.54,19.47,41.05,10.76,13.78-8.89,19.07-26.45,10.76-41C670,180.83,618.36,108.78,539,75.78c-36-15-75.69-18.64-114-12.54a163.73,163.73,0,0,0-52.6,18.24c-18.95,10.4-34.49,25-47.49,42.05-26.05,34.26-35.1,79.07-36,121.28-.9,41.84,5.59,84.62,17.1,124.8,23.17,80.86,69,156,132,212,62.09,55.2,139.48,94,221.47,108.45,11.65,2.05,23.4,3.63,35.17,4.92l-15.15-55.91c-10.91,7.84-17.8,17.81-18.46,31.53-.52,10.92,3.75,20.71,11.11,28.59,7.07,7.56,19.31,10.75,29.19,7.71,42.61-13.11,79.58-37,114-64.85,31.47-25.47,60.68-53.91,89.55-82.25C963.69,502,1020.06,439,1058.32,365.38c21.47-41.34,39.47-86.73,40-133.95.47-42.5-15.41-88.37-49.34-115.58C1014.16,87.9,968.5,79.18,924.66,81.33c-38.69,1.91-75.78,12-110.7,28.58C746.58,141.91,692.9,200,666.1,269.4a239.19,239.19,0,0,0-7.76,23.83c-4.07,15.14,5.1,33.29,21,36.9s32.54-4.73,36.9-20.95Z" transform="translate(-263.75 -35.44)"/><path class="cls-1" d="M740.21,315.85a255.55,255.55,0,0,1,10.71-31.11c2.32-5.54.36-14.33-2.52-19.26-3-5.19-9-10.13-14.94-11.49-6.4-1.46-13.58-1.14-19.26,2.52-5.85,3.77-8.83,8.58-11.49,14.94l-3,7.16c-2.23,5.32-.5,14.58,2.52,19.27a25.89,25.89,0,0,0,11.95,10.23c10.32,4.35,26.28,1.2,31.22-10.23a258.48,258.48,0,0,1,14.32-28.34c2.56-4.36,5.27-8.65,8.09-12.85,1.62-2.39,3.4-4.69,5-7.12,2-3.1-2.64,3.45-.89,1s3.54-4.46,5.17-6.79c7.53-10.75,2.3-28.25-9-34.21-12.81-6.77-26.16-2.49-34.2,9,5.19-7.4,2.93-3.82,1-1.28-4.25,5.5-7.32,10.41-7.32,17.68,0,6.13,2.72,13.46,7.32,17.68,9.5,8.72,26.07,10.43,35.36,0,7-7.85,13.41-16.08,20.84-23.56a314.34,314.34,0,0,1,25.69-22.84c4.48-3.63,7.57-12.09,7.32-17.68a25.79,25.79,0,0,0-5.36-15.15c-6.94-9-22.21-13.87-32.25-6.44-2.91,2.15-5.83,4.35-8.61,6.66-9.57,7.93-8.94,23.78-2,32.82s22.17,13.82,32.25,6.44c18.55-13.57,37.93-25.26,59.09-34.33,5.13-2.2,10.3-9.7,11.49-15a25.86,25.86,0,0,0-1.26-16.27c-4.34-10.28-18-19.3-29.49-14.48l-7.17,3c-6.29,2.63-11.35,5.35-14.94,11.49-3.14,5.36-4.47,13.26-2.52,19.26s5.7,11.89,11.49,15c5.51,2.91,13.22,5,19.26,2.52a266.7,266.7,0,0,1,64.5-17.87c5.53-.81,12.42-6.72,14.94-11.49a25.78,25.78,0,0,0,3-15.94c-1.48-11-12.23-23.33-24.56-21.68l-8,1.07c-6.9.92-12.53,2.18-17.67,7.32-4.34,4.34-7.6,11.45-7.33,17.68.29,6.46,2.42,13.17,7.33,17.68,4.51,4.14,11.29,8.17,17.67,7.32a240.36,240.36,0,0,1,60.58-.38c5.92.71,13.66-3.31,17.68-7.32,4.34-4.34,7.6-11.45,7.32-17.68-.28-6.47-2.41-13.17-7.32-17.68-5.23-4.81-10.7-6.39-17.68-7.32l-8-1.07v50c-6.88-.91-.43,0,.72.21s2.44.44,3.65.69q5,1,10,2.32a162.77,162.77,0,0,1,18.5,6.23c5.63,2.25,14.26.4,19.26-2.52,5.19-3,10.13-9,11.49-14.95,1.46-6.4,1.14-13.58-2.52-19.26-3.77-5.85-8.58-8.82-14.94-11.49l-7.16-3c-5.32-2.23-14.58-.5-19.26,2.52a25.8,25.8,0,0,0-10.23,12c-4.37,10.34-1.19,26.24,10.23,31.22a119.4,119.4,0,0,1,14.86,7.69c4.54,2.8,8.3,6,13.56,7.59,10.22,3,23.15-1.88,28.23-11.49,5.59-10.58,3.41-21.28-3.91-30.3-3.51-4.33-9.47-7.18-14.52-9.11-9.23-3.51-20.71,1.75-26.28,9-6.66,8.61-6.06,18.2-2,27.77,1.61,3.75,5.59,6.56,8.5,9.27,1.49,1.39,2.94,2.83,4.37,4.27s5,6.84,1.14.83l43.17-25.24-2.81-3.65c-4.16-5.4-8.08-9.6-14.94-11.49-6-1.65-13.95-.9-19.26,2.52-10.41,6.71-17.26,22.94-9,34.21a117.78,117.78,0,0,1,13,22.69c2.24,5.13,9.65,10.28,14.94,11.49a25.9,25.9,0,0,0,16.28-1.26c10.28-4.34,19.29-18,14.47-29.5l-3-7.17c-2.63-6.29-5.35-11.35-11.49-14.94-5.36-3.13-13.25-4.46-19.26-2.52-11.64,3.77-22.75,17.79-17.46,30.75a142.63,142.63,0,0,1,9,33c.85,5.77,6.7,12.15,11.49,14.95,5.36,3.13,13.25,4.46,19.26,2.52s11.89-5.71,14.94-11.49c3.37-6.38,3.48-12.2,2.52-19.27l-1.08-8c-.74-5.5-6.77-12.44-11.49-14.94a25.77,25.77,0,0,0-15.94-3c-11.09,1.5-23.15,12.2-21.68,24.56a166.57,166.57,0,0,1-.15,41.14c-.74,5.88,3.34,13.69,7.33,17.68,4.33,4.33,11.45,7.6,17.67,7.32,6.47-.29,13.18-2.42,17.68-7.32,4.81-5.24,6.39-10.71,7.32-17.68l1.07-8c.76-5.62-3.29-14-7.32-17.68a25.7,25.7,0,0,0-14.35-6.88c-11-1.47-25.71,5.59-27.43,17.91-3.17,22.61-10,44.35-18.81,65.38-2.32,5.56-.37,14.34,2.52,19.27,3,5.18,9,10.13,14.94,11.49,6.4,1.45,13.58,1.14,19.26-2.52,5.85-3.78,8.83-8.58,11.49-14.95l3-7.16c2.23-5.32.5-14.58-2.52-19.26a25.89,25.89,0,0,0-12-10.23c-10.3-4.34-26.31-1.21-31.22,10.23-17.92,41.74-41.62,80.3-69.17,116.34-3.51,4.6-4.23,14-2.52,19.27a25.92,25.92,0,0,0,9,13c8.85,6.84,25.18,7.9,32.83-1.95,2.07-2.67,4.2-5.34,6.21-8.06,3.48-4.68,4.27-13.89,2.52-19.27a25.84,25.84,0,0,0-9-13c-9-6.92-25-7.79-32.83,1.95-44.82,56-95.49,107-148.56,155.22-13.31,12.1-27.22,23.37-41,34.94-9.51,8-9,23.73-1.95,32.83,7.47,9.66,21.47,12.89,32.25,6.44,4-2.41,9.86-7,12.11-11.4,4.93-9.58,4.51-22.57-3.91-30.3-7.58-7-21.23-10.61-30.29-3.91-21.66,16-43.81,30.49-68.55,41.33-5.13,2.25-10.29,9.65-11.49,14.94a25.83,25.83,0,0,0,1.26,16.28c4.33,10.28,18,19.3,29.49,14.48l7.16-3c6.29-2.64,11.35-5.35,14.94-11.49,3.14-5.36,4.47-13.26,2.52-19.27-3.75-11.59-17.81-22.81-30.75-17.46q-10.83,4.47-22,8c-10.14,3.2-18.86,12.93-18.36,24.11.49,10.94,7.4,21.22,18.36,24.11l29.14,7.67L692.9,669.4c3.47,5.19,6.84,10.27,12.32,13.6a25.11,25.11,0,0,0,25.24,0c6.91-4,13.39-13.14,12.38-21.59a36.9,36.9,0,0,0-4-14c-5.4-11.18-20.59-14.71-31.22-10.23-10.27,4.34-19.3,18-14.47,29.49l3,7.16c2.63,6.3,5.35,11.35,11.49,14.95,5.36,3.13,13.25,4.46,19.26,2.52,12.65-4.1,21.49-17.34,17.46-30.76a8.5,8.5,0,0,1-.51-2.23c-.88-5.55-6.65-12.38-11.49-14.94a25.77,25.77,0,0,0-15.94-3c-11,1.48-23.32,12.23-21.68,24.56l1.07,8c.93,6.91,2.19,12.53,7.33,17.68,4.33,4.33,11.45,7.6,17.67,7.32,13.25-.59,25.38-11,25-25a9.93,9.93,0,0,1,.08-2.31c1.26-13.06-12.39-25.57-25-25-6.46.29-13.17,2.41-17.67,7.32-4.81,5.24-6.39,10.7-7.33,17.68l-1.07,8c-.75,5.62,3.3,14,7.33,17.68a25.68,25.68,0,0,0,14.35,6.87c11.76,1.58,24.64-5.72,27.43-17.91a9.53,9.53,0,0,1,.66-2.21c4.55-12.28-5.07-27.93-17.46-30.75-6.4-1.46-13.58-1.14-19.26,2.52-5.85,3.77-8.83,8.58-11.49,14.94l-3,7.16c-2.23,5.32-.5,14.58,2.52,19.27a25.89,25.89,0,0,0,12,10.23c11.06,4.66,25.26.77,31.22-10.23,3.62-6.68,5.49-13.79,3.42-21.33a25.42,25.42,0,0,0-30.83-17.53c-8.81,2.39-14.17,9.27-19.66,15.91-8,9.7-10,22.36-2,32.83C697,715,712.3,720,722.31,712.54c10.24-7.65,18.26-16.18,23.28-28.07,5.49-13,5.12-27-.34-40-4.85-11.48-13-22.29-24.5-27.81-11.94-5.75-24.48-6.39-37.43-8.07-5.87-.77-13.7,3.34-17.67,7.32-4.34,4.34-7.6,11.45-7.33,17.68.29,6.46,2.42,13.17,7.33,17.68,5.23,4.8,10.7,6.39,17.67,7.32l8,1.07c5.63.75,14-3.29,17.68-7.32A25.72,25.72,0,0,0,715.88,638c1.48-11-5.59-25.69-17.91-27.43a433.25,433.25,0,0,1-107.14-29.46l-13.29,48.22,7.16,3c5.32,2.22,14.58.49,19.26-2.52a25.91,25.91,0,0,0,10.23-12c4.34-10.28,1.23-26.33-10.23-31.22a444.14,444.14,0,0,1-48-24c-15.8-9.15-30.5-19.61-45.29-30.26l-25.23,43.18c1.2.85,2.39,1.72,3.61,2.55,10.29,7,25.13,2.78,32.25-6.44,7-9,7.75-25-1.95-32.83-2.74-2.21-5.58-4.32-8.44-6.39-1.71-1.24-3.77-3.41,3.27,2.55-.82-.69-1.68-1.35-2.51-2q-2.59-2.12-5.16-4.28-12.45-10.47-24-21.93-11.25-11.12-21.61-23.06-5-5.78-9.8-11.74l-2-2.57c-2.85-3.55,2,2.52,2.31,3a12.75,12.75,0,0,1-.87-1.21l-39.26,30.29c-6.12-7.17-2.7-3.49-.79-.92l43.17-25.24a432.54,432.54,0,0,1-54.2-93.6c-2.17-5.12-9.72-10.3-14.94-11.49a25.9,25.9,0,0,0-16.28,1.26c-10.28,4.34-19.29,18-14.47,29.49l3,7.17c2.63,6.3,5.35,11.35,11.49,14.95,5.36,3.13,13.25,4.46,19.26,2.52S399.3,420,402.35,414.2c2.91-5.52,5-13.22,2.52-19.27a437,437,0,0,1-29.39-107.41c-.77-5.51-6.74-12.43-11.49-14.94a25.77,25.77,0,0,0-15.94-3c-11,1.48-23.32,12.23-21.68,24.56l1.07,8c.93,6.91,2.19,12.53,7.33,17.68,4.33,4.33,11.45,7.6,17.67,7.32,6.47-.29,13.18-2.42,17.68-7.32,4.15-4.52,8.16-11.3,7.32-17.68-3.78-28.84-5-58-1.29-86.92.76-5.88-3.34-13.7-7.32-17.68-4.33-4.34-11.45-7.6-17.68-7.32-6.46.29-13.17,2.41-17.67,7.32-4.81,5.24-6.39,10.7-7.33,17.68l-1.07,8c-.75,5.62,3.3,14,7.33,17.68a25.68,25.68,0,0,0,14.35,6.87c10.95,1.47,25.76-5.58,27.43-17.91a196.08,196.08,0,0,1,12.51-47.1c2.27-5.61.4-14.27-2.52-19.26-3-5.19-9-10.13-14.94-11.49-6.4-1.46-13.58-1.14-19.26,2.52-5.85,3.77-8.83,8.58-11.49,14.94l-3,7.16c-2.23,5.32-.5,14.58,2.52,19.27A25.89,25.89,0,0,0,350,206.16c10.32,4.35,26.27,1.2,31.22-10.23A147.83,147.83,0,0,1,391,177c5.77-9.33,11.76-16.13,8.75-28.52-4.32-17.74-29.28-24.92-41.79-11-2.28,2.53-5,5.38-6.49,8.54-2.9,6.24-4.41,12.4-2.52,19.26,1.59,5.8,6.08,12.09,11.49,14.95,11.55,6.1,27.68,3.37,34.2-9,0,0-4.66,5.52-2.36,3.1.75-.79,1.43-1.63,2.14-2.44,1.71-1.95,3.48-3.85,5.32-5.68,3.16-3.15,6.7-5.85,9.95-8.89,6.11-5.7,9.27-16.29,6.43-24.32v0c-2.67-7.55-7-13.06-14.48-16.2-7-3-15.61-3-22.25,1.26-8.93,5.79-16.19,13.06-16.36,24.68-.27,18.57,21.57,31.67,37.62,21.59,8.85-5.57,17.15-11.14,26.83-15.29,5.13-2.2,10.3-9.69,11.49-14.95a25.86,25.86,0,0,0-1.26-16.27c-4.34-10.28-18-19.3-29.49-14.48l-7.17,3c-6.29,2.63-11.35,5.35-14.94,11.49-3.14,5.36-4.47,13.26-2.52,19.26,3.78,11.69,17.76,22.7,30.75,17.47A157.69,157.69,0,0,1,451,144.68c5.52-.8,12.43-6.73,14.94-11.49a25.78,25.78,0,0,0,3-15.94c-1.48-11-12.23-23.33-24.56-21.68l-8,1.07c-6.9.92-12.53,2.18-17.67,7.32-4.34,4.34-7.6,11.45-7.33,17.68.55,12.16,11.1,26.72,25,25a186.49,186.49,0,0,1,47.27.14c5.64.73,14-3.28,17.68-7.32a25.72,25.72,0,0,0,6.88-14.36c1.47-10.94-5.58-25.76-17.91-27.43l-8-1.08c-7-.94-12.91-1.2-19.26,2.52-5.19,3-10.13,9-11.49,14.94-2.7,11.83,3.62,28.76,17.46,30.76a199.83,199.83,0,0,1,47.4,12.92c5.58,2.29,14.3.38,19.26-2.52,5.19-3,10.13-9,11.49-15,1.46-6.4,1.14-13.58-2.52-19.26-3.77-5.85-8.58-8.82-14.94-11.49l-7.16-3c-5.32-2.23-14.58-.5-19.26,2.52a25.8,25.8,0,0,0-10.23,12c-4.36,10.33-1.2,26.24,10.23,31.22,16.49,7.17,31,16.61,45.64,26.93,10.72,7.56,28.27,2.27,34.21-9,3.06-5.8,4.6-12.83,2.52-19.26-2.15-6.63-6-10.73-11.49-14.95a13.72,13.72,0,0,0-1.3-1c-4-2.37-5-8.86,6.69,7.2l-34.2,34.21c-6.69-4.75-2.25-1.68-.7-.43,1.3,1.05,2.6,2.11,3.88,3.2q4.26,3.6,8.37,7.39c5.22,4.8,10.24,9.81,15.11,14.95,8.16,8.61,15.61,17.73,23.07,26.92,3.64,4.48,12.08,7.57,17.68,7.32a25.78,25.78,0,0,0,15.15-5.37c8.88-6.86,14-22.3,6.44-32.25-1.62-2.12-3.26-4.21-4.89-6.32-2.76-3.54,1.65,2,2.16,2.81l-39.26,30.3c-4.78-5.7-1.49-1.92-.49-.55s2.07,2.79,3.1,4.19q2.58,3.56,5.11,7.15,6.33,9,12.32,18.23C620,265.59,627.1,277.49,634,289.5c3.42,5.91,6.72,11.66,11.44,16.71,6,6.4,13.39,10.5,21.42,13.64,13.86,5.41,29.49,4.21,42.76-2.22,13.6-6.59,23.61-19.68,28.17-33.87,5.06-15.7,1.42-31.92-6.57-45.85-11.37-19.82-23.37-39.31-36.51-58-28.35-40.35-61.56-77.33-103.1-104.45-45.72-29.86-100.44-44.57-155-38.77C407,39.85,378,48,352.62,64.1a183.79,183.79,0,0,0-56.82,57.67c-28.41,45.45-34.58,102.57-31.22,155,6.82,106.43,50.79,209.64,122,288.92,67.46,75.12,162,128.84,261.28,147.56,15.47,2.92,31.12,5,46.76,6.72,16.54,1.83,28-17.41,24.11-31.65l-15.15-55.91c-3.86-14.27-23.5-24.67-36.72-14.94-13,9.57-23.27,20.83-28.22,36.53-5.09,16.15-2.66,34.13,5.38,48.85,7.61,13.94,21.25,25.73,37.14,28.74,16.11,3,29.87-1.05,44.73-6.85C779,704,824.13,669.22,866.12,631.26c40.82-36.9,80.43-75.84,117-117,36.22-40.8,69.65-84.81,95.19-133.16,26.22-49.6,48.61-105.92,44.65-163.1-1.81-26.25-8.36-51.69-20.47-75.11s-30.61-43-52.85-57.24c-47.18-30.27-106.3-33.9-160.3-25.49C835.92,68.47,785.48,91.92,743.05,125a315,315,0,0,0-89.43,110.73,311.2,311.2,0,0,0-16.11,39.72c-4.4,13.69-7.3,27.83-2.56,41.92s14.26,27,28,33.16a57.87,57.87,0,0,0,50-1c13.54-6.64,23.16-19.45,27.36-33.74a25.06,25.06,0,0,0-6.43-24.32c-6.58-6.58-15.45-8.32-24.32-6.43l-.14,0C696.65,287.83,688,303.53,692,315.85c4.37,13.51,17,20.39,30.75,17.47l.14,0-30.75-30.76c-.87,3-2.68,3.68.56-.72a17.37,17.37,0,0,0-1.3,2.38c-2,4.29,4.13-4.06.73-.81-.61.57-1.28,1.24-1.85,1.86-3.2,3.48,5.09-2.93.91-.73-.73.38-1.55.86-2.26,1.3-4.06,2.53,5.79-1.61,1.12-.5a23.08,23.08,0,0,0-3.85,1l4-.5c-.9.09-1.79.15-2.69.17s-1.81,0-2.71-.05c-5-.1,6,1.69,1.18.12a14.28,14.28,0,0,0-2.52-.71l3.58,1.57a24.16,24.16,0,0,1-2.26-1.17,20.12,20.12,0,0,0-2.13-1.37c4.61,1.79,3.55,3,1.24.61L683,304q-2.46-2.92,1.57,2.07a14.72,14.72,0,0,0-1.66-2.71c-1.5-2.26-.21-3.54.65,1.93a40.17,40.17,0,0,0-1.68-6.14c2.09,5.78.31,4.88.48,2.22a16.86,16.86,0,0,0,.08-3.17c.76,5-1,5.26-.18,2.27.58-2.06,1.11-4.13,1.72-6.19q2.72-9.24,6.19-18.26c.9-2.34,2.16-4.68,2.85-7.09-.12.44-2.45,5.61-.72,1.76.73-1.63,1.44-3.26,2.18-4.88a303.56,303.56,0,0,1,32.35-54.23c3.28-4.41-3.62,4.52-.19.23l1.89-2.39q2.38-3,4.84-5.88,5.4-6.41,11.17-12.49a296.06,296.06,0,0,1,23.19-22q2.9-2.47,5.86-4.87l2.38-1.9c4.26-3.47-4.63,3.47-.24.17s8.59-6.34,13-9.33A289.32,289.32,0,0,1,815.63,137c4.68-2.48,9.43-4.81,14.23-7,2.71-1.25,5.44-2.67,8.26-3.67-6.3,2.23-.5.23.69-.24,1.67-.67,3.34-1.32,5-2a297.31,297.31,0,0,1,35.92-11.17q8.71-2.1,17.54-3.65c2.76-.49,6.06-1.45,8.87-1.41-6.06-.07-2.27.29-.41.07q3.13-.37,6.28-.67a257.58,257.58,0,0,1,35.46-1q8.18.34,16.29,1.27c1.08.12,2.16.28,3.24.39-6.82-.69-2.7-.34-1-.07q4.43.69,8.82,1.59c5.3,1.09,10.56,2.39,15.75,3.94q3.89,1.16,7.71,2.5,2.28.8,4.56,1.67c.75.29,1.51.58,2.26.89,1.75.71,1,.38-2.24-1,0,0,13.33,6.52,14.52,7.18,2.36,1.33,4.68,2.74,7,4.2,1.23.79,7.69,4.08,8.07,5.59-.51-2-3.79-3-.55-.41,1,.8,1.94,1.61,2.89,2.44q2.85,2.48,5.52,5.15c1.78,1.77,3.49,3.6,5.15,5.48.83.94,1.64,1.89,2.44,2.86,3.94,4.77-2.61-3.72.26.27a143.69,143.69,0,0,1,8.23,12.62c1.25,2.19,2.45,4.4,3.58,6.66.45.9.9,1.8,1.33,2.71.9,1.87,2.51,8,.57,1,1.32,4.82,3.67,9.49,5.13,14.3q2.34,7.63,3.9,15.48c.5,2.48.95,5,1.33,7.47.34,2.19-.26,5-.16-1.4a31.87,31.87,0,0,0,.42,3.75q.78,7.83.84,15.71c0,5.82-.22,11.64-.7,17.44-.25,3-.87,6-1,9,.2-6.79.11-1.1-.14.49q-.43,2.67-.93,5.34a268.93,268.93,0,0,1-9.67,36.7q-2.9,8.59-6.24,17c-.45,1.12-.9,2.25-1.36,3.37l-.69,1.68q-1.59,3.83.41-1c-2,2.53-3.07,7-4.41,10A534.77,534.77,0,0,1,1014,392.17q-9.86,15.52-20.64,30.41-5.13,7.1-10.44,14.07c-.22.29-3.78,4.86-1.25,1.63s-1,1.33-1.27,1.62q-3.25,4.14-6.56,8.23C943,486.27,908.68,521.21,873.61,555.4c-19.06,18.58-38.35,37-58.51,54.35Q807.92,616,800.57,622q-3.47,2.85-7,5.64l-2.7,2.13-2.72,2.12c2.57-2,3.12-2.4,1.65-1.28-9.38,7-18.85,13.88-28.71,20.23A333.81,333.81,0,0,1,730,668.61c-5.09,2.55-10.42,4.63-15.49,7.19,6.47-3.27-1.85.69-3.57,1.35q-4.83,1.86-9.73,3.51c-2.62.89-5.35,1.57-8,2.51-3.72,1.34,1.75-.56,2.43-.22a20.89,20.89,0,0,0-4.33,0c2.56-1.22,5.35,1.16,2.32.28-.81-.23-3.44-1.36-4.2-1.21,2.84-.56,4.52,2.4,2,.73a25.53,25.53,0,0,1-2.46-1.49q4.65,3.81,1.73,1.23c-.63-.74-1.42-1.49-2.08-2.2-3.72-4,2.61,4.75.08,0-.49-.91-1.11-1.77-1.61-2.68l-.72-1.38q-1.69-3.64.7,1.69c.06-.06-1-3.16-.91-3l-.36-1.52q-.75-4.05.2,2a31,31,0,0,0-.13-3.2c0-1.05.06-2.1.14-3.14q-.92,5.92-.42,3c.26-1.16.46-2.32.77-3.46s2.11-4.67.08-.93c-2.21,4.07,1.52-2.6,2.18-3.6,1.88-2.85,2.08-.55-1.06,1.25.83-.48,1.65-1.85,2.35-2.56,1.41-1.42,8.43-6.82,2.08-2.14l-36.72-14.95,15.15,55.91L694.61,670q-4.89-.54-9.8-1.15c-1.4-.17-7.54-.12-1.18-.13a29.69,29.69,0,0,1-3.91-.56c-6.76-1-13.51-2.11-20.22-3.4q-17.28-3.33-34.24-8.08t-33.48-10.82q-7.86-2.9-15.62-6.08c-.47-.19-5.48-2.5-1.65-.68s-1.18-.52-1.64-.72q-4.61-2-9.17-4.13a463.86,463.86,0,0,1-61.4-34.38q-7-4.64-13.79-9.52-3.4-2.45-6.77-4.94l-2.68-2-2.66-2c2.62,2,3.21,2.49,1.75,1.35-8.94-7.1-17.72-14.37-26.16-22.05a429.3,429.3,0,0,1-47-50.37,34.35,34.35,0,0,1-3-3.87c.27.46,3.51,4.62.91,1.14-1.64-2.19-3.29-4.38-4.91-6.59q-5.34-7.31-10.37-14.81-9.63-14.36-18.13-29.39t-15.87-30.68c-1.17-2.48-2.31-5-3.43-7.46-.87-1.94-3.37-5.54-3.3-7.53-.08,2.58,1.72,4.16.6,1.43-.62-1.52-1.25-3-1.86-4.57q-1.85-4.56-3.59-9.18a460.31,460.31,0,0,1-20-68.68q-1.94-9.25-3.49-18.6c-.51-3.11-1-6.24-1.44-9.36-1-6.44.64,5.61-.11-.86-.22-1.88-.46-3.76-.67-5.64a393,393,0,0,1-2.42-39.55,321.92,321.92,0,0,1,1.55-35.81q.21-2.06.45-4.11l.1-.82q.52-4.14-.26,1.72c1-1.43,1-6.41,1.28-8.19,1-6,2.28-11.94,3.78-17.83,1.36-5.33,2.92-10.62,4.71-15.83q1.33-3.9,2.85-7.74c.44-1.11,2.88-4.39.62-1.57-.83,2-.82,2,.06,0,.44-1,.9-2,1.37-3a157,157,0,0,1,7.79-14.46q2.14-3.53,4.48-6.91c.62-.91,1.26-1.81,1.9-2.7s1.3-1.78,2-2.65q-3.36,4.32-.86,1.17A179.69,179.69,0,0,1,369,113.44l.63-.52q3.14-2.51-1.21.89c.33-.81,2.55-1.88,3.3-2.42q3.34-2.39,6.83-4.56a154.66,154.66,0,0,1,16.08-8.69c1.61-.75,3.26-1.61,4.94-2.21-5.68,2-1.55.69-.13.14q4.21-1.6,8.5-3a167.61,167.61,0,0,1,18.32-4.76c2.83-.56,6-1.53,8.94-1.51-6.7-.06-1.06.16.56,0,1.21-.13,2.41-.26,3.62-.37q9.93-.93,19.93-1,9.06,0,18.1.68c2.82.22,6.18,1.13,9,.91l-3.06-.42c1.2.16,2.39.34,3.59.53q2.69.42,5.35.92a199.12,199.12,0,0,1,36.62,10.47c.56.22,5.78,2.84,1.87.74s.8.37,1.38.63c2.4,1.07,4.78,2.19,7.15,3.34q7.73,3.77,15.19,8.08a282.19,282.19,0,0,1,27.05,18c1.79,1.32,1.34,2.34-1.39-1.09a23.73,23.73,0,0,0,3.62,2.88c2,1.62,4,3.26,5.93,4.93q6.16,5.26,12,10.84c7.87,7.46,15.36,15.31,22.52,23.45q5.13,5.83,10,11.87c1.64,2,3.27,4,4.87,6.08,1.27,1.62,2.2,4.39-.56-.75a31.54,31.54,0,0,0,2.84,3.72q9.85,13.13,18.91,26.82t17.49,27.71q4,6.65,7.89,13.37c1.29,2.22,2.62,4.44,3.85,6.7l.7,1.29q1.71,3.6-.85-2a13.5,13.5,0,0,0,1.08,4c-1.89-3.15-.49-5.55-.39-1.91a22.35,22.35,0,0,0-.1,3.36c-.82-4.37.91-5.25.1-2a20.58,20.58,0,0,0-1,3.2c.19-4,2.16-4.61.54-1.7-.47.86-1.56,2-1.8,2.88.92-3.49,3.24-3.84.84-1.34-.48.51-1,1-1.49,1.47q-2.94,2.54,1.75-1.23a16.82,16.82,0,0,0-2.3,1.48c-3.73,2.76,5.78-1.56,1.3-.45-.78.2-1.66.43-2.44.68-4.52,1.44,6.38-.07,1.64-.23-.81,0-1.73,0-2.54,0-4.79.18,6.23,1.54,1.6.25-.83-.23-1.66-.38-2.48-.62-6.18-1.82,3.51,2.3.05.12-.69-.43-1.49-.9-2.21-1.27-4.14-2.18,4.25,4.22,1,.85-.57-.59-1.22-1.23-1.82-1.77-3.41-3.1,2.88,5.18.81,1.06-2.87-5.69-6.44-11.16-9.68-16.64-6.7-11.34-13.62-22.54-20.94-33.48s-14.83-22.12-23.31-32.24c-8-9.53-23.74-9-32.82-1.95-9.41,7.27-13.27,21.73-6.44,32.25,1.15,1.76,11.16,14.61,2.72,3.51l39.27-30.3c-17.77-21.87-36.73-43.42-59.86-59.85-8.62-6.12-23.3-3.7-30.29,3.91s-10.56,21.18-3.91,30.3c3.55,4.86,7.86,8.09,12.54,11.71L574.16,136C559.52,125.64,545,116.21,528.51,109l-19.26,45.7,7.16,3,13.29-48.22a199.7,199.7,0,0,0-47.4-12.92L469,144.81l8,1.08,6.64-49.11a186.49,186.49,0,0,0-47.27-.14v50l8-1.07-6.64-49.11A158.18,158.18,0,0,0,401,106.34l13.29,48.22,7.17-3-19.26-45.7c-9.68,4.16-18,9.73-26.84,15.29L413,142.74v0l-7.32,17.68c.55-.5,1.2-.89,1.73-1.4-.66.64-6.15,4.39-2.81,2.23l-36.73-14.94v0L374.32,122c-3.68,3.43-7.65,6.49-11.17,10.11-3.86,4-9.14,9.06-11.7,13.91l43.17,25.24a15.26,15.26,0,0,1,.95-1.42c1.37-2.31-4.66,5.64-2.27,3l-41.79-11v0L354,142.56c-5.91,9.21-11.66,18-16,28.13L383.7,190l3-7.16L338.49,169.5A195.62,195.62,0,0,0,326,216.6l49.1,6.65,1.07-8h-50c-3.72,28.92-2.49,58.08,1.29,86.92h50l-1.07-8-49.1,6.64a436.88,436.88,0,0,0,29.39,107.41l48.21-13.29-3-7.17L356.18,407a432.13,432.13,0,0,0,54.2,93.6c4.12,5.4,8.11,9.6,14.94,11.49,6,1.64,13.95.9,19.26-2.52,10.36-6.68,17.31-23,9-34.21-2.28-3.07-4.55-6.29-7-9.19-8.07-9.46-23.67-9-32.82-2-10.24,7.91-12,20.92-6.44,32.25,1.51,3.05,4.27,5.65,6.37,8.3,3.08,3.89,6.21,7.74,9.43,11.51q10.85,12.74,22.7,24.55,11.53,11.49,23.94,22c3.93,3.34,7.93,6.61,12,9.76,2.14,1.65,13,10.25,2.25,1.59L514.26,535c-1.22-.84-2.41-1.71-3.62-2.56-10.7-7.58-28.27-2.25-34.2,9-6.83,12.93-2.4,26,9,34.21,14.79,10.64,29.49,21.11,45.29,30.25a444.22,444.22,0,0,0,48,24L598,584.14l-7.16-3c-5.54-2.32-14.34-.36-19.26,2.52-5.19,3-10.13,9-11.49,14.94-1.46,6.4-1.14,13.59,2.52,19.27,3.77,5.85,8.58,8.82,14.94,11.49a434,434,0,0,0,107.14,29.46l6.64-49.11-8-1.07v50c3.63.47,7.57,1.38,11.23,1.36-6.44,0-2.7-.42-.43.06.68.14,4.32,1.39,4.49,1.21-.3.31-5.89-2.65-.37.06,3.74,1.84-2.29-2.62-.73-.46,3.3,4.6-1.12-2.26,0-.21.74,1.34,1.54,2.7,2.33,4,1.44,2.42-1.37-5.2-.48-1a25.45,25.45,0,0,1,.79,3.09l-.5-3.6a18.94,18.94,0,0,1,0,2.26q-.12,3,.55-3a23.72,23.72,0,0,0-1.1,4.29q2.34-5.14,1.1-2.55c-.32.67-.66,1.33-1,2l-.77,1.28q-2.24,3.24,1.26-1.42c-.75.19-2,2.25-2.53,2.79-1.25,1.26-6,4.86-.09.48l30.29,39.27c1.77-2.14,3.53-4.29,5.38-6.36,4.94-5.53,3.47.15-7.78,3.3l-24.32-6.43.07.07-7.32-17.67c.6-10.8,5.1-15.33,2.52-10.56l45.69,19.26,3-7.16L696.4,669.79a8.65,8.65,0,0,0-.66,2.21l49.1,6.65,1.07-8h-50a9.93,9.93,0,0,0-.08,2.31h50l-1.07-8-49.1,6.64a8.5,8.5,0,0,0,.51,2.23l48.21-13.29-3-7.16-45.69,19.27-2.85-11.24,37.62-21.59c9.12,5.54,10.22,11,6.1,5.07s-8.35-10-15.43-12.22c-.45-.14-.91-.23-1.36-.36-3.28-.92-6.61-1.74-9.91-2.61L692,625v48.22q11.18-3.54,22-8L700.7,617l-7.16,3,19.26,45.7c24.75-10.85,46.9-25.32,68.55-41.33l-34.2-34.21c-.5,1,5.07-6.55,3.45-4.69-.62.71-3.13,2.42,1.25-1,4.11-3.17,2.06-1.45,1.12-.89l30.3,39.27c11.8-9.93,23.81-19.54,35.31-29.84,14-12.5,27.56-25.38,41-38.38,27.38-26.38,54.27-53.22,79.58-81.61,11.66-13.08,22.64-26.66,33.59-40.33l-39.27-30.3c-1.49,2-5.07,6.54,1.6-2.06l39.27,30.3c27.55-36.05,51.25-74.6,69.16-116.34l-45.69-19.27-3,7.16,48.21,13.29c8.76-21,15.65-42.77,18.81-65.38l-49.11-6.64-1.07,8h50a166.57,166.57,0,0,0,.15-41.14l-49.1,6.64,1.08,8,48.21-13.29a141.64,141.64,0,0,0-9-32.95L1004.84,192l3,7.17L1053.53,180a117.78,117.78,0,0,0-13-22.69L997.38,182.5l2.81,3.65c4.16,5.4,8.08,9.6,14.94,11.49,6,1.64,13.95.9,19.26-2.52,11-7.08,16.56-22.46,9-34.21a75,75,0,0,0-10.65-12.64c-1.55-1.52-3.12-3-4.73-4.45-4-3.61-.68-2.06,1.38,2.72l-28.24,36.73c1,.37-8-3.44-5.17-2,1.45.74,5.47,6-3.63-2.81a11.88,11.88,0,0,1,1.27,1.08l24.32-41.79s6.52,3.49,5.25,2.08a11,11,0,0,0-1.95-1.37c-2.1-1.46-4.23-2.86-6.42-4.16a119.69,119.69,0,0,0-13.36-6.79l-19.26,45.7,7.16,3L1002.62,128c-15-6-30.18-9.13-46.11-11.23-5.86-.78-13.7,3.35-17.67,7.32-4.34,4.34-7.6,11.45-7.33,17.68.29,6.46,2.42,13.17,7.33,17.68,5.23,4.8,10.7,6.39,17.67,7.32l8,1.07v-50a240.36,240.36,0,0,0-60.58.38v50l8-1.07L905.29,118a267.35,267.35,0,0,0-64.5,17.87l13.29,48.22,7.17-3L842,135.4c-21.17,9.07-40.54,20.77-59.09,34.34L813.19,209c2.45-2-4.3,3.23-1.51,1.17L781.39,170.9a316.36,316.36,0,0,0-25.7,22.84c-7.43,7.48-13.85,15.71-20.84,23.56l35.36,35.36c2.27-2.95,4.72-5.8,6.85-8.84l-43.17-25.24c.51-.72,3.35-4.3,1.33-1.64-1.68,2.21-3.41,4.38-5.05,6.62s-3.37,4.7-5,7.1q-4.53,6.69-8.64,13.65a256.51,256.51,0,0,0-14.31,28.33l45.69,19.26,3-7.16-48.21-13.29A255,255,0,0,0,692,302.56c-3.45,12.6,4.28,27.75,17.46,30.76S736.52,329.35,740.21,315.85Z" transform="translate(-263.75 -35.44)"/><path class="cls-1" d="M368.34,168.34a1677.58,1677.58,0,0,0,8.85,197c.71,6.8,2.32,12.67,7.33,17.68,4.33,4.33,11.45,7.6,17.67,7.32,12.39-.56,26.46-11.07,25-25a1677.58,1677.58,0,0,1-8.85-197c.18-13.09-11.63-25.6-25-25-13.7.61-24.8,11-25,25Z" transform="translate(-263.75 -35.44)"/><path class="cls-1" d="M407.85,180.62q7.08,64.26,18.12,128,5.31,30.44,11.59,60.7c2.18,10.5,3.16,23.39,8.86,32.66a28.19,28.19,0,0,0,31.21,12.58c12.4-3.41,18.88-13.91,20-26.21,1.15-13.06-12.32-25.57-25-25-14.53.65-23.77,11-25,25l-.08.94,7.32-17.68,3.53-2.74L471,365.49l4.61.65,11,6.43q5.79,12.74,4.07,6.51l-.84-3.84c-.41-1.91-.83-3.83-1.24-5.75q-1.44-6.71-2.84-13.43-2.59-12.49-5-25-5-25.51-9.2-51.17t-7.83-51.39c-.27-2-.56-3.89-.8-5.83.86,6.93-.23-1.8-.4-3.08q-.76-5.84-1.49-11.68-1.68-13.62-3.18-27.28c-.76-6.83-2.29-12.64-7.33-17.68-4.33-4.33-11.45-7.6-17.67-7.32-12.32.55-26.54,11.08-25,25Z" transform="translate(-263.75 -35.44)"/><path class="cls-1" d="M470.19,184.25a1295.85,1295.85,0,0,0,56.6,118.17c6.28,11.5,23.09,16.14,34.21,9,11.65-7.51,15.68-21.91,9-34.2q-14.7-26.92-28.07-54.54-6.66-13.82-13-27.79-3.15-7-6.23-14c-1-2.35-2-4.69-3-7-.48-1.13-3.82-9-1.22-2.85-2.65-6.3-5.34-11.34-11.49-14.94-5.36-3.14-13.26-4.46-19.27-2.52s-11.88,5.71-14.94,11.49c-2.9,5.5-5.06,13.23-2.52,19.26Z" transform="translate(-263.75 -35.44)"/><path class="cls-1" d="M432.21,174.15a454.65,454.65,0,0,1,34,56.44q3.61,7.16,7,14.44,1.68,3.65,3.3,7.31a31.14,31.14,0,0,0,1.77,4.09c-.82-1.3-1.67-4-.45-1.05q6.42,15.67,11.75,31.74l41.78-24.32q-35.11-40.06-70-80.29l-9.06-10.43c-1.2-1.4-4.28-6.29-.66-.47q5.73,16.69-7.27,25.14l1.07-.63c-6.72,3.52-2.07,1,.44.49l1.66-.32c2.76-.45,2.2-.41-1.66.13.08-.69,11.05-.68,11.74-.68,1,0,10,.17,10.07.65q-5.81-.82-1.66-.16c1.11.19,2.21.41,3.31.64,1.64.36,3.28.75,4.9,1.2,1.89.51,3.77,1.09,5.62,1.73.8.27,1.59.55,2.38.85q3.79,1.5-1.3-.62c3.21,2.11,7.09,3.47,10.42,5.46l12.62-46.58c-4.28-.07-8.55-.27-12.81-.66-1.54-.14-4.63.12-6-.65q5.73.78,1.57.17c-1.13-.18-2.25-.37-3.38-.58a168.66,168.66,0,0,1-23.18-5.92c-3.52-1.17-8-2.25-11.22-4.18,6,3.66-.34-.24-1.84-1s-3.08-1.5-4.6-2.28a169.52,169.52,0,0,1-21.82-13.44l-6,45.69a137.53,137.53,0,0,1,21.52-6.8c3.54-.8,7.18-1.16,10.7-2,.05,0-5.34.57-2.49.36.83-.06,1.66-.18,2.49-.25,2.23-.21,4.45-.37,6.68-.47a170.28,170.28,0,0,1,22.58.81c2.84.24-2.55-.37-2.5-.35.78.22,1.68.25,2.48.39,1.93.32,3.85.67,5.76,1.07q5.73,1.2,11.35,2.88,5.22,1.58,10.28,3.55c.77.3,1.55.7,2.33.93,0,0-4.6-2.1-2.13-.86,2,1,4.05,1.89,6,2.91a156.52,156.52,0,0,1,20.11,12.46c.71.52,1.4,1.06,2.12,1.57,2.26,1.58-1.49-1.17-1.56-1.24a47.23,47.23,0,0,0,4.12,3.3c3.19,2.61,6.3,5.3,9.36,8.06,5.79,5.21,11.4,10.63,16.87,16.17,5.22,5.27,10.3,10.69,15.14,16.32,2.33,2.71,4.57,5.49,6.81,8.28,1.74,2.16-1.44-1.82-1.39-1.8.43.16,1.83,2.47,2,2.64,1.12,1.55,2.23,3.11,3.31,4.69a156.18,156.18,0,0,1,11.13,18.89c.71,1.45,1.38,2.91,2,4.38,1.82,3.92-.52-1-.63-1.53a17.18,17.18,0,0,0,.88,2.25,112.64,112.64,0,0,1,3.46,10.73c.7,2.65,2.85,7.67,2.2,10.31-.17.71-.25-6.5-.57-3.71-.06.57.07,1.24.07,1.82a11.26,11.26,0,0,1-.07,2.45c-.16.11,1.47-6.6.39-3a8,8,0,0,0-.44,1.71c0,2,1.47-3.24,1.51-3.32-1,1.93-2.05,1.82,2.15-2.38-.72.72-2.18,1.9,1-.61a15.69,15.69,0,0,1,11.36-3.49c.22,0,4.86,1.08,4.69,1.29s-3.33-2.17-3.54-2.33c-.74-.53-5.06-3.82-2.07-1.53s-2-1.63-2.63-2.12q-4.47-3.63-8.79-7.43-8-7.07-15.5-14.71-8.93-9.09-17-18.95c-1.22-1.49-2.42-3-3.62-4.49-.42-.53-2.2-2.82-.06-.06,2.43,3.13-.53-.72-1-1.4q-3.69-4.94-7.16-10A293.18,293.18,0,0,1,539.8,177.8L496.62,203a422.17,422.17,0,0,1,25.8,40.73q6,10.74,11.28,21.81,2.47,5.15,4.8,10.35c.72,1.6,1.42,3.21,2.12,4.81.58,1.32,1.36,4.31-.46-1.13.37,1.1.9,2.17,1.34,3.25a419.08,419.08,0,0,1,15.61,45.61c2.12,7.62,3.72,15.34,5.7,23,1.12,4.31,0-.79,0-1.59.18-3.88,2.3-5.51,4.79-8.8,2.76-3.65,3.59-5.88,7.65-7.07,5.77-1.69,4.7-.37,2.56-.49q-6.11-.33-12.19-1c-2.2-.22-4.41-.47-6.61-.74-.4,0-2.54-.57-2.83-.35.07-.05,4.88.7,1.94.26-4.7-.71-9.4-1.42-14.08-2.25q-12.63-2.26-25.09-5.36c-17.83-4.43-35-11.32-53.4-12.95-20.28-1.78-39.2,7.75-51.95,23.14C402.82,347.31,392,361.43,384,376.43c-8.85,16.67-14.89,35.79-12.6,54.84,2.62,21.76,12,40.4,30.54,52.78,7.32,4.87,17.87,4.31,25.24,0,8.08-4.73,11.65-12.59,12.38-21.59,4.69-57.62-10.51-114.23-11.3-171.67-.09-6.91,0-13.82.42-20.72.18-3.15.51-6.28.71-9.42.42-6.55-1.25,6-.18.87.36-1.76.68-3.51,1.19-5.23.23-.78,1.76-5.06.09-.74-1.81,4.67.42,0,.48-.42l-2.47,3.07a15.25,15.25,0,0,1,1.69-1.72L427.07,259q-6.3,2.31-2.56,1.15s-6.93.51-3.19.55l-4.49-.6q3.62,1.08-3-1.38c3.78,2.06-4.39-4.59-1.46-1.26,3.07,3.49-.38.15-.81-1.4.28,1,1.48,2.31,2,3.25,1.26,2.32,1.05,4.88-.31-1.21.47,2.11,1.48,4.15,2,6.26,1.75,6.81,2.62,13.95,3.63,20.9.17,1.21,1.38,7.66.16,1,.29,1.58.4,3.22.59,4.81q.63,5.29,1.15,10.59,1.11,11.58,1.68,23.19,1.17,24.18-.06,48.4-.65,12.57-2,25.1c-.4,3.83-.68,7.75-1.35,11.54,1.18-6.65,0-.17-.17,1-.37,2.55-.77,5.11-1.18,7.66l49.11,6.64c.13-5.36.56-10.68,1.1-16,.58-5.72-1,5.95,0,.28.18-1.05.34-2.11.52-3.16.46-2.64,1-5.27,1.57-7.88,1.17-5.22,2.58-10.4,4.22-15.49q1.23-3.83,2.64-7.59c.56-1.5,1.16-3,1.75-4.49,1.68-4.26-1.66,3.63-.33.79a199.84,199.84,0,0,1,15.6-28c1.51-2.22,3.11-4.36,4.68-6.53,1.82-2.49-3.37,4.1-.45.63.86-1,1.7-2.07,2.56-3.09,3.64-4.3,7.5-8.38,11.53-12.31l-42.68-17.67q4.57,76.69,4.21,153.57h50q-3.76-93.64-2.53-187.41c.18-13.08-11.62-25.6-25-25-14.35.64-24,11-25,25q-3,41.64-8,83.11-.6,4.88-1.22,9.75l-.63,4.87c-.13,1-.95,7.76-.15,1.15-.82,6.82-1.89,13.63-2.9,20.42q-3.1,20.89-6.73,41.71H499.8l-12.51-41.34a25.1,25.1,0,0,0-27.43-17.91c-12.69,1.7-20.93,12-21.68,24.55q-1.59,26.7-5,53.21c-.85,6.69.8-5.47-.17,1.21-.33,2.28-.64,4.57-1,6.85-.43,2.78-2.47,6,.89.19,9.82-16.94,34.78-2.21,22.35-8.87-8.05-4.32-16.07-8.69-24.11-13a25.27,25.27,0,0,0-27.77,1.95c-7.7,6-11.89,16.66-9,26.28,5.67,18.62,19.24,34.66,37.09,42.69,19.5,8.77,43.37,10.43,62.23-1.29,13.83-8.61,20.08-21.86,21.66-37.63,1.06-10.47,1.07-21.12,1.53-31.64l2.86-65.49,3.2-73.43-31.65,24.11c2.41.52,1.28,1.16-2.85-1.36a17.87,17.87,0,0,1-4.75-4.12c-.92-1.14-1.87-4.76-2.84-5.46a9.18,9.18,0,0,1,.72,2.36c1.37,3.76-.19-5.63-.13-1.59,0,1.91.09,3.81,0,5.73q-.24,13.94-.41,27.88-.27,27.38-.09,54.77.38,55.77,2.68,111.49,1.29,31.35,3.21,62.66c.79,13,10.93,25.63,25,25,12.86-.58,25.85-11,25-25q-7.18-118.29-5.7-236.89c.15-11.6,1.15-23.35-.91-34.84-2.39-13.32-12-25.87-25.69-28.85-16.31-3.55-30.91,7.28-31.64,24.11l-4.93,113.12c-.21,4.79-3.06,56.55-2.56,56.61-.38-.05,1.2-5.19.29-2.52-.34,1-1.58,4.19.05.93s.22-.59-.16,0c.33-.47,4.09-4.34,1.17-1.79-.06.06,4.53-2.88,2.25-1.7a20.68,20.68,0,0,0-1.85,1.12c-3.28,2.11,1.35-.61,2-.71a21.08,21.08,0,0,0-2.61.88c-1.46.44-3,.65-4.43,1-3,.78,5.89-.32,2.8-.42-.64,0-1.3.08-1.94.1-1.46,0-3.09-.32-4.52-.13-2.67.36,3.9.46,3.43.52a11.67,11.67,0,0,1-3.19-.61c-1.7-.39-3.33-1-5-1.44-.61-.18-1.21-.55-1.83-.68,5.81,1.23,3.85,1.83,1.81.64-1.5-.88-3-1.76-4.52-2.62a14.43,14.43,0,0,0-1.62-1.1c4.47,1.71,3.47,3,1.48,1.09-1.24-1.2-2.47-2.43-3.72-3.62a13.93,13.93,0,0,0-1.28-1.46c3.93,2.8,2.6,3.8,1.19,1.44a31.65,31.65,0,0,0-2.6-4.47c-1.4-1.6,1.14,2.79,1.18,3-.21-1.16-.92-2.56-1.26-3.7L405.9,479.89c10.46,5.65,20.78,12,31.73,16.58,20,8.45,39.67-5.36,42.75-25.72,3.68-24.4,6.33-49,7.8-73.59l-49.11,6.65,12.52,41.34c3.07,10.16,13,18.85,24.11,18.36,10.26-.46,22.19-7.34,24.1-18.36,10-57.69,17.24-115.9,21.47-174.3h-50Q470,364.57,473.8,458.26c.52,13.06,11.12,25.63,25,25,13.6-.6,24.93-11,25-25q.36-76.83-4.21-153.57c-.61-10.14-5.8-18.81-15.37-22.85A25.15,25.15,0,0,0,476.91,287c-37.13,36.15-58.7,86.52-60,138.24-.32,12.45,9.75,22.95,21.67,24.55,11.17,1.51,25.45-5.61,27.43-17.9,5.45-33.81,8.05-67.95,6.72-102.19-.68-17.74-2.5-35.35-4.9-52.94-2.05-15-3.81-30.49-11.69-43.82-9.48-16-28.55-27.23-47.25-20.2-20.51,7.71-27.35,26.86-29.39,47-3.21,31.73.2,63.68,4,95.2,4.26,35.69,9.05,71.56,6.12,107.55l37.62-21.59c-3.48-2.31,4.47,4.07.23.2-1-.9-1.83-2-2.8-2.86-1.77-1.65,1.83,2.49,1.82,2.46a18.29,18.29,0,0,0-1.51-2.21c-.84-1.32-1.48-2.77-2.29-4.1-1.33-2.17,1.18,3.05,1.14,2.88-.24-.85-.66-1.71-.95-2.55-.43-1.3-.82-2.62-1.15-3.95-.28-1.09-1.12-6.77-.61-2.1s-.05-1.09-.1-2.22a85.33,85.33,0,0,1,.26-9.05c.15-2.7-.52,3.47-.44,3.21a26.46,26.46,0,0,0,.51-2.71q.6-2.79,1.43-5.52c.58-1.93,1.26-3.81,1.95-5.7,1.6-4.43-1.93,3.87.18-.36,1.81-3.61,3.66-7.18,5.75-10.65,4.2-7,9-13.59,13.85-20.11,1-1.39,2.08-2.79,3.13-4.17.47-.63,1-1.25,1.42-1.87,2-2.61-3.15,3.84-1,1.35a86.71,86.71,0,0,1,7.39-8,13.44,13.44,0,0,0,1.75-1.52c-.11.15-4.19,2.74-2,1.63a20,20,0,0,0,2-1.22c3.32-2.23-.81.56-1.62.47a19.9,19.9,0,0,0,4.9-1.4c-.13.14-5.21.32-2.48.31,1.42,0,2.83-.16,4.24-.13,1.66,0,3.52.52,5.15.37-.76.07-5.81-1.08-1.46-.06.86.21,1.73.36,2.59.56,4.05.92,8,2.1,12,3.32a432.85,432.85,0,0,0,49.4,12.35c10,1.81,20.06,3.22,30.15,4.42,9.33,1.1,18.6,2.42,27.92.42,15.27-3.28,25-17.29,24.93-32.46,0-9.08-3.41-19.13-5.69-27.9a419.3,419.3,0,0,0-14.84-45.88c-13.53-34.8-30.78-67.88-52.51-98.27-3.88-5.42-8.31-9.66-14.94-11.49-6-1.65-14-.9-19.27,2.52-12.32,7.94-14.79,21.43-9,34.2A313.64,313.64,0,0,0,555,288.8a310.6,310.6,0,0,0,41.28,36.07c11.62,8.52,27.47,11.14,40.34,3.68,9.4-5.45,15.86-15.68,17.47-26.33,3.06-20.24-3.86-40.25-12.51-58.35-7.84-16.41-19-31.19-30.88-44.89A349.06,349.06,0,0,0,574.61,163c-14.55-12.55-30.25-24.14-48-31.8-39.4-17-85.09-19.67-125.28-3.34-9.51,3.87-16.46,10-17.91,20.79-1.41,10.54,3.58,18.87,11.94,24.91,31.3,22.63,69.94,34.67,108.46,35.32,10.53.18,21.71-7.85,24.1-18.36,2.49-10.93-1.67-22.34-11.49-28.23-15.36-9.23-32-14.08-49.74-16a91.91,91.91,0,0,0-21,.13c-9.35,1.11-19.15,2.21-27.22,7.52-14,9.2-18.91,26.51-11,41.52,4.32,8.18,12.24,15.41,18.31,22.4q16.17,18.63,32.39,37.22,18.8,21.55,37.67,43.08c7,8,21.47,9.59,30.29,3.91,9-5.82,15-17.46,11.49-28.24a475.25,475.25,0,0,0-62.33-124.91c-7.51-10.67-22.19-16.71-34.2-9-10.6,6.83-17,22.77-9,34.2Z" transform="translate(-263.75 -35.44)"/><path class="cls-1" d="M563.46,429.67c31.57-3.22,62.07-11.88,88.62-29.88,14.87-10.08,24.76-24.63,24.76-43.17a50.4,50.4,0,0,0-24.76-43.17q-41-24.1-83.61-45.12-21.32-10.49-43-20.16c-9.36-4.17-18.78-9.25-28.64-11.94a57.74,57.74,0,0,0-43,5.37c-13.3,7.56-21.48,19.38-26.42,33.47-3.29,9.41-3.54,20.08-4.05,30q-.56,11-.08,22.11a320.19,320.19,0,0,0,7,53.75,279.81,279.81,0,0,0,35.51,87.3A271.83,271.83,0,0,0,486,496.11c7.21,8.85,16,15.92,25.39,22.44,16.39,11.42,36.25,13.71,54.24,21.18l-11.94-5a48.11,48.11,0,0,1,9.41,5.49L553,532.36a45.57,45.57,0,0,1,6.6,6.5l-7.82-10.12a36.91,36.91,0,0,1,3.88,6.36l-5-11.94a29.7,29.7,0,0,1,1.65,5.49l-1.79-13.29a24.7,24.7,0,0,1,.09,5.7l1.78-13.3a27.8,27.8,0,0,1-1.15,4.39l5-11.95a41,41,0,0,1-4.93,8.14l7.82-10.12c-5.46,7-11.82,13.73-15.83,21.76-6.44,12.89-8.92,23.08-10.33,37.39-.86,8.86.55,18.09,2.48,26.69,1,4.34,2.82,8.28,4.55,12.38,1.87,4.42,3.47,8.55,6.1,12.52l68.41-68.41c-1.84-1.27-3.66-2.57-5.45-3.92l10.12,7.82A126,126,0,0,1,596.69,522l7.82,10.12-1-1.35L525,591.32c39.21,37.62,83.23,75.81,138,87.19,14.79,3.08,30.45,5.2,45.61,4.07,13.64-1,27.73-2.93,40.58-7.91,8.09-3.14,16.38-6.43,24-10.73s14.38-9.75,21.13-15.15c10.46-8.38,19.28-19.2,26.22-30.61,8.35-13.74,13.25-29.44,16.26-45.13,2.52-13.11,5-25.93,10.15-38.32l-5,11.95a130.3,130.3,0,0,1,15.8-27.11l-7.82,10.12c2-2.62,4.15-5.16,6.36-7.63,8.46-9.46,15.24-22.19,14.65-35.35-.51-11.29-3.79-21.31-10.74-30.3-6.38-8.26-15.5-15.53-26-17.92-12.72-2.89-27.29-2.37-38.53,5a809.48,809.48,0,0,1-130.58,70l11.95-5q-14.6,6.13-29.41,11.73c-9.71,3.65-19.68,8-29.81,10.27l13.3-1.79a14.37,14.37,0,0,1-3.46.24l13.29,1.79a10,10,0,0,1-3.13-.71l12,5a11.48,11.48,0,0,1-2.56-1.43l10.12,7.82a32.09,32.09,0,0,1-5.2-5.41l7.82,10.11a131.53,131.53,0,0,1-15.31-26.68l5,11.94c-7.81-18.58-12.37-38.46-15.2-58.37l1.78,13.29c-2-14.66-2.56-29.38-.71-44.09l-1.78,13.3a114.69,114.69,0,0,1,7.67-28.37l-5,11.94a96.72,96.72,0,0,1,11.14-19.26l-7.81,10.12A75.88,75.88,0,0,1,653,416.38l-10.12,7.82,1.35-.84-12,5,1.44-.56-13.29,1.79,1.52-.15-13.29-1.78,1.4.31-12-5,1.27.68-10.12-7.82a21.67,21.67,0,0,1,3.12,3.23l-7.82-10.12a400,400,0,0,1,50.63,87l-5-11.94c4.92,11.76,10.73,24.32,12.94,36.94l-1.79-13.29a27.86,27.86,0,0,1,.19,5.7l1.79-13.3a18.44,18.44,0,0,1-1,3.87l5-11.94a9.91,9.91,0,0,1-1.43,2.24l7.82-10.12-1,1,10.12-7.82a8.92,8.92,0,0,1-2.2,1.45l11.94-5a9.82,9.82,0,0,1-2.48.79l13.29-1.78a17.74,17.74,0,0,1-4,0l13.29,1.79a22.45,22.45,0,0,1-3.94-1.13l11.94,5a22.2,22.2,0,0,1-3.49-2.14l10.12,7.81a30.37,30.37,0,0,1-3.28-3.43l7.82,10.12a50.3,50.3,0,0,1-5.31-9.85l5,11.94c-6.71-16.24-12.49-32.94-14.89-50.4l1.79,13.29a103.46,103.46,0,0,1-.22-24.87l-1.79,13.29A82.25,82.25,0,0,1,702,424.05l-5,11.94a111.76,111.76,0,0,1,13.9-22.93L703,423.18a230.15,230.15,0,0,1,39.43-38.92l-10.12,7.82a246.06,246.06,0,0,1,54.41-31.78l-12,5A247.29,247.29,0,0,1,807,354.49L745.49,293q-1.59,4.62-3.47,9.11l5-11.94a157.24,157.24,0,0,1-20,33.29l7.82-10.12C703.07,354,657.15,379.89,622.8,418.05c-13.68,15.19-18.46,35.38-10.34,54.62a47.75,47.75,0,0,0,15.4,20c7.92,6.11,19.95,12,30.3,10.73,48.16-6,95.23-16,140.9-32.69,45.23-16.52,89-37.4,129.49-63.56a681.56,681.56,0,0,0,69.69-52l-70.71-70.71L815,419.91A50,50,0,0,0,837,503.48c17.74,7.21,38.52,3.78,56.54-.08,10.06-2.16,20.12-4.42,29.92-7.57,13.06-4.21,26.49-9.44,38-17,16-10.46,27.82-22.66,38.63-38.32,8.13-11.78,13.41-25.31,18.85-38.46,4.52-10.91,8.67-22,12.62-33.12,8.09-22.8,15-46.08,19.42-69.9,5.67-30.67,8.77-62,4.81-93.11l-1.79-13.3a37.71,37.71,0,0,0-9-17,25,25,0,0,0-9-9,37.71,37.71,0,0,0-17-8.95c-10.58-4.41-22.69-6-34-6.4-11.5-.45-23.54,1.35-34.63,4.26-23.12,6.08-42.81,18.69-60.77,34.05-12.65,10.82-23.21,23.82-33.41,36.9Q839,248.72,821.88,271L782,322.59,867.36,358c.17-1.48.35-2.95.54-4.42l-1.79,13.29a222.37,222.37,0,0,1,15.16-55.63l-5,11.94A235.18,235.18,0,0,1,906,272l-7.82,10.12a232.38,232.38,0,0,1,40.7-40.9L928.8,249a221.16,221.16,0,0,1,36.4-22.78l10.12-7.81,7.82-10.12c5.69-9.73,7.41-20.86,5.93-31.88a47.36,47.36,0,0,0-9.84-23.65c-6.32-8.17-15.57-15.71-26-17.92a192.07,192.07,0,0,0-48.76-4.38c-16.43.78-32.82,3.35-49,6-25.49,4.15-50.18,8.8-74.07,18.89a153.15,153.15,0,0,0-41.55,25.72,83.5,83.5,0,0,0-10.1,10.24c-5.69,6.87-11.52,14-15.82,21.88a114.17,114.17,0,0,0-14.16,50.42,56.9,56.9,0,0,0,.13,6.66c.9,13.11,4.57,26.12,14.64,35.36A74.39,74.39,0,0,0,726,314.16c14.66,8.79,34.38,9.83,50.42,4.64,16.59-5.36,31.51-15.62,46.45-24.35l39.55-23.11-60.59-78.53a184.19,184.19,0,0,1-21.7,19.9l10.11-7.82a183,183,0,0,1-39.5,23l11.94-5A185.9,185.9,0,0,1,741,230.37a51.8,51.8,0,0,0-29.88,23c-6.27,10.72-8.93,26.52-5,38.53s11.41,23.77,23,29.88c11.89,6.29,25.3,8.71,38.53,5,39.63-11,76.9-33.08,104.93-63.27,17.06-18.36,19.41-45.6,3.91-65.65C861.41,178.38,833.68,172.3,812,185l-37,21.6c-11.64,6.81-23.2,14.87-35.58,20.25l12-5a33.8,33.8,0,0,1-6.08,1.75l13.3-1.79a21,21,0,0,1-4.48,0l13.29,1.79a11.88,11.88,0,0,1-2.85-.81l11.94,5-1.37-.69,24.77,43.17a57.91,57.91,0,0,1,.35-11.77l-1.79,13.29a63.77,63.77,0,0,1,4-14.07l-5,11.94a76.69,76.69,0,0,1,9-15.4l-7.82,10.12a89.34,89.34,0,0,1,14.92-15l-10.12,7.82a106.43,106.43,0,0,1,22.52-13l-12,5c26-10.91,55.32-14.86,83.13-18.62l-13.3,1.79c15.61-2,31.29-3,47-1l-13.29-1.78c3.1.44,6.18,1,9.25,1.64L914.73,139.9c-16.84,8.35-31.74,19-46.52,30.59A230.8,230.8,0,0,0,836,201.05a293.15,293.15,0,0,0-55.92,96c-6.94,19.76-10.32,40.11-12.68,60.89l1.79,13.29,5,11.94a49.49,49.49,0,0,0,23.91,20.46A47.83,47.83,0,0,0,824,407.06c9.8-1.32,22.38-5.57,28.71-13.76l57.39-74.22C927.18,297,943.52,273.34,965.72,256l-10.12,7.82a106,106,0,0,1,21.18-12.64l-11.95,5a88.92,88.92,0,0,1,21.69-6.13l-13.3,1.79a72.27,72.27,0,0,1,17.39-.13L977.32,250a61.77,61.77,0,0,1,15.22,4.16l-36.7-48.21a251.17,251.17,0,0,1-.65,65.05l1.79-13.3c-5.72,41.07-19.06,81.21-35.06,119.34l5-11.94c-4.36,10.21-9.34,20.09-16.08,29l7.82-10.12a78.9,78.9,0,0,1-12.61,12.7l10.12-7.82a94.65,94.65,0,0,1-20.68,11.77l12-5c-16,6.51-33.58,10.78-50.63,13.34l13.29-1.79a53.63,53.63,0,0,1-11.81.33l13.29,1.79a33.72,33.72,0,0,1-8-2.15l22.06,83.57L998.24,355.14c8.69-10.45,14.65-21.3,14.65-35.35,0-12.27-5.45-26.92-14.65-35.36-9.53-8.75-22-15.24-35.35-14.64l-13.3,1.78a50,50,0,0,0-22.06,12.86q-9.66,8.18-19.66,15.93L918,292.54a591.13,591.13,0,0,1-130.77,76.29l11.94-5a588.55,588.55,0,0,1-149.27,40.75l13.29-1.78-5,.64,35.35,85.36c23.94-26.59,53.42-47.07,79.92-70.88,30.27-27.19,55.2-59.53,68.49-98.31,5.68-16.59-.85-36.63-12.86-48.65a50.6,50.6,0,0,0-48.65-12.85c-32.36,8.45-64.22,22.79-91.42,42.33-15.28,11-30.08,22.83-43.1,36.45S620,365.47,612,382.47C601.6,404.28,595.72,428,598.1,452.25A223.14,223.14,0,0,0,612.54,513c5.76,14.67,10.92,28,21.82,39.67a65.13,65.13,0,0,0,48.4,20.16c13.53-.41,25.06-4.89,35.63-13.06,10-7.7,17.85-18.67,21-31.08C743,514,741.72,499,736.94,484.79c-11.58-34.49-27-68.13-46.66-98.79q-6.69-10.44-14-20.45c-4.39-6-8.78-12.17-13.6-17.79-9.8-11.41-25.82-18.06-40.67-18.28-29.74-.44-54.89,26.79-68.12,51.2C542.41,401.8,537.27,423.24,535,447c-2.07,21.6,1.11,43.8,5.06,65,2.94,15.73,7,31.21,13.19,46,4.54,10.89,9,21.69,15.41,31.62,8,12.32,17.3,24.85,30.63,31.8a58.15,58.15,0,0,0,15.06,5.75c11.25,2.23,13.62,2,23.4.65a90.71,90.71,0,0,0,18.6-4.69q12-4.19,23.77-8.73,28.41-10.94,56.14-23.6a800.45,800.45,0,0,0,88.53-47.22q10.79-6.64,21.34-13.64l-60.59-78.53a186,186,0,0,0-38,64.53c-6.18,17.83-6.69,37.1-13.77,54.66l5-11.95a75.56,75.56,0,0,1-9.61,16.28L737,564.75a85.51,85.51,0,0,1-13.43,13.33l10.12-7.82a95.72,95.72,0,0,1-20.3,11.91l11.94-5a98.53,98.53,0,0,1-24.19,6.64L714.46,582a116.43,116.43,0,0,1-29.49-.19l13.29,1.79a148.21,148.21,0,0,1-35.64-10l11.94,5c-16.51-7-31.63-16.62-45.85-27.53l10.12,7.81c-15.2-11.82-29.26-25-43.15-38.3-18.06-17.32-45.84-19.21-65.65-3.91-8.26,6.39-15.54,15.51-17.92,26-2.79,12.23-2.86,28,5,38.53,6.6,8.77,13.17,17.6,21.12,25.21A206.44,206.44,0,0,0,564,626.9l11.94,5a37.91,37.91,0,0,0,19.94.89c10.49-1.41,21.34-5.72,28.71-13.75A59.63,59.63,0,0,0,637.49,597c3.68-11.37,1.59-28.5-5-38.53a44.24,44.24,0,0,1-3.58-6.55l5,11.94a43.94,43.94,0,0,1-2.68-10.09L633,567.08a46.23,46.23,0,0,1,0-10.45l-1.78,13.29a43.92,43.92,0,0,1,2.78-10.06l-5,11.95a48.15,48.15,0,0,1,5.66-9.18l-7.82,10.12c4.89-6.26,10.53-12.24,14.37-19.23a73.48,73.48,0,0,0,9.49-34.62c.23-10.18-2.35-19.18-6.2-28.3a80.54,80.54,0,0,0-16.21-24.77c-11.2-12-25.62-19-40.8-24.37-9.07-3.21-18.53-5.08-27.45-8.73l11.94,5a61.71,61.71,0,0,1-12.73-7.5l10.12,7.82a91.2,91.2,0,0,1-14.7-15.27l7.82,10.12A225.55,225.55,0,0,1,535,384.58l5,11.94A247.61,247.61,0,0,1,523.43,336l1.79,13.29a228.27,228.27,0,0,1-1-55.65l-1.79,13.29a23,23,0,0,1,1.37-5.22l-5,11.94a8.54,8.54,0,0,1,1.39-2.12l-7.82,10.12.94-.83-10.12,7.82,1.11-.64-11.95,5,1.47-.44-13.29,1.79a8.4,8.4,0,0,1,3,.11l-13.29-1.79a32.56,32.56,0,0,1,4.52,1.55l-11.94-5a1273.45,1273.45,0,0,1,138.81,70.62V313.45a143.68,143.68,0,0,1-23.89,13.05l11.95-5a141.32,141.32,0,0,1-34.42,9.41l13.29-1.78c-1.69.21-3.38.41-5.08.58A37.66,37.66,0,0,0,544.2,334a37.39,37.39,0,0,0-16.09,10.33c-8.68,8.68-15.21,22.9-14.65,35.36C514,392.6,518.29,406,528.11,415c9.19,8.44,22.38,16,35.35,14.64Z" transform="translate(-263.75 -35.44)"/></svg>