<svg xmlns="http://www.w3.org/2000/svg" viewBox="0 0 747.65 723.09"><defs><style>.cls-1{fill:#fd7013;}.cls-2{fill:#70ab8f;}.cls-3{fill:#393e46;}</style></defs><title>tanpin</title><g id="レイヤー_2" data-name="レイヤー 2"><path class="cls-1" d="M586.15,502c-2.82-.86-5.57-1.84-8.3-3L591,504.62a88,88,0,0,1-18.92-11.19L583.2,502a90.71,90.71,0,0,1-14.49-14.56l8.6,11.13A87.24,87.24,0,0,1,566.85,481l5.55,13.13a46.76,46.76,0,0,1-2.51-7.16l2,14.62a7.74,7.74,0,0,1,0-3.07l-2,14.62.54-1.42-5.55,13.14.71-1L557,535l.9-.77-11.13,8.6,1-.58-13.13,5.54a10.42,10.42,0,0,1,2.39-.7l-14.62,2c4.55-.58,9.25,0,13.78.57l-14.62-2a102.2,102.2,0,0,1,24.56,6.77L533,548.85a109.93,109.93,0,0,1,23.28,13.62l-11.13-8.6a110.31,110.31,0,0,1,19,19.1l-8.6-11.13a103.24,103.24,0,0,1,12.21,20.75l-5.55-13.14a101.69,101.69,0,0,1,4.23,12.08,57,57,0,0,0,25.27,32.87c11.79,6.9,29.17,9.82,42.38,5.54s26.15-12.55,32.87-25.27c6.9-13.07,9.62-27.86,5.55-42.38-6.64-23.69-18.9-44.26-35.09-62.59a142.86,142.86,0,0,0-47.63-35.27c-25.94-11.56-55.41-20.23-83.85-13-34,8.68-53,48.37-40.21,80.5,5.77,14.46,11.49,25.57,20.87,37.71a139,139,0,0,0,70.28,48.42c13.44,4.09,30.38,1.48,42.38-5.54,11.41-6.68,22.29-19.76,25.28-32.87,3.21-14.08,2.51-29.89-5.55-42.38-7.88-12.24-18.75-21-32.87-25.28Z" transform="translate(-332.25 -22.53)"/><path class="cls-1" d="M754.24,311l-1.48-.61,13.14,5.54a119.43,119.43,0,0,1-24.78-14.37l11.13,8.6a120.47,120.47,0,0,1-21.43-21.32l8.6,11.14a49.6,49.6,0,0,1-5.09-7.54l5.55,13.14-.33-1.3,2,14.62v-1.07l-2,14.62.25-1-5.55,13.13.47-.86-8.6,11.13a5.88,5.88,0,0,1,1.45-1.45L716.46,362a10,10,0,0,1,2-1.07l-13.14,5.54a21.68,21.68,0,0,1,3.47-.94l-14.63,2c5.07-.61,10.35-.07,15.39.56l-14.62-2A94.93,94.93,0,0,1,717,372.07l-13.14-5.55a94.59,94.59,0,0,1,19.83,11.34l-11.13-8.6c1.73,1.34,3.41,2.72,5.05,4.16,11.1,9.68,23.79,16.11,38.89,16.11,13.49,0,29.61-6,38.89-16.11,9.63-10.48,16.77-24.24,16.11-38.89-.62-14-5.16-29.34-16.11-38.89C777.44,280,757.1,267.73,733.79,261.9a146.07,146.07,0,0,0-35.68-4.59c-21.39.12-40.85,8.26-54.06,25.36a59.37,59.37,0,0,0-.58,71.55c6.87,9.31,13.94,18.64,22.45,26.54A194.65,194.65,0,0,0,693.45,402c9.91,6.31,20.7,10.57,31.54,15.05a41.69,41.69,0,0,0,21.94,1,40.94,40.94,0,0,0,20.45-6.53c11.4-6.67,22.28-19.76,25.27-32.87,3.21-14.08,2.51-29.88-5.54-42.38l-8.6-11.13A55,55,0,0,0,754.24,311Z" transform="translate(-332.25 -22.53)"/><path class="cls-1" d="M974.66,141.67q-21.88-15.75-43.45-31.93l11.13,8.6A26.51,26.51,0,0,1,938,114l8.6,11.13-.77-1.27L951.34,137a6.5,6.5,0,0,1-.76-2.62l2,14.62.11-1.32-2,14.62.51-1.29-5.55,13.14.72-1-8.6,11.13.91-.78-11.13,8.6a10.41,10.41,0,0,1,2.16-1.15l-13.14,5.54a26.06,26.06,0,0,1,4.93-1.19l-14.63,2a32.74,32.74,0,0,1,5,.1l-14.62-2a43.55,43.55,0,0,1,10,3l-13.14-5.54c11.32,5.19,21.85,12.4,31.71,20l-11.14-8.6a213,213,0,0,1,29.46,27.89c8.88,10.19,25.76,16.11,38.89,16.11,13.49,0,29.6-6,38.89-16.11,9.62-10.48,16.76-24.24,16.11-38.89-.68-15.15-6.11-27.43-16.11-38.89-13.19-15.13-28.48-27.67-44.64-39.55C957.88,100.49,935,87.7,910.23,87.23c-28-.53-57.7,16.08-65.1,44.52-4.12,15.81-3.06,33.36,5.68,47.62,6.92,11.29,14.44,17.48,24.88,25.35q21.52,16.23,43.45,31.93c11,7.87,29.9,9,42.38,5.54,12.76-3.51,26.58-13.37,32.87-25.27,6.74-12.77,10.12-28.23,5.54-42.38l-5.54-13.14a55.27,55.27,0,0,0-19.73-19.73Z" transform="translate(-332.25 -22.53)"/><path class="cls-2" d="M570.86,449A549.76,549.76,0,0,1,625,501.66c9.09,10.15,25.58,16.11,38.89,16.11,13.49,0,29.61-6,38.9-16.11,9.62-10.48,16.76-24.25,16.1-38.89-.67-15-6-27.6-16.1-38.89a549.86,549.86,0,0,0-54.14-52.71c-11.33-9.61-23.58-16.11-38.89-16.11-13.49,0-29.61,6-38.89,16.11-9.63,10.48-16.77,24.24-16.11,38.89.62,13.88,5.09,29.55,16.11,38.89Z" transform="translate(-332.25 -22.53)"/><path class="cls-2" d="M752.77,235.72C783.45,277,817.53,315,857.22,347.9A61.23,61.23,0,0,0,896.11,364c13.49,0,29.61-6,38.89-16.11,9.63-10.48,16.77-24.24,16.11-38.89-.61-13.78-5-29.73-16.11-38.89a581.45,581.45,0,0,1-88.29-91.06l8.6,11.13q-3.82-5-7.56-10a41.67,41.67,0,0,0-14.17-15.43,41.37,41.37,0,0,0-18.7-9.84c-13.17-3.63-30.7-2-42.38,5.54s-22.08,18.85-25.28,32.87c-3.08,13.51-3.1,30.74,5.55,42.38Z" transform="translate(-332.25 -22.53)"/></g><g id="レイヤー_1" data-name="レイヤー 1"><path class="cls-3" d="M562.81,608c-21.35-11.72-42.68-23.65-62.08-38.47l7.09,5.47a183.81,183.81,0,0,1-32.37-31.49l5.47,7.09a112.58,112.58,0,0,1-13.7-22l3.53,8.36a45.56,45.56,0,0,1-3.2-11.45l1.25,9.3a49.62,49.62,0,0,1,.14-9.12l-1.25,9.3c2.25-16.33,7.32-33.32,13.56-48.57l-3.53,8.37a102.12,102.12,0,0,1,12.67-22.35l-5.47,7.09a80.89,80.89,0,0,1,13.84-13.65l-7.08,5.48A100.12,100.12,0,0,1,511.47,460l-8.36,3.53a132.73,132.73,0,0,1,33.11-9.11l-9.3,1.25a74.09,74.09,0,0,1,17-.16l-9.31-1.25a61.08,61.08,0,0,1,13.6,3.74l-8.36-3.53c10.31,4.4,19.75,10.66,28.64,17.45l-7.09-5.47c17.87,13.92,33,30.84,46.78,48.69l-5.47-7.08c5.76,7.49,11.33,15.12,16.81,22.82s11.77,15.47,15.69,24.23l-3.53-8.36a38.45,38.45,0,0,1,2,6.57l-1.25-9.3a37.18,37.18,0,0,1,.09,8.63l1.25-9.31a90.74,90.74,0,0,1-6.32,21.42l3.53-8.36a130.72,130.72,0,0,1-16.42,28.22l5.47-7.09a134,134,0,0,1-23.06,23.14l7.08-5.47a128.74,128.74,0,0,1-26.83,15.86l8.36-3.53A88.68,88.68,0,0,1,563.11,614l9.31-1.25a57.46,57.46,0,0,1-13.87,0l9.3,1.25a44.47,44.47,0,0,1-8.71-2.34l8.36,3.53a40.85,40.85,0,0,1-6.64-3.66c-7.21-4.9-18.8-5.78-27-3.53S517,616.47,513,624.05c-9.37,17.73-3.65,36.86,12.55,47.88,28.78,19.57,66.47,10.61,95-4.23,23.86-12.42,43.7-31.66,58.75-53.76,7.57-11.1,13.2-23.5,17.73-36.1a98.8,98.8,0,0,0,5.42-25.17c1-11.65-2-22.43-6.82-32.87-5.14-11.15-13.37-21.09-20.54-31-8.58-11.87-17.42-23.58-26.78-34.83-17.28-20.78-37.51-39.72-60.82-53.6-15.55-9.26-32.85-15.33-51.12-15.31-15.25,0-31.37,3.35-45.74,8.57-29.77,10.81-55.57,29.58-70,58.47a216.35,216.35,0,0,0-15.05,40.57c-4.7,17.55-8.72,34.92-5.29,53.14s15.27,34.26,26.63,48.41a178.61,178.61,0,0,0,27.69,27.35c22.73,18.23,47.38,32.87,72.87,46.86,16,8.8,38.89,4.46,47.89-12.56C584,639.47,580,617.39,562.81,608Z" transform="translate(-332.25 -22.53)"/><path class="cls-3" d="M703,491.68c-4.88-3.19-9.61-6.57-14.24-10.12L695.8,487c-21.72-16.9-40.37-37.18-58.73-57.58l-30.35-33.76c-10.42-11.6-21.44-22.87-31.25-35l5.47,7.08a39,39,0,0,1-4.38-7.06l3.52,8.36a23.69,23.69,0,0,1-1.26-4.54l1.25,9.31a12.45,12.45,0,0,1,0-3.11l-1.26,9.31a12,12,0,0,1,.83-3.06l-3.53,8.36a23.12,23.12,0,0,1,2.48-4l-5.47,7.09a63.67,63.67,0,0,1,8.75-7.81l-7.09,5.48a118.81,118.81,0,0,1,24.48-14.52l-8.36,3.52a35.09,35.09,0,0,1,6.89-1.93l-9.31,1.25a24.38,24.38,0,0,1,5,.1l-9.31-1.25a30.36,30.36,0,0,1,4.59,1.29l-8.36-3.53a53.15,53.15,0,0,1,11.13,6.87l-7.08-5.47c39.5,30.78,77.62,64.12,108.37,103.86l-5.47-7.08c7.78,10.15,16.85,21.08,22,32.87l-3.53-8.36a15.49,15.49,0,0,1,.88,3.2l-1.25-9.31a11,11,0,0,1,0,3.29l1.25-9.31a11,11,0,0,1-.94,3l3.53-8.36a29.86,29.86,0,0,1-2.63,4l5.47-7.09c-6.94,8.24-14.38,16.1-21.58,24.12-6.21,6.91-10.26,15.28-10.26,24.75,0,8.58,3.82,18.84,10.26,24.75,13.35,12.26,36.43,14.54,49.49,0,6.67-7.42,13.43-14.76,20-22.26,6-6.83,11.29-14,13.81-22.83,3.46-12.18,1-23.8-4.07-35C766.22,459,760.92,451.92,756,445c-6.55-9.22-13.49-18.19-20.65-26.94-22.48-27.49-48.55-51.83-75.82-74.5q-10-8.31-20.21-16.37c-10.71-8.47-20.78-17.07-34.22-20.85-28.11-7.91-55.55,10.45-76.19,27.6-13.23,11-20.52,27.41-18.21,44.58,2.1,15.67,10.9,27,21.18,38.48l41.35,46c29.07,32.34,57.71,65.08,94.4,89.14,15.34,10.06,39.37,3.56,47.88-12.56,9.25-17.5,3.82-37.15-12.55-47.89Z" transform="translate(-332.25 -22.53)"/><path class="cls-3" d="M769,447.22c-43.21-40.36-84.8-83.37-121.75-129.59l5.47,7.08a38,38,0,0,1-4.15-6.6l3.53,8.36a23.66,23.66,0,0,1-1.3-4.6l1.25,9.3a26,26,0,0,1,.09-5l-1.25,9.3a34.38,34.38,0,0,1,2-6.51l-3.53,8.36c3.69-8,9.22-15.16,14.53-22.12l-5.48,7.09c11.79-15.23,25.19-29.58,40.44-41.4l-7.09,5.47a75.32,75.32,0,0,1,14.13-8.55l-8.36,3.53a51.18,51.18,0,0,1,11.38-3.24l-9.3,1.25a61.06,61.06,0,0,1,15.75.15l-9.3-1.25a111.73,111.73,0,0,1,26.07,7.82l-8.36-3.53a145.33,145.33,0,0,1,30.63,17.93L747.27,295a129.7,129.7,0,0,1,21.81,21.62l-5.47-7.08a123.23,123.23,0,0,1,15.65,27.08l-3.53-8.36a246.47,246.47,0,0,1,15.61,59.23l-1.25-9.31a68,68,0,0,1,.13,16.63l1.25-9.3a49.32,49.32,0,0,1-2.67,9.76l3.52-8.36a54.71,54.71,0,0,1-7,11.7l5.47-7.08c-5.28,6.51-11.57,11.94-18.17,17.06l7.08-5.47c-8.5,6.5-17.16,13-27,17.41l8.36-3.53a48.88,48.88,0,0,1-11.23,3.22l9.3-1.25a38,38,0,0,1-8.26,0l9.3,1.25-1.67-.29c-9.51-1.64-18.36-1.51-27,3.53-7.26,4.25-14.18,12.57-16.08,20.92-2,9-1.6,19,3.52,27,4.66,7.23,12.09,14.56,20.92,16.08,11.38,2,19.55,2.19,31-.11,7.56-1.52,15-5,21.81-8.57,11.41-6,21.83-14.6,31.88-22.58,22.22-17.68,37.64-43.16,36-72.39-.79-14.1-4-28.13-7.28-41.82a223.76,223.76,0,0,0-10.11-32.29c-9.58-23.47-23.19-44.87-42.85-61.25-19.22-16-41.11-28.65-65.33-35.4-15.77-4.4-32.24-5.38-48.25-1.75-15.39,3.48-28.11,12.5-40.12,22.21-19.2,15.54-35.46,34.88-49.61,55-10.93,15.57-17.51,32.75-13.78,52,3,15.56,15,27.5,24.86,39.19A1360.14,1360.14,0,0,0,719.49,496.72c13.38,12.5,36.41,14.25,49.5,0,12.46-13.58,14.29-36.15,0-49.5Z" transform="translate(-332.25 -22.53)"/><path class="cls-3" d="M899.5,346.12c-53-50.79-103.52-104.58-150-161.5l5.48,7.09a24.85,24.85,0,0,1-3.28-5.37l3.53,8.36a12.52,12.52,0,0,1-.66-3l1.25,9.31a13.86,13.86,0,0,1,.06-3l-1.25,9.3a25.65,25.65,0,0,1,1.2-4.47l-3.53,8.36a32.4,32.4,0,0,1,3.1-5.43L750,212.86a38,38,0,0,1,6.8-6.73l-7.09,5.47A44.12,44.12,0,0,1,758,207l-8.36,3.53a51.7,51.7,0,0,1,10.73-2.88l-9.3,1.25a58,58,0,0,1,14.06-.11l-9.31-1.25a69.21,69.21,0,0,1,16.92,4.77l-8.36-3.53c10.09,4.44,19.14,10.62,27.88,17.3l-7.09-5.48c40.67,31.44,78.46,68,110.35,108.4l-5.47-7.09a48.49,48.49,0,0,1,5.3,8.45L891.82,322a25.37,25.37,0,0,1,1.67,6.21l-1.25-9.3a16.74,16.74,0,0,1,0,3.32l1.25-9.3a28,28,0,0,1-1.26,4.86l3.53-8.36c-3.22,7.5-8.73,14-13.5,20.57q-7.74,10.59-15.66,21c-5.11,6.75-5.66,19.24-3.53,27,2.24,8.12,8.51,16.92,16.08,20.92,8.13,4.29,18,6.44,27,3.53l8.36-3.53A35.16,35.16,0,0,0,927,386.32q10-13.15,19.65-26.55c8.37-11.59,16-24.35,15.66-39.28-.39-18.18-9.4-31.53-20.51-45q-9.19-11.16-18.86-21.94A669.81,669.81,0,0,0,836,172.12c-20-15.59-40.53-29.3-66.26-32.75-23.83-3.21-50.24,3.26-67.09,21.35-13,13.91-19.82,32.14-15.35,51.12,3.32,14.12,14.92,25.07,24,35.84q20,23.85,40.85,47Q799.15,347,850,395.61c13.23,12.67,36.52,14.14,49.49,0,12.6-13.72,14.13-36,0-49.49Z" transform="translate(-332.25 -22.53)"/><path class="cls-3" d="M957.42,262.7c-24-30.27-59.14-49.2-83.1-79.54l5.47,7.08a121.18,121.18,0,0,1-15.86-26.58l3.53,8.37A85.53,85.53,0,0,1,862,152.19l1.25,9.3a71.25,71.25,0,0,1,0-17.45L862,153.35a72.06,72.06,0,0,1,4.5-16.63l-3.53,8.36a89.15,89.15,0,0,1,11.67-19.61l-5.47,7.08c8.06-10.17,17.72-18.82,27.92-26.78L890,111.24c10-7.74,20.83-16.77,32.55-21.76L914.14,93a31.42,31.42,0,0,1,6.57-1.63l-9.31,1.25a33.84,33.84,0,0,1,6.75.23l-9.31-1.25a50.24,50.24,0,0,1,9.87,3l-8.36-3.53c16.41,7.29,31.77,17.78,46,28.65l-7.08-5.47a290,290,0,0,1,51.34,51l-5.48-7.09a117.92,117.92,0,0,1,14.82,24.16l-3.53-8.36a66.52,66.52,0,0,1,4.42,15.69l-1.25-9.3a54.74,54.74,0,0,1,0,12.92l1.25-9.31a62.24,62.24,0,0,1-3.77,13.73l3.53-8.36A88.4,88.4,0,0,1,999,208.69l5.48-7.08a155.86,155.86,0,0,1-26.84,26l7.09-5.47a176.54,176.54,0,0,1-36.53,21.35l8.36-3.53a178.19,178.19,0,0,1-23.12,7.95C915.73,252.67,903.17,273.07,909,291c5.87,18.14,24.11,29.53,43.06,24.44,23.78-6.39,46.94-17.11,66.71-31.84,24-17.93,44.56-39,55.8-67.28,11.47-28.82,3.45-61.2-13.53-86a289,289,0,0,0-51.1-56.47C990.77,57.52,969.49,41.48,946.48,31c-10.26-4.66-18.66-7.59-30-8.37s-22.32,2.71-32.39,7.81c-9.37,4.73-18.09,11.74-26.45,18-20,15.13-39.63,31.76-51.78,54.21C792.18,127.94,788.61,158,798,185.4c9.9,28.9,29,52.95,51.73,72.94,19.88,17.47,41.64,33,58.22,53.86,5.2,6.55,16.79,10.25,24.75,10.25,8.58,0,18.83-3.81,24.74-10.25,6.13-6.67,10.67-15.43,10.26-24.75l-1.25-9.3a35.06,35.06,0,0,0-9-15.45Z" transform="translate(-332.25 -22.53)"/><path class="cls-3" d="M436.29,587.64l-94,90.47c-18.51,17.81-10.15,52.56,15.45,58.5a27.11,27.11,0,0,1,4.21,1.34l-8.36-3.53a28.54,28.54,0,0,1,3.8,2.25l-7.08-5.47a27.89,27.89,0,0,1,3.19,3L348,727.17l.9,1.17c5.51,7.22,11.52,13.95,20.91,16.09,8.61,2,19.56,2,27-3.53,39.33-29.15,76.15-61.27,109.43-97.21,12.44-13.43,14.3-36.37,0-49.49-13.53-12.42-36.21-14.35-49.5,0a740.32,740.32,0,0,1-90.62,82.88l7.08-5.47q-5.82,4.49-11.72,8.85L409.33,693c-5.79-7.57-9.16-11.91-17.25-17.2a50.93,50.93,0,0,0-15.77-6.7l15.44,58.5,94-90.47c13.22-12.72,13.75-36.88,0-49.5-14.19-13-35.39-13.57-49.5,0Z" transform="translate(-332.25 -22.53)"/><path class="cls-3" d="M1031.63,125.21a175.8,175.8,0,0,1,25.66-24.63l-7.09,5.47,1.42-1.08-47.89-47.89a169.66,169.66,0,0,1-19.58,32.28l5.48-7.08q-1.11,1.43-2.25,2.82c-6,7.48-10.25,14.76-10.25,24.75,0,8.58,3.81,18.84,10.25,24.75,6.67,6.12,15.43,10.67,24.75,10.25,8.69-.39,19-3.17,24.75-10.25,10.63-13.2,20.15-26.78,27.29-42.19,3.42-7.35,5.26-14.09,4.16-22.32-1-7.34-4-14.93-9.63-20.09a41.73,41.73,0,0,0-15.44-9c-7.42-2.4-20.54-1.4-27,3.53-12.4,9.49-24,19.26-34.16,31.18-6.12,7.19-10.25,15-10.25,24.75,0,8.58,3.81,18.84,10.25,24.75,6.67,6.12,15.43,10.67,24.75,10.25,8.84-.4,18.79-3.25,24.75-10.25Z" transform="translate(-332.25 -22.53)"/></g></svg>