<svg id="レイヤー_1" data-name="レイヤー 1" xmlns="http://www.w3.org/2000/svg" viewBox="0 0 282.19 649.92"><defs><style>.cls-1{fill:#eee;}</style></defs><title>tare</title><path class="cls-1" d="M646.84,227.15c-31.06,65.63-62.16,131.36-87.2,199.52-16.57,45.09-30.57,92-30.74,140s15,97.81,49.61,131.13S669,744,711.15,720.9c33.72-18.43,53.71-56.18,58.65-94.28S766.48,549.89,755,513.21c-29.74-95.43-81.65-185.9-87.1-285.71-2.06-37.64,4.26-78.88,31.53-104.91" transform="translate(-509.08 -102.75)"/><path class="cls-1" d="M629.57,217.05c-20.75,43.86-41.51,87.73-60.49,132.39C550,394.33,531.19,440.06,519.5,487.53c-11,44.65-14.86,91.5-3.82,136.54,10.19,41.54,33.49,80.32,69.38,104.4,33.24,22.28,78.33,31.17,116.75,18.15,41-13.9,69.21-49.2,81.82-89.7C797.92,611,790.14,561.21,776.8,516,764,472.8,746.43,431.19,730.19,389.18c-15.91-41.17-30.8-83.1-38.33-126.73-.5-2.89-1-5.78-1.4-8.68-.17-1.16-.33-2.32-.5-3.48.58,4,.12.9,0,.08-.67-5.85-1.3-11.69-1.72-17.57a237.36,237.36,0,0,1-.38-29.7,126.55,126.55,0,0,1,1.25-13.75c-.1.61-.7,4.48-.06.78.17-1,.32-2,.5-3q.74-4.11,1.69-8.18a128.55,128.55,0,0,1,4-13.7c.6-1.68,2.19-6.33.7-2.15a59,59,0,0,1,3.52-7.35c2.08-4,4.56-7.54,7-11.28,1.64-2.53-3.12,3.59,0-.06.65-.75,1.27-1.52,1.92-2.26,1.65-1.88,3.39-3.67,5.18-5.41,7.51-7.3,7.88-21,0-28.28-8.08-7.42-20.27-7.79-28.29,0-29.77,28.93-38.72,72.11-37.66,112.24,1.16,43.69,11.6,86.88,25.39,128.16,13.85,41.46,31.11,81.66,46.41,122.59,7.58,20.28,14.76,40.76,20.61,61.62,3.16,11.26,5.91,22.65,8,34.17.5,2.8,1,5.6,1.37,8.4.61,4,.16,1.14.06.3q.28,2.34.54,4.68c.63,5.93,1,11.88,1.19,17.84.13,5.64,0,11.28-.32,16.91-.16,2.51-.4,5-.64,7.51-.39,4.19,0,.76.07-.09-.2,1.49-.43,3-.69,4.45a146.57,146.57,0,0,1-7.26,26.91,24.8,24.8,0,0,1-1.37,3.51c.29-.5,1.79-4,.25-.61-.84,1.82-1.67,3.65-2.57,5.44a129.49,129.49,0,0,1-7.44,13c-1.09,1.67-2.27,3.27-3.38,4.91-2.73,4,1.92-2.26,0,.09-.63.76-1.24,1.54-1.88,2.3a108.24,108.24,0,0,1-9.7,10.16c-1.64,1.5-3.36,2.89-5,4.33-2.31,2,3.94-2.67-.07,0-.82.55-1.61,1.14-2.43,1.69a92,92,0,0,1-12.2,7c-.63.31-3.49,1.72-.93.49,2.93-1.41-1.37.52-1.66.62q-2.7,1-5.48,1.86c-2.07.63-4.17,1.19-6.28,1.69s-5.75,1.85-7.8,1.49c.38.07,4.84-.49,1-.15-1,.08-1.92.19-2.88.27q-3.26.25-6.52.32a111.76,111.76,0,0,1-13.81-.57,28.83,28.83,0,0,1-2.91-.34c4.75,1,2,.29,1,.08-2.41-.47-4.81-.87-7.21-1.42a126.07,126.07,0,0,1-12.76-3.63,43.92,43.92,0,0,1-6.92-2.6c.49.27,4,1.82.69.26l-2.69-1.24A129.5,129.5,0,0,1,609,696.33c-1.88-1.17-3.74-2.38-5.56-3.65L601,691c-3-2.09,0,.13.53.44-4.08-2.6-7.75-6.54-11.14-10-3.14-3.16-6.12-6.49-8.95-9.94-.7-.85-2.88-3.76-.27-.27-.63-.84-1.25-1.67-1.87-2.52q-2.29-3.18-4.43-6.47-3.84-5.94-7.13-12.19c-1-1.86-1.92-3.73-2.83-5.63-.57-1.18-1.12-2.37-1.66-3.57l-1-2.16q1.32,3.18.49,1.14a211.57,211.57,0,0,1-8.91-27.94q-1.56-6.58-2.68-13.28c-.21-1.24-1.58-8.47-.56-3.36a75.08,75.08,0,0,1-.86-7.93,232.5,232.5,0,0,1-.67-30q.33-8.39,1.19-16.74c.12-1.23.26-2.47.4-3.7,0,.21.71-5.85.33-2.89s.46-3.09.43-2.89c.23-1.53.47-3.07.73-4.6,7.56-45.65,24.08-89.53,41.28-132.3q3.06-7.59,6.19-15.16,1.67-4,3.35-8c-1.26,3,0-.05.23-.55.75-1.77,1.51-3.55,2.27-5.32q6.82-15.94,13.92-31.77c9.71-21.71,19.74-43.28,29.86-64.8q7.38-15.71,14.82-31.38c4.47-9.44,2.94-22-7.17-27.36-8.9-4.7-22.59-2.92-27.37,7.17Z" transform="translate(-509.08 -102.75)"/><path class="cls-1" d="M661.16,246.94q5.05-17,11-33.75,2.91-8.13,6.05-16.18,1.56-4,3.19-8c.48-1.19,1-2.37,1.45-3.55.06-.14,2.45-5.8,1-2.3,2.2-5.17,3.57-9.76,2-15.41-1.27-4.64-4.86-9.67-9.19-12-8.57-4.53-23-3.1-27.36,7.18a685.22,685.22,0,0,0-26.7,73.36c-3,10,3.58,22.23,14,24.6,10.75,2.45,21.42-3.23,24.61-14Z" transform="translate(-509.08 -102.75)"/></svg>