<svg xmlns="http://www.w3.org/2000/svg" viewBox="0 0 342.08 709.91"><defs><style>.cls-1{fill:#393e46;}.cls-2{fill:#eee;}</style></defs><title>tare</title><g id="レイヤー_1" data-name="レイヤー 1"><path class="cls-1" d="M619.41,733.88a173.53,173.53,0,0,1-95.54-29.28c-40-26.85-69.07-70.24-81.81-122.17-11-45-9.75-95.77,3.82-150.86C458,382.32,477,336,497,288.92c17.34-40.79,36.27-81.21,55.77-122.46l5.17-11.06a46,46,0,0,1,16.86-19c4.94-40.45,20.41-74.24,45.1-98.22A49.77,49.77,0,0,1,654.72,24a51.18,51.18,0,0,1,34.65,13.6A49.1,49.1,0,0,1,704.84,73,50.05,50.05,0,0,1,690,109.46c-1.4,1.37-2.56,2.58-3.53,3.69a2.25,2.25,0,0,0-.21.24l-.68,1c-1.62,2.45-3,4.57-4,6.39l-.25.49-.27.48c-.46.8-.88,1.64-1.27,2.5s-.59,1.72-.8,2.3A98.94,98.94,0,0,0,676,137c-.52,2.22-1,4.47-1.39,6.7-.08.42-.14.85-.21,1.27l-.25,1.51-.11.64c-.34,2.75-.56,5.55-.67,8.31v.42a207.91,207.91,0,0,0,.33,25.94c.38,5.3,1,10.62,1.52,15.61l.49,3.44c.34,2.47.79,5,1.25,7.74,6.72,38.89,19.55,76.51,36.76,121,3.44,8.91,7,18,10.5,26.81l.08.2c13,32.92,26.4,67,36.81,102.1,18.34,62.15,20.53,113.94,6.71,158.36-16.6,53.29-53.35,93.09-100.83,109.19a147.76,147.76,0,0,1-47.54,7.64Zm-8.52-100.51a81.16,81.16,0,0,0,8.32.42h1.68c1.57,0,3.17-.11,4.75-.23l.68-.07,2-.19c.85-.24,1.63-.45,2.42-.64,1.58-.37,3.08-.77,4.48-1.2,1-.31,2.1-.68,3.19-1.07l1.23-.53a60.76,60.76,0,0,0,7.7-4.47l.13-.08.58-.41.58-.41.65-.56c.78-.65,1.52-1.27,2.2-1.9a78.65,78.65,0,0,0,7-7.28l.42-.51c.41-.61.85-1.24,1.3-1.87l.11-.16c.44-.62.88-1.24,1.3-1.89a100.16,100.16,0,0,0,5.71-10c.6-1.19,1.17-2.43,1.83-3.86l.19-.42.1-.35.35-.92a116.65,116.65,0,0,0,5.76-21.35l0-.17c.09-.54.18-1.07.26-1.58l.07-.73c.21-2.2.41-4.27.53-6.19.29-5.07.38-9.76.27-14.31-.18-5.55-.51-10.61-1-15.44-.12-1.07-.25-2.23-.39-3.41l-.12-.82c-.28-2.12-.71-4.51-1.16-7-1.77-9.78-4.18-20.05-7.35-31.35-4.8-17.1-10.91-35.37-19.83-59.23-5.5-14.71-11.39-29.68-17.1-44.16-10.14-25.76-20.62-52.37-29.66-79.42q-.75-2.24-1.47-4.44c-3.4,7.68-6.76,15.39-10,23-.74,1.71-1.45,3.39-2.16,5.06l-.27.63q-1.67,4-3.32,7.94c-2,4.79-4,9.79-6,14.82-16,39.87-32.3,82.45-39.51,126-.25,1.46-.46,2.81-.66,4.16l-.08.52c-.07.58-.15,1.16-.23,1.75s-.14,1.14-.2,1.65l-.12.88c-.12,1-.23,2.09-.34,3.13v.11c-.51,4.94-.86,10-1.06,14.9a204.57,204.57,0,0,0,.58,26.22l.07,1a45.26,45.26,0,0,0,.52,4.76l.36,2.24c.07.4.13.73.16.93.64,3.82,1.41,7.62,2.28,11.3a181.41,181.41,0,0,0,7.12,22.59l.49,1c.42,1,.86,1.89,1.31,2.82.68,1.43,1.45,3,2.24,4.48l.08.15c1.79,3.41,3.75,6.76,5.82,10,1.11,1.7,2.3,3.44,3.52,5.14l.52.69.54.7c2.32,2.83,4.68,5.44,7,7.81l1.21,1.22c1.42,1.47,3,3.08,4.14,4.09l1.11.76,2.43,1.67c1.31.92,2.67,1.81,4.3,2.82a99.3,99.3,0,0,0,9.3,5.09l2.62,1.21.7.33c.32.12.65.22,1,.32l.79.22.76.26a93.61,93.61,0,0,0,9.74,2.77c1.07.25,2.33.48,3.78.75Z" transform="translate(-434.64 -23.97)"/><path class="cls-1" d="M619.41,713.88A153.31,153.31,0,0,1,535,688c-35.87-24.07-62-63.24-73.53-110.33-10.25-41.84-9-89.38,3.82-141.31,11.78-47.8,30.41-93.32,50.09-139.61,17.65-41.52,37.09-82.92,56.1-123.12h0L576,164a26.86,26.86,0,0,1,17.59-14.26c2.84-40.82,16.66-74.3,40.22-97.2A29.91,29.91,0,0,1,654.72,44a31.21,31.21,0,0,1,21.12,8.34,28.91,28.91,0,0,1,9,20.91,30,30,0,0,1-8.8,21.9c-1.78,1.74-3.3,3.32-4.63,4.84-.3.34-.6.7-.89,1.05l-.35.42-1.29,1.95a92.85,92.85,0,0,0-5,8.19l-.09.17-.09.15a49.28,49.28,0,0,0-2.53,5.16c-.31.9-.72,2.08-1,2.78a119.84,119.84,0,0,0-3.68,12.6c-.59,2.54-1.12,5.13-1.58,7.68-.1.55-.19,1.09-.28,1.64l-.21,1.27c-.08.47-.14.82-.19,1.09-.44,3.49-.73,7-.86,10.56v.14a227,227,0,0,0,.37,28.45c.4,5.68,1,11.41,1.63,16.79h0l.5,3.48c.39,2.81.86,5.54,1.36,8.42,7,40.51,20.17,79.2,37.8,124.84,3.5,9,7.12,18.24,10.63,27.13,12.82,32.53,26.08,66.17,36.24,100.45,17.18,58.22,19.4,106.22,6.79,146.73-14.67,47.12-46.8,82.18-88.15,96.2a127.72,127.72,0,0,1-41.12,6.58Zm-10.87-60.65.2,0a101.54,101.54,0,0,0,10.47.54c.7,0,1.4,0,2.1,0,2,0,4-.14,6-.29l1.12-.11,1.73-.16,1.72-.13c.47-.12,1-.26,1.33-.37.82-.23,1.59-.44,2.24-.6,2-.47,3.88-1,5.67-1.53,1.57-.48,3.19-1,4.77-1.61l.69-.3,1.4-.6a83.55,83.55,0,0,0,10.7-6.16c.4-.27.74-.5,1.07-.74l1.2-.84,1.36-1.16c1-.83,1.89-1.61,2.74-2.39a96.77,96.77,0,0,0,8.79-9.2c.33-.39.64-.78,1-1.16l.21-.26.12-.19c.47-.69,1-1.4,1.48-2.12s1.21-1.72,1.79-2.61a118.53,118.53,0,0,0,6.86-12c.72-1.43,1.39-2.88,2.09-4.42l.66-1.42c.12-.32.23-.64.33-1l.09-.3.11-.29a136.78,136.78,0,0,0,6.77-25.07c.16-.93.3-1.81.43-2.69l.11-1.12c.23-2.43.45-4.73.59-7,.32-5.64.43-10.91.31-16.05-.2-6.06-.57-11.65-1.14-17-.14-1.29-.3-2.62-.45-3.95l-.12-.78c-.34-2.57-.81-5.18-1.3-7.94-1.89-10.45-4.44-21.33-7.78-33.24-5-17.66-11.23-36.42-20.35-60.82-5.56-14.86-11.49-29.92-17.23-44.49-10-25.49-20.43-51.86-29.3-78.43-6.65-19.9-11.94-38.5-16-56.21-6,13-12.61,27.29-19,41.66-4.7,10.48-9.36,21.12-13.85,31.62l-2.26,5.29-.22.52h0l-3.34,8c-2,4.95-4.11,10-6.14,15-16.45,40.91-33.15,84.67-40.69,130.2-.26,1.5-.49,3-.71,4.45h0c-.08.85-.21,1.74-.34,2.69-.06.55-.14,1.22-.21,1.78q-.06.5-.15,1h0c-.13,1.18-.27,2.36-.38,3.54-.56,5.38-.94,10.8-1.15,16.16a222.2,222.2,0,0,0,.64,28.74l0,.32a66,66,0,0,0,.74,6.88h0c0,.21.08.43.12.65.2,1.1.4,2.2.47,2.63.71,4.25,1.57,8.5,2.55,12.64a202,202,0,0,0,8.16,25.76l.65,1.41c.51,1.12,1,2.23,1.55,3.33.76,1.58,1.65,3.42,2.63,5.24q3.13,5.94,6.72,11.49c1.33,2,2.73,4.08,4.15,6.06l.52.71.18.23c.29.38.79,1,1,1.34,2.71,3.31,5.51,6.42,8.32,9.24l1.08,1.11a75.41,75.41,0,0,0,6.57,6.24c.54.33,1.06.69,1.58,1.06l2.39,1.64c1.6,1.12,3.28,2.22,5.18,3.4a120,120,0,0,0,11.36,6.21l2.62,1.21,1.24.59a34,34,0,0,0,3.52,1.21l.26.07.26.09a114.67,114.67,0,0,0,11.75,3.34c1.46.34,3,.62,4.57.92.77.14,1.55.28,2.33.44l.36.07Z" transform="translate(-434.64 -23.97)"/><path class="cls-1" d="M597.09,242.67a52.53,52.53,0,0,1-11.64-1.32,48.89,48.89,0,0,1-31.09-23.23,49.86,49.86,0,0,1-5-39.24,719.9,719.9,0,0,1,27.87-76.59c7.25-17.09,24.3-27.77,44.45-27.77a52.55,52.55,0,0,1,24.49,5.92l.13.07c11.3,6.08,20.49,17.78,24,30.53,4.06,14.6.35,26.42-3.33,35.08l-1.12,2.63c-.22.55-.45,1.11-.69,1.66-.14.36-.29.69-.42,1-1.07,2.63-2.08,5.16-3.07,7.68-2,5.08-3.91,10.25-5.75,15.39-3.2,9-6.25,18.24-9.06,27.45l-1.37,4.66A50.1,50.1,0,0,1,597.09,242.67Z" transform="translate(-434.64 -23.97)"/><path class="cls-1" d="M597.09,222.67a32.45,32.45,0,0,1-7.2-.82A28.84,28.84,0,0,1,571.64,208a29.75,29.75,0,0,1-3.1-23.41,697.29,697.29,0,0,1,27.09-74.44c4.09-9.65,14.09-15.67,26.07-15.67a33,33,0,0,1,15.15,3.6A30.6,30.6,0,0,1,651,116.32c2.4,8.62.24,15.66-2.44,22h0l-.9,2.13c-.29.76-.61,1.53-.93,2.29-.18.42-.35.84-.52,1.26-1.08,2.66-2.13,5.28-3.15,7.9-2,5.25-4,10.61-5.95,15.91-3.87,10.9-7.51,22.06-10.81,33.15l0,0A30.22,30.22,0,0,1,597.09,222.67Z" transform="translate(-434.64 -23.97)"/><path class="cls-1" d="M619.08,693.76c-32.63,0-66.57-13.07-92-37.54-33.67-32.42-52.87-82.85-52.68-138.37.19-51.69,16-101.51,31.36-143.42,25.22-68.65,56.9-135.6,87.55-200.35l18.07,8.56C580.94,247,549.45,313.52,524.54,381.33c-14.8,40.28-29.95,88-30.13,136.59C494.24,568,511.2,613.16,541,641.81c21.68,20.87,50.48,32.06,77.95,32.06a89.13,89.13,0,0,0,43-10.53c28.5-15.57,48.51-48,53.54-86.79,5.12-39.51-5-79.08-14.43-109.14-9.55-30.66-21.68-61.46-33.41-91.24-24.76-62.89-50.36-127.91-54.13-196.91C611.54,144.72,616,97.14,648,66.57L661.85,81c-26.52,25.31-30.11,66.79-28.45,97.13C637,243.94,662,307.44,686.17,368.84,698,399,710.29,430.1,720.06,461.45c10,32,20.79,74.3,15.17,117.67-5.85,45.09-29.69,83.14-63.77,101.77C655.61,689.57,637.56,693.76,619.08,693.76Z" transform="translate(-434.64 -23.97)"/><path class="cls-2" d="M602.35,178.36c-31.06,65.63-62.16,131.36-87.2,199.52-16.57,45.09-30.57,92-30.74,140S499.41,615.69,534,649s90.49,46.2,132.64,23.1c33.72-18.43,53.71-56.18,58.65-94.28S722,501.1,710.51,464.42c-29.74-95.43-81.65-185.9-87.1-285.71-2.06-37.64,4.26-78.88,31.53-104.91" transform="translate(-434.64 -23.97)"/><path class="cls-2" d="M585.08,168.26c-20.75,43.86-41.51,87.73-60.49,132.39C505.51,345.54,486.7,391.27,475,438.74c-11,44.65-14.86,91.5-3.82,136.54,10.19,41.54,33.49,80.32,69.38,104.4,33.24,22.28,78.33,31.17,116.75,18.15,41-13.9,69.21-49.2,81.82-89.7,14.29-45.92,6.51-95.71-6.83-140.92-12.8-43.2-30.37-84.81-46.61-126.82-15.91-41.17-30.8-83.1-38.33-126.73-.5-2.89-1-5.78-1.4-8.68-.17-1.16-.33-2.32-.5-3.48.58,4,.12.9,0,.08-.67-5.85-1.3-11.69-1.72-17.57a239.29,239.29,0,0,1-.38-29.7,129.34,129.34,0,0,1,1.25-13.75c-.1.61-.7,4.48-.06.78.17-1,.32-2,.5-3q.75-4.11,1.69-8.18a130.17,130.17,0,0,1,4-13.7c.6-1.68,2.19-6.33.7-2.15A60.43,60.43,0,0,1,655,107a132.7,132.7,0,0,1,7-11.28c1.64-2.53-3.12,3.59,0-.06.65-.75,1.27-1.52,1.92-2.26,1.65-1.88,3.39-3.67,5.18-5.41,7.51-7.3,7.88-21,0-28.28-8.08-7.42-20.27-7.79-28.29,0C611,88.6,602.06,131.78,603.12,171.91c1.16,43.69,11.6,86.88,25.39,128.16,13.85,41.46,31.11,81.66,46.41,122.59,7.58,20.28,14.76,40.76,20.61,61.62,3.16,11.26,5.91,22.65,8,34.17.5,2.8,1,5.6,1.37,8.4.61,4,.16,1.14.06.3q.28,2.34.54,4.68c.63,5.93,1,11.88,1.19,17.84.13,5.64,0,11.28-.32,16.91-.16,2.51-.4,5-.64,7.51-.39,4.19,0,.76.07-.09-.2,1.49-.43,3-.69,4.45a146.57,146.57,0,0,1-7.26,26.91,23.41,23.41,0,0,1-1.37,3.51c.29-.5,1.79-4,.25-.61-.84,1.82-1.67,3.65-2.57,5.44a127.58,127.58,0,0,1-7.44,13c-1.09,1.67-2.27,3.27-3.38,4.91-2.73,4,1.92-2.26,0,.09-.63.76-1.24,1.54-1.88,2.3a108.24,108.24,0,0,1-9.7,10.16c-1.64,1.5-3.36,2.89-5,4.33-2.31,2,3.94-2.67-.07,0-.82.55-1.61,1.14-2.43,1.69a92.12,92.12,0,0,1-12.2,7c-.63.31-3.49,1.72-.93.49,2.93-1.41-1.37.52-1.66.62-1.8.67-3.62,1.29-5.48,1.86-2.07.63-4.17,1.19-6.28,1.69s-5.75,1.85-7.8,1.49c.38.07,4.84-.49,1-.15-1,.08-1.92.19-2.88.27-2.17.17-4.34.27-6.52.32a109.84,109.84,0,0,1-13.81-.57,28.83,28.83,0,0,1-2.91-.34c4.75,1,2,.29,1,.08-2.41-.47-4.81-.87-7.21-1.42a126.07,126.07,0,0,1-12.76-3.63,44,44,0,0,1-6.92-2.6c.49.27,4,1.82.69.26l-2.69-1.24a130.39,130.39,0,0,1-12.39-6.77c-1.88-1.17-3.74-2.38-5.56-3.65l-2.44-1.68c-3-2.09,0,.13.53.44-4.08-2.6-7.75-6.54-11.14-10-3.14-3.16-6.12-6.49-8.95-9.94-.7-.85-2.88-3.76-.27-.27-.63-.84-1.25-1.67-1.87-2.52q-2.28-3.18-4.43-6.47-3.84-5.94-7.13-12.19c-1-1.86-1.92-3.73-2.83-5.63-.57-1.18-1.12-2.37-1.66-3.57l-1-2.16c.88,2.12,1,2.5.49,1.14a211.57,211.57,0,0,1-8.91-27.94q-1.56-6.58-2.68-13.28c-.21-1.24-1.58-8.47-.56-3.36a77.81,77.81,0,0,1-.86-7.93,234.63,234.63,0,0,1-.67-30q.33-8.38,1.19-16.74c.12-1.23.26-2.47.4-3.7,0,.21.71-5.85.33-2.89s.46-3.09.43-2.89c.23-1.53.47-3.07.73-4.6,7.56-45.65,24.08-89.53,41.28-132.3q3.06-7.59,6.19-15.16l3.35-8c-1.26,3,0-.05.23-.55.75-1.77,1.51-3.55,2.27-5.32q6.82-15.94,13.92-31.77c9.71-21.71,19.74-43.28,29.86-64.8q7.38-15.7,14.82-31.38c4.47-9.44,2.94-22-7.17-27.36-8.9-4.7-22.59-2.92-27.37,7.17Z" transform="translate(-434.64 -23.97)"/><path class="cls-2" d="M616.67,198.15q5.05-17,11-33.75,2.91-8.13,6.05-16.18c1-2.67,2.11-5.33,3.19-8,.48-1.19,1-2.37,1.45-3.55.06-.14,2.45-5.8,1-2.3,2.2-5.17,3.57-9.76,2-15.41-1.27-4.64-4.86-9.67-9.19-12-8.57-4.53-23-3.1-27.36,7.18a687.39,687.39,0,0,0-26.7,73.36c-3,10,3.58,22.23,14,24.6,10.75,2.45,21.42-3.23,24.61-14Z" transform="translate(-434.64 -23.97)"/></g></svg>