<svg id="レイヤー_1" data-name="レイヤー 1" xmlns="http://www.w3.org/2000/svg" viewBox="0 0 389.59 647.85"><defs><style>.cls-1{fill:#393e46;}</style></defs><title>tenpojoho</title><path class="cls-1" d="M419.8,442.52c4.2,84-15,167.71-2.7,251.5,1.44,9.84,2.31,21.6,7.16,30.47,6.62,12.14,19.36,12.62,31.54,13.94,11.46,1.24,25.15,4.55,32.71-7,5.75-8.76,3.89-22.12,4.16-32.23,1.15-43.51,2.4-87,3.15-130.55.85-49.2,1-98.42-.54-147.61-.25-7.83-6.73-15.37-15-15-7.92.36-15.27,6.6-15,15,2.45,78.79.57,157.61-1.51,236.38q-.42,16.06-.85,32.13l-.4,15.44-.23,8.69c0,1-.08,1.93-.08,2.89,0,4.55-.08.35.4-.28l5.38-5.38c5-3.34,5.38-.3,2.92-.89a26.74,26.74,0,0,0-3.1-.32l-7.39-.8-6.47-.7-3.69-.4c-.65-.07-4.09-.11-2.05-.23-2.19.12-5.74-4.19,2.64,3-.54-.46-.85-2.45-.2-.33-.56-1.82-.91-3.72-1.3-5.59q-1.67-7.86-2.9-15.81c-2.82-18-3.78-38-3.81-57.05-.06-40.35,4.22-80.52,6.46-120.77a652.2,652.2,0,0,0,.7-68.5c-.4-7.83-6.62-15.38-15-15-7.79.35-15.42,6.61-15,15Z" transform="translate(-352.88 -99.89)"/><path class="cls-1" d="M448.1,455.72c4.1-22-2.35-45.14-19.37-60.24a127.06,127.06,0,0,0-13.35-10.1c-2-1.36-4.06-2.69-6.08-4.05-1.13-.75-2.25-1.5-3.36-2.28-.31-.21-3.72-2.7-2.17-1.5-7.81-6-11.94-11.61-15.92-20.82.84,1.93-.42-1.17-.58-1.62-.36-1-.7-2-1-3-.72-2.3-1.35-4.64-1.87-7-.23-1-.45-2.1-.64-3.15.09.47-.68-4.71-.46-2.78-.13-1.2-.45-6.27-.5-8.78-.21-11.08,1.13-21.51,2.82-32q5.63-35,14.27-69.38,9.79-39,23.35-76.94H394.28a218.81,218.81,0,0,1,2.58,34.53c.07,11.74-.45,23.47-1,35.2-1.09,24.74-1.83,49.32,1.85,73.9,2,13.3,4.65,29.43,20.72,31.58,16.43,2.21,24.07-14.71,28.33-27.39,7.79-23.25,9.82-48.24,13.1-72.4l11.79-86.89-29.46-4,8.47,92.79c1.36,14.94,2.66,29.89,4.1,44.82s3.22,30,8.81,44c2.35,5.87,7.44,11.47,14.46,11,21.89-1.44,22.8-23.57,25-40.44s4.39-34,6.58-51q6.57-51,13.16-102l-29.47,4a870.27,870.27,0,0,1,16.54,136.8c.93,22.29,1.35,44.76.18,67-.13,2.48-.29,4.95-.51,7.41-.08.93-.63,5.95-.4,4.19a96,96,0,0,1-3.25,15.08c-2.38,7.89-6.47,14.69-12.57,21.47-8.72,9.72-16.1,19.36-21,31.54a80.9,80.9,0,0,0-5.61,35.89c.56,7.81,6.5,15.38,15,15,7.65-.34,15.6-6.62,15-15-.18-2.51-.27-5-.2-7.52,0-1.4.14-2.78.25-4.17,0-.19.4-2.89.1-1A61.07,61.07,0,0,1,500.88,432c-.74,1.73.73-1.4.91-1.74.62-1.25,1.28-2.47,2-3.68a58.34,58.34,0,0,1,3.66-5.59c-.9,1.2.83-1,.81-1,.74-.87,1.49-1.74,2.25-2.6,2.08-2.36,4.24-4.66,6.31-7,15-17.31,20.91-37.71,22.79-60.21s1.27-45.31.48-67.8q-1.22-35-5.17-69.8-4.62-40.65-12.66-80.8c-1.47-7.31-9.57-11.67-16.46-10.75-8,1.08-12,7.2-13,14.73L481.15,226l-5.82,45.1-2.78,21.58q-.39,2.94-.76,5.88c-.71,5.45.65-1.27-.4,2.42l-.31,1.26c-.56,1.66-.5,1.66.16,0l-.61,1.06q2.24-3.88,7.44-4.11l14.47,11c-5.14-12.84-6.7-24.85-7.91-37.77-1.41-15-2.74-30-4.11-45l-8.29-90.82c-.69-7.5-5.19-13.68-13-14.73-6.57-.88-15.45,3.35-16.46,10.75l-9.38,69.11c-3,22.3-5.36,44.84-9.6,66.95-1,5.13-2.13,10.24-3.51,15.29-.73,2.66-1.53,5.31-2.4,7.93-.39,1.17-.8,2.33-1.22,3.48-.14.39-1.77,4.83-1.11,2.85-.09.27-.9,2.64-.14.61l-.51.51q-6.17,5.85,14.43,3c-.09.15.48,2,.16-.21-.17-1.19-.57-2.41-.83-3.59a138.51,138.51,0,0,1-2.38-14.1c-2.35-21.43-1.23-43-.29-64.51,1.11-25.42,1.55-50.66-2.77-75.84-1.06-6.17-8.39-11.28-14.46-11-7,.31-12.15,4.52-14.47,11a829.21,829.21,0,0,0-36,136.87c-4.12,23.81-8.14,48.15-2.8,72.12,5,22.41,17.93,40,36.7,52.83,4.23,2.89,9.89,6.4,13.15,8.93a44.2,44.2,0,0,1,8.91,9.42c.54.86,1.05,1.74,1.53,2.63,0,0,1.95,4.22,1,1.94a47.29,47.29,0,0,1,2.19,7.28c.21,1,.43,2,.56,3-.36-2.76,0,1.51,0,2.06,0,1.27,0,2.54-.05,3.8,0,.76-.09,1.52-.17,2.28.22-1.48.17-1.3-.15.52-1.43,7.69,2.13,16.55,10.48,18.45,7.37,1.68,16.91-2.23,18.45-10.47Z" transform="translate(-352.88 -99.89)"/><path class="cls-1" d="M669,437.89c-2.29,86-4.58,172.28,4.17,258,1.09,10.67,1.93,21.32,6.44,31.2,4.31,9.41,12.87,17.28,23,19.81a30.1,30.1,0,0,0,30.21-10.28c7.45-9,9.79-20.17,9.64-31.7-.27-21.68-1.85-43.43-2.81-65.1l-2.84-64.48-6.42-145.83c-.34-7.83-6.65-15.38-15-15-7.83.35-15.37,6.6-15,15L711,670.57c.43,9.9.9,19.8,1.3,29.7.15,3.59.31,9.34-.15,11.72-.18.91-.45,1.79-.7,2.68-.77,2.78.93-1.47-.22.66-.35.65-.71,1.3-1.12,1.91,1.64-2.42-1,1.56,0,.12s-1.58,1.56-.3.37-2.09.78-.29.17c1.32-.46-.38,0-.83-.13s2.49.23,2.18.57a19.55,19.55,0,0,1-2.48-1.41c.29.2,1.42,1.23.23.06-.25-.25-2.17-2.51-1.2-1.22.83,1.11-1.29-2.46-1.23-2.33.15.32.55,1.42,0-.21a31,31,0,0,1-.94-3.16,57.85,57.85,0,0,1-1.14-5.69c.3,1.93-.09-.78-.11-1l-.39-3.61c-.28-2.62-.54-5.23-.8-7.84-3.89-39.55-5.45-79.29-5.79-119-.38-45,.81-90.06,2-135.07.21-7.85-7.05-15.36-15-15a15.3,15.3,0,0,0-15,15Z" transform="translate(-352.88 -99.89)"/><path class="cls-1" d="M699.07,461.59c-.58-13.4-2.08-27-5.72-39.95-3.71-13.21-10-25.46-16.07-37.71a224,224,0,0,1-21.08-68.61c.3,2.26-.4-3.45-.34-3-.16-1.46-.31-2.91-.44-4.37q-.4-4.38-.65-8.76-.49-9.21-.27-18.44a194,194,0,0,1,3.64-34.38,228.7,228.7,0,0,1,9.34-33.68c1.95-5.39,3.41-9,5.19-12.94q3.68-8.13,7.94-16a213.12,213.12,0,0,1,46.13-58.41c6-5.43,5.52-15.68,0-21.21-6-6-15.19-5.45-21.22,0a248.39,248.39,0,0,0-73.82,123c-12.44,50-8.84,104.18,10.68,151.89,5.54,13.55,13.43,26.94,18.55,40.08,5.58,14.34,7.5,27.57,8.14,42.41.33,7.83,6.66,15.38,15,15,7.84-.35,15.35-6.6,15-15Z" transform="translate(-352.88 -99.89)"/><path class="cls-1" d="M703.92,117.19c1.43,46.39-5,92.62-6.28,139-1.28,46.85.44,93.72,3.23,140.48,1.57,26.38,3.49,52.73,5.4,79.08.57,7.8,6.49,15.38,15,15,7.64-.35,15.61-6.62,15-15-3.4-46.77-6.79-93.54-8.28-140.41a1332.76,1332.76,0,0,1,3-140c1.9-26,3.75-52,2.95-78.05-.24-7.83-6.72-15.37-15-15-7.92.36-15.26,6.6-15,15Z" transform="translate(-352.88 -99.89)"/></svg>